<svg xmlns="http://www.w3.org/2000/svg" xmlns:xlink="http://www.w3.org/1999/xlink" id="Layer_1" x="0" y="0" enable-background="new 0 0 16 16" version="1.1" viewBox="0 0 16 16" xml:space="preserve"><g><path fill="#666" d="M5.9,5.8C6.1,6,6.4,6.1,6.6,6.1S7.1,6,7.3,5.8c0.4-0.4,0.4-1,0-1.4L5.2,2.3c-0.4-0.4-1-0.4-1.4,0L1.7,4.4 c-0.4,0.4-0.4,1,0,1.4s1,0.4,1.4,0l0.4-0.4v5.2l-0.4-0.4c-0.4-0.4-1-0.4-1.4,0s-0.4,1,0,1.4l2.1,2.1C4,13.9,4.2,14,4.5,14 s0.5-0.1,0.7-0.3l2.1-2.1c0.4-0.4,0.4-1,0-1.4s-1-0.4-1.4,0l-0.4,0.4V5.4L5.9,5.8z"/><path fill="#666" d="M10,5h4c0.6,0,1-0.4,1-1s-0.4-1-1-1h-4C9.4,3,9,3.4,9,4S9.4,5,10,5z"/><path fill="#666" d="M14,7h-4C9.4,7,9,7.4,9,8s0.4,1,1,1h4c0.6,0,1-0.4,1-1S14.6,7,14,7z"/><path fill="#666" d="M14,11h-4c-0.6,0-1,0.4-1,1s0.4,1,1,1h4c0.6,0,1-0.4,1-1S14.6,11,14,11z"/></g></svg>