<svg xmlns="http://www.w3.org/2000/svg" xmlns:xlink="http://www.w3.org/1999/xlink" id="Layer_1" x="0" y="0" enable-background="new 0 0 16 16" version="1.1" viewBox="0 0 16 16" xml:space="preserve"><g><path fill="#7B67EE" d="M5.7,4.3c-0.4-0.4-1-0.4-1.4,0l-3,3c-0.4,0.4-0.4,1,0,1.4l3,3C4.5,11.9,4.7,12,5,12s0.5-0.1,0.7-0.3 c0.4-0.4,0.4-1,0-1.4L3.4,8l2.3-2.3C6.1,5.3,6.1,4.7,5.7,4.3z"/><path fill="#7B67EE" d="M14.7,7.3l-3-3c-0.4-0.4-1-0.4-1.4,0s-0.4,1,0,1.4L12.6,8l-2.3,2.3c-0.4,0.4-0.4,1,0,1.4 c0.2,0.2,0.5,0.3,0.7,0.3s0.5-0.1,0.7-0.3l3-3C15.1,8.3,15.1,7.7,14.7,7.3z"/><path fill="#7B67EE" d="M8.9,2.2C8.4,2.1,7.8,2.4,7.8,3l-1.6,9.9C6.1,13.4,6.5,13.9,7,14c0.5,0.1,1.1-0.3,1.1-0.8l1.6-9.9 C9.8,2.8,9.4,2.2,8.9,2.2z"/></g></svg>