<svg xmlns="http://www.w3.org/2000/svg" xmlns:xlink="http://www.w3.org/1999/xlink" id="Layer_1" x="0" y="0" version="1.1" viewBox="0 0 15 15" style="enable-background:new 0 0 15 15" xml:space="preserve"><style type="text/css">.st0{fill:#7d8299}</style><title>viewtoolbar_icon_view_normal</title><desc>Created with Sketch.</desc><path d="M11.5,1.8h-8c-1,0-1.8,0.8-1.8,1.8v8c0,1,0.8,1.8,1.8,1.8h8c1,0,1.8-0.8,1.8-1.8v-8C13.2,2.5,12.5,1.8,11.5,1.8	z M3.2,6.6h1.8v1.8H3.2V6.6z M6.6,6.6h5.2v1.8H6.6V6.6z M11.8,3.5v1.6H6.6V3.2h4.9C11.6,3.2,11.8,3.4,11.8,3.5z M3.5,3.2h1.6v1.8	H3.2V3.5C3.2,3.4,3.4,3.2,3.5,3.2z M3.2,11.5V9.9h1.8v1.8H3.5C3.4,11.8,3.2,11.6,3.2,11.5z M11.5,11.8H6.6V9.9h5.2v1.6	C11.8,11.6,11.6,11.8,11.5,11.8z" class="st0"/></svg>