<svg xmlns="http://www.w3.org/2000/svg" xmlns:xlink="http://www.w3.org/1999/xlink" id="Layer_1" x="0" y="0" version="1.1" viewBox="0 0 16 16" style="enable-background:new 0 0 16 16" xml:space="preserve"><style type="text/css">.st0{fill-rule:evenodd;clip-rule:evenodd}</style><g><path d="M3,5h10c0.6,0,1-0.4,1-1s-0.4-1-1-1H3C2.4,3,2,3.4,2,4S2.4,5,3,5z" class="st0"/><path d="M3,9h7c0.6,0,1-0.4,1-1s-0.4-1-1-1H3C2.4,7,2,7.4,2,8S2.4,9,3,9z" class="st0"/><path d="M13,11H3c-0.6,0-1,0.4-1,1s0.4,1,1,1h10c0.6,0,1-0.4,1-1S13.6,11,13,11z" class="st0"/></g></svg>