<svg xmlns="http://www.w3.org/2000/svg" xmlns:xlink="http://www.w3.org/1999/xlink" id="Layer_1" x="0" y="0" enable-background="new 0 0 16 16" version="1.1" viewBox="0 0 16 16" xml:space="preserve"><g><path fill="#666" d="M5.9,5.8C6.1,6,6.4,6.1,6.6,6.1S7.1,6,7.3,5.8c0.4-0.4,0.4-1,0-1.4L5.2,2.3c-0.4-0.4-1-0.4-1.4,0L1.7,4.4 c-0.4,0.4-0.4,1,0,1.4s1,0.4,1.4,0l0.4-0.4v5.2l-0.4-0.4c-0.4-0.4-1-0.4-1.4,0s-0.4,1,0,1.4l2.1,2.1C4,13.9,4.2,14,4.5,14 s0.5-0.1,0.7-0.3l2.1-2.1c0.4-0.4,0.4-1,0-1.4s-1-0.4-1.4,0l-0.4,0.4V5.4L5.9,5.8z"/><path fill="#666" d="M14,2h-4C9.4,2,9,2.4,9,3v2c0,0.6,0.4,1,1,1h4c0.6,0,1-0.4,1-1V3C15,2.4,14.6,2,14,2z"/><path fill="#666" d="M14,8h-4C9.4,8,9,8.4,9,9s0.4,1,1,1h4c0.6,0,1-0.4,1-1S14.6,8,14,8z"/><path fill="#666" d="M14,12h-4c-0.6,0-1,0.4-1,1s0.4,1,1,1h4c0.6,0,1-0.4,1-1S14.6,12,14,12z"/></g></svg>