<svg xmlns="http://www.w3.org/2000/svg" xmlns:xlink="http://www.w3.org/1999/xlink" id="Layer_1" x="0" y="0" enable-background="new 0 0 1024 1024" version="1.1" viewBox="0 0 1024 1024" xml:space="preserve"><g><g><path fill="#888" d="M426.5,153.4c-1.2-1.3-2.4-2.5-3.7-3.7C408.4,136.2,389.2,128,368,128c-10.8,0-21,2.1-30.4,6 c-9.5,3.9-18.4,9.7-26.2,17.5L108,354.9c-31.2,31.2-31.2,81.9,0,113.1c31.2,31.2,81.9,31.2,113.1,0l66.9-66.9V816 c0,44.2,35.8,80,80,80s80-35.8,80-80V208c0-11.2-2.3-21.8-6.4-31.5C438,168.2,433,160.3,426.5,153.4z"/><path fill="#888" d="M916,556c-31.2-31.2-81.9-31.2-113.1,0L736,622.9V208c0-44.2-35.8-80-80-80c-44.2,0-80,35.8-80,80v608 c0,21.1,8.2,40.3,21.5,54.6c1.2,1.3,2.5,2.6,3.9,3.9c6.9,6.5,14.8,11.5,23.1,15.1c9.7,4.2,20.3,6.5,31.5,6.5s21.9-2.3,31.5-6.5 c8.3-3.6,16.1-8.6,23.1-15.1c0.7-0.7,1.5-1.4,2.2-2.1L916,669.1C947.2,637.9,947.2,587.2,916,556z"/></g><rect width="1024" height="1024" fill="#888" opacity="0"/></g></svg>