<?xml version="1.0" encoding="utf-8"?>
<!-- Generator: Adobe Illustrator 24.1.0, SVG Export Plug-In . SVG Version: 6.00 Build 0)  -->
<svg version="1.1" id="Layer_1" xmlns="http://www.w3.org/2000/svg" xmlns:xlink="http://www.w3.org/1999/xlink" x="0px" y="0px"
	 viewBox="0 0 16 16" enable-background="new 0 0 16 16" xml:space="preserve">
<path fill="#626262" d="M7.7,5.9l0-2.2c0-0.3-0.2-0.6-0.5-0.7C7,2.9,6.6,3,6.4,3.2L2.3,7.3c-0.3,0.3-0.3,0.8,0,1.1l4.1,4.1
	c0.1,0.1,0.3,0.2,0.5,0.2c0.1,0,0.2,0,0.3-0.1c0.3-0.1,0.5-0.4,0.5-0.7l0-2l0.5-0.1c2.2-0.4,4.4,0.4,5.8,2.1
	c0.3,0.3,0.5,0.2,0.4-0.1C13.8,8.7,10.7,5.8,7.7,5.9z"/>
</svg>
