<svg xmlns="http://www.w3.org/2000/svg" xmlns:xlink="http://www.w3.org/1999/xlink" id="Layer_1" x="0" y="0" enable-background="new 0 0 15 15" version="1.1" viewBox="0 0 15 15" xml:space="preserve"><title>datasheet_icon_rowhight_normal</title><desc>Created with Sketch.</desc><g><path fill="#7D8299" d="M7.8,4.2h5.4c0.4,0,0.8-0.3,0.8-0.8s-0.3-0.8-0.8-0.8H7.8C7.4,2.8,7,3.1,7,3.5S7.4,4.2,7.8,4.2z"/><path fill="#7D8299" d="M13.2,6.8H7.8C7.4,6.8,7,7.1,7,7.5s0.3,0.8,0.8,0.8h5.4c0.4,0,0.8-0.3,0.8-0.8S13.6,6.8,13.2,6.8z"/><path fill="#7D8299" d="M13.2,10.8H7.8c-0.4,0-0.8,0.3-0.8,0.8s0.3,0.8,0.8,0.8h5.4c0.4,0,0.8-0.3,0.8-0.8S13.6,10.8,13.2,10.8z"/><path fill="#7D8299" d="M5.7,6.2c0.1,0.1,0.3,0.2,0.5,0.2s0.4-0.1,0.5-0.2c0.3-0.3,0.3-0.8,0-1.1L4.7,3C4.4,2.7,3.9,2.7,3.6,3 L1.5,5.1c-0.3,0.3-0.3,0.8,0,1.1s0.8,0.3,1.1,0l0.8-0.8v4.6L2.5,9.1c-0.3-0.3-0.8-0.3-1.1,0s-0.3,0.8,0,1.1l2.1,2.1 c0.1,0.1,0.3,0.2,0.5,0.2s0.4-0.1,0.5-0.2l2.1-2.1c0.3-0.3,0.3-0.8,0-1.1S6,8.8,5.7,9.1L4.9,9.9V5.3L5.7,6.2z"/></g></svg>