<?xml version="1.0" encoding="utf-8"?>
<!-- Generator: Adobe Illustrator 24.1.0, SVG Export Plug-In . SVG Version: 6.00 Build 0)  -->
<svg version="1.1" id="Layer_1" xmlns="http://www.w3.org/2000/svg" xmlns:xlink="http://www.w3.org/1999/xlink" x="0px" y="0px"
	 viewBox="0 0 16 16" enable-background="new 0 0 16 16" xml:space="preserve">
<g>
	<path fill="#626262" d="M11,3H5C3.9,3,3,3.9,3,5v1h10V5C13,3.9,12.1,3,11,3z"/>
	<path fill="#626262" d="M11.5,7h-7C3.7,7,3,7.7,3,8.5S3.7,10,4.5,10h7c0.8,0,1.5-0.7,1.5-1.5S12.3,7,11.5,7z"/>
	<path fill="#626262" d="M3,12c0,1.1,0.9,2,2,2h6c1.1,0,2-0.9,2-2v-1H3V12z"/>
</g>
</svg>
