<svg xmlns="http://www.w3.org/2000/svg" xmlns:xlink="http://www.w3.org/1999/xlink" id="Layer_1" x="0" y="0" enable-background="new 0 0 16 16" version="1.1" viewBox="0 0 16 16" xml:space="preserve"><path fill="#626262" d="M13.5,4.3l-5-2.9c-0.3-0.2-0.7-0.2-1,0l-5,2.9C2.2,4.5,2,4.8,2,5.1v5.8c0,0.4,0.2,0.7,0.5,0.9l5,2.9	c0.2,0.1,0.3,0.1,0.5,0.1s0.3,0,0.5-0.1l5-2.9c0.3-0.2,0.5-0.5,0.5-0.9V5.1C14,4.8,13.8,4.5,13.5,4.3z M8,3.4l3,1.7L8,6.8L5,5.1	L8,3.4z M4,6.8l3,1.7v3.6l-3-1.7V6.8z M9,12.1V8.5l3-1.7v3.5L9,12.1z"/></svg>