<svg xmlns="http://www.w3.org/2000/svg" viewBox="0 0 800 145.6"><defs><style>.cls-1{fill:#fff}.cls-2{fill:#f5be08}.cls-3{fill:#f43c7c}.cls-4{fill:#8355ec}.cls-5{fill:#2dcbdf}</style></defs><g id="图层_2" data-name="图层 2"><g id="图层_1-2" data-name="图层 1"><path d="M273.28,105.66H232.36l-6.16,18.48H204.35L240.28,21.47h25.08l36.08,102.67h-22ZM267,86.74,252.9,44.79,238.82,86.74Z" class="cls-1"/><path d="M384.75,55.94c0,19.21-15.26,34.46-35.05,34.46H331.65v33.74H311.41V21.47H349.7C369.49,21.47,384.75,36.72,384.75,55.94Zm-20.09,0c0-8.95-6.31-15.55-15-15.55H331.65V71.48H349.7C358.35,71.48,364.66,64.74,364.66,55.94Z" class="cls-1"/><path d="M418.19,21.47V124.14H398V21.47Z" class="cls-1"/><path d="M513,31.15H481.45v93H471.18v-93H439.65V21.47H513Z" class="cls-1"/><path d="M585.73,50.8v73.34h-9.68V109.76a34,34,0,0,1-29.63,16.14,38,38,0,0,1-37.84-38.43A38,38,0,0,1,546.42,49a34,34,0,0,1,29.63,16.14V50.8Zm-9.68,36.67a28.9,28.9,0,1,0-28.9,29A28.61,28.61,0,0,0,576.05,87.47Z" class="cls-1"/><path d="M683.4,87.47a38,38,0,0,1-37.84,38.43,34,34,0,0,1-29.62-16.14v14.38h-9.68V21.47h9.68V65.18A34,34,0,0,1,645.56,49,38,38,0,0,1,683.4,87.47Zm-9.68,0a28.89,28.89,0,1,0-28.89,29A28.61,28.61,0,0,0,673.72,87.47Z" class="cls-1"/><path d="M699.53,21.47h9.69V124.14h-9.69Z" class="cls-1"/><path d="M800,87.76c0,1.47-.15,3.08-.29,4.55H735.32c2,15,13.64,24.2,29.19,24.2,11.58,0,19.65-5.43,23.61-12.47l8.51,5c-6.16,10-17.46,16.87-32.27,16.87-23.17,0-39-16.28-39-38.43,0-21.56,15.54-38.43,38.28-38.43C786.07,49,800,67.67,800,87.76Zm-64.68-4.84H790c-2.06-16.13-13.79-24.49-26.4-24.49C748.23,58.43,737.23,68.55,735.32,82.92Z" class="cls-1"/><path d="M158.57,113.41,99.32,10.78A21.45,21.45,0,0,0,70,2.93h0a21.45,21.45,0,0,0-7.86,29.31l59.26,102.63a21.46,21.46,0,0,0,37.16-21.46Z" class="cls-2"/><rect width="161.43" height="42.92" y="102.64" class="cls-2" rx="21.46"/><path d="M133.78,70.45,99.3,10.73A21.46,21.46,0,1,0,62.13,32.2L96.6,91.92a21.47,21.47,0,0,0,37.18-21.47Z" class="cls-3"/><path d="M91.45,2.88h0a21.46,21.46,0,0,0-29.32,7.85L2.88,113.37a21.46,21.46,0,1,0,37.17,21.45L99.3,32.19A21.45,21.45,0,0,0,91.45,2.88Z" class="cls-4"/><path d="M114.54,102.64A21.45,21.45,0,0,1,96.69,92.06a1,1,0,0,1-.08-.14L80.71,64.39,58.63,102.64h55.91Z" class="cls-5"/></g></g></svg>