<svg xmlns="http://www.w3.org/2000/svg" viewBox="0 0 800 165.71"><defs><style>.cls-1{fill:#f5be08;}.cls-2{fill:#2dcbdf;}.cls-3{fill:#f43c7c;}.cls-4{fill:#8355ec;}.cls-5{fill:#220039;}</style></defs><g id="图层_2" data-name="图层 2"><g id="图层_1-2" data-name="图层 1"><path class="cls-1" d="M69.84,13.53,4,127.54a25.45,25.45,0,0,0,22,38.17H157.7a25.45,25.45,0,0,0,22-38.17l-65.82-114a25.45,25.45,0,0,0-44.07,0"/><polygon class="cls-2" points="93.26 48.97 53.38 117.28 133.15 117.28 93.26 48.97"/><path class="cls-3" d="M110.25,105.1,71.17,37.4a24.47,24.47,0,0,1,42.39-24.47l39.09,67.7a24.48,24.48,0,0,1-42.4,24.47"/><path class="cls-4" d="M70.54,12.31,3.3,128.77A24.62,24.62,0,1,0,46,153.39L113.19,36.94A24.63,24.63,0,0,0,70.54,12.31"/><path class="cls-5" d="M300.34,114.77H260.27l-6,18.1h-21.4L268,32.33h24.56l35.33,100.54H306.37Zm-6.18-18.53L280.37,55.17,266.59,96.24Z"/><path class="cls-5" d="M413.66,97c0,21.4-15.8,37.92-35.05,37.92-10.48,0-18.09-3.88-23.27-10.49v41.32H336.82V61.05h18.52v8.48C360.52,62.92,368.13,59,378.61,59c19.25,0,35.05,16.52,35.05,37.92m-18.53,0c0-12.06-8.48-20.25-20-20.25S355.34,84.9,355.34,97s8.48,20.25,19.83,20.25,20-8.18,20-20.25"/><path class="cls-5" d="M424.57,41.09a11.42,11.42,0,1,1,11.35,11.35,11.47,11.47,0,0,1-11.35-11.35m2.15,20h18.53v71.81H426.72Z"/><path class="cls-5" d="M487.05,78.86v29.88c0,7.75,5.6,7.9,16.23,7.32v16.81c-26,2.87-34.76-4.74-34.76-24.13V78.86H456V61.05h12.5V46.55L487.05,41v20.1h16.23V78.86Z"/><path class="cls-5" d="M587.3,61.05v71.82H568.77v-8.48c-5.17,6.47-12.93,10.49-23.41,10.49-19.11,0-34.9-16.52-34.9-37.92S526.25,59,545.36,59c10.48,0,18.24,4,23.41,10.49V61.05ZM568.77,97c0-12.06-8.48-20.25-20-20.25C537.46,76.71,529,84.9,529,97s8.48,20.25,19.82,20.25c11.49,0,20-8.18,20-20.25"/><path class="cls-5" d="M680.94,97c0,21.4-15.8,37.92-35.05,37.92-10.48,0-18.1-3.88-23.27-10.49v8.48H604.1V32.33h18.52v37.2C627.79,62.92,635.41,59,645.89,59c19.25,0,35.05,16.52,35.05,37.92m-18.53,0c0-12.06-8.47-20.25-20-20.25S622.62,84.9,622.62,97s8.48,20.25,19.83,20.25,20-8.18,20-20.25"/><rect class="cls-5" x="694" y="32.33" width="18.53" height="100.54"/><path class="cls-5" d="M765.39,118.07c7.18,0,12.92-3,16.08-7.18l14.94,8.62c-6.75,9.77-17.52,15.37-31.31,15.37-24.13,0-39.36-16.52-39.36-37.92S741.11,59,763.66,59C784.92,59,800,75.85,800,97a42.83,42.83,0,0,1-.72,7.61H745.13c2.59,9.48,10.49,13.5,20.26,13.5m16.08-27.86c-2.3-10.34-10.05-14.5-17.81-14.5-9.91,0-16.66,5.31-18.82,14.5Z"/></g></g></svg>