<?xml version="1.0" encoding="utf-8"?>
<!-- Generator: Adobe Illustrator 24.0.0, SVG Export Plug-In . SVG Version: 6.00 Build 0)  -->
<svg version="1.1" id="图层_1" xmlns="http://www.w3.org/2000/svg" xmlns:xlink="http://www.w3.org/1999/xlink" x="0px" y="0px"
	 viewBox="0 0 16 16" enable-background="new 0 0 16 16" xml:space="preserve">
<path fill-rule="evenodd" clip-rule="evenodd" fill="#979797" d="M8,15c3.9,0,7-3.1,7-7c0-3.9-3.1-7-7-7C4.1,1,1,4.1,1,8
	C1,11.9,4.1,15,8,15z M7,4.5c0-0.6,0.4-1,1-1s1,0.4,1,1v3.2h1.5c0.6,0,1,0.4,1,1c0,0.6-0.4,1-1,1H8c0,0,0,0,0,0
	C7.6,9.7,7.2,9.4,7.1,9C7,8.9,7,8.8,7,8.7c0,0,0,0,0,0V4.5z"/>
</svg>
