<?xml version="1.0" encoding="utf-8"?>
<!-- Generator: Adobe Illustrator 24.0.0, SVG Export Plug-In . SVG Version: 6.00 Build 0)  -->
<svg version="1.1" id="图层_1" xmlns="http://www.w3.org/2000/svg" xmlns:xlink="http://www.w3.org/1999/xlink" x="0px" y="0px"
	 viewBox="0 0 16 16" enable-background="new 0 0 16 16" xml:space="preserve">
<path fill-rule="evenodd" clip-rule="evenodd" fill="#979797" d="M8,3C5.2,3,3,5.2,3,8c0,2.8,2.2,5,5,5c2.8,0,5-2.2,5-5
	C13,5.2,10.8,3,8,3z M1,8c0-3.9,3.1-7,7-7c3.9,0,7,3.1,7,7c0,3.9-3.1,7-7,7C4.1,15,1,11.9,1,8z M7,5.5c0-0.6,0.4-1,1-1s1,0.4,1,1v2
	h1c0.6,0,1,0.4,1,1c0,0.6-0.4,1-1,1H8c-0.6,0-1-0.4-1-1V5.5z"/>
</svg>
