<?xml version="1.0" encoding="utf-8"?>
<!-- Generator: Adobe Illustrator 24.1.0, SVG Export Plug-In . SVG Version: 6.00 Build 0)  -->
<svg version="1.1" id="图层_1" xmlns="http://www.w3.org/2000/svg" xmlns:xlink="http://www.w3.org/1999/xlink" x="0px" y="0px"
	 viewBox="0 0 16 16" enable-background="new 0 0 16 16" xml:space="preserve">
<desc>Created with Sketch.</desc>
<path fill="#7D819A" d="M12.2,9.3c-0.7-0.6-1.5-1-2.4-1.2c1-0.6,1.6-1.7,1.6-2.9c0-1.9-1.6-3.5-3.5-3.5c-1.9,0-3.5,1.6-3.5,3.5
	c0,1.2,0.7,2.3,1.6,2.9C5.3,8.4,4.5,8.8,3.8,9.3C3,10,2.5,11,2.5,12.1c0,0.9,0.8,1.7,1.7,1.7h7.6c0.9,0,1.7-0.8,1.7-1.7V12
	C13.5,10.9,13,10,12.2,9.3z"/>
</svg>
