<svg xmlns="http://www.w3.org/2000/svg" xmlns:xlink="http://www.w3.org/1999/xlink" id="Layer_1" x="0" y="0" enable-background="new 0 0 16 16" version="1.1" viewBox="0 0 16 16" xml:space="preserve"><title>datasheet_icon_cover_dis</title><desc>Created with Sketch.</desc><path fill="#7D8299" d="M12.2,1H3.8C2.2,1,1,2.2,1,3.8v8.5C1,13.8,2.2,15,3.8,15h8.5c1.5,0,2.8-1.2,2.8-2.8V3.8	C15,2.2,13.8,1,12.2,1z M2.5,12.2V3.8c0-0.7,0.6-1.2,1.2-1.2h8.5l-9.7,9.9C2.5,12.3,2.5,12.3,2.5,12.2z M13.5,12.2	c0,0.7-0.6,1.2-1.2,1.2H3.8c-0.1,0-0.1,0-0.2,0l9.9-10c0,0.1,0.1,0.2,0.1,0.3V12.2z"/></svg>