<svg xmlns="http://www.w3.org/2000/svg" xmlns:xlink="http://www.w3.org/1999/xlink" id="Layer_1" x="0" y="0" enable-background="new 0 0 16 16" version="1.1" viewBox="0 0 16 16" xml:space="preserve"><path fill="#626262" d="M13.2,8.7c-0.2-0.4-0.2-1,0-1.4l0.6-1.2c0.5-1-0.2-2.2-1.3-2.2l-1.3,0c-0.5,0-1-0.3-1.2-0.7L9.3,2	c-0.6-0.9-2-0.9-2.5,0L6,3.2C5.8,3.6,5.3,3.9,4.8,3.9l-1.3,0C2.4,4,1.7,5.1,2.2,6.1l0.6,1.2c0.2,0.4,0.2,1,0,1.4L2.2,9.9	c-0.5,1,0.2,2.2,1.3,2.2l1.3,0c0.5,0,1,0.3,1.2,0.7L6.7,14c0.6,0.9,2,0.9,2.5,0l0.7-1.1c0.3-0.4,0.7-0.7,1.2-0.7l1.3,0	c1.1,0,1.8-1.2,1.3-2.2L13.2,8.7z M8,10c-1.1,0-2-0.9-2-2s0.9-2,2-2s2,0.9,2,2S9.1,10,8,10z"/></svg>