<svg xmlns="http://www.w3.org/2000/svg" xmlns:xlink="http://www.w3.org/1999/xlink" id="Layer_1" x="0" y="0" enable-background="new 0 0 16 16" version="1.1" viewBox="0 0 16 16" xml:space="preserve"><title>datasheet_icon_list</title><desc>Created with Sketch.</desc><g><path fill="#7D8299" d="M3,4h10c0.6,0,1-0.4,1-1s-0.4-1-1-1H3C2.4,2,2,2.4,2,3S2.4,4,3,4z"/><path fill="#7D8299" d="M13,7H3C2.4,7,2,7.4,2,8s0.4,1,1,1h10c0.6,0,1-0.4,1-1S13.6,7,13,7z"/><path fill="#7D8299" d="M13,12H3c-0.6,0-1,0.4-1,1s0.4,1,1,1h10c0.6,0,1-0.4,1-1S13.6,12,13,12z"/></g></svg>