<svg xmlns="http://www.w3.org/2000/svg" xmlns:xlink="http://www.w3.org/1999/xlink" id="Layer_1" x="0" y="0" enable-background="new 0 0 16 16" version="1.1" viewBox="0 0 16 16" xml:space="preserve"><title>datasheet_icon_cover</title><desc>Created with Sketch.</desc><g><path fill="#7D8299" d="M12.2,1H3.8C2.2,1,1,2.2,1,3.8v8.5C1,13.8,2.2,15,3.8,15h8.5c1.5,0,2.8-1.2,2.8-2.8V3.8 C15,2.2,13.8,1,12.2,1z M3.8,2.5h8.5c0.7,0,1.2,0.6,1.2,1.2v2C11,5.9,8.7,7.3,7.4,9.3C6,8.3,4.1,8.2,2.5,9V3.8 C2.5,3.1,3.1,2.5,3.8,2.5z M2.5,12.2v-1.4c1.2-1.1,3-1.2,4.2-0.2c-0.4,0.9-0.6,1.9-0.6,2.9H3.8C3.1,13.5,2.5,12.9,2.5,12.2z M12.2,13.5H7.7c0-3.3,2.6-6,5.8-6.2v5C13.5,12.9,12.9,13.5,12.2,13.5z"/><circle cx="5.2" cy="5.2" r="1.2" fill="#7D8299"/></g></svg>