<svg xmlns="http://www.w3.org/2000/svg" xmlns:xlink="http://www.w3.org/1999/xlink" id="Layer_1" x="0" y="0" enable-background="new 0 0 48 48" version="1.1" viewBox="0 0 48 48" xml:space="preserve"><g><path fill="#FFF" d="M24,0C10.8,0,0,10.8,0,24s10.8,24,24,24s24-10.8,24-24S37.2,0,24,0z M24,46C11.9,46,2,36.1,2,24 S11.9,2,24,2s22,9.9,22,22S36.1,46,24,46z"/><path fill="#FFF" d="M32.7,15.7c-0.4-0.4-1-0.4-1.4,0l-7.1,7.1l-7.1-7.1c-0.4-0.4-1-0.4-1.4,0c-0.4,0.4-0.4,1,0,1.4l7.1,7.1 l-7.1,7.1c-0.4,0.4-0.4,1,0,1.4c0.4,0.4,1,0.4,1.4,0l7.1-7.1l7.1,7.1c0.4,0.4,1,0.4,1.4,0c0.4-0.4,0.4-1,0-1.4l-7.1-7.1l7.1-7.1 C33.1,16.7,33.1,16.1,32.7,15.7z"/></g></svg>