<?xml version="1.0" encoding="utf-8"?>
<!-- Generator: Adobe Illustrator 24.1.2, SVG Export Plug-In . SVG Version: 6.00 Build 0)  -->
<svg version="1.1" id="图层_1" xmlns="http://www.w3.org/2000/svg" xmlns:xlink="http://www.w3.org/1999/xlink" x="0px" y="0px"
	 viewBox="0 0 16 16" enable-background="new 0 0 16 16" xml:space="preserve">
<path fill="#8C8C8C" d="M12.5,11.7l-1.2-1.2c0.6-0.8,1-1.8,1-2.8c0-2.6-2.1-4.7-4.7-4.7C5.1,3,3,5.1,3,7.7c0,2.6,2.1,4.7,4.7,4.7
	c0.8,0,1.5-0.2,2.1-0.5l1.3,1.3c0.4,0.4,1,0.4,1.4,0C12.9,12.7,12.9,12.1,12.5,11.7z M5,7.7C5,6.2,6.2,5,7.7,5s2.7,1.2,2.7,2.7
	s-1.2,2.7-2.7,2.7S5,9.1,5,7.7z"/>
</svg>
