<svg xmlns="http://www.w3.org/2000/svg" xmlns:xlink="http://www.w3.org/1999/xlink" id="Layer_1" x="0" y="0" enable-background="new 0 0 16 16" version="1.1" viewBox="0 0 16 16" xml:space="preserve"><g><path fill="#8C8C8C" d="M13,3.9C12.9,3.4,12.5,3,12,3H8L7.9,3C7.4,3.1,7,3.5,7,4l0,0.1C7.1,4.6,7.5,5,8,5h3v3l0,0.1 C11.1,8.6,11.5,9,12,9c0.6,0,1-0.4,1-1V4L13,3.9z"/><path fill="#8C8C8C" d="M8,11H5V8l0-0.1C4.9,7.4,4.5,7,4,7C3.4,7,3,7.4,3,8v4l0,0.1C3.1,12.6,3.5,13,4,13h4l0.1,0 C8.6,12.9,9,12.5,9,12l0-0.1C8.9,11.4,8.5,11,8,11z"/></g></svg>