<svg xmlns="http://www.w3.org/2000/svg" xmlns:xlink="http://www.w3.org/1999/xlink" id="Layer_1" x="0" y="0" enable-background="new 0 0 16 16" version="1.1" viewBox="0 0 16 16" xml:space="preserve"><desc>Created with Sketch.</desc><g><path fill="#7D8299" fill-rule="evenodd" d="M8,0.8C4,0.8,0.8,4,0.8,8S4,15.2,8,15.2S15.2,12,15.2,8 S12,0.8,8,0.8z M8,13.7c-3.1,0-5.7-2.6-5.7-5.7S4.9,2.3,8,2.3s5.7,2.6,5.7,5.7S11.1,13.7,8,13.7z" clip-rule="evenodd"/><path fill="#7D8299" fill-rule="evenodd" d="M8,7C7.6,7,7.2,7.3,7.2,7.7v3.5c0,0.4,0.3,0.8,0.8,0.8 s0.8-0.3,0.8-0.8V7.7C8.8,7.3,8.4,7,8,7z" clip-rule="evenodd"/><circle cx="8" cy="5.1" r="1" fill="#7D8299" fill-rule="evenodd" clip-rule="evenodd"/></g></svg>