<svg xmlns="http://www.w3.org/2000/svg" xmlns:xlink="http://www.w3.org/1999/xlink" id="Layer_1" x="0" y="0" version="1.1" viewBox="0 0 385 140" style="enable-background:new 0 0 385 140" xml:space="preserve"><style type="text/css">.st0{fill:#000650}</style><g><polygon points="32 118.1 60.2 118.1 61.6 108.5 33.4 108.5" class="st0"/><path d="M98,21.9H87.5L70.8,59.5h7.3l-6.9,48.9l-1.4,9.7h25.6h34.1l1.4-9.7h-21.4l2.1-14.8h19.9l1.4-9.7h-19.9 l2.1-14.7h19.9l1.4-9.7h-19.9l1.8-12.6h20.4l1.4-9.7H91.1L98,21.9z M99.8,108.5H80.9L83,93.6h18.9L99.8,108.5z M103.3,84H84.4 l2.1-14.7h18.9L103.3,84z M108.5,47l-1.8,12.6H87.8L89.6,47H108.5z" class="st0"/><polygon points="122.2 21.9 121.6 21.9 112 21.9 111.4 21.9 109.9 32.6 120.7 32.6" class="st0"/><polygon points="72.6 46.5 62.4 46.5 56.5 57.4 52.3 57.4 67.2 21.9 57 21.9 38 67.1 51.2 67.1 36.6 93.6 63.6 93.6 65 84 52.1 84" class="st0"/><polygon points="162.1 52.1 153.2 115.5 161.6 115.5 170.6 52.1" class="st0"/><polygon points="188.7 52.1 179.8 115.5 188.3 115.5 197.2 52.1" class="st0"/><polygon points="199.8 47 201.2 37.3 186.6 37.3 188.8 21.9 179.1 21.9 177 37.3 161.6 37.3 160.2 47 175.6 47 165.6 118.1 175.3 118.1 185.3 47" class="st0"/><polygon points="257.7 27.5 217 27.5 217.8 21.9 208 21.9 205.8 37.1 205.9 37.1 205.9 37.3 246.5 37.3 245.3 46.2 228.7 54.3 214.4 46.2 214.9 42.4 205.2 42.4 203.9 51.4 218.1 59.5 198 69.3 196.5 79.6 227.2 64.6 253.8 79.6 255.2 69.3 237.8 59.5 254.3 51.4" class="st0"/><path d="M194.5,118.1h50.4l5.6-39.7h-50.4L194.5,118.1z M208.5,88.1h31l-2.9,20.3h-31L208.5,88.1z" class="st0"/><polygon points="375.5 38.8 376.8 29.4 335 29.4 336 21.9 326 21.9 325 29.4 283.2 29.4 281.9 38.8 323.7 38.8 322.6 46.1 282.6 46.1 281.3 55.6 321.3 55.6 319.9 65.7 276.7 65.7 275.4 75.2 298.7 75.2 269.1 118 279.5 118 309.1 75.2 303.1 118 332.9 118 334.2 108.5 313.9 108.5 318.6 75.2 371.8 75.2 373.2 65.7 329.9 65.7 331.3 55.6 371.3 55.6 372.7 46.1 332.6 46.1 333.6 38.8" class="st0"/><polygon points="342.4 79.2 330.9 79.2 352.7 118 364.3 118 352.7 97.6 368.8 90.5 370.3 80 348.4 89.7" class="st0"/></g></svg>