<svg xmlns="http://www.w3.org/2000/svg" xmlns:xlink="http://www.w3.org/1999/xlink" id="Layer_1" x="0" y="0" enable-background="new 0 0 16 16" version="1.1" viewBox="0 0 16 16" xml:space="preserve"><g><path fill="#8C8C8C" d="M13,9c-0.6,0-1,0.4-1,1v3H4V3h3c0.6,0,1-0.4,1-1S7.6,1,7,1H3C2.4,1,2,1.4,2,2v12c0,0.6,0.4,1,1,1h10 c0.6,0,1-0.4,1-1v-4C14,9.4,13.6,9,13,9z"/><path fill="#8C8C8C" d="M14.2,4.3l-2.1-2.1c-0.4-0.4-1-0.4-1.4,0s-0.4,1,0,1.4L11.1,4H7C6.4,4,6,4.4,6,5s0.4,1,1,1h4.1l-0.4,0.4 c-0.4,0.4-0.4,1,0,1.4c0.2,0.2,0.5,0.3,0.7,0.3s0.5-0.1,0.7-0.3l2.1-2.1C14.6,5.3,14.6,4.7,14.2,4.3z"/></g></svg>