<?xml version="1.0" encoding="utf-8"?>
<!-- Generator: Adobe Illustrator 24.0.0, SVG Export Plug-In . SVG Version: 6.00 Build 0)  -->
<svg version="1.1" id="图层_1" xmlns="http://www.w3.org/2000/svg" xmlns:xlink="http://www.w3.org/1999/xlink" x="0px" y="0px"
	 viewBox="0 0 16 16" enable-background="new 0 0 16 16" xml:space="preserve">
<path fill="#888888" d="M13,2.8c0.5-0.2,0.8,0.2,0.7,0.7L9.9,13.6c-0.1,0.3-0.4,0.7-0.8,0.5c-0.3-0.2-1.4-2.3-2.1-3.4
	c-0.1-0.2-0.1-0.4,0-0.5l1.7-2.4c0.1-0.1,0-0.2-0.1-0.1L6.3,9.4c-0.2,0.1-0.4,0.1-0.5,0c-1.1-0.6-3.3-1.8-3.4-2
	C2.2,7.1,2.5,6.8,2.9,6.7L13,2.8z"/>
</svg>
