<svg xmlns="http://www.w3.org/2000/svg" width="560" height="140" fill="none" viewBox="0 0 560 140"><path fill="#000650" d="M334.274 57.6868C329.351 54.278 323.491 52.4812 317.503 52.5442C299.504 52.5442 282.791 67.1812 280.284 85.1738C277.777 103.166 290.318 117.816 308.317 117.816C314.737 117.751 321.023 115.976 326.528 112.674L325.975 116.627H341.101L354.227 23.2316H339.089L334.274 57.6868ZM310.458 102.684C300.815 102.684 294.066 94.8354 295.422 85.1931C296.779 75.5508 305.707 67.6955 315.35 67.6955C324.992 67.6955 331.742 75.5444 330.385 85.1931C329.029 94.8419 320.1 102.678 310.458 102.678V102.684Z"/><path fill="#000650" d="M467.216 41.7512H452.078L450.259 54.7169H439.131L437.003 69.8489H448.131L441.51 116.948H456.648L463.263 69.8489H477.27L479.398 54.7169H465.391L467.216 41.7512Z"/><path fill="#000650" d="M254.615 58.0081C249.69 54.5981 243.828 52.8012 237.838 52.8656C219.839 52.8656 203.125 67.5026 200.625 85.4951C198.124 103.488 210.679 118.125 228.671 118.125C235.091 118.059 241.377 116.284 246.882 112.982L246.375 116.614H261.507L270.255 54.3569H255.123L254.615 58.0081ZM230.793 103.006C221.15 103.006 214.407 95.1568 215.763 85.508C217.12 75.8593 226.049 68.0168 235.691 68.0168C245.333 68.0168 252.083 75.8657 250.726 85.508C249.37 95.1503 240.441 102.999 230.793 102.999V103.006Z"/><path fill="#000650" d="M536.165 54.3762L535.658 58.0082C530.734 54.5994 524.874 52.8026 518.886 52.8656C500.887 52.8656 484.174 67.5026 481.673 85.4952C479.173 103.488 491.721 118.125 509.713 118.125C516.135 118.06 522.423 116.285 527.931 112.982L527.416 116.614H542.555L551.304 54.3762H536.165ZM511.841 102.999C502.199 102.999 495.449 95.1504 496.805 85.5016C498.162 75.8529 507.09 68.0105 516.733 68.0105C526.375 68.0105 533.125 75.8593 531.768 85.5016C530.412 95.1439 521.49 102.999 511.841 102.999V102.999Z"/><path fill="#000650" d="M413.843 58.0082C408.919 54.5994 403.059 52.8026 397.071 52.8656C379.072 52.8656 362.359 67.5026 359.858 85.4952C357.358 103.488 369.906 118.125 387.898 118.125C394.32 118.059 400.608 116.284 406.116 112.982L405.602 116.614L405.557 116.929H420.695L420.74 116.614L425.157 85.1674L429.489 54.3569H414.383L413.843 58.0082ZM390.026 103.006C380.384 103.006 373.634 95.1568 374.99 85.5081C376.347 75.8593 385.276 68.0169 394.918 68.0169C404.56 68.0169 411.31 75.8657 409.954 85.5081C408.597 95.1504 399.675 102.999 390.026 102.999V103.006Z"/><path fill="#000650" d="M100.538 116.948H115.67L124.425 54.6912H109.286L100.538 116.948Z"/><path fill="#000650" d="M179.702 54.6913L151.064 82.4997L159.388 23.238H144.256L131.085 116.948H146.223L150.132 89.1336L170.953 116.948H192.14L168.838 85.8167L200.889 54.6913H179.702Z"/><path fill="#000650" d="M60.7341 98.4673L48.1798 54.6912H32L49.8511 116.948H50.2368H66.0309H66.4166L101.765 54.6912H85.5856L60.7341 98.4673Z"/><path fill="#000650" d="M109.737 41.7512H127.607L130.121 23.8872H112.25L109.737 41.7512Z"/></svg>