<svg xmlns="http://www.w3.org/2000/svg" xmlns:xlink="http://www.w3.org/1999/xlink" id="Layer_1" x="0" y="0" enable-background="new 0 0 16 16" version="1.1" viewBox="0 0 16 16" xml:space="preserve"><desc>Created with Sketch.</desc><g><path fill="#7D8299" d="M8,1C4.1,1,1,4.1,1,8c0,3.9,3.1,7,7,7c3.9,0,7-3.1,7-7C15,4.1,11.9,1,8,1z M8,13.5C5,13.5,2.5,11,2.5,8 C2.5,5,5,2.5,8,2.5c3,0,5.5,2.5,5.5,5.5C13.5,11,11,13.5,8,13.5z"/><path fill="#7D8299" d="M10.6,8.2H8.2V5.7C8.2,5.3,7.9,5,7.5,5S6.8,5.3,6.8,5.7V9c0,0.4,0.3,0.8,0.8,0.8h3.1c0.4,0,0.8-0.3,0.8-0.8 S11,8.2,10.6,8.2z"/></g></svg>