<svg xmlns="http://www.w3.org/2000/svg" xmlns:xlink="http://www.w3.org/1999/xlink" id="Layer_1" x="0" y="0" enable-background="new 0 0 16 16" version="1.1" viewBox="0 0 16 16" xml:space="preserve"><g><path fill="#8C8C8C" d="M13.3,8l0.9-1.6c0.3-0.6,0.3-1.3,0-1.9c-0.3-0.6-1-1-1.7-1l-1.8-0.1l-1-1.6C9.3,1.2,8.7,0.9,8,0.9 c-0.7,0-1.3,0.4-1.7,0.9l-1,1.6L3.5,3.4c-0.7,0-1.3,0.4-1.7,1C1.5,5,1.5,5.8,1.8,6.4L2.7,8L1.8,9.6c-0.3,0.6-0.3,1.3,0,1.9 c0.3,0.6,1,1,1.7,1l1.8,0.1l1,1.6c0.4,0.6,1,0.9,1.7,0.9s1.3-0.4,1.7-0.9l1-1.6l1.8-0.1c0.7,0,1.3-0.4,1.7-1s0.4-1.3,0-1.9L13.3,8z M10.6,10.6c-0.7,0-1.3,0.4-1.6,0.9l-1,1.6l-1-1.6c-0.4-0.6-1-0.9-1.6-0.9l-1.8-0.1l0.9-1.6c0.3-0.6,0.3-1.3,0-1.9L3.6,5.4l1.8-0.1 C6.1,5.4,6.7,5,7,4.4l1-1.6l1,1.6c0.4,0.6,1,0.9,1.6,0.9l1.8,0.1l-0.9,1.6c-0.3,0.6-0.3,1.3,0,1.9l0.9,1.6L10.6,10.6z"/><circle cx="8" cy="8" r="2" fill="#8C8C8C"/></g></svg>