<svg xmlns="http://www.w3.org/2000/svg" xmlns:xlink="http://www.w3.org/1999/xlink" id="Layer_1" x="0" y="0" enable-background="new 0 0 16 16" version="1.1" viewBox="0 0 16 16" xml:space="preserve"><desc>Created with Sketch.</desc><path fill="#7D8299" fill-rule="evenodd" d="M14.3,4.3c-0.1-0.1-0.2-0.2-0.3-0.1L12.4,5	c-0.8-1.2-1.9-2.1-3.3-2.5c-1.5-0.4-3-0.2-4.3,0.6c-1.3,0.8-2.2,2-2.6,3.4c-0.8,3,1,6.1,4,6.9c0.5,0.1,1,0.2,1.5,0.2	c1.8,0,3.4-0.8,4.5-2.3c0.2-0.3,0.2-0.8-0.2-1c-0.3-0.2-0.8-0.2-1,0.2c-1,1.4-2.8,2-4.4,1.5C4.4,11.4,3,9.1,3.6,6.9	c0.3-1.1,1-2,1.9-2.5c1-0.6,2.1-0.7,3.1-0.4c1,0.3,1.8,0.9,2.4,1.8L9.8,6.5c-0.1,0-0.1,0.1-0.1,0.2c0,0.1,0,0.3,0.2,0.3l3.3,0.9	c0.1,0,0.3,0,0.3-0.2l0.9-3.3C14.3,4.4,14.3,4.3,14.3,4.3z" clip-rule="evenodd"/></svg>