<svg xmlns="http://www.w3.org/2000/svg" xmlns:xlink="http://www.w3.org/1999/xlink" id="Layer_1" x="0" y="0" version="1.1" viewBox="0 0 15 15" style="enable-background:new 0 0 15 15" xml:space="preserve"><style type="text/css">.st0{fill-rule:evenodd;clip-rule:evenodd;fill:#2b68ff}</style><title>common_icon_multiple_select</title><desc>Created with Sketch.</desc><path d="M13,1H2C1.4,1,1,1.4,1,2v11c0,0.6,0.4,1,1,1h11c0.6,0,1-0.4,1-1V2C14,1.4,13.6,1,13,1z M11.6,6l-4.3,4.2	c-0.1,0.1-0.3,0.2-0.5,0.2c-0.2,0-0.4-0.1-0.5-0.2L3.5,7.4c-0.3-0.3-0.3-0.8,0-1.1s0.8-0.3,1.1,0l2.3,2.3l3.7-3.7	c0.3-0.3,0.8-0.3,1.1,0C11.9,5.2,11.9,5.7,11.6,6z" class="st0"/></svg>