<svg xmlns="http://www.w3.org/2000/svg" xmlns:xlink="http://www.w3.org/1999/xlink" id="Layer_1" x="0" y="0" version="1.1" viewBox="0 0 507 140" style="enable-background:new 0 0 507 140" xml:space="preserve"><style type="text/css">.st0{fill:#fff}</style><path d="M104.3,0H34.8C15.6,0,0,15.6,0,34.8v69.5c0,19.2,15.6,34.8,34.8,34.8h69.5c19.2,0,34.8-15.6,34.8-34.8V34.8	C139.1,15.5,123.5,0,104.3,0z M104.3,104.2H81.2V81.1h23.1V104.2z M81.2,57.9L58.1,81L35,104.1V81V57.9V34.8h23.1v23.1l23.1-23.1	h23.1L81.2,57.9z" class="st0"/><path d="M173.8,115.8h27.1l1.3-9.3h-27.1L173.8,115.8z" class="st0"/><path d="M237.4,23h-10.2l-16.1,36.3h7l-6.6,47.2l-1.3,9.3h24.7h32.8l1.3-9.3h-20.6l2-14.3h19.2l1.3-9.3h-19.1l2-14.2	H273l1.3-9.3h-19.2l1.7-12.1h19.7l1.3-9.3h-47L237.4,23z M239.1,106.5h-18.2l2-14.3h18.2L239.1,106.5z M242.5,82.8h-18.2l2-14.2	h18.2L242.5,82.8z M247.5,47.2l-1.7,12.1h-18.2l1.7-12.1H247.5z" class="st0"/><path d="M260.7,23h-0.5h-9.3h-0.5l-1.5,10.4h10.3L260.7,23z" class="st0"/><path d="M212.9,46.8h-9.8l-5.8,10.4h-4L207.8,23h-9.9l-18.3,43.6h12.6l-14,25.6h26.1l1.3-9.4h-12.4L212.9,46.8z" class="st0"/><path d="M299.2,52.2l-8.6,61.1h8.2l8.5-61.1H299.2z" class="st0"/><path d="M324.9,52.2l-8.6,61.1h8.2l8.5-61.1H324.9z" class="st0"/><path d="M335.5,47.2l1.3-9.3h-14l2.1-14.9h-9.3l-2.1,14.9h-14.8l-1.3,9.3h14.8l-9.6,68.6h9.3l9.6-68.6H335.5z" class="st0"/><path d="M391.3,28.4h-39.2l0.8-5.4h-9.5l-2.1,14.7h0.1v0.2h39.1l-1.2,8.6l-15.9,7.8l-13.8-7.8l0.5-3.7h-9.4l-1.2,8.7	l13.7,7.7l-19.5,9.5l-1.4,10L362,64.2l25.6,14.5l1.4-10l-16.8-9.5l15.9-7.7L391.3,28.4z" class="st0"/><path d="M330.4,115.8H379l5.4-38.2h-48.6L330.4,115.8z M343.9,86.9h29.8l-2.8,19.6h-29.8L343.9,86.9z" class="st0"/><path d="M504.9,39.3l1.2-9.1h-40.3l1-7.2h-9.6l-1,7.2h-40.3l-1.3,9.1h40.3l-1,7h-38.5l-1.3,9.2h38.5l-1.3,9.8h-41.6	l-1.3,9.1h22.5l-28.6,41.3h10l28.6-41.3l-5.8,41.3h28.7l1.3-9.2h-19.6l4.5-32.1h51.3l1.3-9.1h-41.7l1.4-9.8h38.6l1.2-9.2h-38.5	l0.9-7H504.9z" class="st0"/><path d="M472.9,78.3h-11l21,37.4H494L482.9,96l15.6-6.8l1.4-10.2l-21.2,9.4L472.9,78.3z" class="st0"/></svg>