<svg xmlns="http://www.w3.org/2000/svg" xmlns:xlink="http://www.w3.org/1999/xlink" id="Layer_1" x="0" y="0" enable-background="new 0 0 24 24" version="1.1" viewBox="0 0 24 24" xml:space="preserve"><path fill="#EA5D5D" fill-rule="evenodd" d="M12,3c-5,0-9,4-9,9s4,9,9,9s9-4,9-9S17,3,12,3z M15.7,14.7	c0.3,0.3,0.3,0.8,0,1.1c-0.1,0.1-0.3,0.2-0.5,0.2s-0.4-0.1-0.5-0.2L12,13.1l-2.7,2.7c-0.1,0.1-0.3,0.2-0.5,0.2s-0.4-0.1-0.5-0.2	c-0.3-0.3-0.3-0.8,0-1.1l2.7-2.7L8.3,9.3C8,9.1,8,8.6,8.3,8.3s0.8-0.3,1.1,0l2.7,2.7l2.7-2.7c0.3-0.3,0.8-0.3,1.1,0s0.3,0.8,0,1.1	L13.1,12L15.7,14.7z" clip-rule="evenodd"/></svg>