<?xml version="1.0" encoding="utf-8"?>
<!-- Generator: Adobe Illustrator 24.1.0, SVG Export Plug-In . SVG Version: 6.00 Build 0)  -->
<svg version="1.1" id="Layer_1" xmlns="http://www.w3.org/2000/svg" xmlns:xlink="http://www.w3.org/1999/xlink" x="0px" y="0px"
	 viewBox="0 0 16 16" enable-background="new 0 0 16 16" xml:space="preserve">
<desc>Created with Sketch.</desc>
<g>
	<path fill-rule="evenodd" clip-rule="evenodd" fill="#7D8299" d="M8.1,4C6.8,4,5.7,5,5.5,6.2C5.4,6.6,5.7,7,6.1,7.1
		C6.5,7.1,6.9,6.9,7,6.5c0.1-0.5,0.6-0.9,1.1-0.9c0.6,0,1.1,0.5,1.1,1.1c0,0.6-0.4,1-0.9,1.1C7.7,7.9,7.3,8.3,7.3,8.9v0.5
		c0,0.4,0.3,0.8,0.8,0.8s0.8-0.3,0.8-0.8V9.2c1.1-0.3,1.9-1.3,1.9-2.5C10.7,5.2,9.5,4,8.1,4z"/>
	<circle fill-rule="evenodd" clip-rule="evenodd" fill="#7D8299" cx="8.1" cy="11.3" r="0.8"/>
</g>
</svg>
