<svg xmlns="http://www.w3.org/2000/svg" xmlns:xlink="http://www.w3.org/1999/xlink" id="Layer_1" x="0" y="0" version="1.1" viewBox="0 0 15 15" style="enable-background:new 0 0 15 15" xml:space="preserve"><style type="text/css">.st0{fill:#7d8299}</style><title>common_icon_multiple_normal</title><desc>Created with Sketch.</desc><path d="M12.2,1H2.8C1.8,1,1,1.8,1,2.8v9.5c0,1,0.8,1.8,1.8,1.8h9.5c1,0,1.8-0.8,1.8-1.8V2.8C14,1.8,13.2,1,12.2,1z M12.5,12.2c0,0.1-0.1,0.2-0.2,0.2H2.8c-0.1,0-0.2-0.1-0.2-0.2V2.8c0-0.1,0.1-0.2,0.2-0.2h9.5c0.1,0,0.2,0.1,0.2,0.2V12.2z" class="st0"/></svg>