<?xml version="1.0" encoding="utf-8"?>
<!-- Generator: Adobe Illustrator 24.1.0, SVG Export Plug-In . SVG Version: 6.00 Build 0)  -->
<svg version="1.1" id="Layer_1" xmlns="http://www.w3.org/2000/svg" xmlns:xlink="http://www.w3.org/1999/xlink" x="0px" y="0px"
	 viewBox="0 0 24 24" enable-background="new 0 0 24 24" xml:space="preserve">
<path fill-rule="evenodd" clip-rule="evenodd" fill="#EA5D5D" d="M12,3c-5,0-9,4-9,9s4,9,9,9s9-4,9-9S17,3,12,3z M15.7,14.7
	c0.3,0.3,0.3,0.8,0,1.1c-0.1,0.1-0.3,0.2-0.5,0.2s-0.4-0.1-0.5-0.2L12,13.1l-2.7,2.7c-0.1,0.1-0.3,0.2-0.5,0.2s-0.4-0.1-0.5-0.2
	c-0.3-0.3-0.3-0.8,0-1.1l2.7-2.7L8.3,9.3C8,9.1,8,8.6,8.3,8.3s0.8-0.3,1.1,0l2.7,2.7l2.7-2.7c0.3-0.3,0.8-0.3,1.1,0s0.3,0.8,0,1.1
	L13.1,12L15.7,14.7z"/>
</svg>
