<?xml version="1.0" encoding="utf-8"?>
<!-- Generator: Adobe Illustrator 23.1.1, SVG Export Plug-In . SVG Version: 6.00 Build 0)  -->
<svg version="1.1" id="Layer_1" xmlns="http://www.w3.org/2000/svg" xmlns:xlink="http://www.w3.org/1999/xlink" x="0px" y="0px"
	 viewBox="0 0 385 140" style="enable-background:new 0 0 385 140;" xml:space="preserve">
<style type="text/css">
	.st0{fill:#000650;}
</style>
<g>
	<polygon class="st0" points="32,118.1 60.1,118.1 61.5,108.4 33.3,108.4 	"/>
	<path class="st0" d="M97.9,21.9H87.4L70.7,59.5H78l-6.9,48.9l-1.4,9.7h25.6h34.1l1.4-9.7h-21.4l2.1-14.8h19.9l1.4-9.7h-19.9
		l2.1-14.7h19.9l1.4-9.7h-19.9l1.8-12.6h20.4l1.4-9.7H91L97.9,21.9z M99.7,108.4H80.8l2.1-14.8h18.9L99.7,108.4z M103.2,83.9H84.3
		l2.1-14.7h18.9L103.2,83.9z M108.4,46.9l-1.8,12.6H87.7l1.8-12.6H108.4z"/>
	<polygon class="st0" points="122.1,21.9 121.6,21.9 111.9,21.9 111.4,21.9 109.9,32.6 120.6,32.6 	"/>
	<polygon class="st0" points="72.5,46.5 62.3,46.5 56.4,57.4 52.2,57.4 67.2,21.9 57,21.9 37.9,67.1 51.1,67.1 36.5,93.6 63.6,93.6 
		64.9,83.9 52,83.9 	"/>
	<polygon class="st0" points="162,52.1 153.1,115.5 161.6,115.5 170.5,52.1 	"/>
	<polygon class="st0" points="188.7,52.1 179.7,115.5 188.2,115.5 197.2,52.1 	"/>
	<polygon class="st0" points="199.7,46.9 201.1,37.3 186.6,37.3 188.7,21.9 179,21.9 176.9,37.3 161.5,37.3 160.2,46.9 175.5,46.9 
		165.5,118.1 175.2,118.1 185.2,46.9 	"/>
	<polygon class="st0" points="257.6,27.5 217,27.5 217.7,21.9 207.9,21.9 205.7,37.2 205.8,37.2 205.8,37.3 246.4,37.3 245.2,46.2 
		228.6,54.3 214.3,46.2 214.9,42.4 205.1,42.4 203.8,51.4 218,59.4 197.9,69.3 196.4,79.6 227.2,64.6 253.7,79.6 255.1,69.3 
		237.7,59.4 254.2,51.4 	"/>
	<path class="st0" d="M194.4,118.1h50.4l5.6-39.7H200L194.4,118.1z M208.4,88.1h31l-2.9,20.3h-31L208.4,88.1z"/>
	<polygon class="st0" points="378.4,72.7 379.7,62.9 279.6,62.9 278.2,72.7 297.3,72.7 273.6,118.1 370.5,118.1 363,78.6 
		352.4,78.6 358,108.3 289.2,108.3 308,72.7 	"/>
	<polygon class="st0" points="376,27.5 293.3,27.5 291.9,37.2 374.6,37.2 	"/>
</g>
</svg>
