<svg xmlns="http://www.w3.org/2000/svg" xmlns:xlink="http://www.w3.org/1999/xlink" id="Layer_1" x="0" y="0" enable-background="new 0 0 15 15" version="1.1" viewBox="0 0 15 15" xml:space="preserve"><title>common_icon_fresh</title><desc>Created with Sketch.</desc><g><path fill="#7D8299" fill-rule="evenodd" d="M1.6,7.3c0,0,0.1,0,0.1,0c0.4,0,0.7-0.3,0.7-0.7 c0.3-2.4,2.4-4.3,4.9-4.3c1.3,0,2.6,0.5,3.5,1.5L9.3,5.4C9.2,5.4,9.2,5.5,9.2,5.6c0,0.2,0.1,0.3,0.3,0.3h3.9c0.2,0,0.3-0.1,0.3-0.3 V1.7c0-0.1,0-0.2-0.1-0.2c-0.1-0.1-0.3-0.1-0.4,0l-1.3,1.3c-1.2-1.2-2.8-1.9-4.5-1.9c-3.2,0-6,2.4-6.4,5.6C0.9,6.9,1.2,7.3,1.6,7.3 z" clip-rule="evenodd"/><path fill="#7D8299" fill-rule="evenodd" d="M13.1,7.4c-0.4-0.1-0.8,0.2-0.9,0.6c-0.4,2.4-2.5,4.2-4.9,4.2 c-1.4,0-2.6-0.6-3.6-1.5l1.6-1.6C5.4,9.1,5.5,9,5.5,8.9c0-0.2-0.1-0.3-0.3-0.3H1.3C1.1,8.6,1,8.8,1,8.9v3.9C1,12.9,1,13,1.1,13 c0.1,0.1,0.3,0.1,0.4,0l1.2-1.2c1.2,1.2,2.9,2,4.6,2c3.2,0,5.9-2.4,6.4-5.5C13.8,7.9,13.5,7.5,13.1,7.4z" clip-rule="evenodd"/></g></svg>