<svg xmlns="http://www.w3.org/2000/svg" xmlns:xlink="http://www.w3.org/1999/xlink" id="Layer_1" x="0" y="0" enable-background="new 0 0 16 16" version="1.1" viewBox="0 0 16 16" xml:space="preserve"><path fill="#7D8299" fill-rule="evenodd" d="M8.1,2C4.7,2,2,4.7,2,8.1s2.7,6.1,6.1,6.1s6.1-2.7,6.1-6.1	S11.4,2,8.1,2z M8.1,12.1c-0.4,0-0.8-0.4-0.8-0.8c0-0.4,0.4-0.8,0.8-0.8s0.8,0.4,0.8,0.8C8.9,11.7,8.5,12.1,8.1,12.1z M8.8,9.2v0.2	c0,0.4-0.3,0.8-0.8,0.8S7.3,9.8,7.3,9.4V8.8c0-0.5,0.4-1,0.9-1.1c0.5-0.1,0.9-0.6,0.9-1.1c0-0.6-0.5-1.1-1.1-1.1	c-0.5,0-1,0.4-1.1,0.9C6.9,6.9,6.5,7.1,6.1,7.1C5.7,7,5.4,6.6,5.5,6.2C5.7,5,6.8,4.1,8.1,4.1c1.4,0,2.6,1.2,2.6,2.6	C10.7,7.8,9.9,8.8,8.8,9.2z" clip-rule="evenodd"/></svg>