<svg xmlns="http://www.w3.org/2000/svg" xmlns:xlink="http://www.w3.org/1999/xlink" id="Layer_1" x="0" y="0" enable-background="new 0 0 16 16" version="1.1" viewBox="0 0 16 16" xml:space="preserve"><desc>Created with Sketch.</desc><g><path fill="#7D8299" fill-rule="evenodd" d="M2,6c0.4,0,0.8-0.3,0.8-0.8v-2C2.8,3.1,2.9,3,3,3h2 c0.4,0,0.8-0.3,0.8-0.8S5.4,1.5,5,1.5H3c-1,0-1.8,0.8-1.8,1.8v2C1.2,5.6,1.6,6,2,6z" clip-rule="evenodd"/><path fill="#7D8299" fill-rule="evenodd" d="M14,10c-0.4,0-0.8,0.3-0.8,0.8v2c0,0.1-0.1,0.2-0.2,0.2h-2 c-0.4,0-0.8,0.3-0.8,0.8s0.3,0.8,0.8,0.8h2c1,0,1.8-0.8,1.8-1.8v-2C14.8,10.4,14.4,10,14,10z" clip-rule="evenodd"/><path fill="#7D8299" fill-rule="evenodd" d="M13,1.5h-2c-0.4,0-0.8,0.3-0.8,0.8S10.6,3,11,3h2 c0.1,0,0.2,0.1,0.2,0.2v2C13.2,5.6,13.6,6,14,6s0.8-0.3,0.8-0.8v-2C14.8,2.2,14,1.5,13,1.5z" clip-rule="evenodd"/><path fill="#7D8299" fill-rule="evenodd" d="M5,13H3c-0.1,0-0.2-0.1-0.2-0.2v-2C2.8,10.4,2.4,10,2,10 s-0.8,0.3-0.8,0.8v2c0,1,0.8,1.8,1.8,1.8h2c0.4,0,0.8-0.3,0.8-0.8S5.4,13,5,13z" clip-rule="evenodd"/><path fill="#7D8299" fill-rule="evenodd" d="M13.2,8.5c0.2-0.3,0.2-0.7,0-1C11.7,5.7,9.9,4.8,8,4.8 S4.3,5.7,2.8,7.5c-0.2,0.3-0.2,0.7,0,1c1.5,1.8,3.3,2.8,5.2,2.8C9.9,11.2,11.7,10.3,13.2,8.5z M8,9.8C6.7,9.8,5.5,9.2,4.4,8 C5.5,6.8,6.7,6.2,8,6.2c1.3,0,2.5,0.6,3.6,1.8C10.5,9.2,9.3,9.8,8,9.8z" clip-rule="evenodd"/><circle cx="8" cy="8.1" r="1.2" fill="#7D8299" fill-rule="evenodd" clip-rule="evenodd"/></g></svg>