<svg xmlns="http://www.w3.org/2000/svg" viewBox="0 0 715.62 197.95"><defs><style>.cls-1{fill:#000650;}</style></defs><title>维格云文字黑</title><g id="图层_2" data-name="图层 2"><g id="图层_1-2" data-name="图层 1"><polygon class="cls-1" points="0 197.94 57.95 197.94 60.74 178.04 2.8 178.04 0 197.94"/><path class="cls-1" d="M135.77,0H114.1L79.75,77.41h15L80.65,178,77.85,198H200.6L203.4,178h-44l4.29-30.52h40.92l2.8-19.91H166.47l4.26-30.3h40.92l2.79-19.9H173.53l3.63-25.88h42L222,31.63H121.57Zm3.71,178H100.55l4.29-30.52h38.93Zm7.09-50.43H107.64l4.26-30.3h38.92Zm10.69-76.08-3.64,25.88H114.7l3.63-25.88Z"/><polygon class="cls-1" points="185.48 0 184.41 0 164.5 0 163.43 0 160.33 22.05 182.38 22.05 185.48 0"/><polygon class="cls-1" points="83.51 50.65 62.5 50.65 50.25 73.02 41.73 73.02 72.5 0 51.48 0 12.33 92.92 39.34 92.92 9.43 147.52 65.03 147.52 67.83 127.61 41.35 127.61 83.51 50.65"/><polygon class="cls-1" points="267.61 62.15 249.27 192.64 266.74 192.64 285.08 62.15 267.61 62.15"/><polygon class="cls-1" points="322.46 62.15 304.12 192.64 321.59 192.64 339.93 62.15 322.46 62.15"/><polygon class="cls-1" points="345.18 51.53 347.98 31.63 318.12 31.63 322.57 0 302.66 0 298.22 31.63 266.59 31.63 263.79 51.53 295.42 51.53 274.84 197.94 294.75 197.94 315.32 51.53 345.18 51.53"/><polygon class="cls-1" points="464.27 11.5 380.67 11.5 382.28 0 362.01 0 357.6 31.41 357.74 31.41 357.71 31.63 441.31 31.63 438.73 50.01 404.65 66.63 375.25 50.01 376.34 42.25 356.22 42.25 353.62 60.71 382.89 77.25 341.38 97.49 338.39 118.72 401.67 87.86 456.28 118.72 459.26 97.49 423.44 77.25 457.35 60.71 464.27 11.5"/><path class="cls-1" d="M334.34,198H438.06l11.47-81.62H345.81ZM363,136.24h63.7L420.85,178h-63.7Z"/><polygon class="cls-1" points="712.79 104.48 715.62 84.36 509.54 84.36 506.71 104.48 545.94 104.48 497.32 197.94 696.57 197.94 681.13 116.71 659.33 116.71 670.79 177.69 529.23 177.69 567.96 104.48 712.79 104.48"/><polygon class="cls-1" points="707.94 11.5 537.69 11.5 534.87 31.56 705.12 31.56 707.94 11.5"/></g></g></svg>