<svg xmlns="http://www.w3.org/2000/svg" xmlns:xlink="http://www.w3.org/1999/xlink" id="Layer_1" x="0" y="0" enable-background="new 0 0 16 16" version="1.1" viewBox="0 0 16 16" xml:space="preserve"><g><path fill="#666" d="M8.1,1C4.2,1,1,4.2,1,8.1c0,3.9,3.2,7.1,7.1,7.1c3.9,0,7.1-3.2,7.1-7.1C15.1,4.2,12,1,8.1,1z M8.1,13.1 C5.3,13.1,3,10.9,3,8.1C3,5.3,5.3,3,8.1,3c2.8,0,5.1,2.3,5.1,5.1C13.1,10.9,10.9,13.1,8.1,13.1z"/><path fill="#666" d="M8.1,4.1C6.8,4.1,5.7,5,5.5,6.2C5.4,6.6,5.7,7,6.1,7.1C6.5,7.1,6.9,6.9,7,6.5c0.1-0.5,0.6-0.9,1.1-0.9 c0.6,0,1.1,0.5,1.1,1.1c0,0.6-0.4,1-0.9,1.1C7.7,7.9,7.3,8.3,7.3,8.8v0.5c0,0.4,0.3,0.8,0.8,0.8s0.8-0.3,0.8-0.8V9.2 c1.1-0.3,1.9-1.3,1.9-2.5C10.7,5.2,9.5,4.1,8.1,4.1z"/><circle cx="8.1" cy="11.3" r=".8" fill="#666"/></g></svg>