<svg xmlns="http://www.w3.org/2000/svg" xmlns:xlink="http://www.w3.org/1999/xlink" id="Layer_1" x="0" y="0" enable-background="new 0 0 16 16" version="1.1" viewBox="0 0 16 16" xml:space="preserve"><g><path fill="#636363" d="M8,13c-2.8,0-5-2.2-5-5s2.2-5,5-5s5,2.2,5,5c0,0.6,0.4,1,1,1s1-0.4,1-1c0-3.9-3.1-7-7-7C4.1,1,1,4.1,1,8 c0,3.9,3.1,7,7,7c0.6,0,1-0.4,1-1S8.6,13,8,13z"/><path fill="#636363" d="M6,6.5v1C6,7.8,6.2,8,6.5,8S7,7.8,7,7.5v-1C7,6.2,6.8,6,6.5,6S6,6.2,6,6.5z"/><path fill="#636363" d="M9,6.5v1C9,7.8,9.2,8,9.5,8S10,7.8,10,7.5v-1C10,6.2,9.8,6,9.5,6S9,6.2,9,6.5z"/><path fill="#636363" d="M10.3,9.6C10,9.4,9.7,9.5,9.6,9.7c-0.3,0.5-0.9,0.8-1.6,0.8s-1.3-0.3-1.6-0.8C6.3,9.5,6,9.4,5.7,9.6 C5.5,9.7,5.4,10,5.6,10.3C6.1,11,7,11.5,8,11.5s1.9-0.5,2.4-1.2C10.6,10,10.5,9.7,10.3,9.6z"/><path fill="#636363" d="M14.5,12H13v-1.5c0-0.3-0.2-0.5-0.5-0.5S12,10.2,12,10.5V12h-1.5c-0.3,0-0.5,0.2-0.5,0.5s0.2,0.5,0.5,0.5 H12v1.5c0,0.3,0.2,0.5,0.5,0.5s0.5-0.2,0.5-0.5V13h1.5c0.3,0,0.5-0.2,0.5-0.5S14.8,12,14.5,12z"/></g></svg>