<?xml version="1.0" encoding="utf-8"?>
<!-- Generator: Adobe Illustrator 24.1.2, SVG Export Plug-In . SVG Version: 6.00 Build 0)  -->
<svg version="1.1" id="Layer_1" xmlns="http://www.w3.org/2000/svg" xmlns:xlink="http://www.w3.org/1999/xlink" x="0px" y="0px"
	 viewBox="0 0 16 16" enable-background="new 0 0 16 16" xml:space="preserve">
<path fill-rule="evenodd" clip-rule="evenodd" fill="#979797" d="M6.5,3c0,0.8,0.7,1.5,1.5,1.5S9.5,3.8,9.5,3S8.8,1.5,8,1.5
	S6.5,2.2,6.5,3z M6.5,8c0,0.8,0.7,1.5,1.5,1.5S9.5,8.8,9.5,8S8.8,6.5,8,6.5S6.5,7.2,6.5,8z M6.5,13c0,0.8,0.7,1.5,1.5,1.5
	s1.5-0.7,1.5-1.5S8.8,11.5,8,11.5S6.5,12.2,6.5,13z"/>
</svg>
