<?xml version="1.0" encoding="utf-8"?>
<!-- Generator: Adobe Illustrator 24.0.0, SVG Export Plug-In . SVG Version: 6.00 Build 0)  -->
<svg version="1.1" id="Layer_1" xmlns="http://www.w3.org/2000/svg" xmlns:xlink="http://www.w3.org/1999/xlink" x="0px" y="0px"
	 viewBox="0 0 16 16" enable-background="new 0 0 16 16" xml:space="preserve">
<path fill="#FFFFFF" d="M11.7,8.3c-0.4-0.4-1-0.4-1.4,0L9,9.6V3c0-0.6-0.4-1-1-1S7,2.4,7,3v6.6L5.7,8.3c-0.4-0.4-1-0.4-1.4,0
	s-0.4,1,0,1.4l3,3c0.1,0.1,0.2,0.2,0.3,0.2C7.7,13,7.9,13,8,13s0.3,0,0.4-0.1c0.1-0.1,0.2-0.1,0.3-0.2l3-3
	C12.1,9.3,12.1,8.7,11.7,8.3z"/>
</svg>
