<svg xmlns="http://www.w3.org/2000/svg" xmlns:xlink="http://www.w3.org/1999/xlink" id="Layer_1" x="0" y="0" enable-background="new 0 0 16 16" version="1.1" viewBox="0 0 16 16" xml:space="preserve"><g><path fill="#7D8299" d="M12.9,1H3.1C1.9,1,1,1.9,1,3.1v9.9C1,14.1,1.9,15,3.1,15H5c0.6,0,1-0.4,1-1s-0.4-1-1-1l-2-0.1L3.1,3L13,3.1 V5c0,0.6,0.4,1,1,1s1-0.4,1-1V3.1C15,1.9,14.1,1,12.9,1z"/><path fill="#7D8299" d="M14,10h-2V8c0-0.6-0.4-1-1-1s-1,0.4-1,1v2H8c-0.6,0-1,0.4-1,1s0.4,1,1,1h2v2c0,0.6,0.4,1,1,1s1-0.4,1-1v-2 h2c0.6,0,1-0.4,1-1S14.6,10,14,10z"/></g></svg>