<svg xmlns="http://www.w3.org/2000/svg" xmlns:xlink="http://www.w3.org/1999/xlink" id="Layer_1" x="0" y="0" enable-background="new 0 0 16 16" version="1.1" viewBox="0 0 16 16" xml:space="preserve"><desc>Created with Sketch.</desc><g><path fill="#7D8299" d="M13.5,7H6.9c-0.6,0-1,0.4-1,1s0.4,1,1,1h6.6c0.6,0,1-0.4,1-1S14.1,7,13.5,7z"/><path fill="#7D8299" d="M3.9,7H2.5c-0.6,0-1,0.4-1,1s0.4,1,1,1h1.4c0.6,0,1-0.4,1-1S4.5,7,3.9,7z"/><path fill="#7D8299" d="M6.9,4.9h6.6c0.6,0,1-0.4,1-1s-0.4-1-1-1H6.9c-0.6,0-1,0.4-1,1S6.3,4.9,6.9,4.9z"/><path fill="#7D8299" d="M3.9,2.9H2.5c-0.6,0-1,0.4-1,1s0.4,1,1,1h1.4c0.6,0,1-0.4,1-1S4.5,2.9,3.9,2.9z"/><path fill="#7D8299" d="M13.5,11.1H6.9c-0.6,0-1,0.4-1,1s0.4,1,1,1h6.6c0.6,0,1-0.4,1-1S14.1,11.1,13.5,11.1z"/><path fill="#7D8299" d="M3.9,11.1H2.5c-0.6,0-1,0.4-1,1s0.4,1,1,1h1.4c0.6,0,1-0.4,1-1S4.5,11.1,3.9,11.1z"/></g></svg>