<?xml version="1.0" encoding="utf-8"?>
<!-- Generator: Adobe Illustrator 24.1.0, SVG Export Plug-In . SVG Version: 6.00 Build 0)  -->
<svg version="1.1" id="Layer_1" xmlns="http://www.w3.org/2000/svg" xmlns:xlink="http://www.w3.org/1999/xlink" x="0px" y="0px"
	 viewBox="0 0 16 16" enable-background="new 0 0 16 16" xml:space="preserve">
<desc>Created with Sketch.</desc>
<g>
	<path fill-rule="evenodd" clip-rule="evenodd" fill="#7D8299" d="M14,4.1L10.5,1c-0.1-0.1-0.3-0.2-0.5-0.2H3.5
		c-1,0-1.8,0.8-1.8,1.8v11c0,1,0.8,1.8,1.8,1.8h9c1,0,1.8-0.8,1.8-1.8V4.6C14.3,4.4,14.2,4.2,14,4.1z M12.5,13.8h-9
		c-0.1,0-0.2-0.1-0.2-0.2v-11c0-0.1,0.1-0.2,0.2-0.2h5v2C8.5,4.7,8.9,5,9.3,5h3.5v8.5C12.8,13.7,12.7,13.8,12.5,13.8z"/>
	<path fill-rule="evenodd" clip-rule="evenodd" fill="#7D8299" d="M10.3,11H7.4V9.9h2.2c0.2,0,0.3-0.1,0.3-0.3V8.7
		c0-0.2-0.1-0.3-0.3-0.3H7.4V7.5H10c0.2,0,0.3-0.1,0.3-0.3V6.3C10.3,6.1,10.2,6,10,6H7.1H6.4H6.2C5.7,6,5.4,6.3,5.4,6.8
		c0,0,0,0.1,0,0.1c0,0,0,0.1,0,0.1v1.7v0.9v2.1c0,0,0,0,0,0c0,0,0,0,0,0c0,0.4,0.3,0.8,0.8,0.8h4.1c0.2,0,0.3-0.1,0.3-0.3v-0.9
		C10.6,11.1,10.5,11,10.3,11z"/>
</g>
</svg>
