<svg xmlns="http://www.w3.org/2000/svg" xmlns:xlink="http://www.w3.org/1999/xlink" id="Layer_1" x="0" y="0" enable-background="new 0 0 15 15" version="1.1" viewBox="0 0 15 15" xml:space="preserve"><title>datasheet_icon_delete_file</title><desc>Created with Sketch.</desc><g><path fill="#7D8299" d="M3,2.2C2.6,2.2,2.2,2.6,2.2,3v10c0,0.4,0.3,0.8,0.8,0.8s0.8-0.3,0.8-0.8V3C3.8,2.6,3.4,2.2,3,2.2z"/><path fill="#7D8299" d="M12,2.2c-0.4,0-0.8,0.3-0.8,0.8v10c0,0.4,0.3,0.8,0.8,0.8s0.8-0.3,0.8-0.8V3C12.8,2.6,12.4,2.2,12,2.2z"/><path fill="#7D8299" d="M6,10.3c0.2,0,0.3-0.1,0.3-0.3V9c0-0.2-0.1-0.3-0.3-0.3S5.7,8.8,5.7,9v1C5.7,10.2,5.8,10.3,6,10.3z"/><path fill="#7D8299" d="M6,8.3c0.2,0,0.3-0.1,0.3-0.3V7c0-0.2-0.1-0.3-0.3-0.3S5.7,6.8,5.7,7v1C5.7,8.2,5.8,8.3,6,8.3z"/><path fill="#7D8299" d="M6,6.3c0.2,0,0.3-0.1,0.3-0.3V5c0-0.2-0.1-0.3-0.3-0.3S5.7,4.8,5.7,5v1C5.7,6.2,5.8,6.3,6,6.3z"/><path fill="#7D8299" d="M6.5,2.5c0.1,0,0.1,0,0.2,0C6.7,2.3,6.9,2.3,7,2.3h0.4c0.2,0,0.3-0.1,0.3-0.3S7.6,1.7,7.4,1.7H7 c-0.3,0-0.5,0.1-0.7,0.2C6.2,2,6.1,2.2,6.2,2.3C6.3,2.4,6.4,2.5,6.5,2.5z"/><path fill="#7D8299" d="M6,4.3c0.2,0,0.3-0.1,0.3-0.3V3c0-0.2-0.1-0.3-0.3-0.3S5.7,2.8,5.7,3v1C5.7,4.2,5.8,4.3,6,4.3z"/><path fill="#7D8299" d="M6.3,11c0-0.2-0.1-0.3-0.3-0.3S5.7,10.8,5.7,11v1c0,0.1,0,0.2,0.1,0.4c0,0.1,0.2,0.2,0.3,0.2 c0,0,0.1,0,0.1,0c0.2,0,0.2-0.2,0.2-0.4c0-0.1,0-0.1,0-0.2V11z"/><path fill="#7D8299" d="M9,3.6c-0.2,0-0.3,0.1-0.3,0.3v1C8.7,5,8.8,5.2,9,5.2S9.3,5,9.3,4.9v-1C9.3,3.7,9.2,3.6,9,3.6z"/><path fill="#7D8299" d="M9,7.6c-0.2,0-0.3,0.1-0.3,0.3v1C8.7,9,8.8,9.2,9,9.2S9.3,9,9.3,8.9v-1C9.3,7.7,9.2,7.6,9,7.6z"/><path fill="#7D8299" d="M7.7,12.7H7c-0.1,0-0.1,0-0.2,0c-0.2,0-0.3,0-0.4,0.2c0,0.2,0,0.3,0.2,0.4c0.1,0,0.2,0.1,0.4,0.1h0.7 C7.9,13.3,8,13.2,8,13S7.9,12.7,7.7,12.7z"/><path fill="#7D8299" d="M9,9.6c-0.2,0-0.3,0.1-0.3,0.3v1c0,0.2,0.1,0.3,0.3,0.3s0.3-0.1,0.3-0.3v-1C9.3,9.7,9.2,9.6,9,9.6z"/><path fill="#7D8299" d="M9,5.6c-0.2,0-0.3,0.1-0.3,0.3v1C8.7,7,8.8,7.2,9,7.2S9.3,7,9.3,6.9v-1C9.3,5.7,9.2,5.6,9,5.6z"/><path fill="#7D8299" d="M8.7,2.9C8.7,3,8.8,3.2,9,3.2c0,0,0,0,0,0c0.2,0,0.3-0.2,0.3-0.3C9.2,2.4,8.9,2,8.5,1.8 C8.4,1.7,8.2,1.8,8.1,2c-0.1,0.2,0,0.3,0.1,0.4C8.5,2.5,8.7,2.7,8.7,2.9z"/><path fill="#7D8299" d="M9,11.6c-0.2,0-0.3,0.1-0.3,0.3V12c0,0.2-0.1,0.4-0.2,0.5c-0.1,0.1-0.1,0.3,0,0.4c0.1,0.1,0.1,0.1,0.2,0.1 c0.1,0,0.1,0,0.2-0.1c0.3-0.2,0.4-0.6,0.4-1v-0.1C9.3,11.7,9.2,11.6,9,11.6z"/></g></svg>