<svg xmlns="http://www.w3.org/2000/svg" xmlns:xlink="http://www.w3.org/1999/xlink" id="Layer_1" x="0" y="0" enable-background="new 0 0 16 16" version="1.1" viewBox="0 0 16 16" xml:space="preserve"><g><path fill="#7D8299" d="M12.9,3H9.2L8.5,1.9C8.1,1.4,7.5,1,6.8,1H3.1C1.9,1,1,1.9,1,3.1v9.9C1,14.1,1.9,15,3.1,15h9.9 c1.1,0,2.1-0.9,2.1-2.1V5.1C15,3.9,14.1,3,12.9,3z M12.9,13H3.1L3,12.9L3.1,3l3.8,0l1,1.5C8,4.8,8.3,5,8.6,5L13,5.1L12.9,13z"/><path fill="#7D8299" d="M7,7v1H6C5.4,8,5,8.4,5,9c0,0.6,0.4,1,1,1h1v1c0,0.6,0.4,1,1,1s1-0.4,1-1v-1h1c0.6,0,1-0.4,1-1 c0-0.6-0.4-1-1-1H9V7c0-0.6-0.4-1-1-1S7,6.4,7,7z"/></g></svg>