<svg xmlns="http://www.w3.org/2000/svg" xmlns:xlink="http://www.w3.org/1999/xlink" id="Layer_1" x="0" y="0" enable-background="new 0 0 16 16" version="1.1" viewBox="0 0 16 16" xml:space="preserve"><g><path fill="#7D8299" d="M12.9,1H5.1C3.9,1,3,1.9,3,3.1v1.1c0,0.6,0.4,1,1,1s1-0.4,1-1L5.1,3L13,3.1L12.9,13L5,12.9V12 c0-0.6-0.4-1-1-1s-1,0.4-1,1v0.9C3,14.1,3.9,15,5.1,15h7.9c1.1,0,2.1-0.9,2.1-2.1V3.1C15,1.9,14.1,1,12.9,1z"/><path fill="#7D8299" d="M7.3,9.3c-0.4,0.4-0.4,1,0,1.4C7.5,10.9,7.7,11,8,11s0.5-0.1,0.7-0.3l2-2c0.4-0.4,0.4-1,0-1.4l-2-2 c-0.4-0.4-1-0.4-1.4,0s-0.4,1,0,1.4L7.6,7H2C1.4,7,1,7.4,1,8s0.4,1,1,1h5.6L7.3,9.3z"/></g></svg>