<?xml version="1.0" encoding="utf-8"?>
<!-- Generator: Adobe Illustrator 24.1.0, SVG Export Plug-In . SVG Version: 6.00 Build 0)  -->
<svg version="1.1" id="Layer_1" xmlns="http://www.w3.org/2000/svg" xmlns:xlink="http://www.w3.org/1999/xlink" x="0px" y="0px"
	 viewBox="0 0 16 16" enable-background="new 0 0 16 16" xml:space="preserve">
<desc>Created with Sketch.</desc>
<path fill="#7D8299" d="M13.8,2.6c-0.4-0.4-0.9-0.7-1.5-0.7H3.7c-1.1,0-2,0.9-2,2.1l0,0.2C1.8,4.6,2,5.1,2.4,5.4L5.2,8l0,3.2
	c0,0.6,0.4,1,1,1c0.6,0,1-0.4,1-1l0-3.6c0-0.3-0.1-0.5-0.3-0.7L3.7,4l0-0.1l8.6,0L9.1,6.8C8.9,7,8.8,7.2,8.8,7.5l0,5.7
	c0,0.6,0.4,1,1,1c0.6,0,1-0.4,1-1l0-5.2l2.8-2.6C14.4,4.7,14.5,3.4,13.8,2.6z"/>
</svg>
