<svg xmlns="http://www.w3.org/2000/svg" xmlns:xlink="http://www.w3.org/1999/xlink" id="Layer_1" x="0" y="0" enable-background="new 0 0 17 16" version="1.1" viewBox="0 0 17 16" xml:space="preserve"><g><path fill="#7D8299" d="M14.4,5.1c0-0.3-0.1-0.5-0.3-0.7l-2.7-2.7c-0.4-0.4-1-0.4-1.4,0L2.5,9.1C2.3,9.3,2.2,9.5,2.2,9.7l-0.3,3 c0,0.3,0.1,0.6,0.3,0.8c0.2,0.2,0.4,0.3,0.7,0.3c0,0,0.1,0,0.1,0l3-0.3c0.2,0,0.5-0.1,0.6-0.3l7.4-7.4C14.2,5.6,14.4,5.4,14.4,5.1z"/><path fill="#7D8299" d="M15,12h-4.5c-0.6,0-1,0.4-1,1s0.4,1,1,1H15c0.6,0,1-0.4,1-1S15.6,12,15,12z"/></g></svg>