<svg xmlns="http://www.w3.org/2000/svg" xmlns:xlink="http://www.w3.org/1999/xlink" id="Layer_1" x="0" y="0" enable-background="new 0 0 16 16" version="1.1" viewBox="0 0 16 16" xml:space="preserve"><desc>Created with Sketch.</desc><g><path fill="#7D8299" fill-rule="evenodd" d="M14,4.1L10.5,1c-0.1-0.1-0.3-0.2-0.5-0.2H3.5 c-1,0-1.8,0.8-1.8,1.8v11c0,1,0.8,1.8,1.8,1.8h9c1,0,1.8-0.8,1.8-1.8V4.6C14.3,4.4,14.2,4.2,14,4.1z M12.5,13.8h-9 c-0.1,0-0.2-0.1-0.2-0.2v-11c0-0.1,0.1-0.2,0.2-0.2h5v2C8.5,4.7,8.9,5,9.3,5h3.5v8.5C12.8,13.7,12.7,13.8,12.5,13.8z" clip-rule="evenodd"/><path fill="#7D8299" fill-rule="evenodd" d="M10.7,9.8l-1.4,0c-0.2,0-0.3,0.1-0.3,0.3 c-0.1,0.6-0.3,1.2-0.9,1.2c-0.7,0-1.1-0.9-1.1-2c0-1.1,0.4-1.9,1.1-1.9c0.5,0,0.7,0.6,0.9,1.1c0,0.2,0.2,0.3,0.3,0.3l1.4,0 c0,0,0,0,0.1,0c0.1,0,0.2-0.2,0.2-0.3C10.6,6.9,9.4,5.8,8,5.8c-1.7,0-3,1.6-3,3.5s1.3,3.5,3,3.5c1.4,0,2.6-1.1,2.9-2.7 c0,0,0,0,0-0.1C10.9,9.9,10.8,9.8,10.7,9.8z" clip-rule="evenodd"/></g></svg>