<svg xmlns="http://www.w3.org/2000/svg" xmlns:xlink="http://www.w3.org/1999/xlink" id="Layer_1" x="0" y="0" enable-background="new 0 0 15 15" version="1.1" viewBox="0 0 15 15" xml:space="preserve"><title>datasheet_icon_edit</title><desc>Created with Sketch.</desc><g><path fill="#7D8299" d="M12.1,4.3L9.6,1.7C9.4,1.6,9.2,1.5,9,1.5S8.6,1.6,8.5,1.7l-7,7C1.4,8.8,1.3,9,1.3,9.2l-0.2,2.8 c0,0.2,0.1,0.4,0.2,0.6c0.1,0.1,0.3,0.2,0.5,0.2c0,0,0,0,0.1,0l2.8-0.2c0.2,0,0.3-0.1,0.5-0.2l7-7C12.4,5,12.4,4.6,12.1,4.3z M4.3,11l-1.6,0.1l0.1-1.6L9,3.3l1.5,1.5L4.3,11z"/><path fill="#7D8299" d="M13,11.2H8c-0.4,0-0.8,0.3-0.8,0.8s0.3,0.8,0.8,0.8h5c0.4,0,0.8-0.3,0.8-0.8S13.4,11.2,13,11.2z"/></g></svg>