<svg xmlns="http://www.w3.org/2000/svg" xmlns:xlink="http://www.w3.org/1999/xlink" id="Layer_1" x="0" y="0" version="1.1" viewBox="0 0 16 16" style="enable-background:new 0 0 16 16" xml:space="preserve"><style type="text/css">.st0{fill-rule:evenodd;clip-rule:evenodd;fill:#979797}</style><path d="M14.6,1.9C15,2.4,15.1,3,14.9,3.6l-4,10.7c-0.1,0.2-0.3,0.6-0.6,0.9c-0.2,0.1-0.4,0.3-0.7,0.3	c-0.3,0.1-0.7,0-0.9-0.2c-0.2-0.1-0.4-0.3-0.4-0.4c-0.1-0.1-0.1-0.2-0.2-0.3c-0.1-0.2-0.2-0.5-0.4-0.7c-0.1-0.2-0.2-0.4-0.3-0.6	c-0.2-0.4-0.4-0.8-0.5-1.1c-0.2-0.5-0.3-1.1-0.1-1.7l0.4-1.1L6.1,9.8C5.5,10,4.9,9.9,4.4,9.7C4,9.5,3.7,9.3,3.3,9.2	C3.1,9.1,2.9,9,2.7,8.9C2.4,8.7,2.1,8.6,1.9,8.5C1.8,8.4,1.7,8.4,1.6,8.3C1.5,8.2,1.3,8.1,1.2,7.9C1,7.6,1,7.3,1,7	c0.1-0.3,0.2-0.6,0.3-0.7C1.6,5.9,2,5.7,2.2,5.7l10.7-4C13.5,1.4,14.1,1.5,14.6,1.9z M12.6,3.9L3.8,7.2C3.9,7.2,4,7.3,4,7.3	c0.4,0.2,0.8,0.4,1.2,0.6l0,0l0,0l2.9-1.1c0.9-0.5,2,0.6,1.5,1.5l-1.1,2.9l0,0l0,0C8.8,11.6,9,12,9.2,12.4c0,0.1,0.1,0.2,0.1,0.2	L12.6,3.9z M9.8,13.7L9.8,13.7C9.8,13.8,9.8,13.8,9.8,13.7z M2.8,6.7C2.7,6.7,2.7,6.7,2.8,6.7L2.8,6.7z M2.8,7.6L2.8,7.6L2.8,7.6z" class="st0"/></svg>