<svg xmlns="http://www.w3.org/2000/svg" xmlns:xlink="http://www.w3.org/1999/xlink" id="Layer_1" x="0" y="0" enable-background="new 0 0 16 16" version="1.1" viewBox="0 0 16 16" xml:space="preserve"><g><path fill="#7D8299" d="M13.3,4.6l-3-3c-0.2-0.2-0.4-0.3-0.7-0.3h0c-0.3,0-0.5,0.1-0.7,0.3L1.8,8.8C1.6,9,1.5,9.2,1.5,9.4l-0.3,3.3 c0,0.3,0.1,0.6,0.3,0.8c0.2,0.2,0.4,0.3,0.7,0.3c0,0,0.1,0,0.1,0l3.3-0.3c0.2,0,0.5-0.1,0.6-0.3L13.4,6C13.7,5.6,13.7,4.9,13.3,4.6 z M5,11.6l-1.7,0.1l0.2-1.8l6.2-6.3l1.6,1.6L5,11.6z"/><path fill="#7D8299" d="M13.8,11.8H9.6c-0.6,0-1,0.4-1,1s0.4,1,1,1h4.2c0.6,0,1-0.4,1-1S14.4,11.8,13.8,11.8z"/></g></svg>