<?xml version="1.0" encoding="utf-8"?>
<!-- Generator: Adobe Illustrator 24.0.0, SVG Export Plug-In . SVG Version: 6.00 Build 0)  -->
<svg version="1.1" id="Layer_1" xmlns="http://www.w3.org/2000/svg" xmlns:xlink="http://www.w3.org/1999/xlink" x="0px" y="0px"
	 viewBox="0 0 16 16" enable-background="new 0 0 16 16" xml:space="preserve">
<g>
	<path fill="#979797" d="M6,14c-0.6,0-1-0.4-1-1V5.4L3.2,7.2c-0.4,0.4-1,0.4-1.4,0s-0.4-1,0-1.4l3.5-3.5C5.6,2,6,1.9,6.4,2.1
		C6.8,2.2,7,2.6,7,3v10C7,13.6,6.6,14,6,14z"/>
</g>
<g>
	<path fill="#979797" d="M10,14c-0.6,0-1-0.4-1-1V3c0-0.6,0.4-1,1-1s1,0.4,1,1v10C11,13.6,10.6,14,10,14z"/>
</g>
</svg>
