<svg xmlns="http://www.w3.org/2000/svg" xmlns:xlink="http://www.w3.org/1999/xlink" id="Layer_1" x="0" y="0" enable-background="new 0 0 16 16" version="1.1" viewBox="0 0 16 16" xml:space="preserve"><g><path fill="#7D8299" d="M9,11c-0.6,0-1,0.4-1,1l-0.1,1L3,12.9L3.1,3L8,3.1V4c0,0.6,0.4,1,1,1c0.6,0,1-0.4,1-1V3.1 C10,1.9,9.1,1,7.9,1H3.1C1.9,1,1,1.9,1,3.1v9.9C1,14.1,1.9,15,3.1,15h4.9c1.1,0,2.1-0.9,2.1-2.1V12C10,11.4,9.6,11,9,11z"/><path fill="#7D8299" d="M14.7,7.3l-2-2c-0.4-0.4-1-0.4-1.4,0s-0.4,1,0,1.4L11.6,7H6C5.4,7,5,7.4,5,8s0.4,1,1,1h5.6l-0.3,0.3 c-0.4,0.4-0.4,1,0,1.4c0.2,0.2,0.5,0.3,0.7,0.3s0.5-0.1,0.7-0.3l2-2C15.1,8.3,15.1,7.7,14.7,7.3z"/></g></svg>