<svg xmlns="http://www.w3.org/2000/svg" xmlns:xlink="http://www.w3.org/1999/xlink" id="Layer_1" x="0" y="0" enable-background="new 0 0 16 16" version="1.1" viewBox="0 0 16 16" xml:space="preserve"><desc>Created with Sketch.</desc><g><path fill="#7D8299" fill-rule="evenodd" d="M14.8,7.4C12.9,4.5,10.6,3,8,3C5.4,3,3.1,4.5,1.2,7.4 c-0.2,0.3-0.2,0.8,0,1.1C3.1,11.5,5.4,13,8,13s4.9-1.5,6.8-4.4C15.1,8.2,15.1,7.8,14.8,7.4z M8,11c-1.7,0-3.3-1-4.8-3 C4.7,6,6.3,5,8,5c1.7,0,3.3,1,4.8,3C11.3,10,9.7,11,8,11z" clip-rule="evenodd"/><circle cx="8" cy="8" r="2" fill="#7D8299" fill-rule="evenodd" clip-rule="evenodd"/></g></svg>