<svg xmlns="http://www.w3.org/2000/svg" xmlns:xlink="http://www.w3.org/1999/xlink" id="Layer_1" x="0" y="0" enable-background="new 0 0 15 15" version="1.1" viewBox="0 0 15 15" xml:space="preserve"><title>datasheet_icon_delete_record</title><desc>Created with Sketch.</desc><g><path fill="#7D8299" d="M3,3.8h9c0.4,0,0.8-0.3,0.8-0.8S12.4,2.2,12,2.2H3C2.6,2.2,2.2,2.6,2.2,3S2.6,3.8,3,3.8z"/><path fill="#7D8299" d="M12,11.2H3c-0.4,0-0.8,0.3-0.8,0.8s0.3,0.8,0.8,0.8h9c0.4,0,0.8-0.3,0.8-0.8S12.4,11.2,12,11.2z"/><path fill="#7D8299" d="M6.1,9.3h1c0.2,0,0.3-0.1,0.3-0.3S7.3,8.7,7.1,8.7h-1C6,8.7,5.8,8.8,5.8,9S6,9.3,6.1,9.3z"/><path fill="#7D8299" d="M8.3,6c0-0.2-0.1-0.3-0.3-0.3H7C6.8,5.7,6.7,5.8,6.7,6S6.8,6.3,7,6.3h1C8.2,6.3,8.3,6.2,8.3,6z"/><path fill="#7D8299" d="M8.1,9.3h1c0.2,0,0.3-0.1,0.3-0.3S9.3,8.7,9.1,8.7h-1C8,8.7,7.8,8.8,7.8,9S8,9.3,8.1,9.3z"/><path fill="#7D8299" d="M4.3,6c0-0.2-0.1-0.3-0.3-0.3H3c-0.1,0-0.2,0-0.4,0.1C2.5,5.8,2.4,6,2.4,6.1c0,0.1,0.2,0.2,0.3,0.2 c0,0,0.1,0,0.1,0c0.1,0,0.1,0,0.2,0h1C4.2,6.3,4.3,6.2,4.3,6z"/><path fill="#7D8299" d="M4.1,9.3h1c0.2,0,0.3-0.1,0.3-0.3S5.3,8.7,5.1,8.7h-1C4,8.7,3.8,8.8,3.8,9S4,9.3,4.1,9.3z"/><path fill="#7D8299" d="M6.3,6c0-0.2-0.1-0.3-0.3-0.3H5C4.8,5.7,4.7,5.8,4.7,6S4.8,6.3,5,6.3h1C6.2,6.3,6.3,6.2,6.3,6z"/><path fill="#7D8299" d="M10.3,6c0-0.2-0.1-0.3-0.3-0.3H9C8.8,5.7,8.7,5.8,8.7,6S8.8,6.3,9,6.3h1C10.2,6.3,10.3,6.2,10.3,6z"/><path fill="#7D8299" d="M12.6,8.3c-0.1,0.2-0.3,0.4-0.5,0.4c-0.2,0-0.3,0.2-0.3,0.3c0,0.2,0.1,0.3,0.3,0.3c0,0,0,0,0,0 c0.4-0.1,0.8-0.3,1-0.7c0.1-0.2,0-0.3-0.1-0.4C12.9,8.1,12.7,8.1,12.6,8.3z"/><path fill="#7D8299" d="M13.1,6.3c-0.1-0.1-0.3-0.2-0.4-0.1c-0.1,0.1-0.2,0.3-0.1,0.4c0.1,0.1,0.1,0.2,0.1,0.4v0.4 c0,0.2,0.1,0.3,0.3,0.3s0.3-0.1,0.3-0.3V7C13.3,6.8,13.2,6.5,13.1,6.3z"/><path fill="#7D8299" d="M3.1,9.3c0.2,0,0.3-0.1,0.3-0.3S3.3,8.7,3.1,8.7H3c-0.2,0-0.4-0.1-0.5-0.2C2.4,8.3,2.2,8.3,2,8.4 C1.9,8.5,1.9,8.7,2,8.9c0.2,0.3,0.6,0.4,1,0.4H3.1z"/><path fill="#7D8299" d="M2.3,7.7V7c0-0.1,0-0.1,0-0.2c0-0.2,0-0.3-0.2-0.4c-0.2,0-0.3,0-0.4,0.2c0,0.1-0.1,0.2-0.1,0.4v0.7 C1.7,7.9,1.8,8,2,8S2.3,7.9,2.3,7.7z"/><path fill="#7D8299" d="M10.1,9.3h1c0.2,0,0.3-0.1,0.3-0.3s-0.1-0.3-0.3-0.3h-1C10,8.7,9.8,8.8,9.8,9S10,9.3,10.1,9.3z"/><path fill="#7D8299" d="M12.3,6c0-0.2-0.1-0.3-0.3-0.3h-1c-0.2,0-0.3,0.1-0.3,0.3s0.1,0.3,0.3,0.3h1C12.2,6.3,12.3,6.2,12.3,6z"/></g></svg>