<svg xmlns="http://www.w3.org/2000/svg" xmlns:xlink="http://www.w3.org/1999/xlink" id="Layer_1" x="0" y="0" enable-background="new 0 0 16 16" version="1.1" viewBox="0 0 16 16" xml:space="preserve"><g><path fill="#7D8299" fill-rule="evenodd" d="M8,0.5C3.9,0.5,0.5,3.9,0.5,8s3.3,7.5,7.5,7.5s7.5-3.3,7.5-7.5 S12.1,0.5,8,0.5z M8,13.5C5,13.5,2.5,11,2.5,8C2.5,5,5,2.5,8,2.5c3,0,5.5,2.5,5.5,5.5C13.5,11,11,13.5,8,13.5z" clip-rule="evenodd"/><path fill="#7D8299" fill-rule="evenodd" d="M8,7C7.4,7,7,7.4,7,8v3c0,0.6,0.4,1,1,1s1-0.4,1-1V8 C9,7.4,8.6,7,8,7z" clip-rule="evenodd"/><path fill="#7D8299" fill-rule="evenodd" d="M8,4C7.4,4,6.9,4.5,6.9,5.1c0,0.6,0.5,1.1,1.1,1.1 s1.1-0.5,1.1-1.1C9.1,4.5,8.6,4,8,4z" clip-rule="evenodd"/></g></svg>