<svg xmlns="http://www.w3.org/2000/svg" xmlns:xlink="http://www.w3.org/1999/xlink" id="Layer_1" x="0" y="0" enable-background="new 0 0 16 16" version="1.1" viewBox="0 0 16 16" xml:space="preserve"><path fill="#979797" d="M15,5.7c-0.2-0.5-0.6-0.9-1.2-1l-3.1-0.4L9.3,1.5C9.1,1,8.6,0.6,8,0.6S6.9,1,6.7,1.5L5.3,4.3L2.2,4.7	c-0.6,0.1-1,0.5-1.2,1C0.8,6.3,1,6.9,1.4,7.3l2.2,2.2l-0.5,3.1C3,13.1,3.2,13.6,3.7,14c0.5,0.3,1.1,0.4,1.6,0.1L8,12.6l2.7,1.5	c0.2,0.1,0.5,0.2,0.7,0.2c0.3,0,0.6-0.1,0.9-0.3c0.5-0.3,0.7-0.9,0.6-1.5l-0.5-3.1l2.2-2.2C15,6.9,15.2,6.3,15,5.7z M10.8,8.2	c-0.4,0.3-0.5,0.8-0.4,1.3l0.4,2.3l-2.1-1.1c-0.4-0.2-1-0.2-1.4,0l-2.1,1.1l0.4-2.3c0.1-0.5-0.1-1-0.4-1.3L3.5,6.5l2.3-0.3	C6.3,6.1,6.8,5.8,7,5.4l1-2.1l1,2.1c0.2,0.4,0.6,0.8,1.1,0.8l2.3,0.3L10.8,8.2z"/></svg>