<svg xmlns="http://www.w3.org/2000/svg" xmlns:xlink="http://www.w3.org/1999/xlink" id="Layer_1" x="0" y="0" enable-background="new 0 0 16 16" version="1.1" viewBox="0 0 16 16" xml:space="preserve"><g><path fill="#666" fill-rule="evenodd" d="M8,5C7.4,5,7,5.4,7,6v3c0,0.6,0.4,1,1,1h3c0.6,0,1-0.4,1-1 s-0.4-1-1-1H9V6C9,5.4,8.6,5,8,5z" clip-rule="evenodd"/><path fill="#666" fill-rule="evenodd" d="M11.6,2.4C8.7,0.7,5.1,1.5,3.2,4.1L3.1,3.7C3,3.1,2.5,2.8,2,2.8 S1.1,3.4,1.1,3.9l0.4,3.3C1.6,7.6,1.9,8,2.3,8.1S3.2,8,3.4,7.6l1.1-1.8c1.2-2.2,4-2.9,6.1-1.6c2.2,1.2,2.9,4,1.6,6.1 c-1.2,2.2-4,2.9-6.1,1.6c-0.5-0.3-0.8-0.6-1.2-1c-0.4-0.4-1-0.5-1.4-0.1c-0.4,0.4-0.5,1-0.1,1.4c0.5,0.5,1,1,1.7,1.4 c3.1,1.8,7.1,0.7,8.9-2.4C15.8,8.1,14.7,4.2,11.6,2.4z" clip-rule="evenodd"/></g></svg>