<svg xmlns="http://www.w3.org/2000/svg" xmlns:xlink="http://www.w3.org/1999/xlink" id="Layer_1" x="0" y="0" enable-background="new 0 0 15 15" version="1.1" viewBox="0 0 15 15" xml:space="preserve"><title>rightclick_icon_pulldown_all</title><desc>Created with Sketch.</desc><g><path fill="#7D8299" d="M10.7,6H4.3C4.1,6,4,6.1,4,6.3c0,0.1,0,0.1,0,0.2l3.2,5.1c0.1,0.1,0.3,0.2,0.4,0.1c0,0,0.1-0.1,0.1-0.1 L11,6.5c0.1-0.1,0-0.3-0.1-0.4C10.8,6,10.8,6,10.7,6z"/><path fill="#7D8299" d="M10.5,3.2h-6C4.1,3.2,3.8,3.6,3.8,4s0.3,0.8,0.8,0.8h6c0.4,0,0.8-0.3,0.8-0.8S10.9,3.2,10.5,3.2z"/></g></svg>