<svg xmlns="http://www.w3.org/2000/svg" xmlns:xlink="http://www.w3.org/1999/xlink" id="Layer_1" x="0" y="0" enable-background="new 0 0 15 15" version="1.1" viewBox="0 0 15 15" xml:space="preserve"><title>rightclick_icon_retract_all</title><desc>Created with Sketch.</desc><g><path fill="#7D8299" d="M11.7,7.3C11.7,7.3,11.6,7.3,11.7,7.3L6.5,4C6.3,3.9,6.1,4,6,4.1c0,0,0,0.1,0,0.2v6.4C6,10.9,6.1,11,6.3,11 c0.1,0,0.1,0,0.2,0l5.1-3.2C11.7,7.7,11.8,7.5,11.7,7.3z"/><path fill="#7D8299" d="M4,3.8c-0.4,0-0.8,0.3-0.8,0.8v6c0,0.4,0.3,0.8,0.8,0.8s0.8-0.3,0.8-0.8v-6C4.8,4.1,4.4,3.8,4,3.8z"/></g></svg>