<svg xmlns="http://www.w3.org/2000/svg" xmlns:xlink="http://www.w3.org/1999/xlink" id="Layer_1" x="0" y="0" enable-background="new 0 0 16 16" version="1.1" viewBox="0 0 16 16" xml:space="preserve"><g><circle cx="6" cy="7.6" r=".9" fill="#8C8C8C" fill-rule="evenodd" clip-rule="evenodd"/><path fill="#8C8C8C" fill-rule="evenodd" d="M4.7,9.9c0,0.4,0.3,0.8,0.8,0.8s0.8-0.3,0.8-0.8S5.9,9.1,5.5,9.1 S4.7,9.5,4.7,9.9z" clip-rule="evenodd"/><path fill="#8C8C8C" fill-rule="evenodd" d="M15.5,4.2l-0.4-0.5c-0.1-0.2-0.3-0.3-0.4-0.4c0,0-0.1-0.1,0-0.1 l0.5-1.4c0.1-0.2,0.1-0.5,0-0.7L15,0.7c-0.1-0.2-0.2-0.2-0.4-0.1l-0.3,0.2c-0.2,0.1-0.4,0.3-0.5,0.6l-0.5,1.4 c0,0.1-0.1,0.1-0.1,0.1c-0.2,0-0.4,0-0.6,0L12,2.9c-0.1,0-0.1,0-0.2,0.1c-0.1,0-0.1,0.1-0.1,0.2l-0.1,0.3c0,0.1,0,0.2,0.1,0.3 L15.2,5c0.1,0,0.2,0,0.3-0.1l0.1-0.3C15.6,4.5,15.6,4.3,15.5,4.2z" clip-rule="evenodd"/><path fill="#8C8C8C" fill-rule="evenodd" d="M13.3,9.1c-0.5-0.1-0.9,0.2-1,0.7c-0.3,1.6-1.5,2.9-3.1,3.4 c-0.5,0.1-0.9,0.2-1.4,0.2c0.7-0.4,1.3-0.9,2-1.5C12,9.9,13.2,7.5,13.6,6c0.1-0.4-0.1-0.9-0.6-1.1c-0.4-0.1-0.9,0.1-1.1,0.6 c-0.4,1.2-1.4,3.4-3.4,5.1c-1,0.9-2.1,1.6-3.1,2c-0.9-0.6-1.5-1.4-1.9-2.5c-0.7-2.3,0.6-4.8,3-5.5c1.3-0.4,2.6-0.2,3.6,0.5 c0.4,0.2,0.9,0.1,1.2-0.3c0.2-0.4,0.1-0.9-0.3-1.2C9.7,2.8,7.9,2.5,6.1,3C3.5,3.8,1.7,6.3,1.8,8.9c0,0,0,0,0,0 c-0.5,0.8-0.9,1.7-1.1,2.6c-0.2,0.8-0.1,1.8,0.5,2.5c0.5,0.5,1.1,0.8,1.8,0.8c0.7,0.1,1.4-0.1,2.1-0.3c0.1,0,0.2-0.1,0.4-0.1 c1.3,0.6,2.8,0.7,4.3,0.3c2.3-0.7,3.9-2.5,4.3-4.7C14,9.6,13.7,9.1,13.3,9.1z M3.1,13.2c-0.4,0-0.5-0.1-0.6-0.3 c-0.1-0.1-0.2-0.4-0.1-1.1c0-0.1,0-0.2,0.1-0.2c0.3,0.6,0.7,1.1,1.1,1.6C3.4,13.2,3.2,13.2,3.1,13.2z" clip-rule="evenodd"/></g></svg>