<svg xmlns="http://www.w3.org/2000/svg" xmlns:xlink="http://www.w3.org/1999/xlink" id="Layer_1" x="0" y="0" enable-background="new 0 0 16 16" version="1.1" viewBox="0 0 16 16" xml:space="preserve"><g><path fill="#979797" d="M14.1,3.1c0-0.3-0.1-0.5-0.3-0.7c-0.2-0.2-0.4-0.3-0.7-0.3c0,0,0,0-0.1,0c-0.3,0-0.5,0.1-0.7,0.3L2.9,12.9 c-0.2,0.2-0.3,0.5-0.3,0.7s0.1,0.5,0.3,0.7c0.2,0.2,0.4,0.3,0.7,0.3c0.3,0,0.5-0.1,0.7-0.3l9.4-10.4C14,3.6,14.1,3.4,14.1,3.1z"/><path fill="#979797" d="M3.4,10.9l2.1-2.3C5.4,8.4,5.3,8.3,5.2,8.2L3.5,6.5l2.3-0.3C6.3,6.1,6.8,5.8,7,5.4l1-2.1l0.8,1.6l1.4-1.6 L9.3,1.5C9.1,1,8.6,0.6,8,0.6S6.9,1,6.7,1.5L5.3,4.3L2.2,4.7c-0.6,0.1-1,0.5-1.2,1C0.8,6.3,1,6.9,1.4,7.3l2.2,2.2L3.4,10.9z"/><path fill="#979797" d="M15,5.7c-0.1-0.4-0.4-0.7-0.8-0.9l-3.9,4.3c0,0.1,0,0.2,0,0.4l0.4,2.3l-1.9-1l-2.4,2.6L8,12.6l2.7,1.5 c0.2,0.1,0.5,0.2,0.7,0.2c0.3,0,0.6-0.1,0.9-0.3c0.5-0.3,0.7-0.9,0.6-1.5l-0.5-3.1l2.2-2.2C15,6.9,15.2,6.3,15,5.7z"/></g></svg>