<svg xmlns="http://www.w3.org/2000/svg" xmlns:xlink="http://www.w3.org/1999/xlink" id="Layer_1" x="0" y="0" enable-background="new 0 0 16 16" version="1.1" viewBox="0 0 16 16" xml:space="preserve"><g><path fill="#666" d="M14,1H2C1.4,1,1,1.4,1,2v9c0,0.6,0.4,1,1,1h5v1H5c-0.6,0-1,0.4-1,1s0.4,1,1,1h6c0.6,0,1-0.4,1-1s-0.4-1-1-1 H9v-1h5c0.6,0,1-0.4,1-1V2C15,1.4,14.6,1,14,1z M13,10H3V3h10V10z"/><path fill="#666" d="M6.1,7.5l1.4-1.4c0.4-0.4,0.4-1,0-1.4c-0.4-0.4-1-0.4-1.4,0L4.7,6.1c-0.4,0.4-0.4,1,0,1.4 C5.1,7.9,5.7,7.9,6.1,7.5z"/><path fill="#666" d="M10.4,7.5l1.4-1.4c0.4-0.4,0.4-1,0-1.4c-0.4-0.4-1-0.4-1.4,0L8.9,6.1c-0.4,0.4-0.4,1,0,1.4 C9.3,7.9,10,7.9,10.4,7.5z"/></g></svg>