<svg xmlns="http://www.w3.org/2000/svg" xmlns:xlink="http://www.w3.org/1999/xlink" id="Layer_1" x="0" y="0" enable-background="new 0 0 16 16" version="1.1" viewBox="0 0 16 16" xml:space="preserve"><g><circle cx="8" cy="5" r="3" fill="#666"/><path fill="#666" d="M13,10.1c-0.4-0.3-1-0.9-1.8-1.3c-0.3-0.1-0.6-0.1-0.7,0.2c-0.5,0.7-1.4,2-2,2.8c-0.2,0.3-0.7,0.3-1,0 C6.9,11,6,9.7,5.5,9C5.3,8.7,5,8.6,4.8,8.8C4,9.2,3.4,9.7,3,10.1c-0.4,0.4-0.5,0.8-0.5,1.3c0,1.4,1.1,2.4,2.4,2.4h6.1 c1.4,0,2.4-1.1,2.4-2.4C13.5,10.9,13.3,10.4,13,10.1z"/><path fill="#666" d="M7.9,8.5L7.2,8.9C7.1,9,7,9.1,7.1,9.2l0.8,2.1c0,0.1,0.2,0.1,0.2,0l0.8-2.1c0-0.1,0-0.2-0.1-0.3L8.1,8.5 C8,8.5,8,8.5,7.9,8.5z"/></g></svg>