<svg xmlns="http://www.w3.org/2000/svg" xmlns:xlink="http://www.w3.org/1999/xlink" id="Layer_1" x="0" y="0" enable-background="new 0 0 16 16" version="1.1" viewBox="0 0 16 16" xml:space="preserve"><g><path fill="#636363" d="M6,2H2C1.4,2,1,2.4,1,3v10c0,0.6,0.4,1,1,1h4c0.6,0,1-0.4,1-1V3C7,2.4,6.6,2,6,2z M5,12H3V4h2V12z"/><path fill="#636363" d="M14.7,7.3l-4-4c-0.4-0.4-1-0.4-1.4,0c-0.4,0.4-0.4,1,0,1.4L11.6,7H9C8.4,7,8,7.4,8,8s0.4,1,1,1h2.6 l-2.3,2.3c-0.4,0.4-0.4,1,0,1.4C9.5,12.9,9.7,13,10,13s0.5-0.1,0.7-0.3l4-4C15.1,8.3,15.1,7.7,14.7,7.3z"/></g></svg>