<?xml version="1.0" encoding="utf-8"?>
<!-- Generator: Adobe Illustrator 24.1.2, SVG Export Plug-In . SVG Version: 6.00 Build 0)  -->
<svg version="1.1" id="Layer_1" xmlns="http://www.w3.org/2000/svg" xmlns:xlink="http://www.w3.org/1999/xlink" x="0px" y="0px"
	 viewBox="0 0 16 16" enable-background="new 0 0 16 16" xml:space="preserve">
<path fill="#636363" d="M14,2h-4C9.4,2,9,2.4,9,3v10c0,0.6,0.4,1,1,1h4c0.6,0,1-0.4,1-1V3C15,2.4,14.6,2,14,2z M13,12h-2V4h2V12z"/>
<path fill="#636363" d="M7,7H4.4l2.3-2.3c0.4-0.4,0.4-1,0-1.4s-1-0.4-1.4,0l-4,4c-0.4,0.4-0.4,1,0,1.4l4,4C5.5,12.9,5.7,13,6,13
	s0.5-0.1,0.7-0.3c0.4-0.4,0.4-1,0-1.4L4.4,9H7c0.6,0,1-0.4,1-1S7.6,7,7,7z"/>
</svg>
