<svg xmlns="http://www.w3.org/2000/svg" xmlns:xlink="http://www.w3.org/1999/xlink" id="Layer_1" x="0" y="0" version="1.1" viewBox="0 0 15 15" style="enable-background:new 0 0 15 15" xml:space="preserve"><style type="text/css">.st0{fill-rule:evenodd;clip-rule:evenodd;fill:#2b68ff}</style><title>workbench_tab_arrow_right</title><desc>Created with Sketch.</desc><path d="M7.5,0C3.4,0,0,3.4,0,7.5S3.4,15,7.5,15S15,11.6,15,7.5S11.6,0,7.5,0z M9.7,8l-2.8,2.8	c-0.1,0.1-0.3,0.2-0.5,0.2S6,11,5.8,10.9c-0.3-0.3-0.3-0.8,0-1.1l2.3-2.3L5.8,5.2c-0.3-0.3-0.3-0.8,0-1.1s0.8-0.3,1.1,0L9.7,7	C10,7.3,10,7.7,9.7,8z" class="st0"/></svg>