<svg xmlns="http://www.w3.org/2000/svg" xmlns:xlink="http://www.w3.org/1999/xlink" id="Layer_1" x="0" y="0" enable-background="new 0 0 24 24" version="1.1" viewBox="0 0 24 24" xml:space="preserve"><path fill="#636363" fill-rule="evenodd" d="M21.1,1.3c-0.3,0.2-0.6,0.5-0.7,0.8l-0.7,2c0,0.1-0.1,0.1-0.2,0.1	c-0.3,0-0.6,0-0.8,0.1l-1,0.2c-0.1,0-0.2,0.1-0.3,0.1c-0.1,0.1-0.1,0.2-0.2,0.3l-0.2,0.4c-0.1,0.2,0,0.3,0.2,0.4l5.1,1.9	c0.2,0.1,0.3,0,0.4-0.2L23,7c0.1-0.2,0-0.4-0.1-0.6l-0.6-0.8c-0.2-0.2-0.4-0.4-0.6-0.6c-0.1-0.1-0.1-0.1-0.1-0.2l0.7-2	c0.1-0.4,0.1-0.7,0-1.1l-0.2-0.5c-0.1-0.2-0.3-0.3-0.5-0.2L21.1,1.3z M4.7,14.6c0,0.3,0.1,0.6,0.2,0.9c0.5,1.6,1.5,2.9,2.8,3.8	c1.6-0.6,3.5-1.7,5.3-3.3c2.9-2.5,4.5-5.6,5-7.5c0.2-0.5,0.7-0.8,1.2-0.7c0.5,0.2,0.8,0.7,0.7,1.2c-0.6,2.2-2.4,5.6-5.6,8.4	c-1.3,1.2-2.7,2.1-4.1,2.8c1.1,0.2,2.3,0.2,3.4-0.2c3-0.9,4.9-3.6,5-6.5c0-0.6,0.5-1,1-1c0.6,0,1,0.5,1,1c-0.1,3.8-2.6,7.2-6.4,8.4	c-2.3,0.7-4.7,0.4-6.7-0.6c-1,0.3-2,0.4-2.9,0.4c-0.9-0.1-1.8-0.4-2.4-1.1c-0.7-0.9-0.9-2-0.7-3.1c0.2-1,0.6-2.1,1.2-3.2	C2.2,10.2,4.8,6.1,9,4.9c2.6-0.8,5.2-0.3,7.3,1c0.5,0.3,0.6,0.9,0.3,1.4c-0.3,0.5-0.9,0.6-1.4,0.3c-1.6-1-3.7-1.4-5.7-0.8	c-3.3,1-5.4,4.2-4.9,7.6C4.7,14.4,4.7,14.5,4.7,14.6z M5.3,19.9c-0.7-0.7-1.3-1.5-1.7-2.4c0,0.2-0.1,0.3-0.1,0.5	c-0.1,0.8,0,1.2,0.3,1.5c0.2,0.2,0.5,0.4,1.1,0.5C4.9,19.9,5.1,19.9,5.3,19.9z M7.2,11.8c0,0.7,0.6,1.2,1.2,1.2	c0.7,0,1.2-0.6,1.2-1.2c0-0.7-0.6-1.2-1.2-1.2C7.7,10.5,7.2,11.1,7.2,11.8z M7.9,16.5c-0.6,0-1-0.4-1-1c0-0.6,0.4-1,1-1	c0.6,0,1,0.4,1,1C8.9,16.1,8.4,16.5,7.9,16.5z" clip-rule="evenodd"/></svg>