<svg xmlns="http://www.w3.org/2000/svg" xmlns:xlink="http://www.w3.org/1999/xlink" id="Layer_1" x="0" y="0" enable-background="new 0 0 24 24" version="1.1" viewBox="0 0 24 24" xml:space="preserve"><desc>Created with Sketch.</desc><g id="Page-1"><g id="Workbench" transform="translate(-23.000000, -58.000000)"><g id="icon_x2F_workingtable" transform="translate(20.000000, 55.000000)"><g id="tab_icon_workingtable" transform="translate(5.500000, 5.300000)"><path id="Shape" fill="#575E7B" d="M16.7,0.1c1.2,0,2.1,0.9,2.1,2.1v9.9c0,1.2-0.9,2.1-2.1,2.1l-6.3,0v3.1l3.3,0 c0.5,0,0.8,0.3,0.9,0.8l0,0.1c0,0.5-0.3,0.8-0.8,0.9l-0.1,0H5.3c-0.5,0-0.9-0.4-0.9-0.9c0-0.5,0.3-0.8,0.8-0.9l0.1,0l3.3,0v-3.1 l-6.3,0c-1.2,0-2.1-0.9-2.1-2.1V2.2c0-1.2,0.9-2.1,2.1-2.1H16.7z M16.7,1.9H2.3C2.1,1.9,2,2,2,2.2v9.9c0,0.2,0.1,0.3,0.3,0.3 h14.4c0.2,0,0.3-0.1,0.3-0.3V2.2C17,2,16.9,1.9,16.7,1.9z"/></g></g></g></g></svg>