<svg xmlns="http://www.w3.org/2000/svg" xmlns:xlink="http://www.w3.org/1999/xlink" id="Layer_1" x="0" y="0" enable-background="new 0 0 16 16" version="1.1" viewBox="0 0 16 16" xml:space="preserve"><path fill="#666" d="M14.5,3.6L8.6,1.7c-0.4-0.1-0.8-0.1-1.2,0L1.5,3.6c-0.8,0.3-1.4,1-1.4,1.9c0,0.9,0.5,1.6,1.4,1.9L2,7.6v4.6	c0,0.3,0.1,0.6,0.4,0.8C4,14.2,6,14.9,8,14.9c2,0,4-0.6,5.6-1.9c0.2-0.2,0.4-0.5,0.4-0.8V7.6l0.5-0.2c0.8-0.3,1.4-1,1.4-1.9	C15.9,4.6,15.4,3.9,14.5,3.6z M8,3.6l-0.3-1L8,3.6l5.9,1.9L8,7.4L2.1,5.5L8,3.6z M12,11.6c-2.4,1.6-5.6,1.6-8,0V8.2l3.4,1.1	C7.6,9.4,7.8,9.4,8,9.4c0.2,0,0.4,0,0.6-0.1L12,8.2V11.6z"/></svg>