<svg xmlns="http://www.w3.org/2000/svg" xmlns:xlink="http://www.w3.org/1999/xlink" id="Layer_1" x="0" y="0" version="1.1" viewBox="0 0 15 15" style="enable-background:new 0 0 15 15" xml:space="preserve"><style type="text/css">.st0{fill:#7d8299}</style><title>workbench_tab_lock</title><desc>Created with Sketch.</desc><path d="M11,6.5h-0.2v-2c0-1.8-1.5-3.2-3.2-3.2S4.2,2.7,4.2,4.5v2H4C3.7,6.5,3.5,6.7,3.5,7v6c0,0.3,0.2,0.5,0.5,0.5h7	c0.3,0,0.5-0.2,0.5-0.5V7C11.5,6.7,11.3,6.5,11,6.5z M5.8,4.5c0-1,0.8-1.8,1.8-1.8s1.8,0.8,1.8,1.8v2H5.8V4.5z" class="st0"/></svg>