<svg xmlns="http://www.w3.org/2000/svg" xmlns:xlink="http://www.w3.org/1999/xlink" id="Layer_1" x="0" y="0" version="1.1" viewBox="0 0 40 40" style="enable-background:new 0 0 40 40" xml:space="preserve"><style type="text/css">.st0{fill:#2b68ff}</style><title>workbench_pic_logo</title><desc>Created with Sketch.</desc><path d="M28.8,20.5l-2.5,0.2l0.5-4.9l2.4-0.2c1.1-0.1,1.9-1.1,1.8-2.2c-0.1-1.1-1.1-1.9-2.2-1.8l-1.6,0.2l0.4-3.6	c0.1-1.1-0.7-2.1-1.8-2.2c-1.1-0.1-2.1,0.7-2.2,1.8l-0.4,4.4l-5.2,0.5l0.4-4.5c0.1-1.1-0.7-2.1-1.8-2.2c-1.1-0.1-2.1,0.7-2.2,1.8	l-0.5,5.3l-2.9,0.3c-1.1,0.1-1.9,1.1-1.8,2.2c0.1,1,1,1.8,2,1.8c0.1,0,0.1,0,0.2,0l2.1-0.2L13,22.1l-2.1,0.2	c-1.1,0.1-1.9,1.1-1.8,2.2c0.1,1,1,1.8,2,1.8c0.1,0,0.1,0,0.2,0l1.3-0.1l-0.4,3.8C12.1,31,12.9,32,14,32.1c0.1,0,0.1,0,0.2,0	c1,0,1.9-0.8,2-1.8l0.4-4.6l5.2-0.5l-0.5,4.7c-0.1,1.1,0.7,2.1,1.8,2.2c0.1,0,0.1,0,0.2,0c1,0,1.9-0.8,2-1.8l0.5-5.5l3.3-0.3	c1.1-0.1,1.9-1.1,1.8-2.2C30.9,21.2,29.9,20.4,28.8,20.5z M17,21.7l0.5-4.9l5.2-0.5l-0.5,4.9L17,21.7z" class="st0"/></svg>