<svg xmlns="http://www.w3.org/2000/svg" xmlns:xlink="http://www.w3.org/1999/xlink" id="Layer_1" x="0" y="0" enable-background="new 0 0 24 24" version="1.1" viewBox="0 0 24 24" xml:space="preserve"><desc>Created with Sketch.</desc><g><path fill="#575E7B" fill-rule="evenodd" d="M12,1.4C6.1,1.4,1.4,6.1,1.4,12c0,5.9,4.8,10.6,10.6,10.6 c5.9,0,10.6-4.8,10.6-10.6C22.6,6.1,17.9,1.4,12,1.4z M12,20.8c-4.9,0-8.8-4-8.8-8.8s4-8.8,8.8-8.8s8.8,4,8.8,8.8 S16.9,20.8,12,20.8z" clip-rule="evenodd"/><path fill="#575E7B" fill-rule="evenodd" d="M12,5.9c-1.9,0-3.5,1.3-3.8,3.2c-0.1,0.5,0.2,1,0.7,1 c0.5,0.1,1-0.2,1-0.7c0.2-1,1-1.7,2.1-1.7c1.2,0,2.1,0.9,2.1,2.1c0,1-0.7,1.9-1.8,2.1c-0.7,0.1-1.2,0.7-1.2,1.5v0.8 c0,0.5,0.4,0.9,0.9,0.9s0.9-0.4,0.9-0.9v-0.5c1.8-0.4,3-2,3-3.8C15.9,7.6,14.1,5.9,12,5.9z" clip-rule="evenodd"/><circle cx="12.1" cy="16.9" r="1" fill="#575E7B" fill-rule="evenodd" clip-rule="evenodd"/></g></svg>