<svg xmlns="http://www.w3.org/2000/svg" xmlns:xlink="http://www.w3.org/1999/xlink" id="Layer_1" x="0" y="0" version="1.1" viewBox="0 0 15 15" style="enable-background:new 0 0 15 15" xml:space="preserve"><style type="text/css">.st0{fill-rule:evenodd;clip-rule:evenodd;fill:#2b68ff}</style><title>workbench_tab_arrow_left</title><desc>Created with Sketch.</desc><path d="M7.5,0C3.4,0,0,3.4,0,7.5S3.4,15,7.5,15S15,11.6,15,7.5S11.6,0,7.5,0z M9.2,9.8c0.3,0.3,0.3,0.8,0,1.1	C9,11,8.8,11.1,8.6,11.1S8.2,11,8.1,10.9L5.3,8C5,7.7,5,7.3,5.3,7l2.8-2.8c0.3-0.3,0.8-0.3,1.1,0s0.3,0.8,0,1.1L6.9,7.5L9.2,9.8z" class="st0"/></svg>