<svg xmlns="http://www.w3.org/2000/svg" xmlns:xlink="http://www.w3.org/1999/xlink" id="Layer_1" x="0" y="0" enable-background="new 0 0 16 16" version="1.1" viewBox="0 0 16 16" xml:space="preserve"><g><path fill="#636363" d="M13,1.6H3c-1.1,0-2,0.9-2,2v10c0,0.3,0.2,0.7,0.5,0.9c0.2,0.1,0.3,0.1,0.5,0.1s0.3,0,0.5-0.1L5.2,13H13 c1.1,0,2-0.9,2-2V3.6C15,2.5,14.1,1.6,13,1.6z M13,11H5.2c-0.3,0-0.6,0.1-0.9,0.2L3,11.9V3.6h10V11z"/><path fill="#636363" d="M5.4,8.6C6.2,9.1,7.1,9.4,8,9.4s1.8-0.3,2.6-0.7c0.5-0.3,0.6-0.9,0.3-1.4C10.7,6.8,10,6.7,9.6,7 C8.7,7.6,7.4,7.6,6.4,7C6,6.7,5.3,6.8,5,7.3C4.8,7.7,4.9,8.4,5.4,8.6z"/></g></svg>