<svg xmlns="http://www.w3.org/2000/svg" xmlns:xlink="http://www.w3.org/1999/xlink" id="Layer_1" x="0" y="0" enable-background="new 0 0 16 16" version="1.1" viewBox="0 0 16 16" xml:space="preserve"><g><path fill="#666" d="M12,1H4C2.3,1,1,2.3,1,4v8c0,1.7,1.3,3,3,3h8c1.7,0,3-1.3,3-3V4C15,2.3,13.7,1,12,1z M13,12 c0,0.6-0.4,1-1,1H4c-0.6,0-1-0.4-1-1V4c0-0.6,0.4-1,1-1h8c0.6,0,1,0.4,1,1V12z"/><path fill="#666" d="M9.8,4.4L6.6,7.6V5.1c0-0.6-0.4-1-1-1s-1,0.4-1,1v7.3l6.6-6.6c0.4-0.4,0.4-1,0-1.4C10.8,4,10.2,4,9.8,4.4z"/></g><circle cx="10.1" cy="10.7" r="1" fill="#666"/></svg>