<svg xmlns="http://www.w3.org/2000/svg" xmlns:xlink="http://www.w3.org/1999/xlink" id="Layer_1" x="0" y="0" enable-background="new 0 0 50 50" version="1.1" viewBox="0 0 50 50" xml:space="preserve"><title>workbench_tip_upload</title><desc>Created with Sketch.</desc><g><path fill="#BFC1CB" d="M39.3,14.8c-0.5-2.8-1.9-5.4-4-7.4C32.8,5.2,29.7,4,26.5,4c-2.5,0-4.9,0.7-7,2.1c-1.7,1.1-3.2,2.6-4.2,4.4 c-0.4-0.1-0.9-0.1-1.4-0.1c-3.9,0-7.1,3.2-7.1,7.1c0,0.5,0.1,1,0.1,1.5C4.5,20.7,3,23.7,3,26.8c0,2.5,0.9,5,2.7,7 c1.8,2,4.1,3.2,6.6,3.3c0,0,0,0,0.1,0h7.9c0.7,0,1.2-0.5,1.2-1.2s-0.5-1.2-1.2-1.2h-7.8c-3.7-0.2-6.9-3.8-6.9-7.8 c0-2.6,1.4-5,3.6-6.3c0.5-0.3,0.7-0.9,0.5-1.5c-0.2-0.5-0.3-1-0.3-1.6c0-2.5,2.1-4.6,4.6-4.6c0.5,0,1.1,0.1,1.6,0.3 c0.6,0.2,1.3-0.1,1.5-0.6c1.7-3.6,5.4-6,9.4-6c5.4,0,9.9,4.1,10.4,9.4c0.1,0.6,0.5,1,1,1.1c4.1,0.7,7.2,4.5,7.2,8.8 c0,4.6-3.6,8.5-8,8.9h-6.8c-0.7,0-1.2,0.5-1.2,1.2s0.5,1.2,1.2,1.2h6.8c0,0,0.1,0,0.1,0c2.8-0.2,5.4-1.5,7.4-3.6 c1.9-2.1,3-4.9,3-7.7C47.6,20.6,44.1,16.1,39.3,14.8z"/><path fill="#BFC1CB" d="M32.7,28c0.5-0.5,0.5-1.3,0-1.8l-6.6-6.6c-0.2-0.2-0.5-0.4-0.9-0.4s-0.6,0.1-0.9,0.4l-6.6,6.6 c-0.5,0.5-0.5,1.3,0,1.8c0.2,0.2,0.6,0.4,0.9,0.4c0.3,0,0.6-0.1,0.9-0.4l4.4-4.4V44c0,0.7,0.5,1.2,1.2,1.2s1.2-0.5,1.2-1.2V23.6 L31,28C31.5,28.5,32.2,28.5,32.7,28z"/></g></svg>