<svg xmlns="http://www.w3.org/2000/svg" xmlns:xlink="http://www.w3.org/1999/xlink" id="Layer_1" x="0" y="0" enable-background="new 0 0 24 24" version="1.1" viewBox="0 0 24 24" xml:space="preserve"><g><path fill="#404042" d="M12,15H6c-2.2,0-4,1.9-4,4.3V21c0,0.6,0.4,1,1,1s1-0.4,1-1v-1.7C4,18,4.9,17,6,17h6c1.1,0,2,1,2,2.3V21 c0,0.6,0.4,1,1,1s1-0.4,1-1v-1.7C16,16.9,14.2,15,12,15z"/><path fill="#404042" d="M9,14c2.8,0,5-2.2,5-5s-2.2-5-5-5S4,6.2,4,9S6.2,14,9,14z M9,6c1.7,0,3,1.3,3,3s-1.3,3-3,3s-3-1.3-3-3 S7.3,6,9,6z"/><path fill="#404042" d="M18.8,13.2c0.7-0.9,1.2-2,1.2-3.2c0-2.8-2.2-5-5-5c-0.6,0-1,0.4-1,1s0.4,1,1,1c1.7,0,3,1.3,3,3s-1.3,3-3,3 c-0.6,0-1,0.4-1,1s0.4,1,1,1h2.5c1.4,0,2.5,1,2.5,2.3V19c0,0.6,0.4,1,1,1s1-0.4,1-1v-1.7C22,15.4,20.6,13.7,18.8,13.2z"/></g></svg>