<?xml version="1.0" encoding="utf-8"?>
<!-- Generator: Adobe Illustrator 24.0.0, SVG Export Plug-In . SVG Version: 6.00 Build 0)  -->
<svg version="1.1" id="Layer_1" xmlns="http://www.w3.org/2000/svg" xmlns:xlink="http://www.w3.org/1999/xlink" x="0px" y="0px"
	 viewBox="0 0 24 24" enable-background="new 0 0 24 24" xml:space="preserve">
<g>
	<path fill="#636363" d="M12,12c2.2,0,4-1.8,4-4s-1.8-4-4-4C9.8,4,8,5.8,8,8c0,1.1,0.4,2,1.1,2.8c0,0,0,0,0,0c-1.8,1-3.1,3-3.1,5.2
		h0v1c0,0.6,0.5,1,1,1h4c0.6,0,1-0.4,1-1s-0.4-1-1-1H8C8,13.8,9.8,12,12,12 M12,6c1.1,0,2,0.9,2,2s-0.9,2-2,2c-1.1,0-2-0.9-2-2
		S10.9,6,12,6z"/>
	<path fill="#636363" d="M18,14h-1v-1c0-0.6-0.4-1-1-1s-1,0.4-1,1v1h-1c-0.6,0-1,0.4-1,1s0.4,1,1,1h1v1c0,0.6,0.4,1,1,1s1-0.4,1-1
		v-1h1c0.6,0,1-0.4,1-1S18.6,14,18,14z"/>
</g>
</svg>
