<svg xmlns="http://www.w3.org/2000/svg" xmlns:xlink="http://www.w3.org/1999/xlink" id="Layer_1" x="0" y="0" enable-background="new 0 0 16 16" version="1.1" viewBox="0 0 16 16" xml:space="preserve"><g><path fill="#FFEB3A" d="M4.3,9.1L3.8,7.3L3.3,9.1C3.2,9.5,3,9.7,2.6,9.8l-1.8,0.5l1.8,0.5c0.3,0.1,0.6,0.4,0.7,0.7l0.5,1.8l0.5-1.8 c0.1-0.3,0.4-0.6,0.7-0.7l1.8-0.5L5,9.8C4.7,9.7,4.4,9.5,4.3,9.1z"/><path fill="#FFEB3A" d="M8.9,5.3C9,5,9.3,4.7,9.6,4.7L12,4L9.6,3.3C9.3,3.2,9,2.9,8.9,2.6L8.2,0.2L7.6,2.6C7.5,2.9,7.2,3.2,6.9,3.3 L4.5,4l2.4,0.7C7.2,4.7,7.5,5,7.6,5.3l0.7,2.4L8.9,5.3z"/><path fill="#FFEB3A" d="M13.3,11.2c-0.3-0.1-0.6-0.4-0.7-0.7l-0.7-2.6l-0.7,2.6c-0.1,0.3-0.4,0.6-0.7,0.7l-2.6,0.7l2.6,0.7 c0.3,0.1,0.6,0.4,0.7,0.7l0.7,2.6l0.7-2.6c0.1-0.3,0.4-0.6,0.7-0.7l2.6-0.7L13.3,11.2z"/></g></svg>