<svg xmlns="http://www.w3.org/2000/svg" xmlns:xlink="http://www.w3.org/1999/xlink" id="Layer_1" x="0" y="0" enable-background="new 0 0 16 16" version="1.1" viewBox="0 0 16 16" xml:space="preserve"><g><path fill="#FFF" d="M9.3,8c0.8,0,1.6-0.3,2.2-0.9s0.9-1.4,0.9-2.2s-0.3-1.6-0.9-2.2s-1.4-0.9-2.2-0.9c-0.8,0-1.6,0.3-2.2,0.9 S6.2,4.1,6.2,4.9s0.3,1.6,0.9,2.2S8.5,8,9.3,8z"/><path fill="#FFF" d="M5.8,8C5.3,7.4,5,6.4,5,5.3c0-0.9,0.2-1.8,0.6-2.4C4.3,3,3.3,4.1,3.3,5.5C3.3,6.9,4.4,8,5.8,8z"/><path fill="#FFF" d="M5.1,8.7c-0.6-0.1-1-0.4-1-0.4c-1.3,0.6-2.2,2-2.2,3.5c0,0.4,0.6,0.8,1.6,1c-0.1-0.8,0-1.9,0.6-2.8 C4.4,9.5,4.7,9.1,5.1,8.7z"/><path fill="#FFF" d="M11.4,8.3c0,0-0.6,0.6-2.1,0.6c-1.3,0-2-0.6-2-0.6c-1.6,0.8-2.6,2.4-2.6,4.2c0,0.8,2.1,1.6,4.7,1.6 s4.7-0.8,4.7-1.6C14.1,10.7,13,9.1,11.4,8.3z"/></g></svg>