<svg xmlns="http://www.w3.org/2000/svg" xmlns:xlink="http://www.w3.org/1999/xlink" id="Layer_1" x="0" y="0" enable-background="new 0 0 16 16" version="1.1" viewBox="0 0 16 16" xml:space="preserve"><path fill="#FAAD14" d="M7.5,1.3c0.2-0.5,0.8-0.5,1,0L10.2,5c0.1,0.2,0.2,0.3,0.4,0.3l3.8,0.6c0.5,0.1,0.7,0.7,0.3,1L12,9.7	c-0.1,0.1-0.2,0.3-0.2,0.5l0.7,4c0.1,0.5-0.4,0.9-0.8,0.6L8.3,13c-0.2-0.1-0.4-0.1-0.5,0l-3.4,1.9c-0.4,0.2-0.9-0.1-0.8-0.6l0.7-4	c0-0.2,0-0.4-0.2-0.5L1.2,6.9C0.8,6.6,1,6,1.5,5.9l3.8-0.6c0.2,0,0.4-0.2,0.4-0.3L7.5,1.3z"/></svg>