<svg xmlns="http://www.w3.org/2000/svg" xmlns:xlink="http://www.w3.org/1999/xlink" id="Layer_1" x="0" y="0" enable-background="new 0 0 16 17" version="1.1" viewBox="0 0 16 17" xml:space="preserve"><g><path fill="#30C28B" fill-rule="evenodd" d="M3,6l1.5,9.2C4.6,15.6,5,16,5.5,16h5c0.5,0,0.9-0.4,1-0.8L13,6H3z" clip-rule="evenodd"/><path fill="#30C28B" fill-rule="evenodd" d="M5.6,4.7l1.9-0.5c0,0,0,0,0.1,0l3.8-1c0.5-0.1,0.8-0.7,0.7-1.2 c-0.1-0.5-0.7-0.9-1.2-0.7L8,2C7.8,1.5,7.3,1.2,6.8,1.3L4.8,1.8C4.3,2,4,2.5,4.1,3L1.2,3.8C0.7,4,0.4,4.5,0.5,5 c0.1,0.5,0.7,0.9,1.2,0.7L5.6,4.7C5.6,4.7,5.6,4.7,5.6,4.7z" clip-rule="evenodd"/></g></svg>