<svg xmlns="http://www.w3.org/2000/svg" xmlns:xlink="http://www.w3.org/1999/xlink" id="Layer_1" x="0" y="0" enable-background="new 0 0 16 16" version="1.1" viewBox="0 0 16 16" xml:space="preserve"><g><path fill="#5586FF" d="M13.5,5.8c0.1-0.4-0.1-0.8-0.4-0.9c-0.4-0.1-0.8,0.1-0.9,0.4c-0.5,1.4-1.7,3.6-3.7,5.3 C5.4,13.3,2.6,14,2,13.2c-0.3-0.3-0.3-1,0.2-2c0.2,0.6,0.6,1.2,1,1.6c1.6-0.4,3.3-1.3,4.9-2.5c1.7-1.6,3-3.5,3.7-5.3 c0.1-0.2,0.1-0.3,0.2-0.4C10.7,3.6,9.3,3,7.7,3c-3.3,0-6,2.7-6,6c0,0.1,0,0.2,0,0.2L1.5,9.6c-1.2,1.9-1.4,3.6-0.6,4.6 c0.5,0.5,1.1,0.8,1.9,0.8c1.9,0,4.5-1.4,6.6-3.2C12.2,9.3,13.2,6.6,13.5,5.8z M4.4,6.7c0.5,0,0.8,0.4,0.8,0.8 c0,0.5-0.4,0.8-0.8,0.8C3.9,8.3,3.5,8,3.5,7.5C3.5,7,3.9,6.7,4.4,6.7z M4,9.3c0.4,0,0.7,0.3,0.7,0.7c0,0.4-0.3,0.7-0.7,0.7 c-0.4,0-0.7-0.3-0.7-0.7C3.3,9.6,3.6,9.3,4,9.3z"/><path fill="#5586FF" d="M15.3,4.3l-0.4-0.5c-0.1-0.1-0.3-0.3-0.4-0.4c0,0-0.1-0.1,0-0.1l0.5-1.3c0.1-0.2,0.1-0.5,0-0.7l-0.1-0.3 c-0.1-0.2-0.2-0.2-0.4-0.1l-0.3,0.2c-0.2,0.1-0.4,0.3-0.5,0.6l-0.5,1.3c0,0.1-0.1,0.1-0.1,0.1c-0.2,0-0.4,0-0.6,0L11.8,3 c-0.1,0-0.1,0-0.2,0.1c-0.1,0-0.1,0.1-0.1,0.2l-0.1,0.3c0,0.1,0,0.2,0.1,0.3l3.4,1.2c0.1,0,0.2,0,0.3-0.1l0.1-0.3 C15.4,4.5,15.3,4.4,15.3,4.3z"/><path fill="#5586FF" d="M9.7,12.3L9.7,12.3L9.7,12.3c-1.2,1-2.6,1.8-3.9,2.4C6.4,14.9,7,15,7.7,15c3.3,0,6-2.7,6-6 c0-0.6-0.1-1.1-0.2-1.6C12.6,9.1,11.3,10.9,9.7,12.3z"/></g></svg>