<svg xmlns="http://www.w3.org/2000/svg" xmlns:xlink="http://www.w3.org/1999/xlink" id="Layer_1" x="0" y="0" enable-background="new 0 0 16 16" version="1.1" viewBox="0 0 16 16" xml:space="preserve"><path fill="#7B67EE" d="M15,6c0-2.8-2.2-5-5-5C8,1,6.3,2.2,5.5,3.9L1.7,7.7c-0.4,0.4-0.4,1,0,1.4c0.4,0.4,1,0.4,1.4,0l2-2	c0.1,0.6,0.3,1.1,0.6,1.5l-4,4c-0.4,0.4-0.4,1,0,1.4c0.4,0.4,1,0.4,1.4,0l4-4c0.4,0.3,0.9,0.5,1.5,0.7l-1.9,1.9	c-0.4,0.4-0.4,1,0,1.4c0.4,0.4,1,0.4,1.4,0l3.3-3.3C13.5,10.2,15,8.3,15,6z"/></svg>