<svg xmlns="http://www.w3.org/2000/svg" xmlns:xlink="http://www.w3.org/1999/xlink" id="Layer_1" x="0" y="0" enable-background="new 0 0 16 16" version="1.1" viewBox="0 0 16 16" xml:space="preserve"><g><path fill="#FFF" d="M7.3,11.2c0.2,0.2,0.4,0.3,0.7,0.3c0.3,0,0.5-0.1,0.7-0.3l2.8-2.8c0.4-0.4,0.4-1,0-1.4 c-0.4-0.4-1-0.4-1.4,0L9,8.1V3.5c0-0.6-0.4-1-1-1s-1,0.4-1,1v4.6L5.9,7c-0.4-0.4-1-0.4-1.4,0s-0.4,1,0,1.4L7.3,11.2z"/><path fill="#FFF" d="M12,13H4c-0.6,0-1,0.4-1,1s0.4,1,1,1h8c0.6,0,1-0.4,1-1S12.6,13,12,13z"/></g></svg>