<?xml version="1.0" encoding="utf-8"?>
<!-- Generator: Adobe Illustrator 24.1.0, SVG Export Plug-In . SVG Version: 6.00 Build 0)  -->
<svg version="1.1" id="图层_1" xmlns="http://www.w3.org/2000/svg" xmlns:xlink="http://www.w3.org/1999/xlink" x="0px" y="0px"
	 viewBox="0 0 16 16" enable-background="new 0 0 16 16" xml:space="preserve">
<path fill="#666666" d="M14,4h-3V3c0-1.1-0.9-2-2-2H7C5.9,1,5,1.9,5,3v1H2C1.4,4,1,4.4,1,5s0.4,1,1,1h1v6c0,1.7,1.3,3,3,3h4
	c1.7,0,3-1.3,3-3V6h1c0.6,0,1-0.4,1-1S14.6,4,14,4z M7,3h2v1H7V3z M11,12c0,0.6-0.4,1-1,1H6c-0.6,0-1-0.4-1-1V6h6V12z"/>
</svg>
