<?xml version="1.0" encoding="utf-8"?>
<!-- Generator: Adobe Illustrator 24.0.0, SVG Export Plug-In . SVG Version: 6.00 Build 0)  -->
<svg version="1.1" id="图层_1" xmlns="http://www.w3.org/2000/svg" xmlns:xlink="http://www.w3.org/1999/xlink" x="0px" y="0px"
	 viewBox="0 0 15 15" style="enable-background:new 0 0 15 15;" xml:space="preserve">
<style type="text/css">
	.st0{fill:#7D8299;}
</style>
<title>common_icon_currency</title>
<desc>Created with Sketch.</desc>
<path class="st0" d="M11.2,2.4c-0.3-0.2-0.8-0.1-1,0.2L8.4,5.2H6.7L4.9,2.6c-0.2-0.3-0.7-0.4-1-0.2c-0.3,0.2-0.4,0.7-0.2,1l1.2,1.8
	H4.5C4.1,5.2,3.7,5.6,3.7,6s0.3,0.8,0.8,0.8h2.3v1.5H4.5C4.1,8.2,3.7,8.6,3.7,9s0.3,0.8,0.8,0.8h2.3V12c0,0.4,0.3,0.8,0.8,0.8
	s0.8-0.3,0.8-0.8V9.8h2.2c0.4,0,0.8-0.3,0.8-0.8s-0.3-0.8-0.8-0.8H8.2V6.8h2.2c0.4,0,0.8-0.3,0.8-0.8s-0.3-0.8-0.8-0.8h-0.3l1.2-1.8
	C11.6,3.1,11.5,2.6,11.2,2.4z"/>
</svg>
