<?xml version="1.0" encoding="utf-8"?>
<!-- Generator: Adobe Illustrator 24.1.0, SVG Export Plug-In . SVG Version: 6.00 Build 0)  -->
<svg version="1.1" id="图层_1" xmlns="http://www.w3.org/2000/svg" xmlns:xlink="http://www.w3.org/1999/xlink" x="0px" y="0px"
	 viewBox="0 0 16 16" enable-background="new 0 0 16 16" xml:space="preserve">
<path fill="#666666" d="M9.4,8l3.3-3.3c0.4-0.4,0.4-1,0-1.4s-1-0.4-1.4,0L8,6.6L4.7,3.3c-0.4-0.4-1-0.4-1.4,0s-0.4,1,0,1.4L6.6,8
	l-3.3,3.3c-0.4,0.4-0.4,1,0,1.4C3.5,12.9,3.7,13,4,13s0.5-0.1,0.7-0.3L8,9.4l3.3,3.3c0.2,0.2,0.5,0.3,0.7,0.3s0.5-0.1,0.7-0.3
	c0.4-0.4,0.4-1,0-1.4L9.4,8z"/>
</svg>
