<svg xmlns="http://www.w3.org/2000/svg" xmlns:xlink="http://www.w3.org/1999/xlink" id="Layer_1" x="0" y="0" enable-background="new 0 0 16 16" version="1.1" viewBox="0 0 16 16" xml:space="preserve"><g><path fill="#666" d="M11.2,4.7c-0.2-0.1-0.5-0.1-0.7,0.2c-0.1,0.2-0.1,0.5,0.2,0.7c1,0.6,1.6,1.6,1.6,2.8c0,1.1-0.6,2.2-1.6,2.8 c-0.2,0.1-0.3,0.4-0.2,0.7c0.1,0.2,0.3,0.3,0.4,0.3c0.1,0,0.2,0,0.2-0.1c1.3-0.7,2.1-2.1,2.1-3.6C13.4,6.8,12.6,5.4,11.2,4.7z"/><path fill="#666" d="M11.4,8.3c0-0.8-0.3-1.5-0.9-2c-0.2-0.2-0.5-0.2-0.7,0C9.6,6.5,9.7,6.8,9.9,7c0.4,0.3,0.6,0.8,0.6,1.3 c0,0.5-0.2,1-0.6,1.3c-0.2,0.2-0.2,0.5,0,0.7c0.1,0.1,0.2,0.2,0.4,0.2c0.1,0,0.2,0,0.3-0.1C11.1,9.8,11.4,9,11.4,8.3z"/><path fill="#666" d="M8.4,4C8,3.8,7.6,3.9,7.3,4.2L5.3,6H4C3.4,6,3,6.4,3,7V10c0,0.5,0.4,1,1,1h1.4l2.1,1.5 c0.2,0.1,0.4,0.2,0.6,0.2c0.2,0,0.3,0,0.5-0.1C8.8,12.4,9,12.1,9,11.7V4.9C9,4.5,8.8,4.2,8.4,4z M5.8,10.1C5.7,10,5.6,10,5.5,10 L4,10l0-3h1.5c0.1,0,0.2,0,0.3-0.1l2.2-2l0,6.8L5.8,10.1z"/></g></svg>