<svg xmlns="http://www.w3.org/2000/svg" xmlns:xlink="http://www.w3.org/1999/xlink" id="Layer_1" x="0" y="0" enable-background="new 0 0 15 15" version="1.1" viewBox="0 0 15 15" xml:space="preserve"><title>datasheet_icon_notification_allread</title><desc>Created with Sketch.</desc><g id="Notice3"><g id="Board" transform="translate(-33.000000, -39.000000)"><g id="icon_x2F_allread" transform="translate(33.000000, 39.000000)"><g id="_x31_.Color_x2F_二级颜色_xFF08_FC2_xFF09_"><g id="Mask"><path id="path-1_1_" fill="#575E7B" d="M7.5,0.8c0.9,0,1.7,0.2,2.5,0.5c0.4,0.2,0.6,0.6,0.4,1s-0.6,0.6-1,0.4 C8.8,2.4,8.2,2.2,7.5,2.2c-2.9,0-5.2,2.4-5.2,5.2s2.4,5.2,5.2,5.2s5.2-2.4,5.2-5.2c0-0.4,0.3-0.8,0.8-0.8s0.8,0.3,0.8,0.8 c0,3.7-3,6.8-6.8,6.8s-6.8-3-6.8-6.8S3.8,0.8,7.5,0.8z M13.3,3.5L13.3,3.5c0.3,0.3,0.4,0.8,0.1,1.1l-0.1,0.1L8,10 c-0.3,0.3-0.7,0.3-1,0.1L6.9,10L4.2,7.3C3.9,7,3.9,6.5,4.2,6.2c0.3-0.3,0.7-0.3,1-0.1l0.1,0.1l2.2,2.2l4.9-4.9 C12.6,3.3,13,3.2,13.3,3.5z"/></g></g></g></g></g></svg>