<svg xmlns="http://www.w3.org/2000/svg" xmlns:xlink="http://www.w3.org/1999/xlink" id="Layer_1" x="0" y="0" enable-background="new 0 0 10.6 8.9" version="1.1" viewBox="0 0 10.6 8.9" xml:space="preserve"><title>datasheet_icon_offcial</title><desc>Created with Sketch.</desc><g id="Control"><g id="Notification_x2F_List_x2F_Icon_x2F_Official" transform="translate(-4.000000, -5.000000)"><g id="Group-5"><g transform="translate(3.161290, 4.806452)"><g id="Path"><path fill="#FFF" d="M9.1,8.3c-0.2,0-0.3-0.1-0.4-0.2c-0.1-0.2,0-0.5,0.2-0.6c1-0.6,1.6-1.6,1.6-2.8c0-1.1-0.6-2.2-1.6-2.8 C8.6,1.7,8.5,1.5,8.7,1.2C8.8,1,9.1,0.9,9.3,1.1c1.3,0.7,2.1,2.1,2.1,3.6c0,1.5-0.8,2.9-2.1,3.6C9.2,8.3,9.2,8.3,9.1,8.3z"/></g><g id="Path_1_"><path fill="#FFF" d="M8.3,6.8C8.2,6.8,8.1,6.7,8,6.6C7.8,6.4,7.8,6.1,8,6c0.4-0.3,0.6-0.8,0.6-1.3c0-0.5-0.2-1-0.6-1.3 C7.8,3.2,7.8,2.9,8,2.7c0.2-0.2,0.5-0.2,0.7,0c0.6,0.5,0.9,1.2,0.9,2c0,0.8-0.3,1.5-0.9,2C8.6,6.8,8.4,6.8,8.3,6.8z"/></g><g id="Rect"><path fill="#FFF" d="M6.1,9.1c-0.2,0-0.4-0.1-0.5-0.2L3.2,7.3H1.8c-0.5,0-0.9-0.4-0.9-0.9V2.9C0.8,2.4,1.3,2,1.8,2h1.4 l2.4-1.6c0.4-0.3,1-0.2,1.3,0.3C7,0.8,7.1,1,7.1,1.2v7C7.1,8.7,6.6,9.1,6.1,9.1z M3.4,6.4c0.1,0,0.2,0,0.3,0.1l2.5,1.7l0-7 L3.6,2.8C3.5,2.9,3.4,2.9,3.4,2.9H1.8l0,3.5L3.4,6.4z"/></g></g></g></g></g></svg>