<svg xmlns="http://www.w3.org/2000/svg" xmlns:xlink="http://www.w3.org/1999/xlink" id="Layer_1" x="0" y="0" enable-background="new 0 0 16 16" version="1.1" viewBox="0 0 16 16" xml:space="preserve"><g><path fill="#666" d="M3.4,5.7C3.4,5.7,3.5,5.7,3.4,5.7c0.4,0,0.7-0.2,0.7-0.6C4.4,3.3,5.8,2,7.6,2h0.2c0.5,0,1.1,0.1,1.6,0.4 c0.2,0.1,0.4,0.2,0.6,0.3c0.3,0.2,0.7,0.2,0.9-0.1c0.2-0.3,0.2-0.7-0.1-0.9c-0.2-0.2-0.5-0.3-0.8-0.5C9.3,0.8,8.6,0.7,7.8,0.7H7.6 C5.2,0.7,3.1,2.5,2.8,5C2.8,5.3,3.1,5.6,3.4,5.7z"/><path fill="#666" d="M14,11.4l-0.6-1.2c-0.2-0.4-0.3-0.8-0.3-1.2l-0.3-3c0-0.4-0.4-0.6-0.7-0.6c-0.4,0-0.6,0.4-0.6,0.7l0.3,3 c0.1,0.6,0.2,1.1,0.5,1.6l0.1,0.3H3.1l0.1-0.3c0.2-0.3,0-0.7-0.3-0.9c-0.3-0.2-0.7,0-0.9,0.3l-0.6,1.2c-0.1,0.2-0.1,0.5,0,0.6 c0.1,0.2,0.3,0.3,0.6,0.3h3.2v0.1c0,1.4,1.1,2.5,2.5,2.5c1.4,0,2.5-1.1,2.5-2.5v-0.1h3.2c0.2,0,0.4-0.1,0.6-0.3 C14.1,11.9,14.1,11.6,14,11.4z M9,12.5c0,0.7-0.6,1.3-1.3,1.3c-0.7,0-1.3-0.6-1.3-1.3v-0.1L9,12.5L9,12.5z"/><path fill="#666" d="M4.9,10.2c0.1,0.1,0.3,0.2,0.4,0.2c0.2,0,0.3-0.1,0.5-0.2l7-6.7c0.3-0.3,0.3-0.7,0-0.9 c-0.3-0.3-0.7-0.3-0.9,0L5.4,8.8l-2.2-2C2.8,6.5,2.4,6.6,2.2,6.8C1.9,7.1,1.9,7.5,2.2,7.8L4.9,10.2z"/></g></svg>