<svg xmlns="http://www.w3.org/2000/svg" xmlns:xlink="http://www.w3.org/1999/xlink" id="Layer_1" x="0" y="0" enable-background="new 0 0 22 26" version="1.1" viewBox="0 0 22 26" xml:space="preserve"><title>datasheet_img_attachment_word_placeholder</title><desc>Created with Sketch.</desc><g id="附件字段备份"><g id="附件字段-占位图标" transform="translate(-1010.000000, -133.000000)"><g id="Group-9" transform="translate(357.000000, 91.000000)"><g id="附件_xFF08_小_xFF09_备份-6" transform="translate(577.000000, 39.000000)"><g id="datasheet_img_attachment_word_placeholder" transform="translate(76.000000, 3.000000)"><g id="Mask"><path fill="#5893EF" fill-rule="evenodd" d="M1.3,0H16l0,0l6,6v18.7c0,0.7-0.6,1.3-1.3,1.3H1.3 C0.6,26,0,25.4,0,24.7V1.3C0,0.6,0.6,0,1.3,0z" clip-rule="evenodd"/></g><g id="Mask_1_"><path fill="#8CB9FF" fill-rule="evenodd" d="M16,0l6,6h-4.7C16.6,6,16,5.4,16,4.7V0L16,0z" clip-rule="evenodd"/></g><path fill="#FFF" d="M15.7,9.4c-0.3,0-0.6,0.3-0.6,0.6v6.3l-3.5-4.7c0,0-0.1-0.1-0.1-0.1c0,0,0,0,0,0c0,0,0,0,0,0 c0,0-0.1-0.1-0.1-0.1c0,0-0.1,0-0.1,0c0,0,0,0,0,0c-0.2,0-0.4,0-0.5,0.2l-3.5,4.7V10c0-0.3-0.3-0.6-0.6-0.6S5.9,9.6,5.9,10v8.1 c0,0.3,0.2,0.5,0.4,0.6c0.1,0,0.1,0,0.2,0c0.2,0,0.4-0.1,0.5-0.2l4.1-5.5l4.1,5.5c0.1,0.2,0.3,0.2,0.5,0.2c0.1,0,0.1,0,0.2,0 c0.2-0.1,0.4-0.3,0.4-0.6V10C16.3,9.7,16.1,9.4,15.7,9.4z"/></g></g></g></g></g></svg>