<svg xmlns="http://www.w3.org/2000/svg" xmlns:xlink="http://www.w3.org/1999/xlink" id="Layer_1" x="0" y="0" enable-background="new 0 0 22 26" version="1.1" viewBox="0 0 22 26" xml:space="preserve"><title>datasheet_img_attachment_excel_placeholder</title><desc>Created with Sketch.</desc><g id="附件字段备份"><g id="附件字段-占位图标" transform="translate(-984.000000, -133.000000)"><g id="Group-9" transform="translate(357.000000, 91.000000)"><g id="附件_xFF08_小_xFF09_备份-6" transform="translate(577.000000, 39.000000)"><g id="datasheet_img_attachment_excel_placeholder" transform="translate(50.000000, 3.000000)"><g id="Mask"><path fill="#42B26A" fill-rule="evenodd" d="M1.3,0H16l0,0l6,6v18.7c0,0.7-0.6,1.3-1.3,1.3H1.3 C0.6,26,0,25.4,0,24.7V1.3C0,0.6,0.6,0,1.3,0z" clip-rule="evenodd"/></g><g id="Mask_1_"><path fill="#6AD08F" fill-rule="evenodd" d="M16,0l6,6h-4.7C16.6,6,16,5.4,16,4.7V0L16,0z" clip-rule="evenodd"/></g><path fill="#FFF" d="M11.8,14l3.8-3.8c0.2-0.2,0.2-0.6,0-0.8s-0.6-0.2-0.8,0L11,13.2L7.2,9.4C7,9.1,6.6,9.1,6.3,9.4 s-0.2,0.6,0,0.8l3.8,3.8l-3.8,3.8c-0.2,0.2-0.2,0.6,0,0.8c0.1,0.1,0.3,0.2,0.4,0.2c0.2,0,0.3-0.1,0.4-0.2l3.8-3.8l3.8,3.8 c0.1,0.1,0.3,0.2,0.4,0.2s0.3-0.1,0.4-0.2c0.2-0.2,0.2-0.6,0-0.8L11.8,14z"/></g></g></g></g></g></svg>