<svg xmlns="http://www.w3.org/2000/svg" xmlns:xlink="http://www.w3.org/1999/xlink" id="Layer_1" x="0" y="0" enable-background="new 0 0 22 26" version="1.1" viewBox="0 0 22 26" xml:space="preserve"><title>datasheet_img_attachment_pdf_placeholder</title><desc>Created with Sketch.</desc><g id="附件字段备份"><g id="附件字段-占位图标" transform="translate(-1062.000000, -133.000000)"><g id="Group-9" transform="translate(357.000000, 91.000000)"><g id="附件_xFF08_小_xFF09_备份-6" transform="translate(577.000000, 39.000000)"><g id="datasheet_img_attachment_pdf_placeholder" transform="translate(128.000000, 3.000000)"><path id="Mask" fill="#EE5E5E" fill-rule="evenodd" d="M1.3,0H16l0,0l6,6v18.7c0,0.7-0.6,1.3-1.3,1.3 H1.3C0.6,26,0,25.4,0,24.7V1.3C0,0.6,0.6,0,1.3,0z" clip-rule="evenodd"/><g id="Group" transform="translate(4.944556, 7.711170)"><path id="Fill-1" fill="#FFF" d="M5.9,0.8c0.9,0,1.4,0.7,1.4,1.9c0,0.8-0.1,1.4-0.5,2.5c0.1,0.2,0.3,0.5,0.7,1l0,0L8,7.1 l0.2,0C8.7,7,9,6.9,9.3,6.9l0,0l0.2,0c0.8,0,1.8,0.3,2.2,0.7C11.9,7.9,12,8.2,12,8.5c0,0.3-0.2,0.5-0.5,0.8 c-0.2,0.1-0.4,0.2-0.8,0.2l0,0l-0.2,0C9.4,9.4,8.3,8.9,7.7,8.1l0,0l0,0l-0.2,0C7.4,8.3,7.2,8.3,7,8.3l0,0L6,8.6L5.3,8.8 c-0.4,0.8-0.9,1.5-1.3,2c-0.7,0.8-1.3,1.2-1.9,1.2c-0.3,0-0.7-0.2-0.9-0.4c-0.3-0.3-0.4-0.7-0.3-1.1c0.2-0.4,0.5-0.8,1-1.2 c0.5-0.4,1.3-0.8,1.9-1l0,0L3.9,8C4,7.8,4.1,7.7,4.2,7.5l0,0l0.2-0.4l0.2-0.5l0.6-1.7L5.1,4.6C4.9,4.1,4.8,3.7,4.7,3.3l0,0 l0-0.3c-0.1-0.6,0-1.2,0.1-1.6C5,1,5.4,0.8,5.9,0.8z M3.3,9.6L3.1,9.7C2.8,9.8,2.6,10,2.4,10.1c-0.4,0.3-0.6,0.5-0.6,0.7 c0,0.1,0,0.1,0,0.1c0,0,0.1,0,0.1,0c0.3,0,0.7-0.4,1.2-1.1L3.3,9.6z M9.1,7.9l-0.3,0L8.9,8c0.3,0.2,0.7,0.4,1,0.5l0.2,0 c0.2,0,0.4,0,0.6-0.1c0.1,0,0.1-0.1,0.1-0.1c0-0.2,0-0.3-0.3-0.4C10.2,7.9,9.7,7.9,9.1,7.9z M6.1,6.1L6.1,6.1 C6,6.5,5.9,6.7,5.9,6.9L5.5,7.7L7,7.3L6.9,7.2C6.7,7,6.6,6.8,6.5,6.7L6.1,6.1z M5.8,1.8c-0.1,0.2-0.1,0.9,0,1.6l0,0.3l0-0.2 C6,3.1,6.1,2.8,6.1,2.4l0-0.2c0-0.3-0.1-0.5-0.1-0.5C5.9,1.6,5.9,1.7,5.8,1.8z"/></g><path id="Mask_1_" fill="#FF8787" fill-rule="evenodd" d="M16,0l6,6h-4.7C16.6,6,16,5.4,16,4.7V0L16,0z" clip-rule="evenodd"/></g></g></g></g></g></svg>