<svg xmlns="http://www.w3.org/2000/svg" xmlns:xlink="http://www.w3.org/1999/xlink" id="Layer_1" x="0" y="0" enable-background="new 0 0 22 26" version="1.1" viewBox="0 0 22 26" xml:space="preserve"><title>datasheet_img_attachment_ppt_placeholder</title><desc>Created with Sketch.</desc><g id="附件字段备份"><g id="附件字段-占位图标" transform="translate(-1036.000000, -133.000000)"><g id="Group-9" transform="translate(357.000000, 91.000000)"><g id="附件_xFF08_小_xFF09_备份-6" transform="translate(577.000000, 39.000000)"><g id="datasheet_img_attachment_ppt_placeholder" transform="translate(102.000000, 3.000000)"><g id="Mask"><path fill="#F3745C" fill-rule="evenodd" d="M1.3,0H16l0,0l6,6v18.7c0,0.7-0.6,1.3-1.3,1.3H1.3 C0.6,26,0,25.4,0,24.7V1.3C0,0.6,0.6,0,1.3,0z" clip-rule="evenodd"/></g><g id="Mask_1_"><path fill="#FF9C8A" fill-rule="evenodd" d="M16,0l6,6h-4.7C16.6,6,16,5.4,16,4.7V0L16,0z" clip-rule="evenodd"/></g><path fill="#FFF" d="M11.7,9.2H8.2c-0.3,0-0.6,0.3-0.6,0.6v4.5v3.9c0,0.3,0.3,0.6,0.6,0.6s0.6-0.3,0.6-0.6v-3.3h2.9 c1.6,0,2.8-1.3,2.8-2.8S13.3,9.2,11.7,9.2z M11.7,13.7H8.8v-3.3h2.9c0.9,0,1.7,0.7,1.7,1.6S12.6,13.7,11.7,13.7z"/></g></g></g></g></g></svg>