<?xml version="1.0" encoding="utf-8"?>
<!-- Generator: Adobe Illustrator 24.0.0, SVG Export Plug-In . SVG Version: 6.00 Build 0)  -->
<svg version="1.1" id="Layer_1" xmlns="http://www.w3.org/2000/svg" xmlns:xlink="http://www.w3.org/1999/xlink" x="0px" y="0px"
	 viewBox="0 0 22 26" style="enable-background:new 0 0 22 26;" xml:space="preserve">
<style type="text/css">
	.st0{fill-rule:evenodd;clip-rule:evenodd;fill:#43C7AA;}
	.st1{fill-rule:evenodd;clip-rule:evenodd;fill:#72DBC4;}
	.st2{fill:#FFFFFF;}
</style>
<title>datasheet_img_attachment_ audio_placeholder</title>
<desc>Created with Sketch.</desc>
<g id="附件字段备份">
	<g id="附件字段-占位图标" transform="translate(-1140.000000, -133.000000)">
		<g id="Group-9" transform="translate(357.000000, 91.000000)">
			<g id="附件_xFF08_小_xFF09_备份-6" transform="translate(577.000000, 39.000000)">
				<g id="datasheet_img_attachment_-audio_placeholder" transform="translate(206.000000, 3.000000)">
					<g id="Mask">
						<path class="st0" d="M1.3,0H16l0,0l6,6v18.7c0,0.7-0.6,1.3-1.3,1.3H1.3C0.6,26,0,25.4,0,24.7V1.3C0,0.6,0.6,0,1.3,0z"/>
					</g>
					<g id="Mask_1_">
						<path class="st1" d="M16,0l6,6h-4.7C16.6,6,16,5.4,16,4.7V0L16,0z"/>
					</g>
					<g id="Group-27" transform="translate(5.164843, 9.507214)">
						<g id="Path-3">
							<path class="st2" d="M5.8,9.6C5.5,9.6,5.2,9.3,5.2,9V0c0-0.3,0.3-0.6,0.6-0.6S6.4-0.3,6.4,0v9C6.4,9.3,6.2,9.6,5.8,9.6z"/>
						</g>
						<g id="Path-3备份">
							<path class="st2" d="M3.2,7.8c-0.3,0-0.6-0.3-0.6-0.6V1.8c0-0.3,0.3-0.6,0.6-0.6s0.6,0.3,0.6,0.6v5.4
								C3.8,7.5,3.5,7.8,3.2,7.8z"/>
						</g>
						<g id="Path-3备份-2">
							<path class="st2" d="M0.4,6C0.1,6-0.2,5.7-0.2,5.4V3.6C-0.2,3.3,0.1,3,0.4,3s0.6,0.3,0.6,0.6v1.8C1.1,5.7,0.8,6,0.4,6z"/>
						</g>
						<g id="Path-3备份_1_">
							<path class="st2" d="M8.6,7.8C8.2,7.8,8,7.5,8,7.2V1.8c0-0.3,0.3-0.6,0.6-0.6s0.6,0.3,0.6,0.6v5.4C9.1,7.5,8.9,7.8,8.6,7.8z"
								/>
						</g>
						<g id="Path-3备份-2_1_">
							<path class="st2" d="M11.3,6c-0.3,0-0.6-0.3-0.6-0.6V3.6c0-0.3,0.3-0.6,0.6-0.6s0.6,0.3,0.6,0.6v1.8C11.8,5.7,11.6,6,11.3,6z
								"/>
						</g>
					</g>
				</g>
			</g>
		</g>
	</g>
</g>
</svg>
