<?xml version="1.0" encoding="utf-8"?>
<!-- Generator: Adobe Illustrator 24.0.0, SVG Export Plug-In . SVG Version: 6.00 Build 0)  -->
<svg version="1.1" id="Layer_1" xmlns="http://www.w3.org/2000/svg" xmlns:xlink="http://www.w3.org/1999/xlink" x="0px" y="0px"
	 viewBox="0 0 22 26" enable-background="new 0 0 22 26" xml:space="preserve">
<title>datasheet_img_attachment_compressed_placeholder</title>
<desc>Created with Sketch.</desc>
<g id="附件字段备份">
	<g id="附件字段-占位图标" transform="translate(-1088.000000, -133.000000)">
		<g id="Group-9" transform="translate(357.000000, 91.000000)">
			<g id="附件_xFF08_小_xFF09_备份-6" transform="translate(577.000000, 39.000000)">
				<g id="datasheet_img_attachment_compressed_placeholder" transform="translate(154.000000, 3.000000)">
					<g id="Mask">
						<path id="path-1_1_" fill-rule="evenodd" clip-rule="evenodd" fill="#FBC757" d="M1.3,0H16l0,0l6,6v18.7
							c0,0.7-0.6,1.3-1.3,1.3H1.3C0.6,26,0,25.4,0,24.7V1.3C0,0.6,0.6,0,1.3,0z"/>
					</g>
					<path fill-rule="evenodd" clip-rule="evenodd" fill="#FFFFFF" d="M12.1,13h-0.6v-0.8h0.7c0.2,0,0.3-0.1,0.3-0.3v-0.6
						c0-0.2-0.1-0.3-0.3-0.3h-0.7V8.2h0.7c0.2,0,0.3-0.1,0.3-0.3V7.3c0-0.2-0.1-0.3-0.3-0.3h-0.7V4.3h0.7c0.2,0,0.3-0.1,0.3-0.3V3.4
						c0-0.2-0.1-0.3-0.3-0.3h-0.7V0h-1.2v1.1H9.6c-0.2,0-0.3,0.1-0.3,0.3V2c0,0.2,0.1,0.3,0.3,0.3h0.7V5H9.6C9.4,5,9.3,5.2,9.3,5.3
						v0.6c0,0.2,0.1,0.3,0.3,0.3h0.7V9H9.6C9.4,9,9.3,9.1,9.3,9.3v0.6c0,0.2,0.1,0.3,0.3,0.3h0.7V13H9.7c-0.5,0-0.9,0.4-0.9,0.9v1.2
						c0,0.9,0.7,1.6,1.6,1.6h1c0.9,0,1.6-0.7,1.6-1.6v-1.2C13,13.4,12.6,13,12.1,13z M11.8,15.1c0,0.2-0.2,0.4-0.4,0.4h-1
						c-0.2,0-0.4-0.2-0.4-0.4v-0.9h1.8V15.1z"/>
					<defs>
						<filter id="Adobe_OpacityMaskFilter" filterUnits="userSpaceOnUse" x="16" y="0" width="6" height="6">
							<feColorMatrix  type="matrix" values="1 0 0 0 0  0 1 0 0 0  0 0 1 0 0  0 0 0 1 0"/>
						</filter>
					</defs>
					<mask maskUnits="userSpaceOnUse" x="16" y="0" width="6" height="6" id="mask-2_2_">
						<g filter="url(#Adobe_OpacityMaskFilter)">
							<path id="path-1_3_" fill-rule="evenodd" clip-rule="evenodd" fill="#FFFFFF" d="M1.3,0H16l0,0l6,6v18.7
								c0,0.7-0.6,1.3-1.3,1.3H1.3C0.6,26,0,25.4,0,24.7V1.3C0,0.6,0.6,0,1.3,0z"/>
						</g>
					</mask>
					<path id="Mask_1_" mask="url(#mask-2_2_)" fill-rule="evenodd" clip-rule="evenodd" fill="#FFD782" d="M16,0l6,6h-4.7
						C16.6,6,16,5.4,16,4.7V0L16,0z"/>
				</g>
			</g>
		</g>
	</g>
</g>
</svg>
