<svg xmlns="http://www.w3.org/2000/svg" xmlns:xlink="http://www.w3.org/1999/xlink" id="Layer_1" x="0" y="0" enable-background="new 0 0 22 26" version="1.1" viewBox="0 0 22 26" xml:space="preserve"><title>datasheet_img_attachment_video_placeholder</title><desc>Created with Sketch.</desc><g id="附件字段备份"><g id="附件字段-占位图标" transform="translate(-1114.000000, -133.000000)"><g id="Group-9" transform="translate(357.000000, 91.000000)"><g id="附件_xFF08_小_xFF09_备份-6" transform="translate(577.000000, 39.000000)"><g id="datasheet_img_attachment_video_placeholder" transform="translate(180.000000, 3.000000)"><g id="Mask"><path fill="#7983FF" fill-rule="evenodd" d="M1.3,0H16l0,0l6,6v18.7c0,0.7-0.6,1.3-1.3,1.3H1.3 C0.6,26,0,25.4,0,24.7V1.3C0,0.6,0.6,0,1.3,0z" clip-rule="evenodd"/></g><g id="Mask_1_"><path fill="#9DA4FF" fill-rule="evenodd" d="M16,0l6,6h-4.7C16.6,6,16,5.4,16,4.7V0L16,0z" clip-rule="evenodd"/></g><g id="Group-26" transform="translate(4.000000, 7.000000)"><g id="Circle"><path fill="#FFF" d="M7,13.3c-3.5,0-6.3-2.8-6.3-6.3c0-3.5,2.8-6.3,6.3-6.3c3.5,0,6.3,2.8,6.3,6.3 C13.3,10.5,10.5,13.3,7,13.3z M7,1.9C4.2,1.9,1.9,4.2,1.9,7s2.3,5.1,5.1,5.1s5.1-2.3,5.1-5.1S9.8,1.9,7,1.9z"/></g><g id="三角形"><path fill="#FFF" d="M6.1,9.5c-0.1,0-0.2,0-0.2,0C5.6,9.4,5.4,9.3,5.2,9.1C5.1,8.9,5.1,8.7,5.1,8.5v-3c0-0.6,0.5-1,1-1 c0.2,0,0.4,0.1,0.5,0.2L9,6.2c0.2,0.1,0.4,0.4,0.4,0.6c0.1,0.3,0,0.5-0.1,0.8C9.3,7.7,9.2,7.8,9,7.9c0,0,0,0,0,0L6.6,9.4 C6.4,9.5,6.3,9.5,6.1,9.5z M6.3,5.8v2.3L8.1,7L6.3,5.8z"/></g></g></g></g></g></g></g></svg>