<?xml version="1.0" encoding="utf-8"?>
<!-- Generator: Adobe Illustrator 24.0.0, SVG Export Plug-In . SVG Version: 6.00 Build 0)  -->
<svg version="1.1" id="图层_1" xmlns="http://www.w3.org/2000/svg" xmlns:xlink="http://www.w3.org/1999/xlink" x="0px" y="0px"
	 viewBox="0 0 22 26" enable-background="new 0 0 22 26" xml:space="preserve">
<title>datasheet_img_attachment_ text_placeholder</title>
<desc>Created with Sketch.</desc>
<g id="附件字段备份">
	<g id="附件字段-占位图标" transform="translate(-1166.000000, -133.000000)">
		<g id="编组-9" transform="translate(357.000000, 91.000000)">
			<g id="附件_xFF08_小_xFF09_备份-6" transform="translate(577.000000, 39.000000)">
				<g id="datasheet_img_attachment_-text_placeholder" transform="translate(232.000000, 3.000000)">
					<path id="蒙版" fill-rule="evenodd" clip-rule="evenodd" fill="#A9DD5B" d="M1.3,0H16l0,0l6,6v18.7c0,0.7-0.6,1.3-1.3,1.3
						H1.3C0.6,26,0,25.4,0,24.7V1.3C0,0.6,0.6,0,1.3,0z"/>
					<path id="蒙版_1_" fill-rule="evenodd" clip-rule="evenodd" fill="#C4ED89" d="M16,0l6,6h-4.7C16.6,6,16,5.4,16,4.7V0L16,0z"
						/>
					<path fill-rule="evenodd" clip-rule="evenodd" fill="#FFFFFF" d="M15.2,9.2H6.9c-0.3,0-0.6,0.3-0.6,0.6s0.3,0.6,0.6,0.6h3.5
						v7.8c0,0.3,0.3,0.6,0.6,0.6c0.3,0,0.6-0.3,0.6-0.6v-7.8h3.5c0.3,0,0.6-0.3,0.6-0.6S15.5,9.2,15.2,9.2z"/>
				</g>
			</g>
		</g>
	</g>
</g>
</svg>
