<?xml version="1.0" encoding="utf-8"?>
<!-- Generator: Adobe Illustrator 24.0.0, SVG Export Plug-In . SVG Version: 6.00 Build 0)  -->
<svg version="1.1" id="图层_1" xmlns="http://www.w3.org/2000/svg" xmlns:xlink="http://www.w3.org/1999/xlink" x="0px" y="0px"
	 viewBox="0 0 72 72" style="enable-background:new 0 0 72 72;" xml:space="preserve">
<style type="text/css">
	.st0{fill:#7B67EE;}
	.st1{fill:#FFFFFF;}
</style>
<path class="st0" d="M0,54c0,9.9,8.1,18,18,18h36c9.9,0,18-8.1,18-18V18c0-9.9-8.1-18-18-18H18C8.1,0,0,8.1,0,18V54z"/>
<path class="st1" d="M48,54c-3.3,0-6-2.7-6-6s2.7-6,6-6s6,2.7,6,6S51.3,54,48,54z"/>
<path class="st1" d="M42,30L30,42L18,54V42V30V18h12v12l12-12h12L42,30z"/>
</svg>
