<svg xmlns="http://www.w3.org/2000/svg" width="114" height="54" fill="none" viewBox="0 0 114 54"><path fill="#000434" fill-rule="evenodd" d="M56.7024 31.5707L67.9299 20.7843H76.6982L62.9822 33.9603L74.6327 50.0882H67.1402L56.2232 34.9795L54.0992 50.0882H47.9657L54.8642 1H60.9977L56.7024 31.5707ZM40.5182 11.6874C42.4269 11.6874 43.9742 10.1401 43.9742 8.23139C43.9742 6.32269 42.4269 4.77539 40.5182 4.77539C38.6095 4.77539 37.0622 6.32269 37.0622 8.23139C37.0622 10.1401 38.6095 11.6874 40.5182 11.6874ZM22.3585 20.7842L11.878 37.9179L6.60625 20.7842H0.25L10.033 52.5744L29.4775 20.7842H22.3585ZM100.937 47.3432C98.2915 49.069 95.2067 50.0882 92.0297 50.0882C83.95 50.0882 78.3002 43.516 79.4365 35.434C80.5727 27.3542 88.0697 20.782 96.1495 20.782C99.3265 20.782 102.125 21.8012 104.285 23.5247L104.67 20.782H110.804L106.686 50.0882H100.553L100.937 47.3432ZM95.2765 26.9785C90.6145 26.9785 86.2855 30.772 85.6307 35.4362C84.976 40.1005 88.2362 43.894 92.8982 43.894C97.5602 43.894 101.889 40.1005 102.544 35.4362C103.201 30.772 99.9385 26.9785 95.2765 26.9785ZM35.5255 20.7842L31.408 50.0882H37.5415L41.659 20.7842H35.5255Z" clip-rule="evenodd"/></svg>