<svg xmlns="http://www.w3.org/2000/svg" xmlns:xlink="http://www.w3.org/1999/xlink" id="Layer_1" x="0" y="0" enable-background="new 0 0 32 32" version="1.1" viewBox="0 0 32 32" xml:space="preserve"><path fill="#FFF" d="M25.3,17.7c-0.6-1.5-1.5-2.6-2.1-2.9c0-0.1,0-0.2,0-0.3c0-0.6-0.2-1.1-0.4-1.6v-0.1c0-0.3-0.1-0.5-0.2-0.7	C22.5,8.1,20,5,16,5c-4,0-6.5,3.1-6.6,7.1c-0.1,0.2-0.2,0.5-0.2,0.7v0.1c-0.3,0.4-0.4,1-0.4,1.6v0.3c-0.6,0.2-1.5,1.3-2.1,2.9	c-0.8,2-0.9,3.8-0.3,4.1c0.4,0.2,1.1-0.3,1.8-1.3c0.2,1.1,0.9,2.1,1.8,2.9c-0.9,0.4-1.6,1-1.6,1.6c0,1.1,1.7,2,3.7,2	c1.9,0,3.4-0.7,3.7-1.7h0.4c0.3,1,1.8,1.7,3.7,1.7c2.1,0,3.7-0.9,3.7-2c0-0.7-0.6-1.3-1.6-1.6c0.9-0.8,1.5-1.8,1.8-2.9	c0.6,1,1.3,1.5,1.8,1.3C26.2,21.5,26.1,19.6,25.3,17.7z"/></svg>