<svg xmlns="http://www.w3.org/2000/svg" xmlns:xlink="http://www.w3.org/1999/xlink" id="Layer_1" x="0" y="0" enable-background="new 0 0 24 24" version="1.1" viewBox="0 0 24 24" xml:space="preserve"><g><path fill="#FFF" fill-rule="evenodd" d="M23.4,14.8c0-3.2-3-5.7-6.7-5.7s-6.7,2.7-6.7,6 c0,3.4,3.4,6.7,9.3,5.5c0.7,0.6,1.4,0.9,1.9,1c-0.3-0.5-0.7-1.6-0.6-1.9C21.8,19,23.4,17.5,23.4,14.8z M14,14.5c-0.5,0-1-0.4-1-1 c0-0.5,0.4-1,1-1c0.5,0,1,0.4,1,1C14.9,14.1,14.5,14.5,14,14.5z M18.5,14.5c-0.5,0-1-0.4-1-1c0-0.5,0.4-1,1-1s1,0.4,1,1 C19.4,14.1,19,14.5,18.5,14.5z" clip-rule="evenodd"/><path fill="#FFF" fill-rule="evenodd" d="M9.3,15c0-0.1,0-0.2,0-0.3c0-3.5,3.5-6.6,7.3-6.3 c0.1,0,0.1,0,0.2,0C16.1,5.3,12.9,3,9,3C4.6,3,1,6,1,9.7c0,3.2,1.6,4.7,3.3,5.6c-0.2,0.9-0.5,1.4-0.8,1.9c-0.1,0.2-0.2,0.3-0.3,0.5 c1.1-0.2,2.3-0.9,2.6-1.3c1.4,0.4,2.6,0.5,3.7,0.5C9.3,16.3,9.3,15.6,9.3,15z M10.9,6.5c0.7,0,1.3,0.6,1.3,1.3 c0,0.7-0.6,1.3-1.3,1.3c-0.7,0-1.3-0.6-1.3-1.3C9.6,7.1,10.2,6.5,10.9,6.5z M5.5,9.1c-0.7,0-1.3-0.6-1.3-1.3c0-0.7,0.6-1.3,1.3-1.3 c0.7,0,1.3,0.6,1.3,1.3C6.7,8.5,6.2,9.1,5.5,9.1z" clip-rule="evenodd"/></g></svg>