<?xml version="1.0" encoding="utf-8"?>
<!-- Generator: Adobe Illustrator 24.0.0, SVG Export Plug-In . SVG Version: 6.00 Build 0)  -->
<svg version="1.1" id="Layer_1" xmlns="http://www.w3.org/2000/svg" xmlns:xlink="http://www.w3.org/1999/xlink" x="0px" y="0px"
	 viewBox="0 0 16 16" enable-background="new 0 0 16 16" xml:space="preserve">
<path fill="#C9C9C9" d="M10.5,8.6C11.4,7.8,12,6.7,12,5.5c0-2.2-1.8-4-4-4c-2.2,0-4,1.8-4,4c0,1.2,0.6,2.3,1.5,3.1
	c-2,1-3.5,3-3.5,5.4c0,0.6,0.4,1,1,1s1-0.4,1-1c0-2.2,1.8-4,4-4c2.2,0,4,1.8,4,4c0,0.6,0.4,1,1,1s1-0.4,1-1
	C14,11.6,12.6,9.5,10.5,8.6z M8,3.5c1.1,0,2,0.9,2,2s-0.9,2-2,2c-1.1,0-2-0.9-2-2S6.9,3.5,8,3.5z"/>
</svg>
