<svg xmlns="http://www.w3.org/2000/svg" xmlns:xlink="http://www.w3.org/1999/xlink" id="Layer_1" x="0" y="0" version="1.1" viewBox="0 0 60 61" style="enable-background:new 0 0 60 61" xml:space="preserve"><style type="text/css">.st0{fill-rule:evenodd;clip-rule:evenodd;fill:#fff}.st1{fill:#2b68ff}</style><title>signin_img_email_background</title><desc>Created with Sketch.</desc><g id="Page-1"><g id="signin" transform="translate(-180.000000, -115.000000)"><g id="signin_img_email_background"><g transform="translate(180.000000, 115.000000)"><g id="Circle"><circle cx="30" cy="31" r="30" class="st0"/></g><g id="Shape"><path d="M30,1C13.4,1,0,14.4,0,31s13.4,30,30,30s30-13.4,30-30S46.6,1,30,1z" class="st1"/></g><g id="Rect"><path d="M15,19h30c0.6,0,1,0.4,1,1v22c0,0.6-0.4,1-1,1H15c-0.6,0-1-0.4-1-1V20C14,19.4,14.4,19,15,19z" class="st0"/></g><g id="Path"><path d="M30.2,34.9L30.2,34.9c-0.6,0-1.1-0.2-1.5-0.6L11.2,19.8l1.3-1.5l17.7,14.7l0.2-0.1L48,18.2l1.3,1.5 L31.6,34.4C31.3,34.7,30.8,34.9,30.2,34.9z" class="st1"/></g></g></g></g></g></svg>