<svg xmlns="http://www.w3.org/2000/svg" xmlns:xlink="http://www.w3.org/1999/xlink" id="Layer_1" x="0" y="0" enable-background="new 0 0 32 32" version="1.1" viewBox="0 0 32 32" xml:space="preserve"><path fill="#FFF" d="M17.7,8.5C13.5,6.9,7.5,4,7.5,4C7.1,3.9,7,4.3,7,4.3C6.9,6.1,7.9,9,8.5,9.6c0.5,0.6,8.7,3.3,8.7,3.3	s-6.3-1.3-7.8-1.8c-1.5-0.5-1,0.5-1,0.5c0.3,1.8,1.8,3.8,2.9,4c1.2,0.2,6,0.1,6,0.1s-1,0.1-2.5,0.3c-1.2,0.2-2.7,0.4-3,0.5	c-0.9,0.4,0.7,1.8,0.7,1.8c2.3,2.2,3.5,1.5,3.5,1.5c0.9-0.3,1.7-0.5,2.3-0.7l-0.8,3.5h2.3L18.5,28l5.6-7.8h-2.9l0.6-1.1l0,0	c0,0,2.1-3.5,2.9-5.3l0,0c0.1-0.3,0.2-0.6,0.3-0.7C25.4,10.9,21.8,10.1,17.7,8.5z"/></svg>