<svg xmlns="http://www.w3.org/2000/svg" xmlns:xlink="http://www.w3.org/1999/xlink" id="Layer_1" x="0" y="0" enable-background="new 0 0 24 24" version="1.1" viewBox="0 0 24 24" xml:space="preserve"><path fill="#FFF" d="M4.1,13.5c-0.7,1.7-0.8,3.3-0.3,3.6c0.4,0.2,1-0.3,1.5-1.1c0.2,0.9,0.8,1.8,1.5,2.5	c-0.8,0.3-1.3,0.8-1.3,1.4c0,0.9,1.4,1.7,3.2,1.7c1.6,0,2.9-0.6,3.1-1.4h0.4c0.3,0.8,1.6,1.4,3.1,1.4c1.8,0,3.2-0.8,3.2-1.7	c0-0.6-0.5-1.1-1.3-1.4c0.8-0.7,1.3-1.5,1.5-2.5c0.5,0.9,1.1,1.3,1.5,1.1c0.5-0.3,0.4-1.9-0.3-3.6c-0.5-1.3-1.2-2.3-1.8-2.5	c0-0.1,0-0.2,0-0.3c0-0.5-0.1-1-0.4-1.4V9.3c0-0.2,0-0.5-0.1-0.6c-0.1-3.4-2.2-6.1-5.6-6.1c-3.4,0-5.5,2.7-5.6,6.1	C6.3,8.8,6.2,9,6.2,9.3v0.1C6,9.7,5.8,10.2,5.8,10.7V11C5.3,11.2,4.6,12.1,4.1,13.5z"/></svg>