<svg xmlns="http://www.w3.org/2000/svg" xmlns:xlink="http://www.w3.org/1999/xlink" id="Layer_1" x="0" y="0" enable-background="new 0 0 16 16" version="1.1" viewBox="0 0 16 16" xml:space="preserve"><g><path fill="#7B67EE" d="M11.3,9.3L8,12.6L4.7,9.3c-0.4-0.4-1-0.4-1.4,0s-0.4,1,0,1.4l4,4C7.5,14.9,7.7,15,8,15s0.5-0.1,0.7-0.3l4-4 c0.4-0.4,0.4-1,0-1.4S11.7,8.9,11.3,9.3z"/><path fill="#7B67EE" d="M7.3,6.7C7.5,6.9,7.7,7,8,7s0.5-0.1,0.7-0.3l4-4c0.4-0.4,0.4-1,0-1.4s-1-0.4-1.4,0L8,4.6L4.7,1.3 c-0.4-0.4-1-0.4-1.4,0s-0.4,1,0,1.4L7.3,6.7z"/></g></svg>