<svg xmlns="http://www.w3.org/2000/svg" xmlns:xlink="http://www.w3.org/1999/xlink" id="Layer_1" x="0" y="0" version="1.1" viewBox="0 0 15 15" style="enable-background:new 0 0 15 15" xml:space="preserve"><style type="text/css">.st0{fill:#7d8299}</style><title>signin_icon_closeeye</title><desc>Created with Sketch.</desc><path d="M13.9,7.7l-1.2-1.2c0.4-0.3,0.8-0.7,1.1-1.1c0.3-0.3,0.2-0.8-0.1-1.1c-0.3-0.3-0.8-0.2-1.1,0.1	C11.2,6.3,9.7,7,7.5,7C5.3,7,3.8,6.2,2.3,4.5C2,4.1,1.5,4.1,1.2,4.4C0.9,4.6,0.8,5.1,1.1,5.4c0.4,0.4,0.7,0.8,1.1,1.1L1.1,7.7	C0.8,8,0.8,8.5,1.1,8.8C1.2,8.9,1.4,9,1.6,9S2,8.9,2.1,8.8l1.3-1.3C4,7.8,4.5,8,5.1,8.2L4.7,9.8c-0.1,0.4,0.1,0.8,0.5,0.9	c0.1,0,0.1,0,0.2,0c0.3,0,0.6-0.2,0.7-0.6l0.5-1.7c0.3,0,0.6,0,0.9,0c0.3,0,0.6,0,0.9,0l0.5,1.7c0.1,0.3,0.4,0.6,0.7,0.6	c0.1,0,0.1,0,0.2,0c0.4-0.1,0.6-0.5,0.5-0.9L9.9,8.2C10.5,8,11,7.8,11.6,7.5l1.3,1.3C13,8.9,13.2,9,13.4,9s0.4-0.1,0.5-0.2	C14.2,8.5,14.2,8,13.9,7.7z" class="st0"/></svg>