<svg xmlns="http://www.w3.org/2000/svg" xmlns:xlink="http://www.w3.org/1999/xlink" id="Layer_1" x="0" y="0" enable-background="new 0 0 36 36" version="1.1" viewBox="0 0 36 36" xml:space="preserve"><title>signin_img_phone</title><desc>Created with Sketch.</desc><g><path fill="#575E7B" fill-rule="evenodd" d="M26.2,1H9.8C8.2,1,7,2.2,7,3.8v28.5C7,33.8,8.2,35,9.8,35h16.5 c1.5,0,2.8-1.2,2.8-2.8V3.8C29,2.2,27.8,1,26.2,1z M9.8,2.5h16.5c0.7,0,1.2,0.6,1.2,1.2v19.2h-19V3.8C8.5,3.1,9.1,2.5,9.8,2.5z M26.2,33.5H9.8c-0.7,0-1.2-0.6-1.2-1.2v-7.8h19v7.8C27.5,32.9,26.9,33.5,26.2,33.5z" clip-rule="evenodd"/><circle cx="18.5" cy="28.5" r="1.5" fill="#575E7B" fill-rule="evenodd" clip-rule="evenodd"/></g></svg>