<svg xmlns="http://www.w3.org/2000/svg" xmlns:xlink="http://www.w3.org/1999/xlink" id="Layer_1" x="0" y="0" enable-background="new 0 0 32 32" version="1.1" viewBox="0 0 32 32" xml:space="preserve"><g><path fill="#FFF" fill-rule="evenodd" d="M12.9,19.1c0-0.1,0-0.2,0-0.3c0-3.9,3.7-7.1,7.9-6.9 c0.1,0,0.1,0,0.2,0C20.2,8.6,16.8,6,12.6,6C7.8,6,4,9.3,4,13.3c0,3.5,1.7,5.2,3.5,6.1c-0.2,1-0.5,1.5-0.8,2 c-0.1,0.2-0.2,0.3-0.3,0.5c1.2-0.2,2.4-1,2.7-1.4c1.5,0.4,2.8,0.6,4,0.5C12.9,20.5,12.9,19.8,12.9,19.1z M14.2,10 c0.7,0,1.2,0.6,1.2,1.2c0,0.7-0.6,1.2-1.2,1.2S13,11.9,13,11.2S13.6,10,14.2,10z M9,12.3c-0.7,0-1.2-0.6-1.2-1.2 c0-0.7,0.6-1.3,1.2-1.3c0.7,0,1.2,0.6,1.2,1.3C10.2,11.7,9.7,12.3,9,12.3z" clip-rule="evenodd"/><path fill="#FFF" fill-rule="evenodd" d="M28,19c0-3.3-3.1-6-7-6s-7,2.8-7,6.3c0,3.5,3.5,7,9.7,5.7 c0.7,0.6,1.5,0.9,2,1c-0.3-0.5-0.7-1.7-0.7-2C26.4,23.4,28,21.8,28,19z M18.5,18.3c-0.6,0-1-0.4-1-1c0-0.6,0.4-1,1-1 c0.6,0,1,0.4,1,1C19.5,17.9,19.1,18.3,18.5,18.3z M22.5,18.3c-0.6,0-1-0.4-1-1c0-0.6,0.4-1,1-1s1,0.4,1,1 C23.5,17.9,23.1,18.3,22.5,18.3z" clip-rule="evenodd"/></g></svg>