<svg xmlns="http://www.w3.org/2000/svg" xmlns:xlink="http://www.w3.org/1999/xlink" id="Layer_1" x="0" y="0" enable-background="new 0 0 16 16" version="1.1" viewBox="0 0 16 16" xml:space="preserve"><g><path fill="#C9C9C9" d="M13.3,6.2L8.8,7.7c-0.2,0.1-0.4,0.1-0.6,0L3.7,6.2C3.3,6.1,3,6.3,3,6.7V12c0,0.6,0.4,1,1,1h9 c0.6,0,1-0.4,1-1V6.7C14,6.3,13.7,6.1,13.3,6.2z"/><path fill="#C9C9C9" d="M13,3H4C3.4,3,3,3.4,3,4v0.5C3,4.7,3.1,4.9,3.3,5l4.8,1.6c0.2,0.1,0.4,0.1,0.6,0L13.7,5 C13.9,4.9,14,4.8,14,4.5V4C14,3.4,13.6,3,13,3z"/></g></svg>