<?xml version="1.0" encoding="utf-8"?>
<!-- Generator: Adobe Illustrator 24.0.0, SVG Export Plug-In . SVG Version: 6.00 Build 0)  -->
<svg version="1.1" id="Layer_1" xmlns="http://www.w3.org/2000/svg" xmlns:xlink="http://www.w3.org/1999/xlink" x="0px" y="0px"
	 viewBox="0 0 16 16" enable-background="new 0 0 16 16" xml:space="preserve">
<path fill="#7B67EE" d="M12.9,8.4c0.1-0.2,0.1-0.5,0-0.8c-0.1-0.1-0.1-0.2-0.2-0.3l-3-3c-0.4-0.4-1-0.4-1.4,0s-0.4,1,0,1.4L9.6,7H4
	C3.4,7,3,7.4,3,8s0.4,1,1,1h5.6l-1.3,1.3c-0.4,0.4-0.4,1,0,1.4C8.5,11.9,8.7,12,9,12s0.5-0.1,0.7-0.3l3-3
	C12.8,8.6,12.9,8.5,12.9,8.4z"/>
</svg>
