<?xml version="1.0" encoding="utf-8"?>
<!-- Generator: Adobe Illustrator 24.0.0, SVG Export Plug-In . SVG Version: 6.00 Build 0)  -->
<svg version="1.1" id="图层_1" xmlns="http://www.w3.org/2000/svg" xmlns:xlink="http://www.w3.org/1999/xlink" x="0px" y="0px"
	 viewBox="0 0 40 40" enable-background="new 0 0 40 40" xml:space="preserve">
<title>signin_img_relation</title>
<desc>Created with Sketch.</desc>
<g>
	<path fill-rule="evenodd" clip-rule="evenodd" fill="#575E7B" d="M36.1,14.9l-7.1-7.1c-0.2-0.2-0.5-0.3-0.8-0.4
		c-0.7,0-1.2,0.5-1.2,1.2l0,4.4H7c-1.1,0-2,0.9-2,2c0,1.1,0.9,2,2,2h24.4v0h3.8c0.3,0,0.6-0.1,0.8-0.4
		C36.5,16.1,36.5,15.3,36.1,14.9z"/>
	<path fill-rule="evenodd" clip-rule="evenodd" fill="#575E7B" d="M33,22.7H8.6v0H4.8c-0.3,0-0.6,0.1-0.8,0.4
		c-0.5,0.5-0.5,1.2,0,1.7l7.1,7.1c0.2,0.2,0.5,0.3,0.8,0.4c0.7,0,1.2-0.5,1.2-1.2l0-4.4H33c1.1,0,2-0.9,2-2S34.1,22.7,33,22.7z"/>
</g>
</svg>
