<svg xmlns="http://www.w3.org/2000/svg" xmlns:xlink="http://www.w3.org/1999/xlink" id="Layer_1" x="0" y="0" enable-background="new 0 0 16 16" version="1.1" viewBox="0 0 16 16" xml:space="preserve"><path fill="#666" fill-rule="evenodd" d="M13.3,12.5c-0.3,0.2-0.8,0.3-1.4,0.3c-0.8,0-1.3-0.1-1.7-0.4	c-0.3-0.3-0.5-0.7-0.5-1.2V9.1h1.7v2.1c0,0.1,0,0.2,0.1,0.2c0.1,0.1,0.1,0.1,0.2,0.1c0.1,0,0.2,0,0.3-0.1c0.1-0.1,0.1-0.1,0.1-0.2	v-2c0-0.2-0.1-0.4-0.2-0.5c-0.1-0.1-0.3-0.1-0.5-0.1l-0.1,0v-1c0.2,0,0.3,0,0.4,0c0.3-0.1,0.4-0.2,0.4-0.5V5.5c0-0.1,0-0.2-0.1-0.2	c-0.1,0-0.1-0.1-0.3-0.1c-0.1,0-0.2,0-0.3,0.1c-0.1,0-0.1,0.1-0.1,0.2v1.6H9.7V5.5c0-0.5,0.2-0.8,0.6-1.1C10.6,4.1,11.2,4,11.9,4	c0.7,0,1.2,0.1,1.6,0.4C13.8,4.7,14,5.1,14,5.5v1.2c0,0.3,0,0.6-0.1,0.8C13.7,7.8,13.4,8,13,8.1c0.5,0.1,0.8,0.4,0.9,0.8	C14,9.1,14,9.4,14,9.7V11C14,11.8,13.8,12.3,13.3,12.5z M9.4,12.7v-1.1H7l2.1-4.1c0-0.1,0.1-0.2,0.1-0.3C9.3,7,9.4,6.8,9.4,6.6V5.9	c0-0.6-0.2-1-0.5-1.4C8.5,4.2,8,4,7.2,4C6.4,4,5.9,4.2,5.6,4.4C5.2,4.7,5,5.1,5,5.7v1.5h1.7V5.7c0-0.1,0-0.2,0.1-0.3S7,5.3,7.1,5.3	c0.1,0,0.2,0,0.3,0.1c0.1,0.1,0.1,0.2,0.1,0.3V6c0,0.3,0,0.6-0.1,0.8c0,0.2-0.1,0.5-0.3,0.8L5,11.6v1.2H9.4z M4.6,12.7V4.1H3	c0,0.2-0.1,0.5-0.3,0.7C2.5,5,2.2,5.1,2,5.1v1.3h0.7v6.4H4.6z" clip-rule="evenodd"/></svg>