<svg xmlns="http://www.w3.org/2000/svg" xmlns:xlink="http://www.w3.org/1999/xlink" id="Layer_1" x="0" y="0" enable-background="new 0 0 32 32" version="1.1" viewBox="0 0 32 32" xml:space="preserve"><g><path fill="#FFF" d="M18.5,11.9c0-0.8,0.7-1.5,1.5-1.5c0.2,0,0.5,0.1,0.7,0.2l5-5l0,0l0,0L6,11c-0.6,0.2-1,0.7-1,1.4 c0,0.4,0.1,0.7,0.4,1l3.4,3.4C9,17,9.3,17.1,9.5,17.1h2.7c0,0,0,0,0.1,0l1.8,0l0,0h0l4.5-4.5C18.6,12.3,18.5,12.1,18.5,11.9z"/><path fill="#FFF" d="M25.6,7.1l-4.2,4.2c0.1,0.2,0.1,0.3,0.1,0.5c0,0.8-0.7,1.5-1.5,1.5c-0.2,0-0.3,0-0.5-0.1l-4.6,4.6l0,4.5 l0,0l0,0l0,0.4l0.1-0.1c0,0.1,0.1,0.2,0.2,0.3l3.4,3.4c0.3,0.3,0.6,0.4,1,0.4c0.6,0,1.2-0.4,1.3-1l5.5-19.7L25.6,7.1z"/></g></svg>