<svg xmlns="http://www.w3.org/2000/svg" xmlns:xlink="http://www.w3.org/1999/xlink" id="Layer_1" x="0" y="0" enable-background="new 0 0 24 24" version="1.1" viewBox="0 0 24 24" xml:space="preserve"><path fill="#5DBFF9" fill-rule="evenodd" d="M12,24C5.4,24,0,18.6,0,12C0,5.4,5.4,0,12,0c6.6,0,12,5.4,12,12	C24,18.6,18.6,24,12,24z M6.2,15.7c-0.4-0.2-0.3-1.4,0.2-2.6c0.4-1,0.9-1.7,1.2-1.8V11c0-0.4,0.1-0.7,0.3-1V10c0-0.2,0-0.3,0.1-0.5	C8.1,7,9.6,5,12,5c2.4,0,3.9,2,4,4.5c0.1,0.1,0.1,0.3,0.1,0.5v0.1c0.2,0.3,0.3,0.6,0.3,1c0,0,0,0.1,0,0.1c0,0,0,0.1,0,0.1	c0.4,0.2,0.9,0.9,1.3,1.8c0.5,1.2,0.6,2.4,0.2,2.6c-0.3,0.2-0.7-0.2-1.1-0.8c-0.1,0.7-0.5,1.3-1.1,1.8c0.6,0.2,0.9,0.6,0.9,1	c0,0.7-1,1.3-2.2,1.3c-1.1,0-2-0.5-2.2-1.1h-0.3c-0.2,0.6-1.1,1.1-2.2,1.1c-1.2,0-2.2-0.6-2.2-1.3c0-0.4,0.4-0.8,0.9-1	c-0.5-0.5-0.9-1.1-1.1-1.8C6.9,15.5,6.5,15.9,6.2,15.7z" clip-rule="evenodd"/></svg>