<svg xmlns="http://www.w3.org/2000/svg" xmlns:xlink="http://www.w3.org/1999/xlink" id="Layer_1" x="0" y="0" enable-background="new 0 0 16 16" version="1.1" viewBox="0 0 16 16" xml:space="preserve"><path fill="#666" d="M2,3.7c0,0-0.5,2.7,3.4,6.7c0,0,0.1,0.1,0.1,0.1c0,0,0.1,0.1,0.1,0.1c4,4,6.7,3.4,6.7,3.4	c0.2,0,0.5-0.1,0.6-0.2c0,0,0.6-0.5,1-1.1c0.4-0.6-0.3-1.6-0.7-2c-0.8-0.8-1.6-1-1.9-0.8c-0.1,0.1-0.7,0.7-0.7,0.7	c-0.1,0.1-0.3,0.2-0.5,0.2c0,0-1,0-3-1.9C5.1,7,5.1,6,5.1,6c0-0.2,0.1-0.4,0.2-0.5c0,0,0.7-0.7,0.7-0.7c0.3-0.3-0.2-1.2-0.8-1.9	C5,2.4,4.7,2.1,4.1,2C3.4,1.9,2,2.9,2,3.7z"/></svg>