<svg xmlns="http://www.w3.org/2000/svg" xmlns:xlink="http://www.w3.org/1999/xlink" id="Layer_1" x="0" y="0" version="1.1" viewBox="0 0 60 60" style="enable-background:new 0 0 60 60" xml:space="preserve"><style type="text/css">.st0,.st1{fill-rule:evenodd;clip-rule:evenodd;fill:#2b68ff}.st1{fill:#eef3ff}</style><title>signin_img_head_background</title><desc>Created with Sketch.</desc><g id="Page-1"><g id="signin" transform="translate(-20.000000, -115.000000)"><g id="signin_img_head" transform="translate(20.000000, 115.000000)"><g id="Group-4-_x2B_-矩形-蒙版"><g><circle id="Mask" cx="30" cy="30" r="30" class="st0"/><g><path d="M35.3,32.7c3.4-1.9,5.7-5.5,5.7-9.7c0-6.1-4.9-11-11-11s-11,4.9-11,11c0,4.2,2.3,7.8,5.7,9.7 C16,34.8,9.5,42.3,9.4,51.8C14.7,56.9,22,60,30,60c8,0,15.2-3.1,20.6-8.2C50.5,42.4,44,34.8,35.3,32.7z" class="st1"/><path d="M50.6,51.8C50.6,51.8,50.6,51.8,50.6,51.8c0,0.1,0,0.2,0,0.3L50.6,51.8z" class="st1"/></g></g></g></g></g></g></svg>