<svg xmlns="http://www.w3.org/2000/svg" xmlns:xlink="http://www.w3.org/1999/xlink" id="Layer_1" x="0" y="0" enable-background="new 0 0 24 24" version="1.1" viewBox="0 0 24 24" xml:space="preserve"><g><path fill="#636363" d="M17,5h-2h-1h-1h-2C9.9,5,9,5.9,9,7v10c0,1.1,0.9,2,2,2h6c1.1,0,2-0.9,2-2V7C19,5.9,18.1,5,17,5z M18,17 c0,0.6-0.4,1-1,1h-6c-0.6,0-1-0.4-1-1V7c0-0.6,0.4-1,1-1h1c0,0.6,0.4,1,1,1h2c0.6,0,1-0.4,1-1h1c0.6,0,1,0.4,1,1V17z"/><path fill="#636363" d="M15.5,16h-3c-0.3,0-0.5,0.2-0.5,0.5s0.2,0.5,0.5,0.5h3c0.3,0,0.5-0.2,0.5-0.5S15.8,16,15.5,16z"/></g></svg>