<svg xmlns="http://www.w3.org/2000/svg" xmlns:xlink="http://www.w3.org/1999/xlink" id="Layer_1" x="0" y="0" version="1.1" viewBox="0 0 60 60" style="enable-background:new 0 0 60 60" xml:space="preserve"><style type="text/css">.st0{fill-rule:evenodd;clip-rule:evenodd;fill:#fff}.st1{fill:#3296fa}</style><title>signin_img_dingding_background</title><desc>Created with Sketch.</desc><g id="Page-1"><g id="signin" transform="translate(-100.000000, -115.000000)"><g id="signin_img_dingdinglogo"><g transform="translate(100.000000, 115.000000)"><circle id="Circle" cx="30" cy="30" r="30" class="st0"/><path id="Shape" d="M30,0C13.4,0,0,13.4,0,30s13.4,30,30,30s30-13.4,30-30S46.6,0,30,0z M43.9,26 c-0.1,0.3-0.2,0.6-0.4,1.1h0l0,0c-1.3,2.7-4.5,8-4.5,8l0,0l-1,1.7h4.6l-8.8,11.8l2-8h-3.6l1.3-5.3c-1,0.2-2.2,0.6-3.7,1 c0,0-1.9,1.1-5.6-2.2c0,0-2.5-2.2-1-2.7c0.6-0.2,2.9-0.5,4.8-0.8c2.5-0.3,4-0.5,4-0.5s-7.7,0.1-9.5-0.2c-1.8-0.3-4.1-3.3-4.6-6 c0,0-0.8-1.5,1.6-0.8c2.4,0.7,12.3,2.7,12.3,2.7s-12.9-4-13.7-4.9c-0.9-1-2.5-5.3-2.3-7.9c0,0,0.1-0.7,0.8-0.5 c0,0,9.5,4.4,16,6.7C39,21.7,44.6,22.9,43.9,26L43.9,26z" class="st1"/></g></g></g></g></svg>