<svg xmlns="http://www.w3.org/2000/svg" xmlns:xlink="http://www.w3.org/1999/xlink" id="Layer_1" x="0" y="0" enable-background="new 0 0 24 24" version="1.1" viewBox="0 0 24 24" xml:space="preserve"><path fill="#FFF" d="M12.6,5.6C9.2,4.3,4.4,2,4.4,2C4.1,1.9,4,2.3,4,2.3C3.9,3.7,4.7,6,5.2,6.5c0.4,0.5,7,2.6,7,2.6	S7.1,8,5.9,7.7C4.7,7.3,5.1,8.1,5.1,8.1c0.2,1.4,1.4,3,2.3,3.2c0.9,0.2,4.8,0.1,4.8,0.1s-0.8,0.1-2,0.3c-0.9,0.1-2.1,0.3-2.4,0.4	c-0.7,0.3,0.5,1.4,0.5,1.4c1.9,1.8,2.8,1.2,2.8,1.2c0.7-0.2,1.3-0.4,1.9-0.6l-0.6,2.8h1.8l-1,4.3l4.5-6.3h-2.4l0.5-0.9l0,0	c0,0,1.7-2.8,2.3-4.3l0,0c0.1-0.2,0.2-0.5,0.2-0.6C18.7,7.5,15.9,6.9,12.6,5.6z"/></svg>