<svg xmlns="http://www.w3.org/2000/svg" xmlns:xlink="http://www.w3.org/1999/xlink" id="Layer_1" x="0" y="0" version="1.1" viewBox="0 0 14 14" style="enable-background:new 0 0 14 14" xml:space="preserve"><style type="text/css">.st0{fill-rule:evenodd;clip-rule:evenodd;fill:#2b68ff}</style><title>account_icon_ checkbox_select</title><desc>Created with Sketch.</desc><path d="M7,0C3.1,0,0,3.1,0,7s3.1,7,7,7s7-3.1,7-7S10.9,0,7,0z M11.7,5.2L7,9.9c-0.1,0.1-0.3,0.2-0.5,0.2	S6,10.1,5.9,9.9L2.9,7c-0.3-0.3-0.3-0.8,0-1.1s0.8-0.3,1.1,0l2.4,2.4l4.2-4.2c0.3-0.3,0.8-0.3,1.1,0S12,4.9,11.7,5.2z" class="st0"/></svg>