<svg xmlns="http://www.w3.org/2000/svg" width="216" height="222" fill="none" viewBox="0 0 216 222"><rect width="216" height="152" fill="#F9F9FF" rx="8"/><g filter="url(#filter0_bd)" opacity=".04"><circle cx="174.5" cy="41.5" r="25.5" fill="#85E2FF"/></g><g filter="url(#filter1_d)"><rect width="158" height="100" x="29" y="26" fill="#fff" rx="3.632"/></g><g filter="url(#filter2_bd)" opacity=".1"><circle cx="128" cy="79" r="7" fill="#FFCE85"/></g><mask id="path-5-inside-1" fill="#fff"><path d="M111.147 35.9651C111.147 34.8798 112.027 34 113.112 34H138.562C139.647 34 140.527 34.8798 140.527 35.9651V69.21C140.527 70.2967 139.646 71.1776 138.56 71.1776H113.114C112.028 71.1776 111.147 70.2967 111.147 69.21V35.9651Z"/></mask><path fill="#9399FF" d="M111.147 35.9651C111.147 34.8798 112.027 34 113.112 34H138.562C139.647 34 140.527 34.8798 140.527 35.9651V69.21C140.527 70.2967 139.646 71.1776 138.56 71.1776H113.114C112.028 71.1776 111.147 70.2967 111.147 69.21V35.9651Z"/><path fill="#9399FF" d="M113.112 34.9414H138.562V33.0586H113.112V34.9414ZM139.586 35.9651V69.21H141.469V35.9651H139.586ZM138.56 70.2362H113.114V72.119H138.56V70.2362ZM112.088 69.21V35.9651H110.205V69.21H112.088ZM113.114 70.2362C112.548 70.2362 112.088 69.7767 112.088 69.21H110.205C110.205 70.8166 111.508 72.119 113.114 72.119V70.2362ZM139.586 69.21C139.586 69.7767 139.126 70.2362 138.56 70.2362V72.119C140.166 72.119 141.469 70.8166 141.469 69.21H139.586ZM138.562 34.9414C139.127 34.9414 139.586 35.3997 139.586 35.9651H141.469C141.469 34.3599 140.167 33.0586 138.562 33.0586V34.9414ZM113.112 33.0586C111.507 33.0586 110.205 34.3599 110.205 35.9651H112.088C112.088 35.3997 112.546 34.9414 113.112 34.9414V33.0586Z" mask="url(#path-5-inside-1)"/><rect width="20.739" height="5.188" x="115.468" y="61.666" fill="#6A70EC" rx="2.594"/><rect width="2.034" height=".868" fill="#fff" rx=".434" transform="matrix(0.699109 0.715015 -0.699109 0.715015 124.456 63.6694)"/><rect width="3.566" height=".869" fill="#fff" rx=".435" transform="matrix(-0.699109 0.715015 -0.699109 -0.715015 127.761 63.1943)"/><rect width="6.86" height="1.372" x="121.81" y="52.52" fill="#F8F9FF" fill-opacity=".43" rx=".686"/><rect width="15.091" height="1.372" x="118.38" y="55.95" fill="#F8F9FF" fill-opacity=".43" rx=".686"/><path fill="#fff" stroke="#fff" stroke-width="1.802" d="M130.205 44.2015C130.205 46.7172 128.216 48.7219 125.805 48.7219C123.394 48.7219 121.405 46.7172 121.405 44.2015C121.405 41.6857 123.394 39.6811 125.805 39.6811C128.216 39.6811 130.205 41.6857 130.205 44.2015Z"/><path fill="#fff" d="M130.865 44.2043C130.865 47.0616 128.6 49.3779 125.806 49.3779C123.013 49.3779 120.748 47.0616 120.748 44.2043C120.748 41.3471 123.013 39.0308 125.806 39.0308C128.6 39.0308 130.865 41.3471 130.865 44.2043Z"/><mask id="mask0" width="11" height="11" x="120" y="39" mask-type="alpha" maskUnits="userSpaceOnUse"><path fill="#fff" d="M130.865 44.2043C130.865 47.0616 128.6 49.3779 125.806 49.3779C123.013 49.3779 120.748 47.0616 120.748 44.2043C120.748 41.3471 123.013 39.0308 125.806 39.0308C128.6 39.0308 130.865 41.3471 130.865 44.2043Z"/></mask><g mask="url(#mask0)"><ellipse cx="125.806" cy="54.166" fill="#55CDFF" rx="6.633" ry="7.473"/><path fill="#F4D9BD" d="M125.244 46.747C125.373 46.4375 125.244 45.8848 125.244 45.8848H125.806V48.1841C125.356 48.1841 124.926 47.9857 124.782 47.7857C124.637 47.5856 124.66 47.4319 124.681 47.3219C124.742 47.0106 125.121 47.0388 125.244 46.747Z"/><path fill="#F4D9BD" d="M126.368 46.747C126.238 46.4375 126.368 45.8848 126.368 45.8848H125.806V48.1841C126.255 48.1841 126.685 47.9857 126.83 47.7857C126.974 47.5856 126.951 47.4319 126.93 47.3219C126.869 47.0106 126.49 47.0388 126.368 46.747Z"/></g><path fill="#FBE4CD" fill-rule="evenodd" d="M126.903 41.9636C126.918 41.9591 126.934 41.9546 126.95 41.9501C127.552 41.7748 127.965 42.4181 127.998 43.1138C128.03 43.7826 128.001 44.4153 127.914 44.7342C127.655 45.6899 127.037 46.5152 125.805 46.5152V46.5177C124.573 46.5177 123.955 45.6925 123.696 44.7368C123.609 44.4178 123.58 43.7851 123.612 43.1163C123.645 42.4206 124.058 41.7773 124.66 41.9526C124.676 41.9571 124.692 41.9616 124.707 41.9661C125.157 42.0969 125.533 42.2065 125.805 42.2065V42.204C126.077 42.204 126.453 42.0944 126.903 41.9636Z" clip-rule="evenodd"/><path fill="#2D364F" fill-rule="evenodd" d="M123.594 44.073C123.493 44.0484 123.391 43.8799 123.361 43.7717C123.265 43.4274 123.195 42.6688 123.187 42.5702C123.164 42.2697 123.144 41.9067 123.219 41.6258C123.348 41.1483 123.648 40.8191 123.922 40.792C123.95 40.7892 124.349 40.0122 125.409 40.047C126.416 39.9663 127.183 40.2061 127.861 40.8987C128.237 41.2095 128.416 41.8671 128.418 42.2988C128.42 42.9106 128.336 43.6246 128.146 44.0978C127.955 44.571 127.859 44.2007 127.859 44.2007C127.859 44.2007 127.825 43.4815 127.803 43.2078C127.782 42.9341 127.588 42.6359 127.183 42.7384C126.81 42.8326 125.989 43.2234 125.114 43.009C124.929 42.9637 125.066 42.7292 124.887 42.7475C124.667 42.7701 124.499 43.068 124.153 43.0319C123.976 43.0134 124.011 42.6967 123.887 42.7991C123.762 42.9014 123.707 44.1003 123.594 44.073Z" clip-rule="evenodd"/><mask id="path-20-inside-2" fill="#fff"><path d="M130.042 81.9241C130.042 80.8388 130.921 79.959 132.007 79.959H156.887C157.972 79.959 158.852 80.8388 158.852 81.9241V115.033C158.852 116.12 157.971 117.001 156.884 117.001H132.009C130.922 117.001 130.042 116.12 130.042 115.033V81.9241Z"/></mask><path fill="#9399FF" d="M130.042 81.9241C130.042 80.8388 130.921 79.959 132.007 79.959H156.887C157.972 79.959 158.852 80.8388 158.852 81.9241V115.033C158.852 116.12 157.971 117.001 156.884 117.001H132.009C130.922 117.001 130.042 116.12 130.042 115.033V81.9241Z"/><path fill="#9399FF" d="M132.007 80.9004H156.887V79.0176H132.007V80.9004ZM157.91 81.9241V115.033H159.793V81.9241H157.91ZM156.884 116.059H132.009V117.942H156.884V116.059ZM130.983 115.033V81.9241H129.1V115.033H130.983ZM132.009 116.059C131.442 116.059 130.983 115.6 130.983 115.033H129.1C129.1 116.64 130.402 117.942 132.009 117.942V116.059ZM157.91 115.033C157.91 115.6 157.451 116.059 156.884 116.059V117.942C158.491 117.942 159.793 116.64 159.793 115.033H157.91ZM156.887 80.9004C157.452 80.9004 157.91 81.3587 157.91 81.9241H159.793C159.793 80.3189 158.492 79.0176 156.887 79.0176V80.9004ZM132.007 79.0176C130.401 79.0176 129.1 80.3189 129.1 81.9241H130.983C130.983 81.3587 131.441 80.9004 132.007 80.9004V79.0176Z" mask="url(#path-20-inside-2)"/><rect width="20.731" height="5.108" x="134.365" y="107.631" fill="#6A70EC" rx="2.554"/><rect width="2.036" height=".868" fill="#fff" rx=".434" transform="matrix(0.698464 0.715645 -0.698464 0.715645 143.47 109.676)"/><rect width="3.569" height=".87" fill="#fff" rx=".435" transform="matrix(-0.698464 0.715645 -0.698464 -0.715645 146.776 109.2)"/><rect width="7.546" height="1.372" x="141.017" y="98.481" fill="#F8F9FF" fill-opacity=".43" rx=".686"/><rect width="15.091" height="1.372" x="136.901" y="101.909" fill="#F8F9FF" fill-opacity=".43" rx=".686"/><path fill="#fff" stroke="#7B67EE" stroke-width="1.656" d="M149.792 88.8768C149.792 91.4502 147.706 93.5364 145.133 93.5364C142.56 93.5364 140.473 91.4502 140.473 88.8768C140.473 86.3034 142.56 84.2173 145.133 84.2173C147.706 84.2173 149.792 86.3034 149.792 88.8768Z"/><path fill="#F6F8FF" d="M150.621 88.8768C150.621 91.9076 148.164 94.3645 145.133 94.3645C142.102 94.3645 139.645 91.9076 139.645 88.8768C139.645 85.8461 142.102 83.3892 145.133 83.3892C148.164 83.3892 150.621 85.8461 150.621 88.8768Z"/><mask id="mask1" width="12" height="12" x="139" y="83" mask-type="alpha" maskUnits="userSpaceOnUse"><path fill="#fff" d="M150.621 88.8768C150.621 91.9076 148.164 94.3645 145.133 94.3645C142.102 94.3645 139.645 91.9076 139.645 88.8768C139.645 85.8461 142.102 83.3892 145.133 83.3892C148.164 83.3892 150.621 85.8461 150.621 88.8768Z"/></mask><g mask="url(#mask1)"><path fill="#E18975" d="M147.055 85.1733C146.514 84.7812 145.459 84.5478 145.118 84.9512L144.37 86.6543C144.904 87.9572 145.906 90.7033 145.639 91.2644C145.305 91.9658 145.679 91.9434 145.973 92.9258C146.267 93.9082 148.409 93.2404 147.716 92.638C147.023 92.0355 147.619 91.1287 148.042 89.114C148.471 87.07 147.73 85.6635 147.055 85.1733Z"/><path fill="#E18975" d="M142.67 85.6629C143.38 84.4815 144.711 84.6675 145.133 84.9529L144.52 87.6804L143.817 89.2076L144.983 90.3148L145.2 91.7406L142.237 93.969L140.392 92.9378L141.648 92.0258C141.946 91.781 142.489 91.1422 142.273 90.5454C142.003 89.7995 141.61 87.4257 142.67 85.6629Z"/><ellipse cx="145.133" cy="99.581" fill="#7B67EE" rx="7.195" ry="7.927"/><path fill="#F4D9BD" d="M144.523 91.5753C144.663 91.247 144.523 90.6606 144.523 90.6606H145.133V93.0996C144.645 93.0996 144.179 92.8892 144.022 92.677C143.865 92.4648 143.89 92.3017 143.913 92.185C143.979 91.8548 144.39 91.8848 144.523 91.5753Z"/><path fill="#F4D9BD" d="M145.743 91.5753C145.602 91.247 145.743 90.6606 145.743 90.6606H145.133V93.0996C145.621 93.0996 146.087 92.8892 146.244 92.677C146.401 92.4648 146.376 92.3017 146.353 92.185C146.287 91.8548 145.876 91.8848 145.743 91.5753Z"/></g><path fill="#FBE6CE" d="M144.094 86.4898C144.521 86.6368 144.878 86.7629 145.133 86.7629V91.3982C144.015 91.3982 143.455 90.5108 143.22 89.4833C143.14 89.1404 143.114 88.4601 143.143 87.741C143.173 86.993 143.547 86.3014 144.094 86.4898Z"/><path fill="#FBE6CE" d="M146.172 86.4898C145.745 86.6368 145.388 86.7629 145.133 86.7629V91.3982C146.251 91.3982 146.812 90.5108 147.046 89.4833C147.126 89.1404 147.152 88.4601 147.123 87.741C147.093 86.993 146.719 86.3014 146.172 86.4898Z"/><path fill="#E18975" d="M147.683 92.3968C147.564 92.2854 147.415 92.1268 147.39 91.9413C147.111 91.6653 146.363 91.2449 145.942 91.2838C145.814 91.2956 145.851 91.2597 145.617 91.3329C145.12 91.9367 145.614 93.1674 146.215 93.5776C146.816 93.9879 147.803 93.4875 148.052 93.0456C148.314 92.582 147.861 92.5624 147.683 92.3968Z"/><path fill="#E18975" d="M143.483 87.0443C143.517 86.3734 144.428 86.6848 144.881 86.7207L144.624 85.6592L142.978 86.1942C141.825 88.4241 142.683 90.0707 142.65 89.9502C142.609 89.7995 143.404 88.6197 143.483 87.0443Z"/><g filter="url(#filter3_dddddd)"><g filter="url(#filter4_d)"><mask id="path-39-inside-3" fill="#fff"><path d="M93 81.9651C93 80.8798 93.8798 80 94.9651 80H119.845C120.93 80 121.81 80.8798 121.81 81.9651V115.074C121.81 116.161 120.929 117.042 119.843 117.042H94.9675C93.8809 117.042 93 116.161 93 115.074V81.9651Z"/></mask><path fill="#C0C4FF" d="M93 81.9651C93 80.8798 93.8798 80 94.9651 80H119.845C120.93 80 121.81 80.8798 121.81 81.9651V115.074C121.81 116.161 120.929 117.042 119.843 117.042H94.9675C93.8809 117.042 93 116.161 93 115.074V81.9651Z"/><path fill="#7C83FD" d="M94.9651 80.3H119.845V79.7H94.9651V80.3ZM121.51 81.9651V115.074H122.11V81.9651H121.51ZM119.843 116.742H94.9675V117.342H119.843V116.742ZM93.3 115.074V81.9651H92.7V115.074H93.3ZM94.9675 116.742C94.0466 116.742 93.3 115.995 93.3 115.074H92.7C92.7 116.327 93.7152 117.342 94.9675 117.342V116.742ZM121.51 115.074C121.51 115.995 120.764 116.742 119.843 116.742V117.342C121.095 117.342 122.11 116.327 122.11 115.074H121.51ZM119.845 80.3C120.765 80.3 121.51 81.0455 121.51 81.9651H122.11C122.11 80.7141 121.096 79.7 119.845 79.7V80.3ZM94.9651 79.7C93.7141 79.7 92.7 80.7141 92.7 81.9651H93.3C93.3 81.0455 94.0455 80.3 94.9651 80.3V79.7Z" mask="url(#path-39-inside-3)"/><rect width="20.579" height="5.488" x="97.116" y="107.397" fill="#9DA1FB" rx="2.744"/><rect width="2.04" height=".87" fill="#fff" rx=".435" transform="matrix(0.696998 0.717073 -0.696998 0.717073 106.306 109.644)"/><rect width="3.576" height=".872" fill="#fff" rx=".436" transform="matrix(-0.696998 0.717073 -0.696998 -0.717073 109.611 109.167)"/><rect width="6.86" height="1.372" x="103.975" y="98.48" fill="#F8F9FF" fill-opacity=".43" rx=".686"/><rect width="15.091" height="1.372" x="99.86" y="101.909" fill="#F8F9FF" fill-opacity=".43" rx=".686"/></g><path fill="#fff" stroke="#7B67EE" stroke-width="1.656" d="M112.065 88.8763C112.065 91.4497 109.979 93.5359 107.405 93.5359C104.832 93.5359 102.746 91.4497 102.746 88.8763C102.746 86.3029 104.832 84.2168 107.405 84.2168C109.979 84.2168 112.065 86.3029 112.065 88.8763Z"/><path fill="#F6F8FF" d="M112.893 88.8763C112.893 91.9071 110.436 94.364 107.405 94.364C104.374 94.364 101.917 91.9071 101.917 88.8763C101.917 85.8456 104.374 83.3887 107.405 83.3887C110.436 83.3887 112.893 85.8456 112.893 88.8763Z"/><mask id="mask2" width="12" height="12" x="101" y="83" mask-type="alpha" maskUnits="userSpaceOnUse"><path fill="#fff" d="M112.893 88.8763C112.893 91.9071 110.436 94.364 107.405 94.364C104.374 94.364 101.917 91.9071 101.917 88.8763C101.917 85.8456 104.374 83.3887 107.405 83.3887C110.436 83.3887 112.893 85.8456 112.893 88.8763Z"/></mask><g mask="url(#mask2)"><ellipse cx="107.406" cy="100.097" fill="#FFAB00" rx="7.195" ry="7.927"/><path fill="#F4D9BD" d="M106.796 92.2276C106.937 91.8993 106.796 91.313 106.796 91.313H107.406V93.752C106.918 93.752 106.452 93.5415 106.295 93.3293C106.138 93.1171 106.163 92.9541 106.186 92.8373C106.252 92.5071 106.663 92.5371 106.796 92.2276Z"/><path fill="#F4D9BD" d="M108.016 92.2276C107.875 91.8993 108.016 91.313 108.016 91.313H107.406V93.752C107.894 93.752 108.36 93.5415 108.517 93.3293C108.674 93.1171 108.649 92.9541 108.625 92.8373C108.559 92.5071 108.148 92.5371 108.016 92.2276Z"/></g><path fill="#FBE4CD" fill-rule="evenodd" d="M108.596 87.1542C108.613 87.1494 108.63 87.1446 108.647 87.1398C109.3 86.9539 109.748 87.6362 109.784 88.3742C109.819 89.0836 109.787 89.7548 109.692 90.093C109.412 91.1067 108.741 91.982 107.405 91.9821V91.984C106.069 91.984 105.398 91.1086 105.118 90.0949C105.023 89.7566 104.991 89.0855 105.026 88.376C105.062 87.6381 105.509 86.9558 106.163 87.1417C106.18 87.1465 106.197 87.1513 106.214 87.1561C106.701 87.2947 107.11 87.411 107.405 87.411V87.4092C107.7 87.4092 108.108 87.2929 108.596 87.1542Z" clip-rule="evenodd"/><path fill="#FFAB00" fill-rule="evenodd" d="M106.687 89.3538C106.122 89.5683 105.897 88.194 105.434 88.5828C105.031 88.9213 105.074 89.4226 104.956 89.3853C104.593 89.2706 104.83 88.5421 104.374 88.2768C103.919 88.0115 103.79 87.3899 103.839 87.0113C103.888 86.633 104.369 86.6776 104.522 86.2583C104.814 85.4611 104.729 85.004 105.466 84.7414C106.445 84.3923 106.912 84.7683 107.4 84.8307C107.719 84.8715 108.063 84.5858 108.607 84.8473C109.139 85.1028 109.011 85.5574 109.548 85.7027C109.988 85.8219 110.373 85.8694 110.573 86.3413C110.774 86.8133 110.583 87.0305 110.468 87.7131C110.354 88.3958 110.549 88.2164 110.217 89.1044C110.012 89.6531 109.807 89.3853 109.807 89.3853C109.549 88.802 108.88 88.5223 108.283 88.7485L106.687 89.3538Z" clip-rule="evenodd"/></g><path stroke="#9399FF" stroke-width=".6" d="M107.507 80.0018V77.6654C107.507 76.5608 108.403 75.6654 109.507 75.6654H126.245M126.245 75.6654H142.983C144.088 75.6654 144.983 76.5608 144.983 77.6654V79.8063M126.245 75.6654V71.1772"/><g filter="url(#filter5_bd)" opacity=".2"><circle cx="33" cy="123" r="8" fill="#85E2FF"/></g><path fill="#826EE4" d="M29 29.6318C29 27.626 30.626 26 32.6318 26H67V126H32.6318C30.626 126 29 124.374 29 122.368V29.6318Z"/><rect width="30" height="8" x="33" y="41" fill="#fff" rx="1"/><rect width="30" height="8" x="33" y="57" fill="#fff" rx="1"/><rect width="30" height="8" x="33" y="73" fill="#6047DB" rx="1"/><g filter="url(#filter6_d)"><rect width="30" height="8" x="41" y="69" fill="#fff" rx="1"/></g><rect width="30" height="8" x="33" y="89" fill="#fff" rx="1"/><rect width="30" height="8" x="33" y="105" fill="#fff" rx="1"/><g filter="url(#filter7_d)"><path fill="#fff" fill-rule="evenodd" d="M62 79.5075V71.5L67.7955 77.3095L64.25 77.25L62 79.5075Z" clip-rule="evenodd"/><path fill="#7EE2FF" fill-rule="evenodd" d="M62.5 72.7036V78.2976L64.0473 76.7951H66.5825L62.5 72.7036Z" clip-rule="evenodd"/></g><g filter="url(#filter8_d)"><circle cx="30" cy="27" r="3.75" fill="#7EE0FF" stroke="#fff" stroke-width=".5"/><path fill="#fff" fill-rule="evenodd" d="M29.8687 25.3355C29.9513 25.2879 30.0531 25.2879 30.1357 25.3356L31.4691 26.1064C31.5516 26.1541 31.6024 26.2421 31.6024 26.3374V27.879C31.6024 27.9743 31.5516 28.0623 31.4691 28.11L30.1357 28.8808C30.0531 28.9285 29.9513 28.9285 29.8687 28.8808L28.5334 28.1101C28.4508 28.0624 28.3999 27.9743 28.3999 27.879V26.3374C28.3999 26.2421 28.4508 26.154 28.5334 26.1063L29.8687 25.3355ZM28.9337 27.7249V26.7904L29.7352 27.2346V28.1875L28.9337 27.7249ZM30.269 28.1872L31.0687 27.725V26.7908L30.269 27.2345V28.1872ZM30.002 25.8749L30.7941 26.3327L30.0021 26.7722L29.2089 26.3327L30.002 25.8749Z" clip-rule="evenodd"/></g><rect width="24" height="1" x="36" y="43" fill="#EFF2FE" rx=".5"/><rect width="24" height="1" x="44" y="71" fill="#EFF2FE" rx=".5"/><rect width="16" height="1" x="36" y="59" fill="#EFF2FE" rx=".5"/><rect width="24" height="1" x="36" y="91" fill="#EFF2FE" rx=".5"/><rect width="17" height="1" x="36" y="107" fill="#EFF2FE" rx=".5"/><rect width="6" height="1" x="36" y="46" fill="#EFF2FE" rx=".5"/><rect width="6" height="1" x="44" y="74" fill="#EFF2FE" rx=".5"/><rect width="11" height="1" x="36" y="62" fill="#EFF2FE" rx=".5"/><rect width="20" height="1" x="36" y="94" fill="#EFF2FE" rx=".5"/><rect width="24" height="1" x="36" y="110" fill="#EFF2FE" rx=".5"/><path fill="#9399FF" fill-rule="evenodd" d="M180.854 32.1464C180.947 32.2402 181 32.3674 181 32.5V34.1C181 34.3761 180.776 34.6 180.5 34.6C180.224 34.6 180 34.3761 180 34.1V33.7072L178.999 34.7083C178.804 34.9036 178.487 34.9036 178.292 34.7083C178.096 34.5131 178.096 34.1965 178.292 34.0012L179.293 33H178.9C178.624 33 178.4 32.7761 178.4 32.5C178.4 32.2239 178.624 32 178.9 32H180.5C180.633 32 180.76 32.0527 180.854 32.1464ZM176 36.293V35.9C176 35.6239 175.776 35.4 175.5 35.4C175.224 35.4 175 35.6239 175 35.9V37.5C175 37.6326 175.053 37.7598 175.146 37.8536C175.24 37.9473 175.367 38 175.5 38H177.1C177.376 38 177.6 37.7761 177.6 37.5C177.6 37.2239 177.376 37 177.1 37H176.707L177.687 36.0197C177.883 35.8245 177.883 35.5079 177.687 35.3126C177.492 35.1174 177.176 35.1174 176.98 35.3126L176 36.293Z" clip-rule="evenodd"/><path fill="#9399FF" d="M70 68.5004L71.2001 66.5273L68.8913 66.4746L70 68.5004ZM92 60L92.1452 59.8625L92 60ZM83.5 68L83.6644 67.8862L83.5 68ZM104.5 79.0003L105.983 77.2302L103.709 76.8307L104.5 79.0003ZM70.4139 65.5238C70.5156 64.8467 70.6521 64.2007 70.8205 63.5865L70.4347 63.4807C70.262 64.1108 70.1223 64.7722 70.0184 65.4644L70.4139 65.5238ZM71.4693 61.7196C71.7373 61.0938 72.0433 60.5102 72.3829 59.9696L72.0441 59.7569C71.6931 60.3156 71.3776 60.9177 71.1016 61.5622L71.4693 61.7196ZM73.5704 58.3971C74.0197 57.9005 74.5049 57.4573 75.0202 57.0684L74.7792 56.7491C74.2436 57.1534 73.7399 57.6137 73.2738 58.1287L73.5704 58.3971ZM76.6959 56.0435C77.2863 55.7578 77.903 55.531 78.5399 55.3645L78.4387 54.9775C77.7769 55.1506 77.1357 55.3863 76.5217 55.6835L76.6959 56.0435ZM80.4805 55.0484C81.1253 55.0038 81.7834 55.0161 82.4493 55.0865L82.4914 54.6887C81.8028 54.6159 81.1214 54.6032 80.4529 54.6493L80.4805 55.0484ZM84.3882 55.452C85.0088 55.6204 85.6316 55.8388 86.2524 56.1082L86.4117 55.7413C85.7737 55.4644 85.1327 55.2395 84.4929 55.066L84.3882 55.452ZM88.0114 57.015C88.5628 57.3456 89.1091 57.7183 89.6473 58.1339L89.8918 57.8173C89.3415 57.3924 88.7822 57.0108 88.2171 56.672L88.0114 57.015ZM91.1521 59.431C91.3888 59.6575 91.6231 59.893 91.8548 60.1376L92.1452 59.8625C91.909 59.6132 91.6701 59.3731 91.4287 59.142L91.1521 59.431ZM91.8548 60.1376C92.1036 60.4002 92.3293 60.6649 92.5331 60.9305L92.8505 60.6871C92.638 60.41 92.4032 60.1348 92.1452 59.8625L91.8548 60.1376ZM93.5805 62.7082C93.865 63.382 94.0256 64.0495 94.0807 64.6954L94.4792 64.6614C94.4205 63.9728 94.2495 63.2643 93.949 62.5526L93.5805 62.7082ZM93.9037 66.7303C93.7237 67.4049 93.4278 68.0299 93.0429 68.5811L93.3709 68.8101C93.7819 68.2215 94.0979 67.5541 94.2902 66.8334L93.9037 66.7303ZM91.5999 70.0227C91.0359 70.413 90.4059 70.6945 89.7411 70.8409L89.8272 71.2316C90.5454 71.0734 91.223 70.7699 91.8275 70.3517L91.5999 70.0227ZM87.7187 70.8586C87.0927 70.7318 86.4591 70.4777 85.8393 70.0747L85.6213 70.4101C86.2817 70.8394 86.962 71.1135 87.6393 71.2506L87.7187 70.8586ZM84.3025 68.7121C84.085 68.4607 83.8719 68.1858 83.6644 67.8862L83.3356 68.1138C83.5508 68.4247 83.7726 68.7111 84 68.9739L84.3025 68.7121ZM83.6644 67.8862C83.4605 67.5916 83.2807 67.2985 83.1239 67.0076L82.7718 67.1974C82.936 67.502 83.1236 67.8076 83.3356 68.1138L83.6644 67.8862ZM82.4093 65.1235C82.2579 64.4384 82.2281 63.7709 82.3037 63.1282L81.9065 63.0815C81.8256 63.7689 81.8577 64.4813 82.0188 65.2099L82.4093 65.1235ZM82.8669 61.2036C83.1507 60.608 83.5279 60.0438 83.9829 59.5196L83.6809 59.2573C83.2045 59.8061 82.8066 60.4003 82.5058 61.0315L82.8669 61.2036ZM85.4761 58.1425C86.0095 57.7439 86.5939 57.3855 87.217 57.0739L87.0381 56.7162C86.3949 57.0378 85.7901 57.4085 85.2366 57.8222L85.4761 58.1425ZM89.1171 56.3088C89.7621 56.1065 90.4302 55.9512 91.111 55.8482L91.0511 55.4527C90.3499 55.5588 89.6618 55.7187 88.9974 55.9271L89.1171 56.3088ZM93.1534 55.7005C93.833 55.7054 94.5147 55.7649 95.1887 55.8838L95.2582 55.4899C94.5613 55.367 93.8573 55.3055 93.1562 55.3005L93.1534 55.7005ZM97.1595 56.416C97.7896 56.6497 98.4037 56.9436 98.993 57.3021L99.2009 56.9603C98.589 56.5882 97.9519 56.2833 97.2986 56.041L97.1595 56.416ZM100.626 58.5268C101.11 58.9696 101.568 59.4695 101.993 60.03L102.312 59.7885C101.873 59.2088 101.398 58.6908 100.895 58.2314L100.626 58.5268ZM103.086 61.7565C103.391 62.3357 103.667 62.962 103.91 63.6376L104.287 63.5023C104.038 62.8099 103.754 62.1665 103.44 61.5701L103.086 61.7565ZM104.489 65.6121C104.637 66.2505 104.76 66.9245 104.854 67.6352L105.251 67.5825C105.155 66.8597 105.03 66.173 104.878 65.5215L104.489 65.6121ZM105.041 69.6806C105.075 70.3389 105.087 71.0243 105.077 71.7374L105.477 71.7435C105.488 71.0218 105.475 70.3275 105.44 69.6598L105.041 69.6806ZM104.985 73.8055C104.936 74.4785 104.868 75.1735 104.78 75.891L105.177 75.9397C105.266 75.2159 105.334 74.5143 105.384 73.8344L104.985 73.8055Z"/><defs><filter id="filter0_bd" width="59" height="63" x="145" y="12" color-interpolation-filters="sRGB" filterUnits="userSpaceOnUse"><feFlood flood-opacity="0" result="BackgroundImageFix"/><feGaussianBlur in="BackgroundImage" stdDeviation="2"/><feComposite in2="SourceAlpha" operator="in" result="effect1_backgroundBlur"/><feColorMatrix in="SourceAlpha" type="matrix" values="0 0 0 0 0 0 0 0 0 0 0 0 0 0 0 0 0 0 127 0"/><feOffset dy="4"/><feGaussianBlur stdDeviation="2"/><feColorMatrix type="matrix" values="0 0 0 0 0.898039 0 0 0 0 0.615686 0 0 0 0 0.188235 0 0 0 0.1 0"/><feBlend in2="effect1_backgroundBlur" mode="normal" result="effect2_dropShadow"/><feBlend in="SourceGraphic" in2="effect2_dropShadow" mode="normal" result="shape"/></filter><filter id="filter1_d" width="167.08" height="109.08" x="24.46" y="22.392" color-interpolation-filters="sRGB" filterUnits="userSpaceOnUse"><feFlood flood-opacity="0" result="BackgroundImageFix"/><feColorMatrix in="SourceAlpha" type="matrix" values="0 0 0 0 0 0 0 0 0 0 0 0 0 0 0 0 0 0 127 0"/><feOffset dy=".932"/><feGaussianBlur stdDeviation="2.27"/><feColorMatrix type="matrix" values="0 0 0 0 0.267078 0 0 0 0 0.283406 0 0 0 0 0.67527 0 0 0 0.15 0"/><feBlend in2="BackgroundImageFix" mode="normal" result="effect1_dropShadow"/><feBlend in="SourceGraphic" in2="effect1_dropShadow" mode="normal" result="shape"/></filter><filter id="filter2_bd" width="22" height="26" x="117" y="68" color-interpolation-filters="sRGB" filterUnits="userSpaceOnUse"><feFlood flood-opacity="0" result="BackgroundImageFix"/><feGaussianBlur in="BackgroundImage" stdDeviation="2"/><feComposite in2="SourceAlpha" operator="in" result="effect1_backgroundBlur"/><feColorMatrix in="SourceAlpha" type="matrix" values="0 0 0 0 0 0 0 0 0 0 0 0 0 0 0 0 0 0 127 0"/><feOffset dy="4"/><feGaussianBlur stdDeviation="2"/><feColorMatrix type="matrix" values="0 0 0 0 0.898039 0 0 0 0 0.615686 0 0 0 0 0.188235 0 0 0 0.1 0"/><feBlend in2="effect1_backgroundBlur" mode="normal" result="effect2_dropShadow"/><feBlend in="SourceGraphic" in2="effect2_dropShadow" mode="normal" result="shape"/></filter><filter id="filter3_dddddd" width="188.81" height="197.042" x="13" y="24" color-interpolation-filters="sRGB" filterUnits="userSpaceOnUse"><feFlood flood-opacity="0" result="BackgroundImageFix"/><feColorMatrix in="SourceAlpha" type="matrix" values="0 0 0 0 0 0 0 0 0 0 0 0 0 0 0 0 0 0 127 0"/><feOffset dy=".664"/><feGaussianBlur stdDeviation="1.107"/><feColorMatrix type="matrix" values="0 0 0 0 0.403922 0 0 0 0 0.352941 0 0 0 0 0.909804 0 0 0 0.0365489 0"/><feBlend in2="BackgroundImageFix" mode="normal" result="effect1_dropShadow"/><feColorMatrix in="SourceAlpha" type="matrix" values="0 0 0 0 0 0 0 0 0 0 0 0 0 0 0 0 0 0 127 0"/><feOffset dy="1.596"/><feGaussianBlur stdDeviation="2.66"/><feColorMatrix type="matrix" values="0 0 0 0 0.403922 0 0 0 0 0.352941 0 0 0 0 0.909804 0 0 0 0.0525061 0"/><feBlend in2="effect1_dropShadow" mode="normal" result="effect2_dropShadow"/><feColorMatrix in="SourceAlpha" type="matrix" values="0 0 0 0 0 0 0 0 0 0 0 0 0 0 0 0 0 0 127 0"/><feOffset dy="3.005"/><feGaussianBlur stdDeviation="5.009"/><feColorMatrix type="matrix" values="0 0 0 0 0.403922 0 0 0 0 0.352941 0 0 0 0 0.909804 0 0 0 0.065 0"/><feBlend in2="effect2_dropShadow" mode="normal" result="effect3_dropShadow"/><feColorMatrix in="SourceAlpha" type="matrix" values="0 0 0 0 0 0 0 0 0 0 0 0 0 0 0 0 0 0 127 0"/><feOffset dy="5.361"/><feGaussianBlur stdDeviation="8.935"/><feColorMatrix type="matrix" values="0 0 0 0 0.403922 0 0 0 0 0.352941 0 0 0 0 0.909804 0 0 0 0.0774939 0"/><feBlend in2="effect3_dropShadow" mode="normal" result="effect4_dropShadow"/><feColorMatrix in="SourceAlpha" type="matrix" values="0 0 0 0 0 0 0 0 0 0 0 0 0 0 0 0 0 0 127 0"/><feOffset dy="10.027"/><feGaussianBlur stdDeviation="16.711"/><feColorMatrix type="matrix" values="0 0 0 0 0.403922 0 0 0 0 0.352941 0 0 0 0 0.909804 0 0 0 0.0934511 0"/><feBlend in2="effect4_dropShadow" mode="normal" result="effect5_dropShadow"/><feColorMatrix in="SourceAlpha" type="matrix" values="0 0 0 0 0 0 0 0 0 0 0 0 0 0 0 0 0 0 127 0"/><feOffset dy="24"/><feGaussianBlur stdDeviation="40"/><feColorMatrix type="matrix" values="0 0 0 0 0.403922 0 0 0 0 0.352941 0 0 0 0 0.909804 0 0 0 0.13 0"/><feBlend in2="effect5_dropShadow" mode="normal" result="effect6_dropShadow"/><feBlend in="SourceGraphic" in2="effect6_dropShadow" mode="normal" result="shape"/></filter><filter id="filter4_d" width="36.671" height="44.902" x="89.07" y="80" color-interpolation-filters="sRGB" filterUnits="userSpaceOnUse"><feFlood flood-opacity="0" result="BackgroundImageFix"/><feColorMatrix in="SourceAlpha" type="matrix" values="0 0 0 0 0 0 0 0 0 0 0 0 0 0 0 0 0 0 127 0"/><feOffset dy="3.93"/><feGaussianBlur stdDeviation="1.965"/><feColorMatrix type="matrix" values="0 0 0 0 0.534462 0 0 0 0 0.554987 0 0 0 0 0.979167 0 0 0 0.1 0"/><feBlend in2="BackgroundImageFix" mode="normal" result="effect1_dropShadow"/><feBlend in="SourceGraphic" in2="effect1_dropShadow" mode="normal" result="shape"/></filter><filter id="filter5_bd" width="24" height="28" x="21" y="111" color-interpolation-filters="sRGB" filterUnits="userSpaceOnUse"><feFlood flood-opacity="0" result="BackgroundImageFix"/><feGaussianBlur in="BackgroundImage" stdDeviation="2"/><feComposite in2="SourceAlpha" operator="in" result="effect1_backgroundBlur"/><feColorMatrix in="SourceAlpha" type="matrix" values="0 0 0 0 0 0 0 0 0 0 0 0 0 0 0 0 0 0 127 0"/><feOffset dy="4"/><feGaussianBlur stdDeviation="2"/><feColorMatrix type="matrix" values="0 0 0 0 0.898039 0 0 0 0 0.615686 0 0 0 0 0.188235 0 0 0 0.1 0"/><feBlend in2="effect1_backgroundBlur" mode="normal" result="effect2_dropShadow"/><feBlend in="SourceGraphic" in2="effect2_dropShadow" mode="normal" result="shape"/></filter><filter id="filter6_d" width="42" height="20" x="39" y="67" color-interpolation-filters="sRGB" filterUnits="userSpaceOnUse"><feFlood flood-opacity="0" result="BackgroundImageFix"/><feColorMatrix in="SourceAlpha" type="matrix" values="0 0 0 0 0 0 0 0 0 0 0 0 0 0 0 0 0 0 127 0"/><feMorphology in="SourceAlpha" operator="dilate" radius="1" result="effect1_dropShadow"/><feOffset dx="4" dy="4"/><feGaussianBlur stdDeviation="2.5"/><feColorMatrix type="matrix" values="0 0 0 0 0.365764 0 0 0 0 0.398453 0 0 0 0 0.954167 0 0 0 0.3 0"/><feBlend in2="BackgroundImageFix" mode="normal" result="effect1_dropShadow"/><feBlend in="SourceGraphic" in2="effect1_dropShadow" mode="normal" result="shape"/></filter><filter id="filter7_d" width="21.796" height="24.008" x="54" y="65.5" color-interpolation-filters="sRGB" filterUnits="userSpaceOnUse"><feFlood flood-opacity="0" result="BackgroundImageFix"/><feColorMatrix in="SourceAlpha" type="matrix" values="0 0 0 0 0 0 0 0 0 0 0 0 0 0 0 0 0 0 127 0"/><feOffset dy="2"/><feGaussianBlur stdDeviation="4"/><feColorMatrix type="matrix" values="0 0 0 0 0.478431 0 0 0 0 0.497569 0 0 0 0 0.956863 0 0 0 0.3 0"/><feBlend in2="BackgroundImageFix" mode="normal" result="effect1_dropShadow"/><feBlend in="SourceGraphic" in2="effect1_dropShadow" mode="normal" result="shape"/></filter><filter id="filter8_d" width="16" height="16" x="22" y="21" color-interpolation-filters="sRGB" filterUnits="userSpaceOnUse"><feFlood flood-opacity="0" result="BackgroundImageFix"/><feColorMatrix in="SourceAlpha" type="matrix" values="0 0 0 0 0 0 0 0 0 0 0 0 0 0 0 0 0 0 127 0"/><feOffset dy="2"/><feGaussianBlur stdDeviation="2"/><feColorMatrix type="matrix" values="0 0 0 0 0.184314 0 0 0 0 0.803922 0 0 0 0 1 0 0 0 0.2 0"/><feBlend in2="BackgroundImageFix" mode="normal" result="effect1_dropShadow"/><feBlend in="SourceGraphic" in2="effect1_dropShadow" mode="normal" result="shape"/></filter></defs></svg>