<svg xmlns="http://www.w3.org/2000/svg" width="216" height="152" fill="none" viewBox="0 0 216 152"><rect width="216" height="152" fill="#F9F9FF" rx="8"/><g filter="url(#filter0_bd)" opacity=".07"><circle cx="104" cy="124" r="12" fill="#85A0FF"/></g><g filter="url(#filter1_bd)" opacity=".1"><circle cx="29" cy="71" r="8" fill="#FFCE85"/></g><g filter="url(#filter2_d)"><path fill="#fff" d="M29 26.9136C29 24.7522 30.7522 23 32.9136 23H183.086C185.248 23 187 24.7522 187 26.9136V119.086C187 121.248 185.248 123 183.086 123H32.9136C30.7522 123 29 121.248 29 119.086V26.9136Z"/></g><rect width="142" height="9.784" x="37" y="53" fill="#FAFBFF" rx="1.957"/><rect width="4" height="4" x="42" y="56" fill="#C0C9FF" opacity=".6" rx=".978"/><rect width="32.037" height="3.914" x="82.586" y="55.935" fill="#EFF2FF" rx="1.957"/><rect width="32.902" height="3.914" x="127.486" y="55.935" fill="#EFF2FF" rx="1.957"/><rect width="12.122" height="3.914" x="56.049" y="55.935" fill="#FFAB00" opacity=".2" rx="1.957"/><rect width="142" height="9.784" x="37" y="70" fill="#FAFBFF" rx="1.957"/><rect width="4" height="4" x="42" y="73" fill="#C0C9FF" opacity=".6" rx=".978"/><rect width="32.037" height="3.914" x="82.586" y="72.935" fill="#EFF2FF" rx="1.957"/><rect width="32.902" height="3.914" x="127.486" y="72.935" fill="#EFF2FF" rx="1.957"/><rect width="12.122" height="3.914" x="56.049" y="72.935" fill="#52C41B" opacity=".2" rx="1.957"/><rect width="142" height="9.784" x="37" y="87" fill="#FAFBFF" rx="1.957"/><rect width="4" height="4" x="42" y="90" fill="#C0C9FF" opacity=".6" rx=".978"/><rect width="32.037" height="3.914" x="82.586" y="89.934" fill="#EFF2FF" rx="1.957"/><rect width="32.902" height="3.914" x="127.486" y="89.934" fill="#EFF2FF" rx="1.957"/><rect width="12.122" height="3.914" x="56.049" y="89.934" fill="#FFAB00" opacity=".2" rx="1.957"/><rect width="142" height="9.784" x="37" y="104" fill="#FAFBFF" rx="1.957"/><rect width="4" height="4" x="42" y="107" fill="#C0C9FF" opacity=".6" rx=".978"/><rect width="32.037" height="3.914" x="82.586" y="106.934" fill="#EFF2FF" rx="1.957"/><rect width="32.902" height="3.914" x="127.486" y="106.934" fill="#EFF2FF" rx="1.957"/><rect width="12.122" height="3.914" x="56.049" y="106.934" fill="#FFAB00" opacity=".2" rx="1.957"/><rect width="34" height="5" x="39" y="30" fill="#9399FF" rx="1"/><path fill="#fff" fill-rule="evenodd" d="M43.2749 31.0013C43.4123 31.015 43.5125 31.1375 43.4988 31.2749L43.4763 31.5H43.75C43.8881 31.5 44 31.612 44 31.75C44 31.8881 43.8881 32 43.75 32H43.4263L43.3513 32.7499H43.75C43.8881 32.7499 44 32.8618 44 32.9999C44 33.1379 43.8881 33.2499 43.75 33.2499H43.3013L43.2488 33.7749C43.2351 33.9122 43.1126 34.0125 42.9752 33.9987C42.8378 33.985 42.7375 33.8625 42.7513 33.7251L42.7988 33.2499H42.0513L41.9988 33.7749C41.985 33.9122 41.8625 34.0125 41.7251 33.9987C41.5877 33.985 41.4875 33.8625 41.5013 33.7251L41.5488 33.2499H41.25C41.1119 33.2499 41 33.1379 41 32.9999C41 32.8618 41.1119 32.7499 41.25 32.7499H41.5988L41.6738 32H41.25C41.1119 32 41 31.8881 41 31.75C41 31.612 41.1119 31.5 41.25 31.5H41.7238L41.7513 31.2251C41.765 31.0878 41.8875 30.9875 42.0249 31.0013C42.1623 31.015 42.2625 31.1375 42.2488 31.2749L42.2263 31.5H42.9738L43.0013 31.2251C43.015 31.0878 43.1375 30.9875 43.2749 31.0013ZM42.1763 32L42.1013 32.7499H42.8488L42.9238 32H42.1763Z" clip-rule="evenodd"/><g opacity=".7"><rect width="10" height="5" x="39" y="41" fill="#D7DDFF" rx="1"/></g><g opacity=".7"><rect width="17" height="5" x="54" y="41" fill="#D7DDFF" rx="1"/></g><g opacity=".7"><rect width="28" height="5" x="85" y="41" fill="#D7DDFF" rx="1"/></g><g opacity=".7"><rect width="28" height="5" x="128" y="41" fill="#D7DDFF" rx="1"/></g><g clip-path="url(#clip0)"><g filter="url(#filter3_bd)"><path fill="#fff" d="M104 54.6649C104 53.1931 105.045 52 106.335 52H155.665C156.955 52 158 53.1931 158 54.6649V162.335C158 163.807 156.955 165 155.665 165H106.335C105.045 165 104 163.807 104 162.335V54.6649Z"/><path stroke="#fff" stroke-width=".3" d="M104.15 54.6649C104.15 53.2567 105.146 52.15 106.335 52.15H155.665C156.854 52.15 157.85 53.2567 157.85 54.6649V162.335C157.85 163.743 156.854 164.85 155.665 164.85H106.335C105.146 164.85 104.15 163.743 104.15 162.335V54.6649Z"/></g><g opacity=".5"><g opacity=".7"><path fill="#EFF2FF" d="M110 59.1111C110 58.4975 110.497 58 111.111 58H118.889C119.503 58 120 58.4975 120 59.1111V66.8889C120 67.5025 119.503 68 118.889 68H111.111C110.497 68 110 67.5025 110 66.8889V59.1111Z"/><path fill="#EFF2FF" d="M110 91.1111C110 90.4975 110.497 90 111.111 90H118.889C119.503 90 120 90.4975 120 91.1111V98.8889C120 99.5025 119.503 100 118.889 100H111.111C110.497 100 110 99.5025 110 98.8889V91.1111Z"/><path fill="#EFF2FF" d="M110 75.1111C110 74.4975 110.497 74 111.111 74H118.889C119.503 74 120 74.4975 120 75.1111V82.8889C120 83.5025 119.503 84 118.889 84H111.111C110.497 84 110 83.5025 110 82.8889V75.1111Z"/><path fill="#EFF2FF" d="M110 107.111C110 106.497 110.497 106 111.111 106H118.889C119.503 106 120 106.497 120 107.111V114.889C120 115.503 119.503 116 118.889 116H111.111C110.497 116 110 115.503 110 114.889V107.111Z"/><path fill="#EFF2FF" d="M110 123.111C110 122.497 110.497 122 111.111 122H118.889C119.503 122 120 122.497 120 123.111V130.889C120 131.503 119.503 132 118.889 132H111.111C110.497 132 110 131.503 110 130.889V123.111Z"/><path fill="#EFF2FF" d="M126 59.1111C126 58.4975 126.497 58 127.111 58H134.889C135.503 58 136 58.4975 136 59.1111V66.8889C136 67.5025 135.503 68 134.889 68H127.111C126.497 68 126 67.5025 126 66.8889V59.1111Z"/><path fill="#EFF2FF" d="M126 91.1111C126 90.4975 126.497 90 127.111 90H134.889C135.503 90 136 90.4975 136 91.1111V98.8889C136 99.5025 135.503 100 134.889 100H127.111C126.497 100 126 99.5025 126 98.8889V91.1111Z"/><path fill="#EFF2FF" d="M126 75.1111C126 74.4975 126.497 74 127.111 74H134.889C135.503 74 136 74.4975 136 75.1111V82.8889C136 83.5025 135.503 84 134.889 84H127.111C126.497 84 126 83.5025 126 82.8889V75.1111Z"/><path fill="#EFF2FF" d="M126 107.111C126 106.497 126.497 106 127.111 106H134.889C135.503 106 136 106.497 136 107.111V114.889C136 115.503 135.503 116 134.889 116H127.111C126.497 116 126 115.503 126 114.889V107.111Z"/><path fill="#EFF2FF" d="M126 123.111C126 122.497 126.497 122 127.111 122H134.889C135.503 122 136 122.497 136 123.111V130.889C136 131.503 135.503 132 134.889 132H127.111C126.497 132 126 131.503 126 130.889V123.111Z"/><path fill="#EFF2FF" d="M142 59.1111C142 58.4975 142.497 58 143.111 58H150.889C151.503 58 152 58.4975 152 59.1111V66.8889C152 67.5025 151.503 68 150.889 68H143.111C142.497 68 142 67.5025 142 66.8889V59.1111Z"/><path fill="#EFF2FF" d="M142 91.1111C142 90.4975 142.497 90 143.111 90H150.889C151.503 90 152 90.4975 152 91.1111V98.8889C152 99.5025 151.503 100 150.889 100H143.111C142.497 100 142 99.5025 142 98.8889V91.1111Z"/><path fill="#EFF2FF" d="M142 75.1111C142 74.4975 142.497 74 143.111 74H150.889C151.503 74 152 74.4975 152 75.1111V82.8889C152 83.5025 151.503 84 150.889 84H143.111C142.497 84 142 83.5025 142 82.8889V75.1111Z"/><path fill="#EFF2FF" d="M142 107.111C142 106.497 142.497 106 143.111 106H150.889C151.503 106 152 106.497 152 107.111V114.889C152 115.503 151.503 116 150.889 116H143.111C142.497 116 142 115.503 142 114.889V107.111Z"/><path fill="#EFF2FF" d="M142 123.111C142 122.497 142.497 122 143.111 122H150.889C151.503 122 152 122.497 152 123.111V130.889C152 131.503 151.503 132 150.889 132H143.111C142.497 132 142 131.503 142 130.889V123.111Z"/><path fill="#EFF2FF" d="M126 139.111C126 138.497 126.497 138 127.111 138H134.889C135.503 138 136 138.497 136 139.111V146.889C136 147.503 135.503 148 134.889 148H127.111C126.497 148 126 147.503 126 146.889V139.111Z"/><path fill="#EFF2FF" d="M142 139.111C142 138.497 142.497 138 143.111 138H150.889C151.503 138 152 138.497 152 139.111V146.889C152 147.503 151.503 148 150.889 148H143.111C142.497 148 142 147.503 142 146.889V139.111Z"/><path fill="#3B2BF1" d="M110 139.111C110 138.497 110.497 138 111.111 138H118.889C119.503 138 120 138.497 120 139.111V146.889C120 147.503 119.503 148 118.889 148H111.111C110.497 148 110 147.503 110 146.889V139.111Z"/></g></g><g filter="url(#filter4_bd)" opacity=".9"><path fill="#F6F4FF" d="M112 137.111C112 136.497 112.497 136 113.111 136H120.889C121.503 136 122 136.497 122 137.111V144.889C122 145.503 121.503 146 120.889 146H113.111C112.497 146 112 145.503 112 144.889V137.111Z"/><path stroke="#fff" stroke-width=".2" d="M112.1 137.111C112.1 136.553 112.553 136.1 113.111 136.1H120.889C121.447 136.1 121.9 136.553 121.9 137.111V144.889C121.9 145.447 121.447 145.9 120.889 145.9H113.111C112.553 145.9 112.1 145.447 112.1 144.889V137.111Z"/></g><g opacity=".8"><path fill="#fff" fill-rule="evenodd" d="M116.674 140.896C116.665 140.896 116.658 140.903 116.658 140.912V141.993C116.658 142.002 116.665 142.009 116.674 142.009H118.35C118.359 142.009 118.367 142.002 118.367 141.993V140.912C118.367 140.903 118.359 140.896 118.35 140.896H118.201C118.062 140.896 117.951 140.784 117.951 140.646C117.951 140.507 118.062 140.396 118.201 140.396H118.35C118.635 140.396 118.867 140.627 118.867 140.912V141.993C118.867 142.278 118.635 142.509 118.35 142.509H116.674C116.389 142.509 116.158 142.278 116.158 141.993V140.912C116.158 140.627 116.389 140.396 116.674 140.396H116.872C117.01 140.396 117.122 140.507 117.122 140.646C117.122 140.784 117.01 140.896 116.872 140.896H116.674Z" clip-rule="evenodd"/><path fill="#fff" fill-rule="evenodd" d="M117.326 141.105C117.335 141.105 117.342 141.098 117.342 141.088V140.008C117.342 139.999 117.335 139.991 117.326 139.991H115.65C115.641 139.991 115.633 139.999 115.633 140.008V141.088C115.633 141.098 115.641 141.105 115.65 141.105H115.794C115.932 141.105 116.044 141.217 116.044 141.355C116.044 141.493 115.932 141.605 115.794 141.605H115.65C115.365 141.605 115.133 141.374 115.133 141.088V140.008C115.133 139.723 115.365 139.491 115.65 139.491H117.326C117.611 139.491 117.842 139.723 117.842 140.008V141.088C117.842 141.374 117.611 141.605 117.326 141.605H117.128C116.99 141.605 116.878 141.493 116.878 141.355C116.878 141.217 116.99 141.105 117.128 141.105H117.326Z" clip-rule="evenodd"/></g><g filter="url(#filter5_d)"><circle cx="105.5" cy="52.5" r="2.5" fill="#30C28B"/><path fill="#fff" d="M104.355 52.3154C104.355 52.2213 104.426 52.142 104.519 52.1309L104.66 52.1141C104.77 52.101 104.868 52.1873 104.868 52.2987V53.2995C104.868 53.4051 104.78 53.4894 104.674 53.4853L104.534 53.4797C104.434 53.4758 104.355 53.3938 104.355 53.294V52.3154Z"/><path fill="#fff" d="M105.536 51.1994C105.532 51.5246 105.329 51.8059 105.169 51.9641C105.106 52.0255 105.064 52.1066 105.064 52.194V53.3395C105.064 53.4417 105.194 53.4901 105.259 53.5016C105.544 53.5147 106.141 53.533 106.247 53.5016C106.379 53.4623 106.592 52.4998 106.636 52.2776C106.671 52.0999 106.578 52.0555 106.527 52.0555H106.203C106.021 52.0555 105.888 51.8837 105.912 51.7035C105.938 51.508 105.944 51.3019 105.888 51.1994C105.769 50.9826 105.536 51.091 105.536 51.1994Z"/></g></g><g filter="url(#filter6_d)"><rect width="20" height="20" x="149" y="84" fill="#826EE4" rx="4"/><rect width="19.4" height="19.4" x="149.3" y="84.3" stroke="#fff" stroke-width=".6" rx="3.7"/></g><rect width="10" height="10" fill="#826EE4" transform="translate(154 89)"/><path fill="#fff" fill-rule="evenodd" d="M158.186 93.7388C158.163 93.7388 158.144 93.7574 158.144 93.7804V96.4813C158.144 96.5043 158.163 96.523 158.186 96.523H162.375C162.398 96.523 162.417 96.5043 162.417 96.4813V93.7804C162.417 93.7574 162.398 93.7388 162.375 93.7388H162.001C161.656 93.7388 161.376 93.4589 161.376 93.1138C161.376 92.7686 161.656 92.4888 162.001 92.4888H162.375C163.088 92.4888 163.667 93.0671 163.667 93.7804V96.4813C163.667 97.1947 163.088 97.773 162.375 97.773H158.186C157.473 97.773 156.894 97.1947 156.894 96.4813V93.7804C156.894 93.0671 157.473 92.4888 158.186 92.4888H158.68C159.025 92.4888 159.305 92.7686 159.305 93.1138C159.305 93.4589 159.025 93.7388 158.68 93.7388H158.186Z" clip-rule="evenodd"/><path fill="#fff" fill-rule="evenodd" d="M159.814 94.2627C159.837 94.2627 159.856 94.244 159.856 94.221V91.5202C159.856 91.4972 159.837 91.4785 159.814 91.4785H155.625C155.602 91.4785 155.583 91.4972 155.583 91.5202V94.221C155.583 94.244 155.602 94.2627 155.625 94.2627H155.985C156.33 94.2627 156.61 94.5425 156.61 94.8877C156.61 95.2329 156.33 95.5127 155.985 95.5127H155.625C154.912 95.5127 154.333 94.9344 154.333 94.221V91.5202C154.333 90.8068 154.912 90.2285 155.625 90.2285H159.814C160.527 90.2285 161.106 90.8068 161.106 91.5202V94.221C161.106 94.9344 160.527 95.5127 159.814 95.5127H159.32C158.975 95.5127 158.695 95.2329 158.695 94.8877C158.695 94.5425 158.975 94.2627 159.32 94.2627H159.814Z" clip-rule="evenodd"/><g filter="url(#filter7_d)"><path fill="#fff" fill-rule="evenodd" d="M164.667 110.846V97.5L174.326 107.183L168.417 107.083L164.667 110.846Z" clip-rule="evenodd"/><path fill="#7EE2FF" fill-rule="evenodd" d="M165.5 99.5059V108.829L168.079 106.325H172.304L165.5 99.5059Z" clip-rule="evenodd"/></g><g opacity=".5"><path fill="#FCA68B" d="M120.27 135.101C116.422 116.452 132.138 97.6719 137.86 98.0011L140.6 103.286C136.346 104.894 120.554 119.735 120.27 135.101Z"/><path fill="url(#paint0_linear)" d="M120.27 135.101C116.422 116.452 132.138 97.6719 137.86 98.0011L140.6 103.286C136.346 104.894 120.554 119.735 120.27 135.101Z"/></g><path fill="#FCA68B" d="M145.623 97.3609C145.686 97.2332 145.606 97.0815 145.466 97.0602L135.27 95.5159C135.1 95.4901 134.972 95.6691 135.052 95.8219L140.718 106.614C140.798 106.767 141.017 106.764 141.093 106.609L145.623 97.3609Z"/><g filter="url(#filter8_d)"><circle cx="30" cy="24" r="3.75" fill="#F5A67A" stroke="#fff" stroke-width=".5"/><path fill="#fff" fill-rule="evenodd" d="M29.5556 22.479H28.9167C28.6751 22.479 28.4792 22.6749 28.4792 22.9165V23.5554V24.4443V25.0832C28.4792 25.3248 28.6751 25.5207 28.9167 25.5207H29.5556H31.0834C31.325 25.5207 31.5209 25.3248 31.5209 25.0832V24.4443V23.5554V22.9165C31.5209 22.6749 31.325 22.479 31.0834 22.479H29.5556ZM31.1459 23.3679H29.7431V22.854H31.0834C31.1179 22.854 31.1459 22.882 31.1459 22.9165V23.3679ZM31.1459 23.7429V24.2568H29.7431V23.7429H31.1459ZM31.1459 24.6318H29.7431V25.1457H31.0834C31.1179 25.1457 31.1459 25.1177 31.1459 25.0832V24.6318ZM29.3681 25.1457V24.6318H28.8542V25.0832C28.8542 25.1177 28.8822 25.1457 28.9167 25.1457H29.3681ZM28.8542 24.2568H29.3681V23.7429H28.8542V24.2568ZM28.8542 23.3679H29.3681V22.854H28.9167C28.8822 22.854 28.8542 22.882 28.8542 22.9165V23.3679Z" clip-rule="evenodd"/></g><g filter="url(#filter9_d)"><circle cx="169" cy="43" r="4" fill="#F5F7FF"/><rect width="1" height="5" x="168.5" y="40.5" fill="#826EE4" rx=".5"/><rect width="1" height="5" x="171.5" y="42.5" fill="#826EE4" rx=".5" transform="rotate(90 171.5 42.5)"/></g><path fill="#9399FF" d="M169.5 46.9999L169.547 49.3088L171.523 48.1134L169.5 46.9999ZM135.982 57.0521L136.025 54.7431L134.004 55.8609L135.982 57.0521ZM134.82 54.149C134.572 53.4624 134.397 52.8026 134.285 52.1721L133.891 52.2418C134.007 52.8961 134.189 53.5779 134.443 54.2844L134.82 54.149ZM134.145 50.1351C134.179 49.4162 134.306 48.7496 134.513 48.1399L134.134 48.0114C133.915 48.6581 133.781 49.3617 133.745 50.1162L134.145 50.1351ZM135.452 46.3574C135.862 45.8152 136.355 45.3498 136.914 44.9687L136.689 44.6382C136.095 45.0431 135.57 45.5384 135.133 46.1162L135.452 46.3574ZM138.739 44.0951C139.369 43.9002 140.042 43.7863 140.742 43.7604L140.727 43.3607C139.993 43.3879 139.286 43.5073 138.621 43.713L138.739 44.0951ZM142.775 43.926C143.421 44.0532 144.076 44.2527 144.732 44.5289L144.887 44.1603C144.207 43.8737 143.526 43.6662 142.853 43.5336L142.775 43.926ZM146.54 45.4957C147.09 45.8554 147.633 46.2738 148.163 46.754L148.431 46.4577C147.887 45.9638 147.327 45.5324 146.759 45.1609L146.54 45.4957ZM149.587 48.2415C150.011 48.7497 150.422 49.3045 150.814 49.9078L151.15 49.6897C150.749 49.0734 150.329 48.5057 149.893 47.985L149.587 48.2415ZM151.846 51.6935C152.001 51.9976 152.153 52.3114 152.3 52.6348L152.664 52.4694C152.515 52.1403 152.36 51.821 152.202 51.5112L151.846 51.6935ZM152.3 52.6348C152.456 52.9774 152.617 53.3091 152.784 53.6301L153.139 53.4456C152.975 53.1309 152.817 52.8056 152.664 52.4694L152.3 52.6348ZM153.906 55.5147C154.334 56.1461 154.787 56.7236 155.259 57.2492L155.557 56.9821C155.097 56.4702 154.656 55.9069 154.236 55.29L153.906 55.5147ZM156.849 58.775C157.439 59.2586 158.048 59.6742 158.666 60.0248L158.863 59.6769C158.265 59.3377 157.676 58.935 157.103 58.4656L156.849 58.775ZM160.679 60.9317C161.4 61.1766 162.122 61.3406 162.834 61.4279L162.883 61.0309C162.198 60.9469 161.503 60.7892 160.808 60.553L160.679 60.9317ZM165.048 61.4527C165.803 61.3746 166.529 61.2067 167.21 60.9553L167.071 60.5801C166.423 60.8195 165.73 60.98 165.007 61.0549L165.048 61.4527ZM169.17 59.9035C169.77 59.4593 170.299 58.9284 170.735 58.3186L170.409 58.086C169.998 58.6605 169.5 59.1617 168.932 59.5819L169.17 59.9035ZM171.724 56.3236C171.936 55.6444 172.057 54.9094 172.072 54.1248L171.672 54.1172C171.658 54.8654 171.543 55.5627 171.342 56.2043L171.724 56.3236ZM171.851 51.92C171.708 51.2451 171.494 50.5439 171.203 49.8189L170.831 49.9681C171.115 50.6732 171.322 51.3523 171.46 52.0029L171.851 51.92Z"/><defs><filter id="filter0_bd" width="132" height="132" x="38" y="58" color-interpolation-filters="sRGB" filterUnits="userSpaceOnUse"><feFlood flood-opacity="0" result="BackgroundImageFix"/><feGaussianBlur in="BackgroundImage" stdDeviation="27"/><feComposite in2="SourceAlpha" operator="in" result="effect1_backgroundBlur"/><feColorMatrix in="SourceAlpha" type="matrix" values="0 0 0 0 0 0 0 0 0 0 0 0 0 0 0 0 0 0 127 0"/><feOffset dy="4"/><feGaussianBlur stdDeviation="2"/><feColorMatrix type="matrix" values="0 0 0 0 0.898039 0 0 0 0 0.615686 0 0 0 0 0.188235 0 0 0 0.1 0"/><feBlend in2="effect1_backgroundBlur" mode="normal" result="effect2_dropShadow"/><feBlend in="SourceGraphic" in2="effect2_dropShadow" mode="normal" result="shape"/></filter><filter id="filter1_bd" width="124" height="124" x="-33" y="9" color-interpolation-filters="sRGB" filterUnits="userSpaceOnUse"><feFlood flood-opacity="0" result="BackgroundImageFix"/><feGaussianBlur in="BackgroundImage" stdDeviation="27"/><feComposite in2="SourceAlpha" operator="in" result="effect1_backgroundBlur"/><feColorMatrix in="SourceAlpha" type="matrix" values="0 0 0 0 0 0 0 0 0 0 0 0 0 0 0 0 0 0 127 0"/><feOffset dy="4"/><feGaussianBlur stdDeviation="2"/><feColorMatrix type="matrix" values="0 0 0 0 0.898039 0 0 0 0 0.615686 0 0 0 0 0.188235 0 0 0 0.1 0"/><feBlend in2="effect1_backgroundBlur" mode="normal" result="effect2_dropShadow"/><feBlend in="SourceGraphic" in2="effect2_dropShadow" mode="normal" result="shape"/></filter><filter id="filter2_d" width="166.901" height="108.901" x="24.549" y="19.463" color-interpolation-filters="sRGB" filterUnits="userSpaceOnUse"><feFlood flood-opacity="0" result="BackgroundImageFix"/><feColorMatrix in="SourceAlpha" type="matrix" values="0 0 0 0 0 0 0 0 0 0 0 0 0 0 0 0 0 0 127 0"/><feOffset dy=".914"/><feGaussianBlur stdDeviation="2.225"/><feColorMatrix type="matrix" values="0 0 0 0 0.267078 0 0 0 0 0.283406 0 0 0 0 0.67527 0 0 0 0.15 0"/><feBlend in2="BackgroundImageFix" mode="normal" result="effect1_dropShadow"/><feBlend in="SourceGraphic" in2="effect1_dropShadow" mode="normal" result="shape"/></filter><filter id="filter3_bd" width="63.08" height="122.47" x="99.46" y="48" color-interpolation-filters="sRGB" filterUnits="userSpaceOnUse"><feFlood flood-opacity="0" result="BackgroundImageFix"/><feGaussianBlur in="BackgroundImage" stdDeviation="2"/><feComposite in2="SourceAlpha" operator="in" result="effect1_backgroundBlur"/><feColorMatrix in="SourceAlpha" type="matrix" values="0 0 0 0 0 0 0 0 0 0 0 0 0 0 0 0 0 0 127 0"/><feOffset dy=".93"/><feGaussianBlur stdDeviation="2.27"/><feColorMatrix type="matrix" values="0 0 0 0 0.266667 0 0 0 0 0.282353 0 0 0 0 0.67451 0 0 0 0.07 0"/><feBlend in2="effect1_backgroundBlur" mode="normal" result="effect2_dropShadow"/><feBlend in="SourceGraphic" in2="effect2_dropShadow" mode="normal" result="shape"/></filter><filter id="filter4_bd" width="34" height="34" x="100" y="124" color-interpolation-filters="sRGB" filterUnits="userSpaceOnUse"><feFlood flood-opacity="0" result="BackgroundImageFix"/><feGaussianBlur in="BackgroundImage" stdDeviation="6"/><feComposite in2="SourceAlpha" operator="in" result="effect1_backgroundBlur"/><feColorMatrix in="SourceAlpha" type="matrix" values="0 0 0 0 0 0 0 0 0 0 0 0 0 0 0 0 0 0 127 0"/><feOffset dx="4" dy="4"/><feGaussianBlur stdDeviation="2.5"/><feColorMatrix type="matrix" values="0 0 0 0 0.415686 0 0 0 0 0.454902 0 0 0 0 0.92549 0 0 0 0.14 0"/><feBlend in2="effect1_backgroundBlur" mode="normal" result="effect2_dropShadow"/><feBlend in="SourceGraphic" in2="effect2_dropShadow" mode="normal" result="shape"/></filter><filter id="filter5_d" width="12.282" height="12.282" x="99.359" y="48.179" color-interpolation-filters="sRGB" filterUnits="userSpaceOnUse"><feFlood flood-opacity="0" result="BackgroundImageFix"/><feColorMatrix in="SourceAlpha" type="matrix" values="0 0 0 0 0 0 0 0 0 0 0 0 0 0 0 0 0 0 127 0"/><feOffset dy="1.82"/><feGaussianBlur stdDeviation="1.82"/><feColorMatrix type="matrix" values="0 0 0 0 0.188235 0 0 0 0 0.760784 0 0 0 0 0.545098 0 0 0 0.41 0"/><feBlend in2="BackgroundImageFix" mode="normal" result="effect1_dropShadow"/><feBlend in="SourceGraphic" in2="effect1_dropShadow" mode="normal" result="shape"/></filter><filter id="filter6_d" width="38" height="38" x="146" y="81" color-interpolation-filters="sRGB" filterUnits="userSpaceOnUse"><feFlood flood-opacity="0" result="BackgroundImageFix"/><feColorMatrix in="SourceAlpha" type="matrix" values="0 0 0 0 0 0 0 0 0 0 0 0 0 0 0 0 0 0 127 0"/><feOffset dx="6" dy="6"/><feGaussianBlur stdDeviation="4.5"/><feColorMatrix type="matrix" values="0 0 0 0 0.415686 0 0 0 0 0.456039 0 0 0 0 0.92549 0 0 0 0.14 0"/><feBlend in2="BackgroundImageFix" mode="normal" result="effect1_dropShadow"/><feBlend in="SourceGraphic" in2="effect1_dropShadow" mode="normal" result="shape"/></filter><filter id="filter7_d" width="25.659" height="29.346" x="156.667" y="91.5" color-interpolation-filters="sRGB" filterUnits="userSpaceOnUse"><feFlood flood-opacity="0" result="BackgroundImageFix"/><feColorMatrix in="SourceAlpha" type="matrix" values="0 0 0 0 0 0 0 0 0 0 0 0 0 0 0 0 0 0 127 0"/><feOffset dy="2"/><feGaussianBlur stdDeviation="4"/><feColorMatrix type="matrix" values="0 0 0 0 0.478431 0 0 0 0 0.497569 0 0 0 0 0.956863 0 0 0 0.3 0"/><feBlend in2="BackgroundImageFix" mode="normal" result="effect1_dropShadow"/><feBlend in="SourceGraphic" in2="effect1_dropShadow" mode="normal" result="shape"/></filter><filter id="filter8_d" width="16" height="16" x="22" y="18" color-interpolation-filters="sRGB" filterUnits="userSpaceOnUse"><feFlood flood-opacity="0" result="BackgroundImageFix"/><feColorMatrix in="SourceAlpha" type="matrix" values="0 0 0 0 0 0 0 0 0 0 0 0 0 0 0 0 0 0 127 0"/><feOffset dy="2"/><feGaussianBlur stdDeviation="2"/><feColorMatrix type="matrix" values="0 0 0 0 0.960784 0 0 0 0 0.65098 0 0 0 0 0.478431 0 0 0 0.2 0"/><feBlend in2="BackgroundImageFix" mode="normal" result="effect1_dropShadow"/><feBlend in="SourceGraphic" in2="effect1_dropShadow" mode="normal" result="shape"/></filter><filter id="filter9_d" width="16" height="16" x="165" y="39" color-interpolation-filters="sRGB" filterUnits="userSpaceOnUse"><feFlood flood-opacity="0" result="BackgroundImageFix"/><feColorMatrix in="SourceAlpha" type="matrix" values="0 0 0 0 0 0 0 0 0 0 0 0 0 0 0 0 0 0 127 0"/><feOffset dx="4" dy="4"/><feGaussianBlur stdDeviation="2"/><feColorMatrix type="matrix" values="0 0 0 0 0.605833 0 0 0 0 0.541667 0 0 0 0 1 0 0 0 0.22 0"/><feBlend in2="BackgroundImageFix" mode="normal" result="effect1_dropShadow"/><feBlend in="SourceGraphic" in2="effect1_dropShadow" mode="normal" result="shape"/></filter><linearGradient id="paint0_linear" x1="117.802" x2="146.577" y1="126.244" y2="91.205" gradientUnits="userSpaceOnUse"><stop offset=".172" stop-color="#fff" stop-opacity=".9"/><stop offset="1" stop-color="#fff" stop-opacity=".51"/></linearGradient><clipPath id="clip0"><rect width="64" height="104" fill="#fff" transform="translate(99 48)"/></clipPath></defs></svg>