<svg xmlns="http://www.w3.org/2000/svg" width="216" height="152" fill="none" viewBox="0 0 216 152"><rect width="216" height="152" fill="#F9F9FF" rx="8"/><g filter="url(#filter0_bd)" opacity=".2"><circle cx="185.5" cy="121.5" r="6.5" fill="#FBCCF1"/></g><circle cx="73.5" cy="111.5" r="38.5" fill="#EFFBFF" fill-opacity=".5" opacity=".5"/><g filter="url(#filter1_d)"><rect width="158" height="100" x="29" y="23" fill="#fff" rx="3.632"/></g><path fill="#826EE4" d="M29 26.6318C29 24.626 30.626 23 32.6318 23H67V123H32.6318C30.626 123 29 121.374 29 119.368V26.6318Z"/><rect width="97" height="10" x="78" y="45" fill="#FAFBFF" rx="1.816"/><rect width="11" height="4" x="91" y="48" fill="#FBEBCC" rx="2"/><rect width="21" height="4" x="106" y="48" fill="#EFF2FF" rx="2"/><rect width="39" height="4" x="131" y="48" fill="#EFF2FF" rx=".6"/><rect width="4" height="4" x="83" y="48" fill="#D7DDFF" rx=".605"/><rect width="97" height="10" x="78" y="64" fill="#FAFBFF" rx="1.816"/><rect width="11" height="4" x="91" y="67" fill="#D8F0D1" rx="2"/><rect width="21" height="4" x="106" y="67" fill="#EFF2FF" rx="2"/><rect width="39" height="4" x="131" y="67" fill="#EFF2FF" rx=".6"/><rect width="4" height="4" x="83" y="67" fill="#D7DDFF" rx=".605"/><rect width="97" height="10" x="77.662" y="83" fill="#FAFBFF" rx="1.816"/><rect width="11" height="4" x="90.662" y="86" fill="#CCF0FB" rx="2"/><rect width="21" height="4" x="105.662" y="86" fill="#EFF2FF" rx="2"/><rect width="39" height="4" x="131" y="86" fill="#EFF2FF" rx=".6"/><rect width="4" height="4" x="82.662" y="86" fill="#D7DDFF" rx=".605"/><rect width="97" height="10" x="78" y="102" fill="#FAFBFF" rx="1.816"/><rect width="11" height="4" x="91" y="105" fill="#FBCCF1" rx="2"/><rect width="21" height="4" x="106" y="105" fill="#EFF2FF" rx="2"/><rect width="39" height="4" x="131" y="105" fill="#EFF2FF" rx=".6"/><rect width="4" height="4" x="83" y="105" fill="#D7DDFF" rx=".605"/><rect width="21" height="3" x="38" y="33" fill="#EFF2FF" rx="1.5"/><rect width="21" height="3" x="38" y="43" fill="#EFF2FF" rx="1.5"/><rect width="21" height="3" x="38" y="53" fill="#EFF2FF" rx="1.5"/><rect width="21" height="3" x="38" y="63" fill="#EFF2FF" rx="1.5"/><g filter="url(#filter2_d)"><rect width="49" height="65" x="57" y="71" fill="#fff" rx="3.632"/></g><path fill="#fff" fill-rule="evenodd" d="M63.7915 79.0021C64.0205 79.025 64.1876 79.2292 64.1647 79.4582L64.1271 79.8334H64.5833C64.8135 79.8334 65 80.0199 65 80.2501C65 80.4802 64.8135 80.6667 64.5833 80.6667H64.0438L63.9188 81.9165H64.5833C64.8135 81.9165 65 82.103 65 82.3331C65 82.5632 64.8135 82.7498 64.5833 82.7498H63.8355L63.748 83.6248C63.7251 83.8537 63.5209 84.0208 63.2919 83.9979C63.063 83.975 62.8959 83.7708 62.9188 83.5418L62.998 82.7498H61.7521L61.6646 83.6248C61.6417 83.8537 61.4375 84.0208 61.2086 83.9979C60.9796 83.975 60.8125 83.7708 60.8354 83.5418L60.9146 82.7498H60.4167C60.1865 82.7498 60 82.5632 60 82.3331C60 82.103 60.1865 81.9165 60.4167 81.9165H60.998L61.1229 80.6667H60.4167C60.1865 80.6667 60 80.4802 60 80.2501C60 80.0199 60.1865 79.8334 60.4167 79.8334H61.2063L61.2521 79.3752C61.275 79.1463 61.4792 78.9792 61.7081 79.0021C61.9371 79.025 62.1042 79.2292 62.0813 79.4582L62.0438 79.8334H63.2897L63.3355 79.3752C63.3584 79.1463 63.5626 78.9792 63.7915 79.0021ZM61.9604 80.6667L61.8355 81.9165H63.0813L63.2063 80.6667H61.9604Z" clip-rule="evenodd"/><rect width="34" height="5" x="78" y="31" fill="#9399FF" rx="1"/><path fill="#fff" fill-rule="evenodd" d="M82.2749 32.0013C82.4123 32.015 82.5125 32.1375 82.4988 32.2749L82.4763 32.5H82.75C82.8881 32.5 83 32.612 83 32.75C83 32.8881 82.8881 33 82.75 33H82.4263L82.3513 33.7499H82.75C82.8881 33.7499 83 33.8618 83 33.9999C83 34.1379 82.8881 34.2499 82.75 34.2499H82.3013L82.2488 34.7749C82.2351 34.9122 82.1126 35.0125 81.9752 34.9987C81.8378 34.985 81.7375 34.8625 81.7513 34.7251L81.7988 34.2499H81.0513L80.9988 34.7749C80.985 34.9122 80.8625 35.0125 80.7251 34.9987C80.5877 34.985 80.4875 34.8625 80.5013 34.7251L80.5488 34.2499H80.25C80.1119 34.2499 80 34.1379 80 33.9999C80 33.8618 80.1119 33.7499 80.25 33.7499H80.5988L80.6738 33H80.25C80.1119 33 80 32.8881 80 32.75C80 32.612 80.1119 32.5 80.25 32.5H80.7238L80.7513 32.2251C80.765 32.0878 80.8875 31.9875 81.0249 32.0013C81.1623 32.015 81.2625 32.1375 81.2488 32.2749L81.2263 32.5H81.9738L82.0013 32.2251C82.015 32.0878 82.1375 31.9875 82.2749 32.0013ZM81.1763 33L81.1013 33.7499H81.8488L81.9238 33H81.1763Z" clip-rule="evenodd"/><rect width="41" height="5" x="61" y="89" fill="#EFF2FF" rx="1"/><path fill="#B8C7FF" fill-rule="evenodd" d="M65.2749 90.0013C65.4123 90.015 65.5125 90.1375 65.4988 90.2749L65.4763 90.5H65.75C65.8881 90.5 66 90.612 66 90.75C66 90.8881 65.8881 91 65.75 91H65.4263L65.3513 91.7499H65.75C65.8881 91.7499 66 91.8618 66 91.9999C66 92.1379 65.8881 92.2499 65.75 92.2499H65.3013L65.2488 92.7749C65.2351 92.9122 65.1126 93.0125 64.9752 92.9987C64.8378 92.985 64.7375 92.8625 64.7513 92.7251L64.7988 92.2499H64.0513L63.9988 92.7749C63.985 92.9122 63.8625 93.0125 63.7251 92.9987C63.5877 92.985 63.4875 92.8625 63.5013 92.7251L63.5488 92.2499H63.25C63.1119 92.2499 63 92.1379 63 91.9999C63 91.8618 63.1119 91.7499 63.25 91.7499H63.5988L63.6738 91H63.25C63.1119 91 63 90.8881 63 90.75C63 90.612 63.1119 90.5 63.25 90.5H63.7238L63.7513 90.2251C63.765 90.0878 63.8875 89.9875 64.0249 90.0013C64.1623 90.015 64.2625 90.1375 64.2488 90.2749L64.2263 90.5H64.9738L65.0013 90.2251C65.015 90.0878 65.1375 89.9875 65.2749 90.0013ZM64.1763 91L64.1013 91.7499H64.8488L64.9238 91H64.1763Z" clip-rule="evenodd" opacity=".3"/><rect width="41" height="5" x="61" y="107" fill="#EFF2FF" rx="1"/><path fill="#B8C7FF" fill-rule="evenodd" d="M65.2749 108.001C65.4123 108.015 65.5125 108.138 65.4988 108.275L65.4763 108.5H65.75C65.8881 108.5 66 108.612 66 108.75C66 108.888 65.8881 109 65.75 109H65.4263L65.3513 109.75H65.75C65.8881 109.75 66 109.862 66 110C66 110.138 65.8881 110.25 65.75 110.25H65.3013L65.2488 110.775C65.2351 110.912 65.1126 111.012 64.9752 110.999C64.8378 110.985 64.7375 110.862 64.7513 110.725L64.7988 110.25H64.0513L63.9988 110.775C63.985 110.912 63.8625 111.012 63.7251 110.999C63.5877 110.985 63.4875 110.862 63.5013 110.725L63.5488 110.25H63.25C63.1119 110.25 63 110.138 63 110C63 109.862 63.1119 109.75 63.25 109.75H63.5988L63.6738 109H63.25C63.1119 109 63 108.888 63 108.75C63 108.612 63.1119 108.5 63.25 108.5H63.7238L63.7513 108.225C63.765 108.088 63.8875 107.988 64.0249 108.001C64.1623 108.015 64.2625 108.138 64.2488 108.275L64.2263 108.5H64.9738L65.0013 108.225C65.015 108.088 65.1375 107.988 65.2749 108.001ZM64.1763 109L64.1013 109.75H64.8488L64.9238 109H64.1763Z" clip-rule="evenodd" opacity=".3"/><rect width="41" height="5" x="61" y="116" fill="#EFF2FF" rx="1"/><path fill="#B8C7FF" fill-rule="evenodd" d="M65.2749 117.001C65.4123 117.015 65.5125 117.138 65.4988 117.275L65.4763 117.5H65.75C65.8881 117.5 66 117.612 66 117.75C66 117.888 65.8881 118 65.75 118H65.4263L65.3513 118.75H65.75C65.8881 118.75 66 118.862 66 119C66 119.138 65.8881 119.25 65.75 119.25H65.3013L65.2488 119.775C65.2351 119.912 65.1126 120.012 64.9752 119.999C64.8378 119.985 64.7375 119.862 64.7513 119.725L64.7988 119.25H64.0513L63.9988 119.775C63.985 119.912 63.8625 120.012 63.7251 119.999C63.5877 119.985 63.4875 119.862 63.5013 119.725L63.5488 119.25H63.25C63.1119 119.25 63 119.138 63 119C63 118.862 63.1119 118.75 63.25 118.75H63.5988L63.6738 118H63.25C63.1119 118 63 117.888 63 117.75C63 117.612 63.1119 117.5 63.25 117.5H63.7238L63.7513 117.225C63.765 117.088 63.8875 116.988 64.0249 117.001C64.1623 117.015 64.2625 117.138 64.2488 117.275L64.2263 117.5H64.9738L65.0013 117.225C65.015 117.088 65.1375 116.988 65.2749 117.001ZM64.1763 118L64.1013 118.75H64.8488L64.9238 118H64.1763Z" clip-rule="evenodd" opacity=".3"/><rect width="41" height="5" x="61" y="80" fill="#9399FF" rx="1"/><path fill="#fff" fill-rule="evenodd" d="M65.2749 81.0013C65.4123 81.015 65.5125 81.1375 65.4988 81.2749L65.4763 81.5H65.75C65.8881 81.5 66 81.612 66 81.75C66 81.8881 65.8881 82 65.75 82H65.4263L65.3513 82.7499H65.75C65.8881 82.7499 66 82.8618 66 82.9999C66 83.1379 65.8881 83.2499 65.75 83.2499H65.3013L65.2488 83.7749C65.2351 83.9122 65.1126 84.0125 64.9752 83.9987C64.8378 83.985 64.7375 83.8625 64.7513 83.7251L64.7988 83.2499H64.0513L63.9988 83.7749C63.985 83.9122 63.8625 84.0125 63.7251 83.9987C63.5877 83.985 63.4875 83.8625 63.5013 83.7251L63.5488 83.2499H63.25C63.1119 83.2499 63 83.1379 63 82.9999C63 82.8618 63.1119 82.7499 63.25 82.7499H63.5988L63.6738 82H63.25C63.1119 82 63 81.8881 63 81.75C63 81.612 63.1119 81.5 63.25 81.5H63.7238L63.7513 81.2251C63.765 81.0878 63.8875 80.9875 64.0249 81.0013C64.1623 81.015 64.2625 81.1375 64.2488 81.2749L64.2263 81.5H64.9738L65.0013 81.2251C65.015 81.0878 65.1375 80.9875 65.2749 81.0013ZM64.1763 82L64.1013 82.7499H64.8488L64.9238 82H64.1763Z" clip-rule="evenodd"/><path fill="#9399FF" d="M80.5001 77.4996L82.7888 77.8085L81.9119 75.672L80.5001 77.4996ZM91.0001 54.9998L90.8847 55.1632L91.0001 54.9998ZM84.0001 63.4998L83.8751 63.656L84.0001 63.4998ZM89 36.4996L90.0568 38.553L91.3067 36.6111L89 36.4996ZM83.3019 76.1991C83.8253 75.8249 84.3722 75.3943 84.9296 74.917L84.6694 74.6131C84.1197 75.0839 83.582 75.5071 83.0693 75.8738L83.3019 76.1991ZM86.4494 73.5224C86.9292 73.0528 87.4086 72.5552 87.8797 72.0354L87.5833 71.7667C87.1176 72.2807 86.6437 72.7725 86.1696 73.2366L86.4494 73.5224ZM89.2193 70.4659C89.6495 69.93 90.0651 69.3783 90.4592 68.8158L90.1316 68.5863C89.7428 69.1412 89.3324 69.6859 88.9074 70.2155L89.2193 70.4659ZM91.5815 67.0816C91.9395 66.4776 92.2667 65.8669 92.5548 65.2553L92.1929 65.0848C91.9108 65.6839 91.5897 66.2833 91.2374 66.8776L91.5815 67.0816ZM93.3253 63.3273C93.5473 62.6425 93.7092 61.9628 93.7988 61.2965L93.4024 61.2432C93.3165 61.8823 93.1605 62.5385 92.9448 63.2039L93.3253 63.3273ZM93.8211 59.2018C93.7307 58.4968 93.5321 57.8202 93.2081 57.1851L92.8518 57.3669C93.1532 57.9577 93.3393 58.5895 93.4244 59.2527L93.8211 59.2018ZM91.9342 55.5029C91.687 55.2699 91.4144 55.0475 91.1154 54.8364L90.8847 55.1632C91.1691 55.3639 91.427 55.5745 91.6598 55.794L91.9342 55.5029ZM91.1154 54.8364C90.8449 54.6455 90.576 54.4727 90.3091 54.3173L90.1078 54.663C90.3643 54.8123 90.6234 54.9787 90.8847 55.1632L91.1154 54.8364ZM88.5609 53.529C87.9034 53.3186 87.2675 53.2127 86.6625 53.1982L86.6529 53.5981C87.2178 53.6117 87.8158 53.7106 88.439 53.9099L88.5609 53.529ZM84.7478 53.4787C84.1129 53.6908 83.5422 54.0148 83.0524 54.424L83.3089 54.731C83.7609 54.3533 84.2877 54.0542 84.8745 53.8581L84.7478 53.4787ZM81.8193 55.9218C81.5086 56.485 81.2983 57.1074 81.2051 57.7614L81.6012 57.8178C81.6874 57.212 81.8821 56.6359 82.1695 56.115L81.8193 55.9218ZM81.2737 59.6967C81.4017 60.3007 81.632 60.9073 81.9749 61.498L82.3209 61.2972C81.9988 60.7423 81.7841 60.1754 81.665 59.6137L81.2737 59.6967ZM83.1557 63.0147C83.3759 63.2341 83.6155 63.4482 83.8751 63.656L84.125 63.3436C83.8764 63.1447 83.6476 62.9402 83.438 62.7313L83.1557 63.0147ZM83.8751 63.656C84.1496 63.8755 84.4253 64.0842 84.7019 64.2822L84.9347 63.957C84.664 63.7632 84.394 63.5588 84.125 63.3436L83.8751 63.656ZM86.4307 65.3775C87.0472 65.7191 87.6652 66.0107 88.2816 66.2546L88.4288 65.8826C87.8288 65.6452 87.2263 65.361 86.6245 65.0276L86.4307 65.3775ZM90.2473 66.8756C90.9321 67.038 91.6102 67.1429 92.2769 67.1937L92.3073 66.7948C91.6618 66.7457 91.0044 66.644 90.3396 66.4864L90.2473 66.8756ZM94.339 67.1772C95.0358 67.1117 95.7128 66.9853 96.364 66.8025L96.2558 66.4174C95.628 66.5937 94.9746 66.7157 94.3016 66.779L94.339 67.1772ZM98.2914 66.0598C98.9122 65.7499 99.4974 65.3825 100.04 64.9626L99.7947 64.6464C99.2733 65.0501 98.7104 65.4036 98.1127 65.702L98.2914 66.0598ZM101.539 63.5413C101.986 63.023 102.383 62.4578 102.723 61.8507L102.374 61.6551C102.047 62.2387 101.665 62.782 101.236 63.2801L101.539 63.5413ZM103.551 59.9581C103.759 59.3184 103.911 58.6467 104.002 57.9472L103.605 57.8956C103.518 58.5709 103.371 59.2184 103.17 59.8343L103.551 59.9581ZM104.09 55.8874C104.063 55.2257 103.984 54.5456 103.849 53.8499L103.456 53.9262C103.588 54.6026 103.664 55.2627 103.691 55.9037L104.09 55.8874ZM103.321 51.8621C103.11 51.235 102.854 50.5982 102.551 49.9536L102.189 50.1238C102.486 50.755 102.736 51.3776 102.941 51.9897L103.321 51.8621ZM101.589 48.1492C101.251 47.5842 100.878 47.0145 100.466 46.4415L100.141 46.675C100.546 47.2391 100.914 47.7993 101.245 48.3542L101.589 48.1492ZM99.2089 44.8266C98.786 44.3219 98.3329 43.8155 97.8486 43.308L97.5593 43.5842C98.0378 44.0856 98.4851 44.5857 98.9023 45.0835L99.2089 44.8266ZM96.406 41.8812C95.9253 41.4315 95.4195 40.9815 94.8877 40.5318L94.6294 40.8372C95.1562 41.2827 95.657 41.7283 96.1327 42.1733L96.406 41.8812ZM93.3 39.2501C92.7707 38.8418 92.2193 38.4341 91.6454 38.0275L91.4142 38.3538C91.9838 38.7574 92.5308 39.1619 93.0556 39.5668L93.3 39.2501Z"/><path fill="#9399FF" fill-rule="evenodd" d="M102.937 74.3658L102.232 75.0714H102.571C102.681 75.0714 102.772 75.1542 102.784 75.2607L102.786 75.2857C102.786 75.3956 102.703 75.4862 102.596 75.4986L102.571 75.5H101.714C101.604 75.5 101.514 75.4173 101.501 75.3107L101.5 75.2857V74.4286C101.5 74.3102 101.596 74.2143 101.714 74.2143C101.824 74.2143 101.915 74.297 101.927 74.4036L101.929 74.4286V74.7684L102.634 74.0628C102.718 73.9791 102.854 73.9791 102.937 74.0628C103.021 74.1464 103.021 74.2821 102.937 74.3658ZM100.429 75.9286H100.768L100.063 76.6342C99.9791 76.7179 99.9791 76.8536 100.063 76.9372C100.146 77.0209 100.282 77.0209 100.366 76.9372L101.071 76.2316V76.5714L101.073 76.5964C101.085 76.703 101.176 76.7857 101.286 76.7857C101.404 76.7857 101.5 76.6898 101.5 76.5714V75.7143L101.499 75.6893C101.486 75.5827 101.396 75.5 101.286 75.5H100.429L100.404 75.5014C100.297 75.5138 100.214 75.6044 100.214 75.7143L100.216 75.7393C100.228 75.8458 100.319 75.9286 100.429 75.9286Z" clip-rule="evenodd"/><g filter="url(#filter3_d)"><circle cx="31" cy="24" r="3.75" fill="#F5A67A" stroke="#fff" stroke-width=".5"/><path fill="#fff" fill-rule="evenodd" d="M30.5556 22.479H29.9167C29.6751 22.479 29.4792 22.6749 29.4792 22.9165V23.5554V24.4443V25.0832C29.4792 25.3248 29.6751 25.5207 29.9167 25.5207H30.5556H32.0834C32.325 25.5207 32.5209 25.3248 32.5209 25.0832V24.4443V23.5554V22.9165C32.5209 22.6749 32.325 22.479 32.0834 22.479H30.5556ZM32.1459 23.3679H30.7431V22.854H32.0834C32.1179 22.854 32.1459 22.882 32.1459 22.9165V23.3679ZM32.1459 23.7429V24.2568H30.7431V23.7429H32.1459ZM32.1459 24.6318H30.7431V25.1457H32.0834C32.1179 25.1457 32.1459 25.1177 32.1459 25.0832V24.6318ZM30.3681 25.1457V24.6318H29.8542V25.0832C29.8542 25.1177 29.8822 25.1457 29.9167 25.1457H30.3681ZM29.8542 24.2568H30.3681V23.7429H29.8542V24.2568ZM29.8542 23.3679H30.3681V22.854H29.9167C29.8822 22.854 29.8542 22.882 29.8542 22.9165V23.3679Z" clip-rule="evenodd"/></g><g filter="url(#filter4_d)"><circle cx="58.5" cy="72.5" r="2.5" fill="#9399FF"/><path fill="#fff" fill-rule="evenodd" d="M58.2832 72.4305C58.277 72.4305 58.2721 72.4355 58.2721 72.4416V73.1618C58.2721 73.168 58.277 73.173 58.2832 73.173H59.4002C59.4064 73.173 59.4113 73.168 59.4113 73.1618V72.4416C59.4113 72.4355 59.4064 72.4305 59.4002 72.4305H59.3006C59.2086 72.4305 59.1339 72.3559 59.1339 72.2638C59.1339 72.1718 59.2086 72.0972 59.3006 72.0972H59.4002C59.5904 72.0972 59.7447 72.2514 59.7447 72.4416V73.1618C59.7447 73.3521 59.5904 73.5063 59.4002 73.5063H58.2832C58.0929 73.5063 57.9387 73.3521 57.9387 73.1618V72.4416C57.9387 72.2514 58.0929 72.0972 58.2832 72.0972H58.4149C58.507 72.0972 58.5816 72.1718 58.5816 72.2638C58.5816 72.3559 58.507 72.4305 58.4149 72.4305H58.2832Z" clip-rule="evenodd"/><path fill="#fff" fill-rule="evenodd" d="M58.7171 72.5705C58.7232 72.5705 58.7282 72.5655 58.7282 72.5594V71.8391C58.7282 71.833 58.7232 71.828 58.7171 71.828H57.6C57.5939 71.828 57.5889 71.833 57.5889 71.8391V72.5594C57.5889 72.5655 57.5939 72.5705 57.6 72.5705H57.696C57.788 72.5705 57.8627 72.6451 57.8627 72.7371C57.8627 72.8292 57.788 72.9038 57.696 72.9038H57.6C57.4098 72.9038 57.2556 72.7496 57.2556 72.5594V71.8391C57.2556 71.6489 57.4098 71.4947 57.6 71.4947H58.7171C58.9073 71.4947 59.0615 71.6489 59.0615 71.8391V72.5594C59.0615 72.7496 58.9073 72.9038 58.7171 72.9038H58.5853C58.4933 72.9038 58.4186 72.8292 58.4186 72.7371C58.4186 72.6451 58.4933 72.5705 58.5853 72.5705H58.7171Z" clip-rule="evenodd"/></g><rect width="41" height="5" x="61" y="98" fill="#EFF2FF" rx="1"/><path fill="#B8C7FF" d="M64 99H63.325C63.15 99 63 99.15 63 99.325V101.425C63 101.75 63.25 102 63.55 102H65.95C66.25 102 66.5 101.75 66.5 101.425V99.75C66.5 99.475 66.275 99.25 66 99.25H64.25C64.25 99.125 64.15 99 64 99Z" opacity=".3"/><g opacity=".3"><path fill="#B8C7FF" d="M99.125 101.438C99.0687 101.438 99.0312 101.419 98.9937 101.381C98.9188 101.306 98.9188 101.194 98.9937 101.119L99.6125 100.5L98.9937 99.8812C98.9188 99.8062 98.9188 99.6938 98.9937 99.6188C99.0687 99.5438 99.1812 99.5438 99.2562 99.6188L100.006 100.369C100.081 100.444 100.081 100.556 100.006 100.631L99.2562 101.381C99.2187 101.419 99.1812 101.438 99.125 101.438Z"/></g><rect width="41" height="5" x="61" y="125" fill="#EFF2FF" rx="1"/><path fill="#B8C7FF" d="M64 126H63.325C63.15 126 63 126.15 63 126.325V128.425C63 128.75 63.25 129 63.55 129H65.95C66.25 129 66.5 128.75 66.5 128.425V126.75C66.5 126.475 66.275 126.25 66 126.25H64.25C64.25 126.125 64.15 126 64 126Z" opacity=".3"/><g opacity=".3"><path fill="#B8C7FF" d="M99.125 128.438C99.0687 128.438 99.0312 128.419 98.9937 128.381C98.9188 128.306 98.9188 128.194 98.9937 128.119L99.6125 127.5L98.9937 126.881C98.9188 126.806 98.9188 126.694 98.9937 126.619C99.0687 126.544 99.1812 126.544 99.2562 126.619L100.006 127.369C100.081 127.444 100.081 127.556 100.006 127.631L99.2562 128.381C99.2187 128.419 99.1812 128.438 99.125 128.438Z"/></g><defs><filter id="filter0_bd" width="21" height="25" x="175" y="111" color-interpolation-filters="sRGB" filterUnits="userSpaceOnUse"><feFlood flood-opacity="0" result="BackgroundImageFix"/><feGaussianBlur in="BackgroundImage" stdDeviation="2"/><feComposite in2="SourceAlpha" operator="in" result="effect1_backgroundBlur"/><feColorMatrix in="SourceAlpha" type="matrix" values="0 0 0 0 0 0 0 0 0 0 0 0 0 0 0 0 0 0 127 0"/><feOffset dy="4"/><feGaussianBlur stdDeviation="2"/><feColorMatrix type="matrix" values="0 0 0 0 0.898039 0 0 0 0 0.615686 0 0 0 0 0.188235 0 0 0 0.1 0"/><feBlend in2="effect1_backgroundBlur" mode="normal" result="effect2_dropShadow"/><feBlend in="SourceGraphic" in2="effect2_dropShadow" mode="normal" result="shape"/></filter><filter id="filter1_d" width="167.08" height="109.08" x="24.46" y="19.392" color-interpolation-filters="sRGB" filterUnits="userSpaceOnUse"><feFlood flood-opacity="0" result="BackgroundImageFix"/><feColorMatrix in="SourceAlpha" type="matrix" values="0 0 0 0 0 0 0 0 0 0 0 0 0 0 0 0 0 0 127 0"/><feOffset dy=".932"/><feGaussianBlur stdDeviation="2.27"/><feColorMatrix type="matrix" values="0 0 0 0 0.267078 0 0 0 0 0.283406 0 0 0 0 0.67527 0 0 0 0.15 0"/><feBlend in2="BackgroundImageFix" mode="normal" result="effect1_dropShadow"/><feBlend in="SourceGraphic" in2="effect1_dropShadow" mode="normal" result="shape"/></filter><filter id="filter2_d" width="58.08" height="74.08" x="52.46" y="67.392" color-interpolation-filters="sRGB" filterUnits="userSpaceOnUse"><feFlood flood-opacity="0" result="BackgroundImageFix"/><feColorMatrix in="SourceAlpha" type="matrix" values="0 0 0 0 0 0 0 0 0 0 0 0 0 0 0 0 0 0 127 0"/><feOffset dy=".932"/><feGaussianBlur stdDeviation="2.27"/><feColorMatrix type="matrix" values="0 0 0 0 0.267078 0 0 0 0 0.283406 0 0 0 0 0.67527 0 0 0 0.15 0"/><feBlend in2="BackgroundImageFix" mode="normal" result="effect1_dropShadow"/><feBlend in="SourceGraphic" in2="effect1_dropShadow" mode="normal" result="shape"/></filter><filter id="filter3_d" width="16" height="16" x="23" y="18" color-interpolation-filters="sRGB" filterUnits="userSpaceOnUse"><feFlood flood-opacity="0" result="BackgroundImageFix"/><feColorMatrix in="SourceAlpha" type="matrix" values="0 0 0 0 0 0 0 0 0 0 0 0 0 0 0 0 0 0 127 0"/><feOffset dy="2"/><feGaussianBlur stdDeviation="2"/><feColorMatrix type="matrix" values="0 0 0 0 0.960784 0 0 0 0 0.65098 0 0 0 0 0.478431 0 0 0 0.2 0"/><feBlend in2="BackgroundImageFix" mode="normal" result="effect1_dropShadow"/><feBlend in="SourceGraphic" in2="effect1_dropShadow" mode="normal" result="shape"/></filter><filter id="filter4_d" width="11" height="11" x="53" y="69" color-interpolation-filters="sRGB" filterUnits="userSpaceOnUse"><feFlood flood-opacity="0" result="BackgroundImageFix"/><feColorMatrix in="SourceAlpha" type="matrix" values="0 0 0 0 0 0 0 0 0 0 0 0 0 0 0 0 0 0 127 0"/><feOffset dy="2"/><feGaussianBlur stdDeviation="1.5"/><feColorMatrix type="matrix" values="0 0 0 0 0.441667 0 0 0 0 0.4975 0 0 0 0 1 0 0 0 0.3 0"/><feBlend in2="BackgroundImageFix" mode="normal" result="effect1_dropShadow"/><feBlend in="SourceGraphic" in2="effect1_dropShadow" mode="normal" result="shape"/></filter></defs></svg>