<svg xmlns="http://www.w3.org/2000/svg" xmlns:xlink="http://www.w3.org/1999/xlink" id="Layer_1" x="0" y="0" enable-background="new 0 0 16 16" version="1.1" viewBox="0 0 16 16" xml:space="preserve"><path fill="#979797" fill-rule="evenodd" d="M2.2,2.9C2.3,1.9,3,1.2,3.9,1.2h8.2c0.9,0,1.6,0.7,1.7,1.5l0.4,3.1	c0.1,0.4-0.2,0.8-0.7,0.8c-0.4,0.1-0.8-0.2-0.8-0.7L12.4,3c0-0.1-0.1-0.2-0.2-0.2H3.9C3.8,2.8,3.7,2.8,3.7,3L2.8,13	c0,0.1,0.1,0.3,0.2,0.3h3c0.4,0,0.8,0.3,0.8,0.8s-0.3,0.8-0.8,0.8h-3c-1,0-1.8-0.9-1.7-1.9L2.2,2.9z M11.4,7.5	c0.2-0.1,0.5-0.1,0.8,0l2.8,1.6c0.2,0.1,0.4,0.4,0.4,0.6v3.2c0,0.3-0.1,0.5-0.4,0.6l-2.8,1.6c-0.2,0.1-0.5,0.1-0.8,0l-2.8-1.6	c-0.2-0.1-0.4-0.4-0.4-0.6V9.7c0-0.3,0.1-0.5,0.4-0.6L11.4,7.5z M9.8,10.1v2.3l2,1.2l2-1.2v-2.3l-2-1.2L9.8,10.1z M8,7.2	C6.5,7.2,5.2,6,5.2,4.5c0-0.4,0.3-0.8,0.8-0.8s0.8,0.3,0.8,0.8c0,0.7,0.6,1.2,1.2,1.2s1.2-0.6,1.2-1.2c0-0.4,0.3-0.8,0.8-0.8	c0.4,0,0.8,0.3,0.8,0.8C10.8,6,9.5,7.2,8,7.2z" clip-rule="evenodd"/></svg>