<svg xmlns="http://www.w3.org/2000/svg" xmlns:xlink="http://www.w3.org/1999/xlink" id="Layer_1" x="0" y="0" enable-background="new 0 0 15 15" version="1.1" viewBox="0 0 15 15" xml:space="preserve"><title>space_icon_logout</title><desc>Created with Sketch.</desc><g><path fill="#7D8299" d="M7,11.9H3c-0.1,0-0.2-0.1-0.2-0.2V3.4c0-0.1,0.1-0.2,0.2-0.2h4c0.4,0,0.8-0.3,0.8-0.8S7.4,1.7,7,1.7H3 c-1,0-1.8,0.8-1.8,1.8v8.3c0,1,0.8,1.8,1.8,1.8h4c0.4,0,0.8-0.3,0.8-0.8S7.4,11.9,7,11.9z"/><path fill="#7D8299" d="M13.6,7l-2.8-2.8c-0.3-0.3-0.8-0.3-1.1,0s-0.3,0.8,0,1.1l1.5,1.5H5.5c-0.4,0-0.8,0.3-0.8,0.8 s0.3,0.8,0.8,0.8h5.7L9.7,9.8c-0.3,0.3-0.3,0.8,0,1.1c0.1,0.1,0.3,0.2,0.5,0.2s0.4-0.1,0.5-0.2L13.6,8C13.9,7.7,13.9,7.3,13.6,7z"/></g></svg>