<svg xmlns="http://www.w3.org/2000/svg" xmlns:xlink="http://www.w3.org/1999/xlink" id="Layer_1" x="0" y="0" enable-background="new 0 0 15 15" version="1.1" viewBox="0 0 15 15" xml:space="preserve"><title>space_icon_activation</title><desc>Created with Sketch.</desc><g><path fill="#7D8299" d="M7.7,0.8c-3.7,0-6.8,3-6.8,6.8s3,6.7,6.8,6.7c0.4,0,0.8-0.3,0.8-0.8s-0.3-0.8-0.8-0.8 c-2.9,0-5.2-2.4-5.2-5.2s2.4-5.2,5.2-5.2s5.2,2.4,5.2,5.2c0,0.4,0.3,0.8,0.8,0.8s0.8-0.3,0.8-0.8C14.4,3.8,11.4,0.8,7.7,0.8z"/><path fill="#7D8299" d="M9.5,8.3h1.2c0.4,0,0.8-0.3,0.8-0.8s-0.3-0.8-0.8-0.8h-3c-0.4,0-0.8,0.3-0.8,0.8v3c0,0.4,0.3,0.8,0.8,0.8 c0.4,0,0.8-0.3,0.8-0.8V9.3l4,4c0.1,0.1,0.3,0.2,0.5,0.2s0.4-0.1,0.5-0.2c0.3-0.3,0.3-0.8,0-1.1L9.5,8.3z"/></g></svg>