<svg xmlns="http://www.w3.org/2000/svg" xmlns:xlink="http://www.w3.org/1999/xlink" id="Layer_1" x="0" y="0" enable-background="new 0 0 16 16" version="1.1" viewBox="0 0 16 16" xml:space="preserve"><title>space_icon_manage_address_normal</title><desc>Created with Sketch.</desc><g><path fill="#575E7B" d="M9.5,4.6V2.5h1.7c0,0,0.1,0,0.1,0.1v3.6c0,0.4,0.3,0.8,0.8,0.8s0.8-0.3,0.8-0.8V2.6c0-0.9-0.7-1.6-1.6-1.6 H3.5C2.6,1,1.9,1.7,1.9,2.6v10.7c0,0.9,0.7,1.6,1.6,1.6h3.7c0.4,0,0.8-0.3,0.8-0.8s-0.3-0.8-0.8-0.8H3.5c0,0-0.1,0-0.1-0.1V2.6 c0,0,0-0.1,0.1-0.1H8v2.1C8,5,8.4,5.3,8.8,5.3C9.2,5.3,9.5,5,9.5,4.6z"/><path fill="#575E7B" d="M15.3,9.5l-2.8-1.6c-0.2-0.1-0.5-0.1-0.8,0L9,9.5c-0.2,0.1-0.4,0.4-0.4,0.6v3.2c0,0.3,0.1,0.5,0.4,0.6 l2.8,1.6c0.1,0.1,0.2,0.1,0.4,0.1s0.3,0,0.4-0.1l2.8-1.6c0.2-0.1,0.4-0.4,0.4-0.6v-3.2C15.6,9.9,15.5,9.6,15.3,9.5z M14.1,12.9 l-2,1.2l-2-1.2v-2.3l2-1.2l2,1.2V12.9z"/></g></svg>