<svg xmlns="http://www.w3.org/2000/svg" xmlns:xlink="http://www.w3.org/1999/xlink" id="Layer_1" x="0" y="0" enable-background="new 0 0 16 16" version="1.1" viewBox="0 0 16 16" xml:space="preserve"><path fill="#666" d="M11,8.2c0.7-0.8,1.2-1.8,1.2-2.9c0-2.3-1.9-4.2-4.2-4.2C5.7,1.1,3.8,3,3.8,5.3c0,1.1,0.5,2.2,1.2,2.9	c-2.3,1.1-3.8,3.5-3.8,6.2c0,0.6,0.4,1,1,1s1-0.4,1-1c0-2.7,2.2-4.9,4.9-4.9c0,0,0,0,0,0s0,0,0,0c2.7,0,4.9,2.2,4.9,4.9	c0,0.6,0.4,1,1,1s1-0.4,1-1C14.9,11.7,13.3,9.4,11,8.2z M5.8,5.3c0-1.2,1-2.2,2.2-2.2c1.2,0,2.2,1,2.2,2.2c0,1.2-1,2.2-2.2,2.2	C6.8,7.5,5.8,6.5,5.8,5.3z"/></svg>