<svg xmlns="http://www.w3.org/2000/svg" xmlns:xlink="http://www.w3.org/1999/xlink" id="Layer_1" x="0" y="0" enable-background="new 0 0 16 16" version="1.1" viewBox="0 0 16 16" xml:space="preserve"><title>space_icon_manage_power_normal</title><desc>Created with Sketch.</desc><g><path fill="#575E7B" d="M6.4,13.2H3.2c-0.2,0-0.3-0.1-0.3-0.3V5.8c0-0.2,0.1-0.3,0.3-0.3h7.9c0.2,0,0.3,0.1,0.3,0.3 c0,0.4,0.3,0.8,0.8,0.8s0.8-0.3,0.8-0.8c0-1-0.8-1.8-1.8-1.8h-0.5c0-1.8-1.6-3.3-3.4-3.3C5.3,0.6,3.8,2.1,3.7,4H3.2 c-1,0-1.8,0.8-1.8,1.8v7.1c0,1,0.8,1.8,1.8,1.8h3.2c0.4,0,0.8-0.3,0.8-0.8S6.9,13.2,6.4,13.2z M7.1,2.1C8.2,2.1,9,3,9,4H5.2 C5.3,3,6.1,2.1,7.1,2.1z"/><path fill="#575E7B" d="M15.3,9.5l-2.8-1.6c-0.2-0.1-0.5-0.1-0.8,0L9,9.5c-0.2,0.1-0.4,0.4-0.4,0.6v3.2c0,0.3,0.1,0.5,0.4,0.6 l2.8,1.6c0.1,0.1,0.2,0.1,0.4,0.1s0.3,0,0.4-0.1l2.8-1.6c0.2-0.1,0.4-0.4,0.4-0.6v-3.2C15.6,9.9,15.5,9.6,15.3,9.5z M14.1,12.9 l-2,1.2l-2-1.2v-2.3l2-1.2l2,1.2V12.9z"/><path fill="#575E7B" d="M7.1,7.8c-0.4,0-0.8,0.3-0.8,0.8v0.7c0,0.4,0.3,0.8,0.8,0.8s0.8-0.3,0.8-0.8V8.5C7.9,8.1,7.5,7.8,7.1,7.8z"/></g></svg>