<svg xmlns="http://www.w3.org/2000/svg" xmlns:xlink="http://www.w3.org/1999/xlink" id="Layer_1" x="0" y="0" enable-background="new 0 0 16 16" version="1.1" viewBox="0 0 16 16" xml:space="preserve"><title>space_icon_dashboard_normal</title><desc>Created with Sketch.</desc><g><path fill="#575E7B" d="M13.3,9.4c-0.4-0.1-0.8,0.1-0.9,0.5c-0.6,2.1-2.6,3.6-4.8,3.6c-2.8,0-5-2.2-5-5c0-2.2,1.4-4.1,3.5-4.8 c0.4-0.1,0.6-0.5,0.5-0.9C6.5,2.4,6.1,2.1,5.7,2.3C2.9,3.1,1.1,5.6,1.1,8.5C1.1,12.1,4,15,7.6,15c2.9,0,5.4-1.9,6.2-4.7 C14,9.9,13.7,9.5,13.3,9.4z"/><path fill="#575E7B" d="M8.6,0.9c-0.4,0-0.8,0.3-0.8,0.8v5.8c0,0.4,0.3,0.8,0.8,0.8h5.8c0.4,0,0.8-0.3,0.8-0.8 C15.1,3.8,12.2,0.9,8.6,0.9z M9.3,6.7V2.4c2.2,0.3,3.9,2,4.2,4.2H9.3z"/></g></svg>