<svg xmlns="http://www.w3.org/2000/svg" xmlns:xlink="http://www.w3.org/1999/xlink" id="Layer_1" x="0" y="0" enable-background="new 0 0 32 32" version="1.1" viewBox="0 0 32 32" xml:space="preserve"><title>space_icon_department</title><desc>Created with Sketch.</desc><g><path fill="#7D819A" d="M22.9,16c1.1-0.8,1.9-2.1,1.9-3.6c0-2.4-2-4.4-4.3-4.4c-0.4,0-0.8,0.3-0.8,0.8s0.3,0.8,0.8,0.8 c1.6,0,2.8,1.3,2.8,2.9s-1.3,2.9-2.8,2.9c0,0-0.1,0-0.1,0c-0.1,0-0.2,0-0.3,0c-0.4,0-0.8,0.3-0.8,0.8s0.3,0.8,0.8,0.8 c2.7,0,4.8,2.2,4.8,4.8c0,0.2,0,0.3,0,0.5c0,0.4,0.3,0.8,0.7,0.8c0,0,0.1,0,0.1,0c0.4,0,0.7-0.3,0.7-0.7c0-0.2,0-0.4,0-0.7 C26.3,19.1,24.9,17,22.9,16z"/><path fill="#7D819A" d="M16.5,16.6c1.3-0.9,2.2-2.5,2.2-4.2c0-2.8-2.3-5.1-5.1-5.1s-5.1,2.3-5.1,5.1c0,1.7,0.9,3.3,2.2,4.2 c-2.9,1.2-5,4-5,7.4c0,0.4,0.3,0.8,0.8,0.8s0.8-0.3,0.8-0.8c0-3.6,2.9-6.5,6.5-6.5c3.6,0,6.4,2.9,6.4,6.5c0,0.4,0.3,0.8,0.8,0.8 s0.8-0.3,0.8-0.8C21.5,20.7,19.5,17.8,16.5,16.6z M10,12.4c0-2,1.6-3.6,3.6-3.6s3.6,1.6,3.6,3.6S15.6,16,13.6,16S10,14.4,10,12.4z"/></g></svg>