<svg xmlns="http://www.w3.org/2000/svg" xmlns:xlink="http://www.w3.org/1999/xlink" id="Layer_1" x="0" y="0" enable-background="new 0 0 16 16" version="1.1" viewBox="0 0 16 16" xml:space="preserve"><g><path fill="#7D8299" d="M12.5,6h-1V4.5C11.5,2.6,9.9,1,8,1S4.5,2.6,4.5,4.5V6h-1C2.7,6,2,6.7,2,7.5v6C2,14.3,2.7,15,3.5,15h9 c0.8,0,1.5-0.7,1.5-1.5v-6C14,6.7,13.3,6,12.5,6z M6.5,4.5C6.5,3.7,7.2,3,8,3s1.5,0.7,1.5,1.5V6h-3V4.5z M12,13H4V8h0.5h7H12V13z"/><path fill="#7D8299" d="M8,9c-0.6,0-1,0.4-1,1v1c0,0.6,0.4,1,1,1s1-0.4,1-1v-1C9,9.4,8.6,9,8,9z"/></g></svg>