<svg xmlns="http://www.w3.org/2000/svg" width="16" height="16" fill="none" viewBox="0 0 16 16"><path fill="none" fill-rule="evenodd" d="M8 2L3 4.5V8.41738C3 9.72263 3.63684 10.9458 4.70615 11.6943L7.42654 13.5986C7.77086 13.8396 8.22914 13.8396 8.57346 13.5986L11.2938 11.6943C12.3632 10.9458 13 9.72263 13 8.41738V4.5L8 2ZM6.53033 7.46967C6.23744 7.17678 5.76256 7.17678 5.46967 7.46967C5.17678 7.76256 5.17678 8.23744 5.46967 8.53033L6.88388 9.94454C7.17678 10.2374 7.65165 10.2374 7.94454 9.94454L10.773 7.11612C11.0659 6.82322 11.0659 6.34835 10.773 6.05546C10.4801 5.76256 10.0052 5.76256 9.71231 6.05546L7.41421 8.35355L6.53033 7.46967Z" clip-rule="evenodd"/></svg>