<svg xmlns="http://www.w3.org/2000/svg" xmlns:xlink="http://www.w3.org/1999/xlink" id="Layer_1" x="0" y="0" enable-background="new 0 0 16 16" version="1.1" viewBox="0 0 16 16" xml:space="preserve"><title>space_icon_manage_workingtable_normal</title><desc>Created with Sketch.</desc><g><path fill="#575E7B" d="M6.9,8.8H3.2c-0.3,0-0.5-0.2-0.5-0.5V3.4c0-0.3,0.2-0.5,0.5-0.5h7.6c0.3,0,0.5,0.2,0.5,0.5v2.6 c0,0.4,0.3,0.8,0.8,0.8s0.8-0.3,0.8-0.8V3.4c0-1.1-0.9-2-2-2H3.2c-1.1,0-2,0.9-2,2v4.9c0,1.1,0.9,2,2,2h2.9l0,2.8H3.8 c-0.4,0-0.8,0.3-0.8,0.8s0.3,0.8,0.8,0.8h3c0.2,0,0.4-0.1,0.5-0.2s0.2-0.3,0.2-0.5l0-4.3C7.6,9.2,7.3,8.8,6.9,8.8z"/><path fill="#575E7B" d="M15.3,9.5l-2.8-1.6c-0.2-0.1-0.5-0.1-0.8,0L9,9.5c-0.2,0.1-0.4,0.4-0.4,0.6v3.2c0,0.3,0.1,0.5,0.4,0.6 l2.8,1.6c0.1,0.1,0.2,0.1,0.4,0.1s0.3,0,0.4-0.1l2.8-1.6c0.2-0.1,0.4-0.4,0.4-0.6v-3.2C15.6,9.9,15.5,9.6,15.3,9.5z M14.1,12.9 l-2,1.2l-2-1.2v-2.3l2-1.2l2,1.2V12.9z"/></g></svg>