<svg xmlns="http://www.w3.org/2000/svg" xmlns:xlink="http://www.w3.org/1999/xlink" id="Layer_1" x="0" y="0" enable-background="new 0 0 16 16" version="1.1" viewBox="0 0 16 16" xml:space="preserve"><g><path fill="#7D8299" d="M8,9.1c2.3,0,4.2-1.9,4.2-4.2S10.3,0.7,8,0.7c-2.3,0-4.2,1.9-4.2,4.2C3.8,6,4.3,7,5,7.8 c-2.3,1.1-3.8,3.5-3.8,6.2c0,0.6,0.4,1,1,1s1-0.4,1-1C3.1,11.3,5.3,9.1,8,9.1C8,9.1,8,9.1,8,9.1z M5.8,4.9c0-1.2,1-2.2,2.2-2.2 c1.2,0,2.2,1,2.2,2.2c0,1.2-1,2.2-2.2,2.2C6.8,7.1,5.8,6.1,5.8,4.9z"/><path fill="#7D8299" d="M15.2,11.3L12.9,9c-0.4-0.4-1-0.4-1.4,0s-0.4,1,0,1.4l0.6,0.6H8c-0.6,0-1,0.4-1,1s0.4,1,1,1h4.1l-0.6,0.6 c-0.4,0.4-0.4,1,0,1.4c0.2,0.2,0.5,0.3,0.7,0.3s0.5-0.1,0.7-0.3l2.3-2.3C15.6,12.3,15.6,11.7,15.2,11.3z"/></g></svg>