<svg xmlns="http://www.w3.org/2000/svg" xmlns:xlink="http://www.w3.org/1999/xlink" id="Layer_1" x="0" y="0" enable-background="new 0 0 15 15" version="1.1" viewBox="0 0 15 15" xml:space="preserve"><title>space_icon_invite</title><desc>Created with Sketch.</desc><g><path fill="#7D8299" d="M10.7,9c0.2-0.4,0.1-0.8-0.3-1c-0.1-0.1-0.3-0.1-0.4-0.2c0.8-0.7,1.3-1.7,1.3-2.8c0-2.1-1.7-3.8-3.8-3.8 C5.4,1.2,3.8,2.9,3.8,5c0,1.1,0.5,2.1,1.3,2.8c-2.2,1-3.8,3.2-3.8,5.7c0,0.4,0.3,0.8,0.8,0.8s0.8-0.3,0.8-0.8 c0-2.6,2.1-4.8,4.8-4.8c0.8,0,1.5,0.2,2.2,0.6C10.1,9.5,10.5,9.4,10.7,9z M5.2,5c0-1.2,1-2.2,2.2-2.2c1.2,0,2.2,1,2.2,2.2 s-1,2.2-2.2,2.2C6.3,7.2,5.2,6.2,5.2,5z"/><path fill="#7D8299" d="M14,10.8h-1.2V9.5c0-0.4-0.3-0.8-0.8-0.8s-0.8,0.3-0.8,0.8v1.2H10c-0.4,0-0.8,0.3-0.8,0.8s0.3,0.8,0.8,0.8 h1.2v1.2c0,0.4,0.3,0.8,0.8,0.8s0.8-0.3,0.8-0.8v-1.2H14c0.4,0,0.8-0.3,0.8-0.8S14.4,10.8,14,10.8z"/></g></svg>