<svg xmlns="http://www.w3.org/2000/svg" xmlns:xlink="http://www.w3.org/1999/xlink" id="Layer_1" x="0" y="0" enable-background="new 0 0 15 15" version="1.1" viewBox="0 0 15 15" xml:space="preserve"><title>space_icon_switch</title><desc>Created with Sketch.</desc><g><path fill="#7D8299" d="M13,9c-0.3-0.3-0.8-0.3-1.1,0l-2.2,2.2V2c0-0.4-0.3-0.8-0.8-0.8S8.3,1.6,8.3,2v11c0,0.3,0.2,0.6,0.5,0.7 c0.1,0,0.2,0.1,0.3,0.1c0.2,0,0.4-0.1,0.5-0.2L13,10C13.3,9.7,13.3,9.3,13,9z"/><path fill="#7D8299" d="M6.3,1.3C6,1.2,5.7,1.3,5.5,1.5L2,5C1.7,5.3,1.7,5.7,2,6S2.7,6.3,3,6l2.2-2.2V13c0,0.4,0.3,0.8,0.8,0.8 s0.8-0.3,0.8-0.8V2C6.8,1.7,6.6,1.4,6.3,1.3z"/></g></svg>