<?xml version="1.0" encoding="utf-8"?>
<!-- Generator: Adobe Illustrator 23.0.6, SVG Export Plug-In . SVG Version: 6.00 Build 0)  -->
<svg version="1.1" id="Layer_1" xmlns="http://www.w3.org/2000/svg" xmlns:xlink="http://www.w3.org/1999/xlink" x="0px" y="0px"
	 viewBox="0 0 16 16" enable-background="new 0 0 16 16" xml:space="preserve">
<g>
	<path fill-rule="evenodd" clip-rule="evenodd" fill="#636363" d="M13,8h-1c0-0.6-0.4-1-1-1s-1,0.4-1,1v1v4H3V3h3c0.6,0,1-0.4,1-1
		S6.6,1,6,1H3C1.9,1,1,1.9,1,3v10c0,1.1,0.9,2,2,2h8h1c1.7,0,3-1.3,3-3v-2C15,8.9,14.1,8,13,8z M13,12c0,0.6-0.4,1-1,1v-3h1V12z"/>
	<path fill-rule="evenodd" clip-rule="evenodd" fill="#636363" d="M4,6c0,0.6,0.4,1,1,1h3c0.6,0,1-0.4,1-1S8.6,5,8,5H5
		C4.4,5,4,5.4,4,6z"/>
	<path fill-rule="evenodd" clip-rule="evenodd" fill="#636363" d="M8,9H5c-0.6,0-1,0.4-1,1s0.4,1,1,1h3c0.6,0,1-0.4,1-1S8.6,9,8,9z"
		/>
	<path fill-rule="evenodd" clip-rule="evenodd" fill="#636363" d="M9,4h1v1c0,0.6,0.4,1,1,1s1-0.4,1-1V4h1c0.6,0,1-0.4,1-1
		s-0.4-1-1-1h-1V1c0-0.6-0.4-1-1-1s-1,0.4-1,1v1H9C8.4,2,8,2.4,8,3S8.4,4,9,4z"/>
</g>
</svg>
