<?xml version="1.0" encoding="utf-8"?>
<!-- Generator: Adobe Illustrator 24.0.0, SVG Export Plug-In . SVG Version: 6.00 Build 0)  -->
<svg version="1.1" id="图层_1" xmlns="http://www.w3.org/2000/svg" xmlns:xlink="http://www.w3.org/1999/xlink" x="0px" y="0px"
	 viewBox="0 0 38 38" enable-background="new 0 0 38 38" xml:space="preserve">
<title>datasheet_img_type_linkdatasheetle</title>
<desc>Created with Sketch.</desc>
<g id="页面-1">
	<g id="画板" transform="translate(-376.000000, -37.000000)">
		<g id="img_x2F_linkdatasheetle" transform="translate(376.000000, 37.000000)">
			<g id="编组-22" transform="translate(8.000000, 8.000000)">
				<g>
					<rect id="矩形备份-2" fill="none" width="22" height="22"/>
					<path id="路径" fill="none" stroke="#2B68FF" stroke-width="1.5" stroke-linecap="round" d="M17.6,9.1c0.8,0,1.5,0.7,1.5,1.5
						v5.9c0,0.8-0.7,1.5-1.5,1.5H9.2c-0.8,0-1.5-0.7-1.5-1.5v-5.9c0-0.8,0.7-1.5,1.5-1.5h1.1"/>
					<path id="路径备份-3" fill="none" stroke="#95B3FF" stroke-width="1.5" stroke-linecap="round" d="M4.4,13
						c-0.8,0-1.5-0.7-1.5-1.5V5.5c0-0.8,0.7-1.5,1.5-1.5h8.4c0.8,0,1.5,0.7,1.5,1.5v5.9c0,0.8-0.7,1.5-1.5,1.5h-1.1"/>
				</g>
			</g>
		</g>
	</g>
</g>
</svg>
