<?xml version="1.0" encoding="utf-8"?>
<!-- Generator: Adobe Illustrator 24.0.0, SVG Export Plug-In . SVG Version: 6.00 Build 0)  -->
<svg version="1.1" id="Layer_1" xmlns="http://www.w3.org/2000/svg" xmlns:xlink="http://www.w3.org/1999/xlink" x="0px" y="0px"
	 viewBox="0 0 38 38" enable-background="new 0 0 38 38" xml:space="preserve">
<title>datasheet_img_type_attachment</title>
<desc>Created with Sketch.</desc>
<g id="Page-1">
	<g id="Board" transform="translate(-260.000000, -37.000000)">
		<g id="img_x2F_attachment" transform="translate(260.000000, 37.000000)">
			<g id="Group-19" transform="translate(8.000000, 8.000000)">
				<g>
					<g id="Group-9备份-3">
						<g id="Rect">
						</g>
						<defs>
							<filter id="Adobe_OpacityMaskFilter" filterUnits="userSpaceOnUse" x="1.9" y="2.5" width="18" height="17.6">
								<feColorMatrix  type="matrix" values="1 0 0 0 0  0 1 0 0 0  0 0 1 0 0  0 0 0 1 0"/>
							</filter>
						</defs>
						<mask maskUnits="userSpaceOnUse" x="1.9" y="2.5" width="18" height="17.6" id="mask-2_1_">
							<g filter="url(#Adobe_OpacityMaskFilter)">
								<polygon id="path-1_1_" fill-rule="evenodd" clip-rule="evenodd" fill="#FFFFFF" points="0,0 22,0 22,22 0,22 								"/>
							</g>
						</mask>
						<g id="Group-8" mask="url(#mask-2_1_)">
							
								<g id="Path" transform="translate(10.356694, 12.188893) rotate(-315.000000) translate(-10.356694, -12.188893) translate(3.856694, 3.688893)">
								<path fill="none" stroke="#2B68FF" stroke-width="1.5" stroke-linecap="round" d="M12.4,2c0,1.9,0,4.6,0,8.4
									c0,3.4-2.8,6.2-6.2,6.2S0,13.7,0,10.3V6.2"/>
								<path fill="none" stroke="#2B68FF" stroke-width="1.5" d="M0,8.2l0-4.1C0,1.8,1.8,0,4.1,0s4.1,1.8,4.1,4.1v4.1"/>
								<path fill="none" stroke="#2B68FF" stroke-width="1.5" stroke-linecap="round" d="M8.2,4.8v5.5c0,1.1-0.9,2.1-2.1,2.1
									s-2.1-0.9-2.1-2.1V4.8"/>
							</g>
						</g>
					</g>
				</g>
			</g>
		</g>
	</g>
</g>
</svg>
