<svg xmlns="http://www.w3.org/2000/svg" xmlns:xlink="http://www.w3.org/1999/xlink" id="Layer_1" x="0" y="0" enable-background="new 0 0 38 38" version="1.1" viewBox="0 0 38 38" xml:space="preserve"><title>datasheet_img_type_figure</title><desc>Created with Sketch.</desc><g id="Page-1"><g id="Board" transform="translate(-86.000000, -37.000000)"><g id="img_x2F_figure" transform="translate(86.000000, 37.000000)"><g id="_x31_23"><path fill="#2B68FF" d="M4.4,15V5H3.2C2.9,5.4,2.5,5.7,2,6C1.5,6.3,1,6.5,0.6,6.6v1.5c0.9-0.3,1.7-0.7,2.3-1.3V15H4.4z M14.6,15 v-1.3h-5c0.2-0.5,0.9-1.2,1.9-1.9c1-0.7,1.7-1.2,2.1-1.6c0.6-0.7,1-1.5,1-2.4c0-0.9-0.3-1.6-0.9-2.2c-0.6-0.6-1.4-0.8-2.4-0.8 c-1.1,0-1.9,0.3-2.6,1.1c-0.6,0.7-1,1.6-1,2.7h1.5c0-0.8,0.2-1.4,0.5-1.8c0.3-0.4,0.8-0.6,1.4-0.6c0.6,0,1.1,0.1,1.4,0.4 c0.3,0.3,0.5,0.7,0.5,1.3c0,0.6-0.2,1.1-0.7,1.6c-0.3,0.3-0.8,0.7-1.4,1.1c-1.1,0.8-1.9,1.4-2.3,1.8c-0.7,0.8-1,1.6-1,2.6H14.6z M20.9,15.2c1.1,0,1.9-0.3,2.6-0.9c0.6-0.6,1-1.3,1-2.3c0-0.6-0.2-1.1-0.5-1.5c-0.3-0.4-0.8-0.6-1.3-0.8 c1.1-0.4,1.7-1.1,1.7-2.2c0-0.9-0.3-1.5-0.9-2C22.8,5,22,4.8,21,4.8c-1,0-1.8,0.3-2.4,0.8c-0.7,0.6-1,1.3-1.1,2.3H19 c0.1-0.6,0.3-1.1,0.6-1.4s0.8-0.5,1.4-0.5c0.6,0,1.1,0.1,1.4,0.4c0.3,0.3,0.4,0.6,0.4,1.1s-0.2,0.9-0.5,1.2 c-0.3,0.3-0.8,0.4-1.4,0.4h-0.7v1.1h0.7c0.7,0,1.2,0.1,1.5,0.4c0.4,0.3,0.5,0.7,0.5,1.3c0,0.5-0.2,0.9-0.5,1.2 c-0.4,0.4-0.9,0.6-1.6,0.6c-0.6,0-1.1-0.2-1.4-0.5c-0.4-0.4-0.6-0.9-0.7-1.6h-1.5c0.1,1.1,0.5,2,1.2,2.6 C19.1,14.9,19.9,15.2,20.9,15.2z" transform="translate(6.000000, 9.000000)"/></g></g></g></g></svg>