<svg xmlns="http://www.w3.org/2000/svg" xmlns:xlink="http://www.w3.org/1999/xlink" id="Layer_1" x="0" y="0" enable-background="new 0 0 38 38" version="1.1" viewBox="0 0 38 38" xml:space="preserve"><title>datasheet_img_type_linkdatasheetle</title><desc>Created with Sketch.</desc><g id="Page-1"><g id="Board" transform="translate(-376.000000, -37.000000)"><g id="img_x2F_linkdatasheetle" transform="translate(376.000000, 37.000000)"><g id="Group-22"><g transform="translate(8.000000, 8.000000)"><rect id="Rect_Backup-2" width="22" height="22" fill="none"/><path id="Path" fill="none" stroke="#2B68FF" stroke-linecap="round" stroke-width="1.5" d="M17.6,9.1c0.8,0,1.5,0.7,1.5,1.5 v5.9c0,0.8-0.7,1.5-1.5,1.5H9.2c-0.8,0-1.5-0.7-1.5-1.5v-5.9c0-0.8,0.7-1.5,1.5-1.5h1.1"/><path id="Path_backup-3" fill="none" stroke="#95B3FF" stroke-linecap="round" stroke-width="1.5" d="M4.4,13 c-0.8,0-1.5-0.7-1.5-1.5V5.5c0-0.8,0.7-1.5,1.5-1.5h8.4c0.8,0,1.5,0.7,1.5,1.5v5.9c0,0.8-0.7,1.5-1.5,1.5h-1.1"/></g></g></g></g></g></svg>