<?xml version="1.0" encoding="utf-8"?>
<!-- Generator: Adobe Illustrator 24.1.0, SVG Export Plug-In . SVG Version: 6.00 Build 0)  -->
<svg version="1.1" id="图层_1" xmlns="http://www.w3.org/2000/svg" xmlns:xlink="http://www.w3.org/1999/xlink" x="0px" y="0px"
	 viewBox="0 0 16 16" enable-background="new 0 0 16 16" xml:space="preserve">
<desc>Created with Sketch.</desc>
<g>
	<path fill-rule="evenodd" clip-rule="evenodd" fill="#7D8299" d="M14.6,7.6C12.7,4.7,10.5,3.2,8,3.2S3.3,4.7,1.4,7.6
		c-0.2,0.3-0.2,0.6,0,0.8c1.9,2.9,4.2,4.3,6.6,4.3c2.5,0,4.7-1.5,6.6-4.3C14.8,8.2,14.8,7.8,14.6,7.6z M8,11.2
		c-1.8,0-3.5-1.1-5.1-3.2C4.5,5.8,6.2,4.8,8,4.8s3.5,1.1,5.1,3.2C11.5,10.2,9.8,11.2,8,11.2z"/>
	<circle fill-rule="evenodd" clip-rule="evenodd" fill="#7D8299" cx="8" cy="8" r="2"/>
</g>
</svg>
