<?xml version="1.0" encoding="utf-8"?>
<!-- Generator: Adobe Illustrator 24.0.0, SVG Export Plug-In . SVG Version: 6.00 Build 0)  -->
<svg version="1.1" id="图层_1" xmlns="http://www.w3.org/2000/svg" xmlns:xlink="http://www.w3.org/1999/xlink" x="0px" y="0px"
	 viewBox="0 0 36 36" style="enable-background:new 0 0 36 36;" xml:space="preserve">
<style type="text/css">
	.st0{fill:#575E7B;}
</style>
<title>signin_img_email</title>
<desc>Created with Sketch.</desc>
<path class="st0" d="M30.2,6H5.8C4.2,6,3,7.2,3,8.8v18.5C3,28.8,4.2,30,5.8,30h24.5c1.5,0,2.8-1.2,2.8-2.8V8.8C33,7.2,31.8,6,30.2,6
	z M29.4,7.5L18.2,18.7c-0.1,0.1-0.2,0.1-0.4,0L6.6,7.5H29.4z M31.5,27.2c0,0.7-0.6,1.2-1.2,1.2H5.8c-0.7,0-1.2-0.6-1.2-1.2V8.8
	c0-0.3,0.1-0.6,0.4-0.9l11.9,11.9c0.3,0.3,0.8,0.5,1.2,0.5s0.9-0.2,1.2-0.5L31.1,7.9c0.2,0.2,0.4,0.5,0.4,0.9V27.2z"/>
</svg>
