<?xml version="1.0" encoding="utf-8"?>
<!-- Generator: Adobe Illustrator 24.0.0, SVG Export Plug-In . SVG Version: 6.00 Build 0)  -->
<svg version="1.1" id="图层_1" xmlns="http://www.w3.org/2000/svg" xmlns:xlink="http://www.w3.org/1999/xlink" x="0px" y="0px"
	 viewBox="0 0 60 61" style="enable-background:new 0 0 60 61;" xml:space="preserve">
<style type="text/css">
	.st0{fill-rule:evenodd;clip-rule:evenodd;fill:#FFFFFF;}
	.st1{fill:#2B68FF;}
</style>
<title>signin_img_email_background</title>
<desc>Created with Sketch.</desc>
<g id="页面-1">
	<g id="signin" transform="translate(-180.000000, -115.000000)">
		<g id="signin_img_email_background" transform="translate(180.000000, 115.000000)">
			<g>
				<g id="椭圆形">
					<circle class="st0" cx="30" cy="31" r="30"/>
				</g>
				<g id="形状">
					<path class="st1" d="M30,1C13.4,1,0,14.4,0,31s13.4,30,30,30s30-13.4,30-30S46.6,1,30,1z"/>
				</g>
				<g id="矩形">
					<path class="st0" d="M15,19h30c0.6,0,1,0.4,1,1v22c0,0.6-0.4,1-1,1H15c-0.6,0-1-0.4-1-1V20C14,19.4,14.4,19,15,19z"/>
				</g>
				<g id="路径">
					<path class="st1" d="M30.2,34.9L30.2,34.9c-0.6,0-1.1-0.2-1.5-0.6L11.2,19.8l1.3-1.5l17.7,14.7l0.2-0.1L48,18.2l1.3,1.5
						L31.6,34.4C31.3,34.7,30.8,34.9,30.2,34.9z"/>
				</g>
			</g>
		</g>
	</g>
</g>
</svg>
