<?xml version="1.0" encoding="utf-8"?>
<!-- Generator: Adobe Illustrator 22.0.1, SVG Export Plug-In . SVG Version: 6.00 Build 0)  -->
<svg version="1.1" id="图层_1" xmlns="http://www.w3.org/2000/svg" xmlns:xlink="http://www.w3.org/1999/xlink" x="0px" y="0px"
	 viewBox="0 0 16 16" enable-background="new 0 0 16 16" xml:space="preserve">
<title>signin_icon_password</title>
<desc>Created with Sketch.</desc>
<path fill="#BFC1CB" d="M12,6h-1.2V4c0-1.5-1.2-2.8-2.8-2.8S5.2,2.5,5.2,4v2H4C3.4,6,3,6.4,3,7v6c0,0.6,0.4,1,1,1h8c0.6,0,1-0.4,1-1
	V7C13,6.4,12.6,6,12,6z M6.8,4c0-0.7,0.6-1.2,1.2-1.2S9.2,3.3,9.2,4v2H6.8V4z"/>
</svg>
