<svg xmlns="http://www.w3.org/2000/svg" xmlns:xlink="http://www.w3.org/1999/xlink" id="Layer_1" x="0" y="0" enable-background="new 0 0 24 24" version="1.1" viewBox="0 0 24 24" xml:space="preserve"><g><path fill="#49D89C" d="M17,9.3c-0.3,0-0.6,0-0.9,0.1C15,6.7,12.3,5,9.3,5c-0.6,0-1,0.4-1,1s0.4,1,1,1c2.5,0,4.6,1.6,5.2,3.8 c0.1,0.3,0.3,0.5,0.5,0.6c0.3,0.1,0.6,0.1,0.8,0c0.4-0.1,0.8-0.2,1.2-0.2c1.7,0,3,1.3,3,2.9S18.6,17,17,17H9.3 c-2.6,0-4.8-1.8-5.2-4.2C4,12.3,3.5,11.9,2.9,12c-0.5,0.1-0.9,0.6-0.8,1.2C2.7,16.5,5.7,19,9.3,19H17c2.8,0,5-2.2,5-4.9 C22,11.5,19.7,9.3,17,9.3z"/><circle cx="5.5" cy="8.5" r="2.5" fill="#49D89C"/></g></svg>