<svg xmlns="http://www.w3.org/2000/svg" xmlns:xlink="http://www.w3.org/1999/xlink" id="Layer_1" x="0" y="0" version="1.1" viewBox="0 0 15 15" style="enable-background:new 0 0 15 15" xml:space="preserve"><style type="text/css">.st0{fill:#7d8299}</style><title>datasheet_icon_readonly</title><desc>Created with Sketch.</desc><path d="M12.5,1.8h-2c-1.2,0-2.3,0.6-3,1.5c-0.7-0.9-1.8-1.5-3-1.5h-2c-1,0-1.8,0.8-1.8,1.8v8c0,1,0.8,1.8,1.8,1.8h5h5	c1,0,1.8-0.8,1.8-1.8v-8C14.2,2.5,13.5,1.8,12.5,1.8z M2.2,11.5v-8c0-0.1,0.1-0.2,0.2-0.2h2c1.2,0,2.2,1,2.2,2.2v6.2H2.5	C2.4,11.8,2.2,11.6,2.2,11.5z M12.8,11.5c0,0.1-0.1,0.2-0.2,0.2H8.2V5.5c0-1.2,1-2.2,2.2-2.2h2c0.1,0,0.2,0.1,0.2,0.2V11.5z" class="st0"/></svg>