<svg xmlns="http://www.w3.org/2000/svg" xmlns:xlink="http://www.w3.org/1999/xlink" id="Layer_1" x="0" y="0" enable-background="new 0 0 15 15" version="1.1" viewBox="0 0 15 15" xml:space="preserve"><title>datasheet_icon_tagdelete</title><desc>Created with Sketch.</desc><path fill="#7D8299" d="M8.2,7.5l2.1-2.1c0.2-0.2,0.2-0.5,0-0.7s-0.5-0.2-0.7,0L7.5,6.8L5.4,4.7c-0.2-0.2-0.5-0.2-0.7,0	s-0.2,0.5,0,0.7l2.1,2.1L4.7,9.6c-0.2,0.2-0.2,0.5,0,0.7c0.1,0.1,0.2,0.1,0.4,0.1s0.3,0,0.4-0.1l2.1-2.1l2.1,2.1	c0.1,0.1,0.2,0.1,0.4,0.1s0.3,0,0.4-0.1c0.2-0.2,0.2-0.5,0-0.7L8.2,7.5z"/></svg>