<?xml version="1.0" encoding="utf-8"?>
<!-- Generator: Adobe Illustrator 24.1.2, SVG Export Plug-In . SVG Version: 6.00 Build 0)  -->
<svg version="1.1" id="图层_1" xmlns="http://www.w3.org/2000/svg" xmlns:xlink="http://www.w3.org/1999/xlink" x="0px" y="0px"
	 viewBox="0 0 16 16" enable-background="new 0 0 16 16" xml:space="preserve">
<path fill-rule="evenodd" clip-rule="evenodd" fill="#FFC95C" d="M3,2C1.9,2,1,2.9,1,4v8c0,1.1,0.9,2,2,2h8c2.2,0,4-1.8,4-4V5
	c0-1.1-0.9-2-2-2H7L5.4,2.2C5.1,2.1,4.8,2,4.5,2H3z M4,6C3.4,6,3,6.4,3,7s0.4,1,1,1h8c0.6,0,1-0.4,1-1s-0.4-1-1-1H4z"/>
</svg>
