<svg xmlns="http://www.w3.org/2000/svg" xmlns:xlink="http://www.w3.org/1999/xlink" id="Layer_1" x="0" y="0" enable-background="new 0 0 15 15" version="1.1" viewBox="0 0 15 15" xml:space="preserve"><title>datasheet_icon_addtag</title><desc>Created with Sketch.</desc><g><path fill="#DADCE5" d="M7.5,11.5C7.8,11.5,8,11.3,8,11V8h3c0.3,0,0.5-0.2,0.5-0.5S11.3,7,11,7H8V4c0-0.3-0.2-0.5-0.5-0.5 S7,3.7,7,4v3H4C3.7,7,3.5,7.2,3.5,7.5S3.7,8,4,8h3v3C7,11.3,7.2,11.5,7.5,11.5z"/><path fill="#DADCE5" d="M5.9,1.7c0,0,0.1,0,0.1,0c0.5-0.1,1-0.2,1.4-0.2c0.1,0,0.3,0,0.4,0c0.3,0,0.5-0.2,0.5-0.5 c0-0.3-0.2-0.5-0.5-0.5c-0.2,0-0.3,0-0.5,0c-0.6,0-1.1,0.1-1.7,0.2C5.6,0.8,5.4,1,5.5,1.3C5.5,1.5,5.7,1.7,5.9,1.7z"/><path fill="#DADCE5" d="M14,7.2C14,7.2,14,7.2,14,7.2c-0.3,0-0.5,0.2-0.5,0.5c0,0.6-0.1,1.2-0.3,1.8c-0.1,0.3,0,0.5,0.3,0.6 c0.1,0,0.1,0,0.2,0c0.2,0,0.4-0.1,0.5-0.3c0.2-0.7,0.4-1.4,0.4-2.1C14.5,7.5,14.3,7.2,14,7.2z"/><path fill="#DADCE5" d="M12.3,11.1c-0.4,0.5-0.8,0.9-1.3,1.3c-0.2,0.2-0.3,0.5-0.1,0.7c0.1,0.1,0.3,0.2,0.4,0.2 c0.1,0,0.2,0,0.3-0.1c0.6-0.4,1.1-0.9,1.5-1.5c0.2-0.2,0.1-0.5-0.1-0.7C12.8,10.9,12.5,10.9,12.3,11.1z"/><path fill="#DADCE5" d="M13.3,5.9c0.1,0.2,0.3,0.4,0.5,0.4c0,0,0.1,0,0.1,0c0.3-0.1,0.4-0.4,0.3-0.6c-0.2-0.7-0.5-1.3-0.9-2 c-0.2-0.2-0.5-0.3-0.7-0.1S12.4,4,12.5,4.2C12.9,4.7,13.1,5.3,13.3,5.9z"/><path fill="#DADCE5" d="M2.6,3.7c0.1,0,0.3-0.1,0.4-0.2c0.4-0.5,0.9-0.9,1.4-1.2c0.2-0.1,0.3-0.5,0.2-0.7C4.4,1.5,4.1,1.4,3.8,1.5 C3.2,1.9,2.7,2.4,2.2,2.9C2,3.1,2.1,3.4,2.3,3.6C2.4,3.7,2.5,3.7,2.6,3.7z"/><path fill="#DADCE5" d="M9.7,1.9c0.6,0.2,1.1,0.5,1.6,0.9c0.1,0.1,0.2,0.1,0.3,0.1c0.1,0,0.3-0.1,0.4-0.2c0.2-0.2,0.1-0.5-0.1-0.7 c-0.6-0.5-1.2-0.8-1.9-1.1C9.8,0.9,9.5,1,9.4,1.3C9.3,1.5,9.4,1.8,9.7,1.9z"/><path fill="#DADCE5" d="M4.9,12.9c-0.6-0.3-1.1-0.6-1.5-1c-0.2-0.2-0.5-0.2-0.7,0c-0.2,0.2-0.2,0.5,0,0.7c0.5,0.5,1.1,0.9,1.8,1.2 c0.1,0,0.1,0,0.2,0c0.2,0,0.4-0.1,0.5-0.3C5.3,13.3,5.2,13,4.9,12.9z"/><path fill="#DADCE5" d="M9.3,13.2c-0.8,0.3-1.7,0.3-2.6,0.2c-0.3,0-0.5,0.2-0.6,0.4c0,0.3,0.2,0.5,0.4,0.6c0.3,0,0.6,0.1,0.9,0.1 c0.7,0,1.4-0.1,2.1-0.3c0.3-0.1,0.4-0.4,0.3-0.6C9.9,13.3,9.6,13.1,9.3,13.2z"/><path fill="#DADCE5" d="M1,7.4c0.3,0,0.5-0.2,0.5-0.5C1.6,6.3,1.7,5.7,2,5.1c0.1-0.3,0-0.5-0.3-0.7c-0.3-0.1-0.5,0-0.7,0.3 C0.8,5.4,0.6,6.1,0.5,6.8C0.5,7.1,0.7,7.3,1,7.4C1,7.4,1,7.4,1,7.4z"/><path fill="#DADCE5" d="M1.6,8.7C1.6,8.5,1.3,8.3,1,8.4C0.8,8.4,0.6,8.7,0.7,8.9c0.1,0.7,0.4,1.4,0.8,2c0.1,0.2,0.3,0.3,0.4,0.3 c0.1,0,0.2,0,0.2-0.1c0.2-0.1,0.3-0.4,0.2-0.7C2,9.9,1.8,9.3,1.6,8.7z"/></g></svg>