<svg xmlns="http://www.w3.org/2000/svg" xmlns:xlink="http://www.w3.org/1999/xlink" id="Layer_1" x="0" y="0" enable-background="new 0 0 15 15" version="1.1" viewBox="0 0 15 15" xml:space="preserve"><title>datasheet_icon_zoom_in</title><desc>Created with Sketch.</desc><g><path fill="#FFF" d="M7.5,0.2c-4,0-7.2,3.3-7.2,7.2c0,4,3.3,7.2,7.2,7.2c4,0,7.2-3.3,7.2-7.2C14.8,3.5,11.5,0.2,7.5,0.2z M7.5,13.2c-3.2,0-5.8-2.6-5.8-5.8c0-3.2,2.6-5.8,5.8-5.8c3.2,0,5.8,2.6,5.8,5.8C13.2,10.7,10.7,13.2,7.5,13.2z"/><path fill="#FFF" d="M10.5,6.8H8.2V4.5c0-0.4-0.3-0.8-0.8-0.8S6.8,4.1,6.8,4.5v2.2H4.5c-0.4,0-0.8,0.3-0.8,0.8s0.3,0.8,0.8,0.8 h2.2v2.2c0,0.4,0.3,0.8,0.8,0.8s0.8-0.3,0.8-0.8V8.2h2.2c0.4,0,0.8-0.3,0.8-0.8S10.9,6.8,10.5,6.8z"/></g></svg>