<svg xmlns="http://www.w3.org/2000/svg" xmlns:xlink="http://www.w3.org/1999/xlink" id="Layer_1" x="0" y="0" enable-background="new 0 0 130 88" version="1.1" viewBox="0 0 130 88" xml:space="preserve"><desc>Created with Sketch.</desc><g><path fill="#DADCE5" d="M125,0H5C2.2,0,0,2.2,0,5v78c0,2.8,2.2,5,5,5h120c2.8,0,5-2.2,5-5V5C130,2.2,127.8,0,125,0z M5,2h120 c1.7,0,3,1.3,3,3v24.1c-1.1,0-2.3-0.1-3.4-0.1c-28.5,0-54.9,13.9-71.4,36.1C46,58.6,36.8,55,27,55c-9.2,0-18,3.2-25,9.1V5 C2,3.3,3.3,2,5,2z M2,83V66.7C8.8,60.5,17.7,57,27,57c9.3,0,18.2,3.4,25,9.7c-4.2,5.9-7.7,12.3-10.3,19.3H5C3.3,86,2,84.7,2,83z M125,86H43.8c13-32.9,45.2-55,80.7-55c1.1,0,2.3,0,3.4,0.1V83C128,84.7,126.7,86,125,86z"/><path fill="#DADCE5" d="M23.2,33.4c5.6,0,10.2-4.6,10.2-10.2S28.8,13,23.2,13S13,17.6,13,23.2S17.6,33.4,23.2,33.4z M23.2,15 c4.5,0,8.2,3.7,8.2,8.2c0,4.5-3.7,8.2-8.2,8.2c-4.5,0-8.2-3.7-8.2-8.2C15,18.7,18.7,15,23.2,15z"/></g></svg>