<svg xmlns="http://www.w3.org/2000/svg" xmlns:xlink="http://www.w3.org/1999/xlink" id="Layer_1" x="0" y="0" version="1.1" viewBox="0 0 15 15" style="enable-background:new 0 0 15 15" xml:space="preserve"><style type="text/css">.st0{fill-rule:evenodd;clip-rule:evenodd;fill:#e1e2e9}</style><title>datasheet_icon_attachment_cancel</title><desc>Created with Sketch.</desc><path d="M7.5,1C3.9,1,1,3.9,1,7.5S3.9,14,7.5,14S14,11.1,14,7.5S11.1,1,7.5,1z M10.3,9.6c0.2,0.2,0.2,0.5,0,0.7	c-0.1,0.1-0.2,0.1-0.4,0.1s-0.3,0-0.4-0.1L7.5,8.2l-2.1,2.1c-0.1,0.1-0.2,0.1-0.4,0.1s-0.3,0-0.4-0.1c-0.2-0.2-0.2-0.5,0-0.7	l2.1-2.1L4.7,5.4c-0.2-0.2-0.2-0.5,0-0.7s0.5-0.2,0.7,0l2.1,2.1l2.1-2.1c0.2-0.2,0.5-0.2,0.7,0s0.2,0.5,0,0.7L8.2,7.5L10.3,9.6z" class="st0"/></svg>