<?xml version="1.0" encoding="utf-8"?>
<!-- Generator: Adobe Illustrator 24.0.0, SVG Export Plug-In . SVG Version: 6.00 Build 0)  -->
<svg version="1.1" id="图层_1" xmlns="http://www.w3.org/2000/svg" xmlns:xlink="http://www.w3.org/1999/xlink" x="0px" y="0px"
	 viewBox="0 0 16 16" enable-background="new 0 0 16 16" xml:space="preserve">
<g>
	<path fill="#CCCCCC" d="M10,4H3C1.9,4,1,4.9,1,6v7c0,1.1,0.9,2,2,2h7c1.1,0,2-0.9,2-2V6C12,4.9,11.1,4,10,4z M10,13H3l0-7h0h7V13z"
		/>
	<path fill="#CCCCCC" d="M11.7,1H6C5.4,1,5,1.4,5,2s0.4,1,1,1h5.7C12.4,3,13,3.6,13,4.3V10c0,0.6,0.4,1,1,1s1-0.4,1-1V4.3
		C15,2.5,13.5,1,11.7,1z"/>
</g>
</svg>
