<svg xmlns="http://www.w3.org/2000/svg" xmlns:xlink="http://www.w3.org/1999/xlink" id="Layer_1" x="0" y="0" enable-background="new 0 0 16 16" version="1.1" viewBox="0 0 16 16" xml:space="preserve"><desc>Created with Sketch.</desc><g><path fill="#FFF" d="M9.9,11H3.3l0.1-0.2c0.3-0.5,0.4-1,0.5-1.6l0.3-3.1c0-0.4-0.2-0.8-0.7-0.8c-0.4,0-0.8,0.2-0.8,0.7L2.4,9 c0,0.4-0.2,0.7-0.3,1.1l-0.7,1.3c-0.1,0.2-0.1,0.5,0,0.7c0.1,0.2,0.4,0.4,0.6,0.4h3.2c0,1.5,1.2,2.7,2.7,2.7c1.5,0,2.7-1.2,2.7-2.7 v-0.7C10.7,11.3,10.3,11,9.9,11z M8,13.7c-0.6,0-1.2-0.5-1.2-1.2h2.3C9.2,13.1,8.6,13.7,8,13.7z"/><path fill="#FFF" d="M15.6,12.5l-1.7-1.7c-0.1-0.5-0.2-1.3-0.3-1.8l-0.5-4.5c-0.3-2.4-2.3-4.2-4.7-4.2H7.7 c-1.2,0-2.2,0.4-3.1,1.2l-1-1c-0.3-0.3-0.8-0.3-1.1,0s-0.3,0.8,0,1.1l12,12c0.1,0.1,0.3,0.2,0.5,0.2s0.4-0.1,0.5-0.2 C15.8,13.3,15.8,12.8,15.6,12.5z M7.7,1.8h0.7c1.7,0,3,1.2,3.2,2.9L12,9L5.6,2.6C6.2,2.1,6.9,1.8,7.7,1.8z"/></g></svg>