<?xml version="1.0" encoding="utf-8"?>
<!-- Generator: Adobe Illustrator 24.0.0, SVG Export Plug-In . SVG Version: 6.00 Build 0)  -->
<svg version="1.1" id="Layer_1" xmlns="http://www.w3.org/2000/svg" xmlns:xlink="http://www.w3.org/1999/xlink" x="0px" y="0px"
	 viewBox="0 0 16 16" enable-background="new 0 0 16 16" xml:space="preserve">
<title>datasheet_icon_description</title>
<desc>Created with Sketch.</desc>
<g>
	<path fill="#7D8299" d="M12,2.5H4C3.2,2.5,2.5,3.2,2.5,4v8c0,0.8,0.7,1.5,1.5,1.5h8c0.8,0,1.5-0.7,1.5-1.5V4
		C13.5,3.2,12.8,2.5,12,2.5z M12.5,12c0,0.3-0.2,0.5-0.5,0.5H4c-0.3,0-0.5-0.2-0.5-0.5V4c0-0.3,0.2-0.5,0.5-0.5h8
		c0.3,0,0.5,0.2,0.5,0.5V12z"/>
	<path fill="#7D8299" d="M11,7.5H5C4.7,7.5,4.5,7.7,4.5,8S4.7,8.5,5,8.5h6c0.3,0,0.5-0.2,0.5-0.5S11.3,7.5,11,7.5z"/>
	<path fill="#7D8299" d="M11,10H5c-0.3,0-0.5,0.2-0.5,0.5S4.7,11,5,11h6c0.3,0,0.5-0.2,0.5-0.5S11.3,10,11,10z"/>
	<path fill="#7D8299" d="M5,6h3c0.3,0,0.5-0.2,0.5-0.5S8.3,5,8,5H5C4.7,5,4.5,5.2,4.5,5.5S4.7,6,5,6z"/>
</g>
</svg>
