<svg xmlns="http://www.w3.org/2000/svg" xmlns:xlink="http://www.w3.org/1999/xlink" id="Layer_1" x="0" y="0" enable-background="new 0 0 16 16" version="1.1" viewBox="0 0 16 16" xml:space="preserve"><title>datasheet_icon_switch</title><desc>Created with Sketch.</desc><g><path fill="#7D8299" d="M5.5,6.9L8,4.4l2.5,2.5c0.1,0.1,0.3,0.2,0.5,0.2s0.4-0.1,0.5-0.2c0.3-0.3,0.3-0.8,0-1.1l-3-3 C8.4,2.7,8.2,2.6,8,2.6S7.6,2.7,7.5,2.9l-3,3c-0.3,0.3-0.3,0.8,0,1.1S5.2,7.2,5.5,6.9z"/><path fill="#7D8299" d="M10.5,9.1L8,11.6L5.5,9.1c-0.3-0.3-0.8-0.3-1.1,0s-0.3,0.8,0,1.1l3,3c0.1,0.1,0.3,0.2,0.5,0.2 s0.4-0.1,0.5-0.2l3-3c0.3-0.3,0.3-0.8,0-1.1S10.8,8.8,10.5,9.1z"/></g></svg>