<svg xmlns="http://www.w3.org/2000/svg" xmlns:xlink="http://www.w3.org/1999/xlink" id="Layer_1" x="0" y="0" enable-background="new 0 0 16 16" version="1.1" viewBox="0 0 16 16" xml:space="preserve"><desc>Created with Sketch.</desc><g id="Page-1"><g id="Board" transform="translate(-112.000000, -93.000000)"><g id="_x32_.Icon_x2F_Catalogue_x2F_Folder_x2F_Unfold" transform="translate(112.000000, 93.000000)"><path id="Rect_Backup" fill="#929292" fill-rule="evenodd" d="M1.1,2.5h2.4c0.2,0,0.5,0.1,0.6,0.2l1,0.8l0,0h5.5c0.5,0,0.9,0.4,1,0.9l1.2,9.4c0.1,0.5-0.3,1-0.9,1.1c0,0-0.1,0-0.1,0H2.4 c-0.5,0-0.9-0.4-1-0.9L0.1,3.6C0.1,3.1,0.5,2.6,1,2.5C1,2.5,1.1,2.5,1.1,2.5z" clip-rule="evenodd" enable-background="new" opacity=".305"/><path id="Rect" fill="#929292" fill-rule="evenodd" d="M4.7,5h9.9c0.6,0,1,0.4,1,1c0,0.1,0,0.2,0,0.3 l-2.4,8c-0.1,0.4-0.5,0.7-1,0.7H2.3c-0.6,0-1-0.4-1-1c0-0.1,0-0.2,0-0.3l2.4-8C3.9,5.3,4.3,5,4.7,5z" clip-rule="evenodd"/></g></g></g></svg>