<svg xmlns="http://www.w3.org/2000/svg" xmlns:xlink="http://www.w3.org/1999/xlink" id="Layer_1" x="0" y="0" enable-background="new 0 0 24 24" version="1.1" viewBox="0 0 24 24" xml:space="preserve"><g><path fill="#EB5757" d="M16.9,9.3c-0.3,0-0.6,0-0.9,0.1C14.9,6.7,12.2,5,9.2,5c-0.6,0-1,0.4-1,1s0.4,1,1,1c2.5,0,4.6,1.6,5.2,3.8 c0.1,0.3,0.3,0.5,0.5,0.6c0.3,0.1,0.6,0.1,0.8,0c0.4-0.1,0.8-0.2,1.2-0.2c1.7,0,3,1.3,3,2.9s-1.4,2.9-3,2.9H9.2 c-2.6,0-4.8-1.8-5.2-4.2c-0.1-0.5-0.6-0.9-1.2-0.8c-0.5,0.1-0.9,0.6-0.8,1.2C2.6,16.5,5.6,19,9.2,19h7.7c2.8,0,5-2.2,5-4.9 C21.9,11.5,19.6,9.3,16.9,9.3z"/><path fill="#EB5757" d="M4.1,9.2l1.6,1.6C5.9,10.9,6.1,11,6.2,11s0.4-0.1,0.5-0.2c0.3-0.3,0.3-0.8,0-1.1L5.2,8.1l1.6-1.6 c0.3-0.3,0.3-0.8,0-1.1S6,5.2,5.7,5.5L4.1,7.1L2.5,5.5c-0.3-0.3-0.8-0.3-1.1,0s-0.3,0.8,0,1.1l1.6,1.6L1.5,9.7 c-0.3,0.3-0.3,0.8,0,1.1C1.6,10.9,1.8,11,2,11s0.4-0.1,0.5-0.2L4.1,9.2z"/></g></svg>