<svg xmlns="http://www.w3.org/2000/svg" xmlns:xlink="http://www.w3.org/1999/xlink" id="Layer_1" x="0" y="0" enable-background="new 0 0 16 16" version="1.1" viewBox="0 0 16 16" xml:space="preserve"><g><path fill="#636363" d="M6.5,8.5H2c-0.6,0-1,0.4-1,1V14c0,0.6,0.4,1,1,1h4.5c0.6,0,1-0.4,1-1V9.5C7.5,8.9,7.1,8.5,6.5,8.5z M5.5,13 H3v-2.5h2.5V13z"/><path fill="#636363" d="M6.5,1H2C1.4,1,1,1.4,1,2v4.5c0,0.6,0.4,1,1,1h4.5c0.6,0,1-0.4,1-1V2C7.5,1.4,7.1,1,6.5,1z M5.5,5.5H3V3 h2.5V5.5z"/><path fill="#636363" d="M14,1H9.5c-0.6,0-1,0.4-1,1v4.5c0,0.6,0.4,1,1,1H14c0.6,0,1-0.4,1-1V2C15,1.4,14.6,1,14,1z M13,5.5h-2.5V3 H13V5.5z"/><path fill="#636363" d="M10,11c-0.6,0-1,0.4-1,1v2c0,0.6,0.4,1,1,1s1-0.4,1-1v-2C11,11.4,10.6,11,10,11z"/><path fill="#636363" d="M13.5,9c-0.6,0-1,0.4-1,1v4c0,0.6,0.4,1,1,1s1-0.4,1-1v-4C14.5,9.4,14.1,9,13.5,9z"/></g></svg>