<svg xmlns="http://www.w3.org/2000/svg" xmlns:xlink="http://www.w3.org/1999/xlink" id="Layer_1" x="0" y="0" enable-background="new 0 0 16 16" version="1.1" viewBox="0 0 16 16" xml:space="preserve"><g><path fill="#CCC" d="M15.6,3l-2.1-2.4C13.1,0.2,12.7,0,12.2,0H6C5.4,0,5,0.4,5,1s0.4,1,1,1h6l2,2.2v7.6c0,0.6,0.4,1,1,1 s1-0.4,1-1V4.1C16,3.7,15.9,3.3,15.6,3z"/><path fill="#CCC" d="M10.4,3.5C10.1,3.2,9.7,3,9.2,3H2.7C1.7,3,1,3.7,1,4.7v9.7C1,15.3,1.7,16,2.7,16h8.7c0.9,0,1.7-0.7,1.7-1.7 V7c0-0.4-0.2-0.8-0.4-1.1L10.4,3.5z M9.5,5.5L10.9,7H9.5V5.5z M3,14V5h4.5v2.3C7.5,8.3,8.2,9,9.2,9H11v5H3z"/><path fill="#CCC" d="M5,10h1c0.6,0,1-0.4,1-1S6.6,8,6,8H5C4.4,8,4,8.4,4,9S4.4,10,5,10z"/><path fill="#CCC" d="M8,11H5c-0.6,0-1,0.4-1,1s0.4,1,1,1h3c0.6,0,1-0.4,1-1S8.6,11,8,11z"/></g></svg>