<svg xmlns="http://www.w3.org/2000/svg" xmlns:xlink="http://www.w3.org/1999/xlink" id="Layer_1" x="0" y="0" enable-background="new 0 0 140 140" version="1.1" viewBox="0 0 140 140" xml:space="preserve"><title>datasheet_img_bgwatermark</title><desc>Created with Sketch.</desc><path fill="#DADCE5" d="M109,76.6l-11,1.1l2.1-21.6l10.6-1c4.9-0.5,8.5-4.8,8-9.7c-0.5-4.9-4.8-8.5-9.7-8l-7.1,0.7l1.6-16	c0.5-4.9-3.1-9.2-8-9.7c-4.9-0.5-9.2,3.1-9.7,8l-1.9,19.5L60.7,42l2-20c0.5-4.9-3.1-9.2-8-9.7c-4.9-0.5-9.2,3.1-9.7,8l-2.3,23.5	l-13,1.3c-4.9,0.5-8.5,4.8-8,9.7c0.4,4.6,4.3,8,8.8,8c0.3,0,0.6,0,0.9,0l9.5-0.9l-2.1,21.6l-9.1,0.9c-4.9,0.5-8.5,4.8-8,9.7	c0.4,4.6,4.3,8,8.8,8c0.3,0,0.6,0,0.9,0l5.6-0.6l-1.6,16.9c-0.5,4.9,3.1,9.2,8,9.7c0.3,0,0.6,0,0.9,0c4.5,0,8.4-3.4,8.8-8l2-20.3	l23.2-2.3l-2,20.9c-0.5,4.9,3.1,9.2,8,9.7c0.3,0,0.6,0,0.9,0c4.5,0,8.4-3.4,8.8-8l2.4-24.4l14.4-1.4c4.9-0.5,8.5-4.8,8-9.7	C118.2,79.7,113.9,76.1,109,76.6z M56.8,81.7l2.1-21.6l23.2-2.3L80,79.4L56.8,81.7z"/></svg>