<svg xmlns="http://www.w3.org/2000/svg" xmlns:xlink="http://www.w3.org/1999/xlink" id="Layer_1" x="0" y="0" enable-background="new 0 0 16 16" version="1.1" viewBox="0 0 16 16" xml:space="preserve"><g><path fill="#7B67EE" d="M8,1C4.1,1,1,4.1,1,8c0,3.9,3.1,7,7,7c3.9,0,7-3.1,7-7C15,4.1,11.9,1,8,1z M8,14c-3.3,0-6-2.7-6-6 s2.7-6,6-6s6,2.7,6,6S11.3,14,8,14z"/><path fill="#7B67EE" d="M10.5,7.4H8.6V5.5C8.6,5.2,8.4,5,8.1,5S7.6,5.2,7.6,5.5v1.9H5.5C5.2,7.4,5,7.6,5,7.9s0.2,0.5,0.5,0.5h2.1 v2.1c0,0.3,0.2,0.5,0.5,0.5s0.5-0.2,0.5-0.5V8.4h1.9c0.3,0,0.5-0.2,0.5-0.5S10.8,7.4,10.5,7.4z"/></g></svg>