<svg xmlns="http://www.w3.org/2000/svg" xmlns:xlink="http://www.w3.org/1999/xlink" id="Layer_1" x="0" y="0" enable-background="new 0 0 24 24" version="1.1" viewBox="0 0 24 24" xml:space="preserve"><title>datasheet_icon_label</title><desc>Created with Sketch.</desc><g><path fill="#FFF" fill-rule="evenodd" d="M19.4,6.3c-0.1-1.2-1-2.2-2.2-2.2l-4.6-0.2h0 c-0.7,0-1.3,0.2-1.8,0.7l-7.9,7.9c-0.9,0.9-0.9,2.4,0,3.3l4.8,4.8c0.4,0.4,1,0.7,1.7,0.7c0.6,0,1.2-0.2,1.7-0.7l7.9-7.9 c0.5-0.5,0.7-1.1,0.7-1.8L19.4,6.3z M17.9,11.6L10,19.5c-0.3,0.3-0.9,0.3-1.2,0L4,14.7c-0.3-0.3-0.3-0.9,0-1.2l7.9-7.9 c0.2-0.2,0.4-0.2,0.6-0.2c0,0,0,0,0,0l4.6,0.2c0.4,0,0.8,0.4,0.8,0.8l0.2,4.6C18.2,11.2,18.1,11.4,17.9,11.6z" clip-rule="evenodd"/><circle cx="13.7" cy="9.6" r="1.3" fill="#FFF" fill-rule="evenodd" clip-rule="evenodd"/></g></svg>