<svg xmlns="http://www.w3.org/2000/svg" xmlns:xlink="http://www.w3.org/1999/xlink" id="Layer_1" x="0" y="0" enable-background="new 0 0 10 10" version="1.1" viewBox="0 0 10 10" xml:space="preserve"><g><path fill="#979797" d="M9.5,6.5C9.2,6.5,9,6.7,9,7v1.5C9,8.8,8.8,9,8.5,9h-7C1.2,9,1,8.8,1,8.5v-7C1,1.2,1.2,1,1.5,1H3 c0.3,0,0.5-0.2,0.5-0.5S3.3,0,3,0H1.5C0.7,0,0,0.7,0,1.5v7C0,9.3,0.7,10,1.5,10h7C9.3,10,10,9.3,10,8.5V7C10,6.7,9.8,6.5,9.5,6.5z"/><path fill="#979797" d="M9.9,0.1C9.8,0.1,9.6,0,9.5,0H6C5.7,0,5.5,0.2,5.5,0.5S5.7,1,6,1h2.3L4.1,5.1C4,5.3,4,5.7,4.1,5.9 C4.2,6,4.4,6,4.5,6s0.3,0,0.4-0.1L9,1.7L9,4c0,0.3,0.2,0.5,0.5,0.5S10,4.3,10,4l0-3.5C10,0.4,9.9,0.2,9.9,0.1z"/></g></svg>