<svg xmlns="http://www.w3.org/2000/svg" xmlns:xlink="http://www.w3.org/1999/xlink" id="Layer_1" x="0" y="0" version="1.1" viewBox="0 0 24 24" style="enable-background:new 0 0 24 24" xml:space="preserve"><style type="text/css">.st0{fill:#fff}</style><title>datasheet_icon_department</title><desc>Created with Sketch.</desc><path d="M17.8,14.3V11c0-0.4-0.3-0.8-0.8-0.8h-4.2V8.7c1.7-0.3,3-1.9,3-3.7c0-2.1-1.7-3.8-3.8-3.8	C9.9,1.2,8.2,2.9,8.2,5c0,1.8,1.3,3.3,3,3.7v1.6H7c-0.4,0-0.8,0.3-0.8,0.8v3.3c-1.7,0.3-3,1.9-3,3.7c0,2.1,1.7,3.8,3.8,3.8	s3.8-1.7,3.8-3.8c0-1.8-1.3-3.3-3-3.7v-2.6h8.5v2.6c-1.7,0.3-3,1.9-3,3.7c0,2.1,1.7,3.8,3.8,3.8s3.8-1.7,3.8-3.8	C20.8,16.2,19.5,14.7,17.8,14.3z M9.8,5c0-1.2,1-2.2,2.2-2.2c1.2,0,2.2,1,2.2,2.2s-1,2.2-2.2,2.2C10.8,7.2,9.8,6.2,9.8,5z M9.2,18	c0,1.2-1,2.2-2.2,2.2s-2.2-1-2.2-2.2s1-2.2,2.2-2.2S9.2,16.8,9.2,18z M17,20.2c-1.2,0-2.2-1-2.2-2.2s1-2.2,2.2-2.2s2.2,1,2.2,2.2	S18.2,20.2,17,20.2z" class="st0"/></svg>