<svg xmlns="http://www.w3.org/2000/svg" xmlns:xlink="http://www.w3.org/1999/xlink" id="Layer_1" x="0" y="0" version="1.1" viewBox="0 0 15 15" style="enable-background:new 0 0 15 15" xml:space="preserve"><style type="text/css">.st0{fill:#fff}</style><title>datasheet_icon_download_white</title><desc>Created with Sketch.</desc><g><path d="M7.1,11.5c0.2,0.2,0.5,0.3,0.7,0.1c0,0,0.1-0.1,0.1-0.1l2-2.7c0.2-0.2,0.1-0.5-0.1-0.7C9.7,8,9.6,8,9.5,8H8.2 V3c0-0.4-0.3-0.8-0.8-0.8S6.8,2.6,6.8,3v5H5.5C5.2,8,5,8.2,5,8.5c0,0.1,0,0.2,0.1,0.3L7.1,11.5z" class="st0"/><path d="M12.5,12.8h-10c-0.4,0-0.8,0.3-0.8,0.8s0.3,0.8,0.8,0.8h10c0.4,0,0.8-0.3,0.8-0.8S12.9,12.8,12.5,12.8z" class="st0"/></g></svg>