<svg xmlns="http://www.w3.org/2000/svg" xmlns:xlink="http://www.w3.org/1999/xlink" id="Layer_1" x="0" y="0" enable-background="new 0 0 15 15" version="1.1" viewBox="0 0 15 15" xml:space="preserve"><title>icon/datasheet_icon_calendar_yearminus</title><desc>Created with Sketch.</desc><g id="icon_x2F_datasheet_x5F_icon_x5F_calendar_x5F_yearminus"><g id="Group" transform="translate(0.000000, 2.500000)"><g id="Path"><path fill="#7D8299" d="M5,9.7c-0.1,0-0.3,0-0.4-0.1L0.4,5.4C0.3,5.3,0.3,5.1,0.3,5s0.1-0.3,0.1-0.4l4.2-4.2 c0.2-0.2,0.5-0.2,0.7,0s0.2,0.5,0,0.7L1.5,5l3.9,3.9c0.2,0.2,0.2,0.5,0,0.7C5.3,9.7,5.1,9.7,5,9.7z"/></g><g id="Path_backup"><path fill="#7D8299" d="M9,9.7c-0.1,0-0.3,0-0.4-0.1L4.4,5.4C4.3,5.3,4.3,5.1,4.3,5s0.1-0.3,0.1-0.4l4.2-4.2 c0.2-0.2,0.5-0.2,0.7,0s0.2,0.5,0,0.7L5.5,5l3.9,3.9c0.2,0.2,0.2,0.5,0,0.7C9.3,9.7,9.1,9.7,9,9.7z"/></g></g></g></svg>