<svg xmlns="http://www.w3.org/2000/svg" xmlns:xlink="http://www.w3.org/1999/xlink" id="Layer_1" x="0" y="0" enable-background="new 0 0 17 37" version="1.1" viewBox="0 0 17 37" xml:space="preserve"><title>datasheet_icon_addattachment</title><desc>Created with Sketch.</desc><g><path fill="#DADCE5" d="M8.5,22.5C8.8,22.5,9,22.3,9,22v-3h3c0.3,0,0.5-0.2,0.5-0.5S12.3,18,12,18H9v-3c0-0.3-0.2-0.5-0.5-0.5 S8,14.7,8,15v3H5c-0.3,0-0.5,0.2-0.5,0.5S4.7,19,5,19h3v3C8,22.3,8.2,22.5,8.5,22.5z"/><path fill="#DADCE5" d="M1,24.9c0.3,0,0.5-0.2,0.5-0.5v-2c0-0.3-0.2-0.5-0.5-0.5s-0.5,0.2-0.5,0.5v2C0.5,24.7,0.7,24.9,1,24.9z"/><path fill="#DADCE5" d="M1,28.9c0.3,0,0.5-0.2,0.5-0.5v-2c0-0.3-0.2-0.5-0.5-0.5s-0.5,0.2-0.5,0.5v2C0.5,28.7,0.7,28.9,1,28.9z"/><path fill="#DADCE5" d="M2.5,35.4c-0.5-0.2-0.8-0.6-0.9-1.1c-0.1-0.3-0.3-0.4-0.6-0.4c-0.3,0.1-0.4,0.3-0.4,0.6 c0.2,0.8,0.8,1.5,1.6,1.8c0.1,0,0.1,0,0.2,0c0.2,0,0.4-0.1,0.5-0.3C2.9,35.8,2.7,35.5,2.5,35.4z"/><path fill="#DADCE5" d="M1,32.9c0.3,0,0.5-0.2,0.5-0.5v-2c0-0.3-0.2-0.5-0.5-0.5s-0.5,0.2-0.5,0.5v2C0.5,32.7,0.7,32.9,1,32.9z"/><path fill="#DADCE5" d="M1,20.9c0.3,0,0.5-0.2,0.5-0.5v-2c0-0.3-0.2-0.5-0.5-0.5s-0.5,0.2-0.5,0.5v2C0.5,20.7,0.7,20.9,1,20.9z"/><path fill="#DADCE5" d="M11,1.5h2c0.3,0,0.5-0.2,0.5-0.5S13.3,0.5,13,0.5h-2c-0.3,0-0.5,0.2-0.5,0.5S10.7,1.5,11,1.5z"/><path fill="#DADCE5" d="M1,4.9c0.3,0,0.5-0.2,0.5-0.5V3c0-0.1,0-0.3,0.1-0.4C1.6,2.3,1.5,2,1.2,2C1,1.9,0.7,2,0.6,2.3 C0.5,2.5,0.5,2.8,0.5,3v1.4C0.5,4.7,0.7,4.9,1,4.9z"/><path fill="#DADCE5" d="M1,16.9c0.3,0,0.5-0.2,0.5-0.5v-2c0-0.3-0.2-0.5-0.5-0.5s-0.5,0.2-0.5,0.5v2C0.5,16.7,0.7,16.9,1,16.9z"/><path fill="#DADCE5" d="M7,1.5h2c0.3,0,0.5-0.2,0.5-0.5S9.3,0.5,9,0.5H7C6.7,0.5,6.5,0.7,6.5,1S6.7,1.5,7,1.5z"/><path fill="#DADCE5" d="M1,8.9c0.3,0,0.5-0.2,0.5-0.5v-2c0-0.3-0.2-0.5-0.5-0.5S0.5,6.2,0.5,6.4v2C0.5,8.7,0.7,8.9,1,8.9z"/><path fill="#DADCE5" d="M1,12.9c0.3,0,0.5-0.2,0.5-0.5v-2c0-0.3-0.2-0.5-0.5-0.5s-0.5,0.2-0.5,0.5v2C0.5,12.7,0.7,12.9,1,12.9z"/><path fill="#DADCE5" d="M5.5,1c0-0.3-0.2-0.5-0.5-0.5H3c-0.2,0-0.5,0-0.7,0.1C2,0.7,1.9,1,2,1.2C2,1.4,2.2,1.6,2.4,1.6 c0,0,0.1,0,0.1,0c0.1,0,0.3-0.1,0.4-0.1h2C5.3,1.5,5.5,1.3,5.5,1z"/><path fill="#DADCE5" d="M16,16.4c-0.3,0-0.5,0.2-0.5,0.5v2c0,0.3,0.2,0.5,0.5,0.5s0.5-0.2,0.5-0.5v-2C16.5,16.6,16.3,16.4,16,16.4z"/><path fill="#DADCE5" d="M16,24.4c-0.3,0-0.5,0.2-0.5,0.5v2c0,0.3,0.2,0.5,0.5,0.5s0.5-0.2,0.5-0.5v-2C16.5,24.6,16.3,24.4,16,24.4z"/><path fill="#DADCE5" d="M16,20.4c-0.3,0-0.5,0.2-0.5,0.5v2c0,0.3,0.2,0.5,0.5,0.5s0.5-0.2,0.5-0.5v-2C16.5,20.6,16.3,20.4,16,20.4z"/><path fill="#DADCE5" d="M16,12.4c-0.3,0-0.5,0.2-0.5,0.5v2c0,0.3,0.2,0.5,0.5,0.5s0.5-0.2,0.5-0.5v-2C16.5,12.6,16.3,12.4,16,12.4z"/><path fill="#DADCE5" d="M16,8.4c-0.3,0-0.5,0.2-0.5,0.5v2c0,0.3,0.2,0.5,0.5,0.5s0.5-0.2,0.5-0.5v-2C16.5,8.6,16.3,8.4,16,8.4z"/><path fill="#DADCE5" d="M16,4.4c-0.3,0-0.5,0.2-0.5,0.5v2c0,0.3,0.2,0.5,0.5,0.5s0.5-0.2,0.5-0.5v-2C16.5,4.6,16.3,4.4,16,4.4z"/><path fill="#DADCE5" d="M6.3,35.5h-2c-0.3,0-0.5,0.2-0.5,0.5s0.2,0.5,0.5,0.5h2c0.3,0,0.5-0.2,0.5-0.5S6.6,35.5,6.3,35.5z"/><path fill="#DADCE5" d="M14.2,35.5c-0.1,0-0.1,0-0.2,0h-1.7c-0.3,0-0.5,0.2-0.5,0.5s0.2,0.5,0.5,0.5H14c0.1,0,0.2,0,0.4,0 c0.3,0,0.5-0.3,0.4-0.6C14.7,35.6,14.5,35.5,14.2,35.5z"/><path fill="#DADCE5" d="M10.3,35.5h-2c-0.3,0-0.5,0.2-0.5,0.5s0.2,0.5,0.5,0.5h2c0.3,0,0.5-0.2,0.5-0.5S10.6,35.5,10.3,35.5z"/><path fill="#DADCE5" d="M16,3.4C16,3.4,16,3.4,16,3.4c0.3,0,0.5-0.3,0.5-0.5c-0.1-0.9-0.5-1.6-1.3-2c-0.2-0.1-0.5,0-0.7,0.2 c-0.1,0.2,0,0.5,0.2,0.7c0.5,0.2,0.7,0.7,0.8,1.2C15.5,3.2,15.7,3.4,16,3.4z"/><path fill="#DADCE5" d="M16,28.4c-0.3,0-0.5,0.2-0.5,0.5v2c0,0.3,0.2,0.5,0.5,0.5s0.5-0.2,0.5-0.5v-2C16.5,28.6,16.3,28.4,16,28.4z"/><path fill="#DADCE5" d="M16,32.4c-0.3,0-0.5,0.2-0.5,0.5V34c0,0.2,0,0.4-0.1,0.6c-0.1,0.3,0,0.5,0.2,0.7c0.1,0,0.1,0,0.2,0 c0.2,0,0.4-0.1,0.5-0.3c0.1-0.3,0.2-0.7,0.2-1v-1.1C16.5,32.6,16.3,32.4,16,32.4z"/></g></svg>