<svg xmlns="http://www.w3.org/2000/svg" xmlns:xlink="http://www.w3.org/1999/xlink" id="Layer_1" x="0" y="0" enable-background="new 0 0 15 15" version="1.1" viewBox="0 0 15 15" xml:space="preserve"><title>icon/datasheet_icon_calendar_yearplus</title><desc>Created with Sketch.</desc><g id="icon_x2F_datasheet_x5F_icon_x5F_calendar_x5F_yearplus"><g id="Group" transform="translate(1.000000, 2.500000)"><g id="Path"><path fill="#7D8299" d="M9,9.7c-0.1,0-0.3,0-0.4-0.1c-0.2-0.2-0.2-0.5,0-0.7L12.5,5L8.6,1.1c-0.2-0.2-0.2-0.5,0-0.7 s0.5-0.2,0.7,0l4.2,4.2c0.2,0.2,0.2,0.5,0,0.7L9.4,9.6C9.3,9.7,9.1,9.7,9,9.7z"/></g><g id="Path_backup"><path fill="#7D8299" d="M5,9.7c-0.1,0-0.3,0-0.4-0.1c-0.2-0.2-0.2-0.5,0-0.7L8.5,5L4.6,1.1c-0.2-0.2-0.2-0.5,0-0.7s0.5-0.2,0.7,0 l4.2,4.2c0.2,0.2,0.2,0.5,0,0.7L5.4,9.6C5.3,9.7,5.1,9.7,5,9.7z"/></g></g></g></svg>