<svg xmlns="http://www.w3.org/2000/svg" xmlns:xlink="http://www.w3.org/1999/xlink" id="Layer_1" x="0" y="0" enable-background="new 0 0 16 16" version="1.1" viewBox="0 0 16 16" xml:space="preserve"><path d="M4.9,8.8v3.4c0,1.6,1.3,2.8,2.8,2.8h3.5c1.6,0,2.8-1.2,2.8-2.7V8.8C14,7.2,12.8,6,11.2,6H7.8C6.2,6,5,7.2,4.9,8.8z M6.5,8.8	c0-0.6,0.5-1.2,1.2-1.2h3.5c0.6,0,1.2,0.5,1.2,1.2v3.4c0,0.6-0.5,1.2-1.2,1.2H7.7c-0.6,0-1.2-0.5-1.2-1.2V8.8z"/><path fill="#020101" d="M12.3,2.2c0.1-0.2,0-0.3,0-0.3L9.9,0.3H9.8c-0.1,0-0.2,0.1-0.2,0.2v0.8c-0.2,0-0.4,0-0.6,0	c-0.4,0-0.7,0.4-0.6,0.8c0,0.4,0.3,0.7,0.7,0.7h0.1c0.1,0,0.3,0,0.4,0v0.8v0.1c0.1,0.1,0.2,0.2,0.3,0.1L12.3,2.2z"/><path d="M2.5,8.6c0.1,0,0.1,0,0.2,0C3,8.6,3.3,8.3,3.4,8c0.1-0.3,0.2-0.6,0.3-0.9c0.2-0.4,0-0.8-0.4-1c-0.4-0.2-0.8,0-1,0.4	C2.2,6.9,2.1,7.2,2,7.6C1.9,8,2.1,8.4,2.5,8.6z"/><path fill="#020101" d="M7.8,2.3c-0.2-0.4-0.6-0.6-1-0.4C6.5,2,6.1,2.2,5.9,2.4C5.5,2.6,5.4,3,5.6,3.4c0.1,0.3,0.3,0.4,0.6,0.4	c0.1,0,0.3,0,0.4-0.1c0.3-0.1,0.5-0.3,0.8-0.4C7.8,3.1,7.9,2.7,7.8,2.3z"/><path d="M3.6,5.8C3.7,5.9,3.8,5.9,4,5.9c0.2,0,0.5-0.1,0.6-0.3C4.8,5.3,5,5.1,5.2,4.9c0.3-0.3,0.3-0.8,0-1.1c-0.3-0.3-0.8-0.3-1.1,0	C3.9,4,3.6,4.3,3.4,4.6C3.1,4.9,3.2,5.4,3.6,5.8z"/></svg>