<svg xmlns="http://www.w3.org/2000/svg" xmlns:xlink="http://www.w3.org/1999/xlink" id="Layer_1" x="0" y="0" enable-background="new 0 0 16 16" version="1.1" viewBox="0 0 16 16" xml:space="preserve"><g><path fill="#828282" d="M3,12.8h10c0.4,0,0.8-0.3,0.8-0.8v-2c0-3.2-2.6-5.7-5.8-5.7c-3.2,0-5.8,2.6-5.8,5.7v2 C2.2,12.5,2.6,12.8,3,12.8z M3.8,10.1c0-2.3,1.9-4.2,4.2-4.2c2.3,0,4.2,1.9,4.2,4.2v1.2H3.8V10.1z"/><path fill="#828282" d="M13.2,13.3H2.8C2.3,13.3,2,13.6,2,14s0.3,0.8,0.8,0.8h10.5c0.4,0,0.8-0.3,0.8-0.8S13.7,13.3,13.2,13.3z"/><path fill="#828282" d="M5.2,4.2c0.1,0.1,0.3,0.2,0.5,0.2s0.4-0.1,0.5-0.2c0.3-0.3,0.3-0.8,0-1.1L5.2,2.1c-0.3-0.3-0.8-0.3-1.1,0 s-0.3,0.8,0,1.1L5.2,4.2z"/><path fill="#828282" d="M10.3,4.4c0.2,0,0.4-0.1,0.5-0.2l1.1-1.1c0.3-0.3,0.3-0.8,0-1.1s-0.8-0.3-1.1,0L9.8,3.1 c-0.3,0.3-0.3,0.8,0,1.1C9.9,4.3,10.1,4.4,10.3,4.4z"/><path fill="#828282" d="M8,4.1c0.4,0,0.8-0.3,0.8-0.8V1.9c0-0.4-0.3-0.8-0.8-0.8S7.2,1.4,7.2,1.9v1.5C7.2,3.8,7.6,4.1,8,4.1z"/></g></svg>