<?xml version="1.0" encoding="utf-8"?>
<!-- Generator: Adobe Illustrator 24.0.0, SVG Export Plug-In . SVG Version: 6.00 Build 0)  -->
<svg version="1.1" id="图层_1" xmlns="http://www.w3.org/2000/svg" xmlns:xlink="http://www.w3.org/1999/xlink" x="0px" y="0px"
	 viewBox="0 0 15 15" style="enable-background:new 0 0 15 15;" xml:space="preserve">
<style type="text/css">
	.st0{fill:#FFFFFF;}
</style>
<title>datasheet_icon_exit</title>
<desc>Created with Sketch.</desc>
<path class="st0" d="M8.9,7.5l5.3-5.3c0.4-0.4,0.4-1,0-1.4s-1-0.4-1.4,0L7.5,6.1L2.2,0.8c-0.4-0.4-1-0.4-1.4,0s-0.4,1,0,1.4l5.3,5.3
	l-5.3,5.3c-0.4,0.4-0.4,1,0,1.4c0.2,0.2,0.5,0.3,0.7,0.3s0.5-0.1,0.7-0.3l5.3-5.3l5.3,5.3c0.2,0.2,0.5,0.3,0.7,0.3s0.5-0.1,0.7-0.3
	c0.4-0.4,0.4-1,0-1.4L8.9,7.5z"/>
</svg>
