<?xml version="1.0" encoding="utf-8"?>
<!-- Generator: Adobe Illustrator 24.1.0, SVG Export Plug-In . SVG Version: 6.00 Build 0)  -->
<svg version="1.1" id="Layer_1" xmlns="http://www.w3.org/2000/svg" xmlns:xlink="http://www.w3.org/1999/xlink" x="0px" y="0px"
	 viewBox="0 0 16 16" enable-background="new 0 0 16 16" xml:space="preserve">
<g>
	<path fill="#7D8299" d="M6,8.6l-2,2V9.8c0-0.6-0.4-1-1-1s-1,0.4-1,1V13c0,0.6,0.4,1,1,1h3.2c0.6,0,1-0.4,1-1s-0.4-1-1-1H5.4l2-2
		c0.4-0.4,0.4-1,0-1.4C7,8.2,6.4,8.2,6,8.6z"/>
	<path fill="#7D8299" d="M13,2H9.8c-0.6,0-1,0.4-1,1s0.4,1,1,1h0.8l-2,2c-0.4,0.4-0.4,1,0,1.4c0.4,0.4,1,0.4,1.4,0l2-2v0.8
		c0,0.6,0.4,1,1,1s1-0.4,1-1V3C14,2.4,13.6,2,13,2z"/>
</g>
</svg>
