<svg xmlns="http://www.w3.org/2000/svg" xmlns:xlink="http://www.w3.org/1999/xlink" id="Layer_1" x="0" y="0" enable-background="new 0 0 16 16" version="1.1" viewBox="0 0 16 16" xml:space="preserve"><g><path fill="#7D8299" d="M6,1H2C1.4,1,1,1.4,1,2v12c0,0.6,0.4,1,1,1h4c0.6,0,1-0.4,1-1V2C7,1.4,6.6,1,6,1z M5,13H3V3h2V13z"/><path fill="#7D8299" d="M14,1H9C8.4,1,8,1.4,8,2v4.5c0,0.6,0.4,1,1,1h5c0.6,0,1-0.4,1-1V2C15,1.4,14.6,1,14,1z M13,5.5h-3V3h3V5.5z"/><path fill="#7D8299" d="M14,8.5H9c-0.6,0-1,0.4-1,1V14c0,0.6,0.4,1,1,1h5c0.6,0,1-0.4,1-1V9.5C15,8.9,14.6,8.5,14,8.5z M13,13h-3 v-2.5h3V13z"/></g></svg>