<svg xmlns="http://www.w3.org/2000/svg" xmlns:xlink="http://www.w3.org/1999/xlink" id="Layer_1" x="0" y="0" enable-background="new 0 0 24 24" version="1.1" viewBox="0 0 24 24" xml:space="preserve"><desc>Created with Sketch.</desc><path fill="#575E7B" d="M21.4,17.3l-0.9-1.9c-0.3-0.6-0.5-1.2-0.5-1.8l-0.7-6.1c-0.4-3.6-3.5-6.3-7.1-6.3h-0.3	c-3.6,0-6.7,2.7-7.1,6.3l-0.7,6.1c-0.1,0.6-0.2,1.2-0.5,1.8l-0.9,1.9c-0.1,0.3-0.1,0.6,0,0.9c0.2,0.3,0.5,0.4,0.8,0.4h4.9v0.2	c0,2,1.7,3.7,3.7,3.7c2,0,3.7-1.7,3.7-3.7v-0.2h4.9c0.3,0,0.6-0.2,0.8-0.4C21.6,17.9,21.6,17.6,21.4,17.3z M14,18.8	c0,1.1-0.9,1.9-1.9,1.9c-1.1,0-1.9-0.9-1.9-1.9v-0.2H14V18.8z M5,16.8l0.3-0.6c0.4-0.8,0.6-1.6,0.7-2.4l0.7-6.1C6.9,5,9.2,3,11.9,3	h0.3c2.7,0,5,2,5.3,4.7l0.7,6.1c0.1,0.8,0.3,1.6,0.7,2.4l0.3,0.6H5z"/></svg>