<?xml version="1.0" encoding="utf-8"?>
<!-- Generator: Adobe Illustrator 24.1.0, SVG Export Plug-In . SVG Version: 6.00 Build 0)  -->
<svg version="1.1" id="图层_1" xmlns="http://www.w3.org/2000/svg" xmlns:xlink="http://www.w3.org/1999/xlink" x="0px" y="0px"
	 viewBox="0 0 24 24" enable-background="new 0 0 24 24" xml:space="preserve">
<g>
	<path fill-rule="evenodd" clip-rule="evenodd" fill="#666666" d="M18.7,5.3c-0.4-0.4-1-0.4-1.4,0L14,8.6V7l0-0.1
		C13.9,6.4,13.5,6,13,6c-0.6,0-1,0.4-1,1v4l0,0.1c0.1,0.5,0.5,0.9,1,0.9h4l0.1,0c0.5-0.1,0.9-0.5,0.9-1l0-0.1
		c-0.1-0.5-0.5-0.9-1-0.9h-1.6l3.3-3.3C19.1,6.3,19.1,5.7,18.7,5.3z"/>
	<path fill-rule="evenodd" clip-rule="evenodd" fill="#666666" d="M11,12H7l-0.1,0C6.4,12.1,6,12.5,6,13l0,0.1C6.1,13.6,6.5,14,7,14
		h1.6l-3.3,3.3c-0.4,0.4-0.4,1,0,1.4c0.4,0.4,1,0.4,1.4,0l3.3-3.3V17l0,0.1c0.1,0.5,0.5,0.9,1,0.9c0.6,0,1-0.4,1-1v-4l0-0.1
		C11.9,12.4,11.5,12,11,12z"/>
</g>
</svg>
