<svg xmlns="http://www.w3.org/2000/svg" xmlns:xlink="http://www.w3.org/1999/xlink" id="Layer_1" x="0" y="0" version="1.1" viewBox="0 0 23 23" style="enable-background:new 0 0 23 23" xml:space="preserve"><style type="text/css">.st0{fill-rule:evenodd;clip-rule:evenodd;fill:#575e7b}</style><title>datasheet_icon_attachment_close</title><desc>Created with Sketch.</desc><path d="M11.5,0C5.1,0,0,5.1,0,11.5S5.1,23,11.5,23S23,17.9,23,11.5S17.9,0,11.5,0z M15.9,14.9c0.3,0.3,0.3,0.8,0,1.1	c-0.1,0.1-0.3,0.2-0.5,0.2s-0.4-0.1-0.5-0.2l-3.4-3.4l-3.4,3.4c-0.1,0.1-0.3,0.2-0.5,0.2s-0.4-0.1-0.5-0.2c-0.3-0.3-0.3-0.8,0-1.1	l3.4-3.4L7.1,8.1c-0.3-0.3-0.3-0.8,0-1.1s0.8-0.3,1.1,0l3.4,3.4l3.4-3.4c0.3-0.3,0.8-0.3,1.1,0s0.3,0.8,0,1.1l-3.4,3.4L15.9,14.9z" class="st0"/></svg>