<svg xmlns="http://www.w3.org/2000/svg" xmlns:xlink="http://www.w3.org/1999/xlink" id="Layer_1" x="0" y="0" enable-background="new 0 0 16 16" version="1.1" viewBox="0 0 16 16" xml:space="preserve"><title>datasheet_icon_checkbox_normal</title><desc>Created with Sketch.</desc><g id="Page-1"><g id="datasheet" transform="translate(-47.000000, -929.000000)"><g id="icon_x2F_checkbox_x5F_normal" transform="translate(47.000000, 929.000000)"><g id="datasheet_icon_checkbox_normal" transform="translate(2.000000, 2.000000)"><g id="datasheet_icon_checkbox"><g id="Rect"><path fill="#7D8299" d="M10.5,12.3h-9c-1,0-1.8-0.8-1.8-1.8v-9c0-1,0.8-1.8,1.8-1.8h9c1,0,1.8,0.8,1.8,1.8v9 C12.2,11.5,11.5,12.3,10.5,12.3z M1.5,1.3c-0.1,0-0.2,0.1-0.2,0.2v9c0,0.1,0.1,0.2,0.2,0.2h9c0.1,0,0.2-0.1,0.2-0.2v-9 c0-0.1-0.1-0.2-0.2-0.2H1.5z"/></g></g></g></g></g></g></svg>