<svg xmlns="http://www.w3.org/2000/svg" xmlns:xlink="http://www.w3.org/1999/xlink" id="Layer_1" x="0" y="0" enable-background="new 0 0 15 15" version="1.1" viewBox="0 0 15 15" xml:space="preserve"><title>datasheet_icon_lower</title><desc>Created with Sketch.</desc><path fill="#2B68FF" d="M5.8,6.8H13c0.4,0,0.8-0.3,0.8-0.8V2c0-0.4-0.3-0.8-0.8-0.8H2C1.6,1.2,1.2,1.6,1.2,2v4	c0,0.4,0.3,0.8,0.8,0.8h2.2v4.8c0,0.4,0.3,0.8,0.8,0.8h3.2V13c0,0.4,0.3,0.8,0.8,0.8h4c0.4,0,0.8-0.3,0.8-0.8V9	c0-0.4-0.3-0.8-0.8-0.8H9C8.6,8.2,8.2,8.6,8.2,9v1.8H5.8V6.8z M2.8,2.8h9.5v2.5H2.8V2.8z M9.8,9.8h2.5v2.5H9.8V9.8z"/></svg>