<svg xmlns="http://www.w3.org/2000/svg" xmlns:xlink="http://www.w3.org/1999/xlink" id="Layer_1" x="0" y="0" enable-background="new 0 0 24 24" version="1.1" viewBox="0 0 24 24" xml:space="preserve"><g><path fill="#7B67EE" fill-rule="evenodd" d="M16.9,9.3c-0.3,0-0.6,0-0.9,0.1C14.9,6.7,12.2,5,9.2,5 c-0.6,0-1,0.4-1,1s0.4,1,1,1c2.5,0,4.6,1.6,5.2,3.8c0.1,0.3,0.3,0.5,0.5,0.6c0.3,0.1,0.6,0.1,0.8,0c0.4-0.1,0.8-0.2,1.2-0.2 c1.7,0,3,1.3,3,2.9s-1.4,2.9-3,2.9H9.2c-2.6,0-4.8-1.8-5.2-4.2c-0.1-0.5-0.6-0.9-1.2-0.8c-0.5,0.1-0.9,0.6-0.8,1.2 C2.6,16.5,5.6,19,9.2,19h7.7c2.8,0,5-2.2,5-4.9C21.9,11.5,19.6,9.3,16.9,9.3z" clip-rule="evenodd"/><path fill="#7B67EE" fill-rule="evenodd" d="M2.2,8.3c0.1,0,0.1,0,0.2,0c0.2,0,0.4-0.1,0.5-0.3 C3,7.2,3.7,6.8,4.5,6.8c0.5,0,0.9,0.2,1.2,0.5L5.2,7.8c-0.1,0.1,0,0.2,0.1,0.2h1.6C7,7.9,7,7.9,7,7.8V6.2c0-0.1-0.1-0.1-0.2-0.1 L6.4,6.6c-0.5-0.5-1.2-0.8-2-0.8c-1.2,0-2.2,0.8-2.6,1.9C1.8,7.9,1.9,8.2,2.2,8.3z" clip-rule="evenodd"/><path fill="#7B67EE" fill-rule="evenodd" d="M2.5,10.4c0.5,0.5,1.2,0.9,2,0.9c1.2,0,2.2-0.8,2.6-1.9 C7.2,9.2,7,8.9,6.8,8.8C6.5,8.7,6.2,8.8,6.1,9.1c-0.2,0.7-0.9,1.2-1.7,1.2c-0.5,0-0.9-0.2-1.3-0.6l0.5-0.5c0.1-0.1,0-0.2-0.1-0.2H2 c-0.1,0-0.1,0-0.1,0.1v1.6c0,0.1,0.1,0.1,0.2,0.1L2.5,10.4z" clip-rule="evenodd"/></g></svg>