<svg xmlns="http://www.w3.org/2000/svg" xmlns:xlink="http://www.w3.org/1999/xlink" id="Layer_1" x="0" y="0" enable-background="new 0 0 12 12" version="1.1" viewBox="0 0 12 12" xml:space="preserve"><path fill="#8E8E8E" d="M7.8,6.4C8.5,5.8,9,5,9,4c0-1.7-1.3-3-3-3S3,2.3,3,4c0,1,0.5,1.8,1.2,2.4c-1.7,0.7-2.9,2.2-3,4.1	c0,0.3,0.2,0.5,0.5,0.5c0,0,0,0,0,0c0.3,0,0.5-0.2,0.5-0.5C2.3,8.5,4,7,6,7s3.7,1.5,3.9,3.5c0,0.3,0.3,0.5,0.5,0.5	c0.3,0,0.5-0.3,0.5-0.5C10.7,8.6,9.5,7,7.8,6.4z M4,4c0-1.1,0.9-2,2-2c1.1,0,2,0.9,2,2S7.1,6,6,6C4.9,6,4,5.1,4,4z"/></svg>