<?xml version="1.0" encoding="utf-8"?>
<!-- Generator: Adobe Illustrator 24.0.0, SVG Export Plug-In . SVG Version: 6.00 Build 0)  -->
<svg version="1.1" id="Layer_1" xmlns="http://www.w3.org/2000/svg" xmlns:xlink="http://www.w3.org/1999/xlink" x="0px" y="0px"
	 viewBox="0 0 16 16" enable-background="new 0 0 16 16" xml:space="preserve">
<path fill="#666666" d="M14,1H2C1.4,1,1,1.4,1,2v12c0,0.6,0.4,1,1,1h4c0.6,0,1-0.4,1-1v-3h3c0.6,0,1-0.4,1-1V7h3c0.6,0,1-0.4,1-1V2
	C15,1.4,14.6,1,14,1z M3,7h2v2H3V7z M3,5V3h2v2H3z M7,3h2v2H7V3z M5,13H3v-2h2V13z M9,9H7V7h2V9z M11,3h2v2h-2V3z"/>
</svg>
