<svg xmlns="http://www.w3.org/2000/svg" xmlns:xlink="http://www.w3.org/1999/xlink" id="Layer_1" x="0" y="0" enable-background="new 0 0 16 16" version="1.1" viewBox="0 0 16 16" xml:space="preserve"><g><path fill="#CCC" d="M14.7,4.3l-2.2-3.5C12.2,0.3,11.7,0,11.1,0H2.7C1.7,0,1,0.7,1,1.7v12.7C1,15.3,1.7,16,2.7,16h10.7 c0.9,0,1.7-0.7,1.7-1.7V5.2C15,4.9,14.9,4.6,14.7,4.3z M12.2,4H11V2.1L12.2,4z M13,14H3V2h6v2.3C9,5.3,9.7,6,10.7,6H13V14z"/><path fill="#CCC" d="M9,8V7c0-0.6-0.4-1-1-1S7,6.4,7,7v1H6C5.4,8,5,8.4,5,9s0.4,1,1,1h1v1c0,0.6,0.4,1,1,1s1-0.4,1-1v-1h1 c0.6,0,1-0.4,1-1s-0.4-1-1-1H9z"/></g></svg>