<svg xmlns="http://www.w3.org/2000/svg" xmlns:xlink="http://www.w3.org/1999/xlink" id="Layer_1" x="0" y="0" version="1.1" viewBox="0 0 120 120" style="enable-background:new 0 0 120 120" xml:space="preserve"><style type="text/css">.st0{fill-rule:evenodd;clip-rule:evenodd;fill:#e1e2e9}</style><title>datasheet_icon_attachment_add</title><desc>Created with Sketch.</desc><g><path d="M1.2,118.7l-1.5,1.3c0.6,0.7,1.4,1,2.3,1h2.3v-2H2C1.7,119,1.4,118.9,1.2,118.7z" class="st0"/><rect width="4" height="2" x="2" y="-1" class="st0"/><rect width="2" height="4" x="-1" y="111.4" class="st0"/><rect width="2" height="4" x="-1" y="103.4" class="st0"/><rect width="2" height="4" x="-1" y="87.4" class="st0"/><rect width="4" height="2" x="8.3" y="119" class="st0"/><rect width="2" height="4" x="-1" y="95.4" class="st0"/><rect width="4" height="2" x="10" y="-1" class="st0"/><rect width="4" height="2" x="32.3" y="119" class="st0"/><rect width="4" height="2" x="26" y="-1" class="st0"/><rect width="4" height="2" x="34" y="-1" class="st0"/><rect width="2" height="4" x="-1" y="79.4" class="st0"/><rect width="4" height="2" x="16.3" y="119" class="st0"/><rect width="4" height="2" x="18" y="-1" class="st0"/><rect width="4" height="2" x="24.3" y="119" class="st0"/><rect width="2" height="4" x="-1" y="39.4" class="st0"/><rect width="2" height="4" x="-1" y="71.4" class="st0"/><rect width="2" height="4" x="-1" y="7.4" class="st0"/><rect width="4" height="2" x="50" y="-1" class="st0"/><path d="M1,2c0-0.4,0.3-0.8,0.7-1L1.2-0.9C-0.1-0.5-1,0.7-1,2v1.4h2V2z" class="st0"/><rect width="4" height="2" x="74" y="-1" class="st0"/><rect width="4" height="2" x="66" y="-1" class="st0"/><rect width="4" height="2" x="58" y="-1" class="st0"/><rect width="4" height="2" x="42" y="-1" class="st0"/><rect width="2" height="4" x="-1" y="47.4" class="st0"/><rect width="2" height="4" x="-1" y="55.4" class="st0"/><rect width="2" height="4" x="-1" y="63.4" class="st0"/><rect width="2" height="4" x="-1" y="31.4" class="st0"/><rect width="4" height="2" x="40.3" y="119" class="st0"/><rect width="2" height="4" x="-1" y="15.4" class="st0"/><rect width="2" height="4" x="-1" y="23.4" class="st0"/><rect width="2" height="4" x="119" y="82.9" class="st0"/><rect width="2" height="4" x="119" y="74.9" class="st0"/><rect width="2" height="4" x="119" y="58.9" class="st0"/><rect width="2" height="4" x="119" y="66.9" class="st0"/><rect width="2" height="4" x="119" y="106.9" class="st0"/><rect width="4" height="2" x="48.3" y="119" class="st0"/><path d="M119,118c0,0.1,0,0.3-0.1,0.4l1.8,0.8c0.2-0.4,0.3-0.8,0.3-1.2v-3.1h-2V118z" class="st0"/><rect width="2" height="4" x="119" y="90.9" class="st0"/><rect width="2" height="4" x="119" y="10.9" class="st0"/><rect width="2" height="4" x="119" y="50.9" class="st0"/><rect width="2" height="4" x="119" y="2.9" class="st0"/><rect width="2" height="4" x="119" y="18.9" class="st0"/><rect width="2" height="4" x="119" y="26.9" class="st0"/><rect width="2" height="4" x="119" y="42.9" class="st0"/><rect width="2" height="4" x="119" y="34.9" class="st0"/><rect width="2" height="4" x="119" y="98.9" class="st0"/><rect width="4" height="2" x="80.3" y="119" class="st0"/><rect width="4" height="2" x="88.3" y="119" class="st0"/><rect width="4" height="2" x="82" y="-1" class="st0"/><rect width="4" height="2" x="72.3" y="119" class="st0"/><rect width="4" height="2" x="64.3" y="119" class="st0"/><rect width="4" height="2" x="56.3" y="119" class="st0"/><rect width="4" height="2" x="96.3" y="119" class="st0"/><rect width="4" height="2" x="104.3" y="119" class="st0"/><rect width="4" height="2" x="112.3" y="119" class="st0"/><rect width="4" height="2" x="90" y="-1" class="st0"/><rect width="4" height="2" x="106" y="-1" class="st0"/><rect width="4" height="2" x="98" y="-1" class="st0"/><rect width="4" height="2" x="114" y="-1" class="st0"/><path d="M79,59H61V41c0-0.6-0.4-1-1-1s-1,0.4-1,1v18H41c-0.6,0-1,0.4-1,1s0.4,1,1,1h18v18c0,0.6,0.4,1,1,1s1-0.4,1-1 V61h18c0.6,0,1-0.4,1-1S79.6,59,79,59z" class="st0"/></g></svg>