<svg xmlns="http://www.w3.org/2000/svg" xmlns:xlink="http://www.w3.org/1999/xlink" id="Layer_1" x="0" y="0" enable-background="new 0 0 16 16" version="1.1" viewBox="0 0 16 16" xml:space="preserve"><g><path fill="#FFF" d="M6.5,8.5H3c-0.6,0-1,0.4-1,1s0.4,1,1,1h1.1l-2.8,2.8c-0.4,0.4-0.4,1,0,1.4C1.5,14.9,1.7,15,2,15 s0.5-0.1,0.7-0.3l2.8-2.8V13c0,0.6,0.4,1,1,1s1-0.4,1-1V9.5C7.5,8.9,7.1,8.5,6.5,8.5z"/><path fill="#FFF" d="M14.7,1.3c-0.4-0.4-1-0.4-1.4,0l-2.8,2.8V3c0-0.6-0.4-1-1-1s-1,0.4-1,1v3.5c0,0.6,0.4,1,1,1H13 c0.6,0,1-0.4,1-1s-0.4-1-1-1h-1.1l2.8-2.8C15.1,2.3,15.1,1.7,14.7,1.3z"/></g></svg>