<?xml version="1.0" encoding="utf-8"?>
<!-- Generator: Adobe Illustrator 22.0.1, SVG Export Plug-In . SVG Version: 6.00 Build 0)  -->
<svg version="1.1" id="Layer_1" xmlns="http://www.w3.org/2000/svg" xmlns:xlink="http://www.w3.org/1999/xlink" x="0px" y="0px"
	 viewBox="0 0 16 16" enable-background="new 0 0 16 16" xml:space="preserve">
<title>datasheet_icon_upload</title>
<desc>Created with Sketch.</desc>
<g>
	<path fill="#7D8299" d="M5.9,6.4h1.4v5.3c0,0.4,0.3,0.8,0.8,0.8s0.8-0.3,0.8-0.8V6.4h1.4c0.1,0,0.2,0,0.3-0.1
		c0.2-0.2,0.3-0.5,0.1-0.7L8.4,2.7c0,0-0.1-0.1-0.1-0.1C8.1,2.4,7.8,2.5,7.6,2.7L5.4,5.5C5.4,5.6,5.3,5.8,5.3,5.9
		C5.3,6.2,5.6,6.4,5.9,6.4z"/>
	<path fill="#7D8299" d="M13.3,13.7H2.7c-0.4,0-0.8,0.3-0.8,0.8s0.3,0.8,0.8,0.8h10.7c0.4,0,0.8-0.3,0.8-0.8S13.7,13.7,13.3,13.7z"
		/>
</g>
</svg>
