<?xml version="1.0" encoding="utf-8"?>
<!-- Generator: Adobe Illustrator 24.1.0, SVG Export Plug-In . SVG Version: 6.00 Build 0)  -->
<svg version="1.1" id="Layer_1" xmlns="http://www.w3.org/2000/svg" xmlns:xlink="http://www.w3.org/1999/xlink" x="0px" y="0px"
	 viewBox="0 0 16 16" enable-background="new 0 0 16 16" xml:space="preserve">
<desc>Created with Sketch.</desc>
<g id="Page-1">
	<g id="Board" transform="translate(-112.000000, -93.000000)">
		<g id="_x32_.Icon_x2F_Catalogue_x2F_Folder_x2F_Unfold" transform="translate(112.000000, 93.000000)">
			
				<path id="Rect_Backup" opacity="0.3048" fill-rule="evenodd" clip-rule="evenodd" fill="#929292" enable-background="new    " d="
				M1.1,2.5h2.4c0.2,0,0.5,0.1,0.6,0.2l1,0.8l0,0h5.5c0.5,0,0.9,0.4,1,0.9l1.2,9.4c0.1,0.5-0.3,1-0.9,1.1c0,0-0.1,0-0.1,0H2.4
				c-0.5,0-0.9-0.4-1-0.9L0.1,3.6C0.1,3.1,0.5,2.6,1,2.5C1,2.5,1.1,2.5,1.1,2.5z"/>
			<path id="Rect" fill-rule="evenodd" clip-rule="evenodd" fill="#929292" d="M4.7,5h9.9c0.6,0,1,0.4,1,1c0,0.1,0,0.2,0,0.3
				l-2.4,8c-0.1,0.4-0.5,0.7-1,0.7H2.3c-0.6,0-1-0.4-1-1c0-0.1,0-0.2,0-0.3l2.4-8C3.9,5.3,4.3,5,4.7,5z"/>
		</g>
	</g>
</g>
</svg>
