<svg xmlns="http://www.w3.org/2000/svg" xmlns:xlink="http://www.w3.org/1999/xlink" id="Layer_1" x="0" y="0" enable-background="new 0 0 15 15" version="1.1" viewBox="0 0 15 15" xml:space="preserve"><title>datasheet_icon_lock</title><desc>Created with Sketch.</desc><g><path fill="#7D8299" d="M12,5.2h-1.2V4.5c0-1.8-1.5-3.2-3.2-3.2S4.2,2.7,4.2,4.5v0.8H3C2,5.2,1.2,6,1.2,7v5c0,1,0.8,1.8,1.8,1.8h9 c1,0,1.8-0.8,1.8-1.8V7C13.8,6,13,5.2,12,5.2z M5.8,4.5c0-1,0.8-1.8,1.8-1.8s1.8,0.8,1.8,1.8v0.8H5.8V4.5z M12.2,12 c0,0.1-0.1,0.2-0.2,0.2H3c-0.1,0-0.2-0.1-0.2-0.2V7c0-0.1,0.1-0.2,0.2-0.2h9c0.1,0,0.2,0.1,0.2,0.2V12z"/><path fill="#7D8299" d="M7.5,8.1c-0.4,0-0.8,0.3-0.8,0.8v1.3c0,0.4,0.3,0.8,0.8,0.8s0.8-0.3,0.8-0.8V8.9C8.2,8.5,7.9,8.1,7.5,8.1z"/></g></svg>