<?xml version="1.0" encoding="utf-8"?>
<!-- Generator: Adobe Illustrator 24.0.0, SVG Export Plug-In . SVG Version: 6.00 Build 0)  -->
<svg version="1.1" id="Layer_1" xmlns="http://www.w3.org/2000/svg" xmlns:xlink="http://www.w3.org/1999/xlink" x="0px" y="0px"
	 viewBox="0 0 16 16" enable-background="new 0 0 16 16" xml:space="preserve">
<title>datasheet_icon_emoji</title>
<desc>Created with Sketch.</desc>
<g>
	<path fill-rule="evenodd" clip-rule="evenodd" fill="#7D8299" d="M8,0.8C4,0.8,0.7,4,0.7,8c0,4,3.3,7.2,7.2,7.2S15.2,12,15.2,8
		C15.2,4,12,0.8,8,0.8z M8,13.8c-3.2,0-5.8-2.6-5.8-5.8c0-3.2,2.6-5.8,5.8-5.8s5.8,2.6,5.8,5.8C13.7,11.2,11.2,13.8,8,13.8z"/>
	<path fill-rule="evenodd" clip-rule="evenodd" fill="#7D8299" d="M11,8.6c-0.4-0.2-0.8,0-1,0.3c-0.4,0.8-1.2,1.3-2,1.3
		c-0.9,0-1.7-0.5-2-1.3C5.8,8.6,5.3,8.4,5,8.6c-0.4,0.2-0.5,0.6-0.4,1c0.6,1.3,1.9,2.1,3.4,2.1c1.4,0,2.8-0.8,3.4-2.1
		C11.6,9.3,11.4,8.8,11,8.6z"/>
	<circle fill-rule="evenodd" clip-rule="evenodd" fill="#7D8299" cx="5.8" cy="6.3" r="1"/>
	<circle fill-rule="evenodd" clip-rule="evenodd" fill="#7D8299" cx="10.3" cy="6.3" r="1"/>
</g>
</svg>
