<?xml version="1.0" encoding="utf-8"?>
<!-- Generator: Adobe Illustrator 24.0.0, SVG Export Plug-In . SVG Version: 6.00 Build 0)  -->
<svg version="1.1" id="Layer_1" xmlns="http://www.w3.org/2000/svg" xmlns:xlink="http://www.w3.org/1999/xlink" x="0px" y="0px"
	 viewBox="0 0 15 15" style="enable-background:new 0 0 15 15;" xml:space="preserve">
<style type="text/css">
	.st0{fill-rule:evenodd;clip-rule:evenodd;fill:#7D8299;}
</style>
<title>datasheet_icon_toward_right_gray</title>
<desc>Created with Sketch.</desc>
<path class="st0" d="M12.5,7.7c0-0.1-0.1-0.1-0.1-0.1L7.8,4.5C7.5,4.4,7.2,4.4,7.1,4.7C7,4.7,7,4.8,7,4.9V7H3C2.4,7,2,7.4,2,8
	c0,0.6,0.4,1,1,1h4v2.1c0,0.3,0.2,0.5,0.5,0.5c0.1,0,0.2,0,0.3-0.1l4.6-3.1C12.6,8.3,12.7,8,12.5,7.7z"/>
</svg>
