<svg xmlns="http://www.w3.org/2000/svg" xmlns:xlink="http://www.w3.org/1999/xlink" id="Layer_1" x="0" y="0" enable-background="new 0 0 600 450" version="1.1" viewBox="0 0 600 450" xml:space="preserve"><path fill="#ECECF0" fill-rule="evenodd" d="M399.9,271.2c-11.6-19.8-40.2-19.8-51.8,0l-40.2,68.7	c-14.6-21.8-47.4-21.2-60.9,1.8L218,391h60h60h114.6c7.7,0,12.5-8.4,8.6-15.1L399.9,271.2z" clip-rule="evenodd"/><g><path fill="#ECECF0" d="M438,411H86c-17.6,0-32-14.4-32-32V131c0-17.6,14.4-32,32-32h352c17.6,0,32,14.4,32,32v248 C470,396.6,455.6,411,438,411z M86,123c-4.4,0-8,3.6-8,8v248c0,4.4,3.6,8,8,8h352c4.4,0,8-3.6,8-8V131c0-4.4-3.6-8-8-8H86z"/></g><ellipse cx="133" cy="287" fill="#F1F1F5" rx="33" ry="8"/><ellipse cx="285" cy="287" fill="#F1F1F5" rx="33" ry="8"/><g><path fill="#E7E7EB" d="M154,285c-17.6,0-32-12.6-32-28c0-3.3,2.7-6,6-6s6,2.7,6,6c0,8.8,9,16,20,16s20-7.2,20-16c0-3.3,2.7-6,6-6 s6,2.7,6,6C186,272.4,171.6,285,154,285z"/></g><g><path fill="#E7E7EB" d="M263,285c-17.1,0-31-12.6-31-28c0-3.3,2.7-6,6-6s6,2.7,6,6c0,8.8,8.5,16,19,16s19-7.2,19-16 c0-3.3,2.7-6,6-6s6,2.7,6,6C294,272.4,280.1,285,263,285z"/></g><g><path fill="#ECECF0" d="M470,86.5c-2.2,0-4-1.8-4-4V53.7c0-2.2,1.8-4,4-4s4,1.8,4,4v28.8C474,84.7,472.2,86.5,470,86.5z"/></g><g><path fill="#ECECF0" d="M490,93.5c-1,0-2-0.4-2.8-1.2c-1.6-1.6-1.6-4.1,0-5.7l26.5-26.5c1.6-1.6,4.1-1.6,5.7,0 c1.6,1.6,1.6,4.1,0,5.7l-26.5,26.5C492,93.1,491,93.5,490,93.5z"/></g><g><path fill="#ECECF0" d="M520.8,115H492c-2.2,0-4-1.8-4-4s1.8-4,4-4h28.8c2.2,0,4,1.8,4,4S523,115,520.8,115z"/></g><ellipse cx="153.3" cy="182.7" fill="#ECECF0" rx="35.5" ry="35.4" transform="matrix(0.9659 -0.2588 0.2588 0.9659 -42.0502 45.9054)"/><ellipse cx="157.4" cy="160" fill="#E4E4E8" rx="5" ry="5" transform="matrix(0.9659 -0.2588 0.2588 0.9659 -36.0373 46.1912)"/><ellipse cx="136.3" cy="189.3" fill="#E4E4E8" rx="3" ry="3" transform="matrix(0.9659 -0.2588 0.2588 0.9659 -44.3448 41.7279)"/><ellipse cx="168" cy="163.6" fill="#E4E4E8" rx="1.8" ry="1.8" transform="matrix(0.9659 -0.2588 0.2588 0.9659 -36.6216 49.0671)"/><ellipse cx="163.3" cy="166.2" fill="#E4E4E8" rx="1" ry="1" transform="matrix(0.9659 -0.2588 0.2588 0.9659 -37.4532 47.9167)"/><path fill="#E7E7EB" fill-rule="evenodd" d="M183.9,161.7c0.1,2.3-0.3,4.7-1.2,7c5.4,0.9,9.1,2.8,9.8,5.7	c1.9,7.1-13.5,17.4-34.5,23c-21,5.6-39.5,4.4-41.4-2.7c-0.7-2.7,1-5.8,4.7-9c-2.1-1.6-3.8-3.6-5-5.8c-9.8,6.3-15.2,13.2-13.7,18.8	c2.8,10.4,28.1,12.6,56.6,5c28.5-7.6,49.3-22.2,46.5-32.6C204.2,165.5,195.9,162.2,183.9,161.7z" clip-rule="evenodd"/></svg>