<svg xmlns="http://www.w3.org/2000/svg" xmlns:xlink="http://www.w3.org/1999/xlink" id="Layer_1" x="0" y="0" enable-background="new 0 0 16 16" version="1.1" viewBox="0 0 16 16" xml:space="preserve"><path fill="#FFF" d="M5,5h6c0.6,0,1,0.4,1,1l0,0c0,0.6-0.4,1-1,1H5C4.4,7,4,6.6,4,6l0,0C4,5.4,4.4,5,5,5z"/><path fill="#FFF" d="M5,9h6c0.6,0,1,0.4,1,1l0,0c0,0.6-0.4,1-1,1H5c-0.6,0-1-0.4-1-1l0,0C4,9.4,4.4,9,5,9z"/><g><rect width="2" height="2" x="7" y="7" fill="#C4C4C4"/><path fill="#C4C4C4" d="M12,1H4C3.4,1,3,1.4,3,2v12c0,0.6,0.4,1,1,1h8c0.6,0,1-0.4,1-1V2C13,1.4,12.6,1,12,1z M12,10 c0,0.6-0.4,1-1,1c0,0.6-0.4,1-1,1s-1-0.4-1-1H7c0,0.6-0.4,1-1,1s-1-0.4-1-1c-0.6,0-1-0.4-1-1s0.4-1,1-1V7C4.4,7,4,6.6,4,6 s0.4-1,1-1c0-0.6,0.4-1,1-1s1,0.4,1,1h2c0-0.6,0.4-1,1-1s1,0.4,1,1c0.6,0,1,0.4,1,1s-0.4,1-1,1v2C11.6,9,12,9.4,12,10z"/></g></svg>