<svg xmlns="http://www.w3.org/2000/svg" xmlns:xlink="http://www.w3.org/1999/xlink" id="Layer_1" x="0" y="0" enable-background="new 0 0 16 16" version="1.1" viewBox="0 0 16 16" xml:space="preserve"><g><path fill="#262626" d="M13,8h-1V3c0-1.1-0.9-2-2-2H3C1.9,1,1,1.9,1,3v10c0,1.1,0.9,2,2,2h8h1c1.7,0,3-1.3,3-3v-2 C15,8.9,14.1,8,13,8z M10,9v4H3V3h7V9z M13,12c0,0.6-0.4,1-1,1v-3h1V12z"/><path fill="#262626" d="M5,7h3c0.6,0,1-0.4,1-1S8.6,5,8,5H5C4.4,5,4,5.4,4,6S4.4,7,5,7z"/><path fill="#262626" d="M5,11h3c0.6,0,1-0.4,1-1S8.6,9,8,9H5c-0.6,0-1,0.4-1,1S4.4,11,5,11z"/></g></svg>