<svg xmlns="http://www.w3.org/2000/svg" xmlns:xlink="http://www.w3.org/1999/xlink" id="Layer_1" x="0" y="0" enable-background="new 0 0 16 16" version="1.1" viewBox="0 0 16 16" xml:space="preserve"><path fill="#979797" fill-rule="evenodd" d="M15,8c0,3.9-3.1,7-7,7c-3.9,0-7-3.1-7-7c0-3.9,3.1-7,7-7	C11.9,1,15,4.1,15,8z M11.1,4.7c0-0.5-0.4-0.8-0.8-0.8c-0.5,0-0.8,0.4-0.8,0.8v0.2C9,4.6,8.5,4.5,8,4.5C6.1,4.5,4.5,6.1,4.5,8	s1.6,3.5,3.5,3.5c1,0,1.9-0.4,2.6-1.1c0.2-0.2,0.3-0.4,0.5-0.6c0.2-0.4,0.1-0.9-0.3-1.1c-0.4-0.2-0.9-0.1-1.1,0.3	C9.5,9,9.4,9.2,9.3,9.3C9,9.6,8.5,9.8,8,9.8C7,9.8,6.2,9,6.2,8S7,6.2,8,6.2c0.5,0,1,0.2,1.3,0.6C9.4,6.8,9.5,7,9.6,7.1	c0.2,0.3,0.6,0.5,0.9,0.4c0.4-0.1,0.6-0.4,0.6-0.8V4.7z" clip-rule="evenodd"/></svg>