<svg xmlns="http://www.w3.org/2000/svg" xmlns:xlink="http://www.w3.org/1999/xlink" id="Layer_1" x="0" y="0" enable-background="new 0 0 16 16" version="1.1" viewBox="0 0 16 16" xml:space="preserve"><path fill="#666" fill-rule="evenodd" d="M12.3,2H3.7C2.8,2,2,2.8,2,3.7v8.6C2,13.2,2.8,14,3.7,14h8.6	c0.9,0,1.7-0.8,1.7-1.7V3.7C14,2.8,13.2,2,12.3,2z M11.6,6.8L11.6,6.8L8,10.4c-0.4,0.4-0.9,0.4-1.3,0.1l-0.1-0.1L4.8,8.6	c-0.4-0.4-0.4-1,0-1.4c0.4-0.4,0.9-0.4,1.3-0.1l0.1,0.1l1.1,1.1l2.8-2.8c0.4-0.4,0.9-0.4,1.3-0.1l0.1,0.1	C11.9,5.8,11.9,6.4,11.6,6.8z" clip-rule="evenodd"/></svg>