<svg xmlns="http://www.w3.org/2000/svg" xmlns:xlink="http://www.w3.org/1999/xlink" id="Layer_1" x="0" y="0" enable-background="new 0 0 16 16" version="1.1" viewBox="0 0 16 16" xml:space="preserve"><path fill="#979797" fill-rule="evenodd" d="M8,3C5.2,3,3,5.2,3,8c0,2.8,2.2,5,5,5c2,0,3.8-1.2,4.5-2.9	c0.2-0.5,0.8-0.7,1.3-0.5c0.5,0.2,0.7,0.8,0.5,1.3C13.3,13.3,10.8,15,8,15c-3.9,0-7-3.1-7-7c0-3.9,3.1-7,7-7c1.7,0,3.2,0.6,4.5,1.6	V2c0-0.6,0.4-1,1-1c0.6,0,1,0.4,1,1v3.5c0,0.5-0.3,0.9-0.8,1c-0.5,0.1-0.9-0.1-1.1-0.6C11.8,4.2,10,3,8,3z M7,5.5c0-0.6,0.4-1,1-1	s1,0.4,1,1v2h1c0.6,0,1,0.4,1,1c0,0.6-0.4,1-1,1H8c-0.6,0-1-0.4-1-1V5.5z" clip-rule="evenodd"/></svg>