<svg xmlns="http://www.w3.org/2000/svg" xmlns:xlink="http://www.w3.org/1999/xlink" id="Layer_1" x="0" y="0" enable-background="new 0 0 16 16" version="1.1" viewBox="0 0 16 16" xml:space="preserve"><desc>Created with Sketch.</desc><g><path fill="#7D819A" d="M11.5,6c1.4,0,2.7,0.7,3.5,1.7L15,3c0-1.1-0.9-2-2-2H3C1.9,1,1,1.9,1,3v8c0,1.1,0.9,2,2,2l4.8,0 C7.3,12.3,7,11.4,7,10.5C7,8,9,6,11.5,6z M3.9,3L4,3h8c0.6,0,1,0.4,1,1c0,0.5-0.4,0.9-0.9,1L12,5H4L3.9,5C3.4,4.9,3,4.5,3,4 S3.4,3.1,3.9,3z M5.4,9L5.3,9H4L3.9,9C3.4,8.9,3,8.5,3,8s0.4-0.9,0.9-1L4,7h1.3c0.6,0,1,0.4,1,1C6.3,8.5,5.9,8.9,5.4,9z"/><path fill="#7D819A" d="M15.1,12.7L14.4,12c0.2-0.4,0.4-0.9,0.4-1.5c0-1.8-1.5-3.2-3.2-3.2s-3.2,1.5-3.2,3.2s1.5,3.2,3.2,3.2 c0.5,0,1-0.1,1.5-0.4l0.7,0.7l0.1,0.1c0.4,0.3,1,0.3,1.3-0.1C15.5,13.7,15.5,13.1,15.1,12.7z M11.5,11.8c-0.7,0-1.2-0.6-1.2-1.2 s0.6-1.2,1.2-1.2s1.2,0.6,1.2,1.2S12.2,11.8,11.5,11.8z"/></g></svg>