<svg xmlns="http://www.w3.org/2000/svg" xmlns:xlink="http://www.w3.org/1999/xlink" id="Layer_1" x="0" y="0" enable-background="new 0 0 16 16" version="1.1" viewBox="0 0 16 16" xml:space="preserve"><desc>Created with Sketch.</desc><g><path fill="#7D8299" d="M8.4,10.5l-1.8,1.8c-0.8,0.8-2,0.8-2.8,0c-0.8-0.8-0.8-2,0-2.8l1.8-1.8c0.4-0.4,0.4-1,0-1.4s-1-0.4-1.4,0 L2.3,8c-1.6,1.6-1.6,4.1,0,5.7c0.8,0.8,1.8,1.2,2.8,1.2s2-0.4,2.8-1.2l1.8-1.8c0.4-0.4,0.4-1,0-1.4S8.7,10.1,8.4,10.5z"/><path fill="#7D8299" d="M13.7,2.3c-1.6-1.6-4.1-1.6-5.7,0L6.2,4.1c-0.4,0.4-0.4,1,0,1.4s1,0.4,1.4,0l1.8-1.8c0.8-0.8,2-0.8,2.8,0 c0.8,0.8,0.8,2,0,2.8l-1.8,1.8c-0.4,0.4-0.4,1,0,1.4c0.2,0.2,0.5,0.3,0.7,0.3s0.5-0.1,0.7-0.3L13.7,8C15.2,6.4,15.2,3.9,13.7,2.3z"/><path fill="#7D8299" d="M5.2,10.8c0.2,0.2,0.5,0.3,0.7,0.3s0.5-0.1,0.7-0.3l4.2-4.2c0.4-0.4,0.4-1,0-1.4s-1-0.4-1.4,0L5.2,9.4 C4.8,9.8,4.8,10.4,5.2,10.8z"/></g></svg>