<svg xmlns="http://www.w3.org/2000/svg" xmlns:xlink="http://www.w3.org/1999/xlink" id="Layer_1" x="0" y="0" enable-background="new 0 0 16 16" version="1.1" viewBox="0 0 16 16" xml:space="preserve"><desc>Created with Sketch.</desc><path fill="#7D8299" d="M12.4,1.6h-2c-1,0-1.8,0.8-1.8,1.8v1.2H5.4c-1,0-1.8,0.8-1.8,1.8v2.3H3.4c-1,0-1.8,0.8-1.8,1.8v2	c0,1,0.8,1.8,1.8,1.8h2c1,0,1.8-0.8,1.8-1.8v-2c0-1-0.8-1.8-1.8-1.8H5.1V6.4c0-0.1,0.1-0.2,0.2-0.2h3.3v6.3c0,1,0.8,1.8,1.8,1.8h2	c1,0,1.8-0.8,1.8-1.8v-9C14.2,2.4,13.4,1.6,12.4,1.6z M5.6,10.4v2c0,0.1-0.1,0.2-0.2,0.2h-2c-0.1,0-0.2-0.1-0.2-0.2v-2	c0-0.1,0.1-0.2,0.2-0.2h2C5.5,10.2,5.6,10.3,5.6,10.4z M12.7,12.4c0,0.1-0.1,0.2-0.2,0.2h-2c-0.1,0-0.2-0.1-0.2-0.2v-9	c0-0.1,0.1-0.2,0.2-0.2h2c0.1,0,0.2,0.1,0.2,0.2V12.4z"/></svg>