<svg xmlns="http://www.w3.org/2000/svg" xmlns:xlink="http://www.w3.org/1999/xlink" id="Layer_1" x="0" y="0" enable-background="new 0 0 16 16" version="1.1" viewBox="0 0 16 16" xml:space="preserve"><g><path fill="#979797" d="M11.4,8.9c-0.5-0.3-1-0.5-1.6-0.7c1-0.6,1.7-1.7,1.7-2.9c0-1.9-1.6-3.5-3.5-3.5c-1.9,0-3.5,1.6-3.5,3.5 c0,1.3,0.7,2.3,1.7,2.9C4.7,8.6,3.6,9.5,3,10.1c-0.4,0.4-0.5,0.8-0.5,1.3c0,1.4,1.1,2.4,2.4,2.4h3.9c-0.1-0.4-0.2-0.7-0.2-1.1 C8.7,10.9,9.8,9.4,11.4,8.9z"/><path fill="#979797" d="M14,11l-1-1c-0.1-0.1-0.3-0.1-0.4,0l-2.3,2.3c-0.1,0.1-0.1,0.1-0.1,0.2l0,1.1c0,0.1,0.1,0.2,0.2,0.2l1.1,0 c0.1,0,0.2,0,0.2-0.1l2.3-2.3C14.1,11.3,14.1,11.1,14,11z"/></g></svg>