<svg xmlns="http://www.w3.org/2000/svg" xmlns:xlink="http://www.w3.org/1999/xlink" id="Layer_1" x="0" y="0" enable-background="new 0 0 16 16" version="1.1" viewBox="0 0 16 16" xml:space="preserve"><desc>Created with Sketch.</desc><path fill="#7D8299" d="M14.3,11.3c-0.2-1-1.7-2.5-3-2.7l0,0l0,0c-0.2,0.1-0.7,0.5-1.2,0.8C9.9,9.7,9.6,9.9,9.5,10	c-0.4-0.1-1.4-0.7-2-1.3C7,8.2,6.3,7.2,6.3,6.8c0-0.1,0.1-0.2,0.2-0.3C7,5.8,7.6,4.9,7.6,4.4l0-0.1c-0.5-1.1-2-2.3-2.7-2.5l0,0l0,0	C3.7,2.2,2.1,4,2.1,4.6c0,2.5,1.6,4.9,3.1,6.3c0.8,0.7,3.5,3.2,6.5,3.2h0l0,0C12.5,13.9,14,12.7,14.3,11.3L14.3,11.3L14.3,11.3z"/></svg>