<svg xmlns="http://www.w3.org/2000/svg" xmlns:xlink="http://www.w3.org/1999/xlink" id="Layer_1" x="0" y="0" enable-background="new 0 0 16 16" version="1.1" viewBox="0 0 16 16" xml:space="preserve"><g><path fill="#666" d="M2.6,10.5c0.3,0,0.6-0.1,0.7-0.2c0.1-0.1,0.2-0.2,0.3-0.4l0.1-0.1l0.4-1.1c0-0.1,0.1-0.1,0.2-0.1h1.8 c0.1,0,0.2,0,0.2,0.1l0.5,1.2l0.1,0.1C6.9,10,7,10.2,7.1,10.3c0.2,0.2,0.4,0.2,0.7,0.2c0.3,0,0.6-0.1,0.8-0.3 C8.8,10,8.8,9.8,8.7,9.4l0-0.1L6.2,2l0-0.1C6.1,1.8,6,1.7,5.9,1.6C5.7,1.5,5.5,1.4,5.2,1.4c-0.3,0-0.5,0.1-0.7,0.2 C4.4,1.7,4.3,1.8,4.2,1.9l0,0.1L1.7,9.3l0,0.1c-0.1,0.3,0,0.6,0.2,0.8C2,10.4,2.3,10.5,2.6,10.5z M5.1,5c0-0.1,0.2-0.1,0.2,0 l0.4,1.4c0,0.1,0,0.1-0.1,0.1H4.7c-0.1,0-0.1-0.1-0.1-0.1L5.1,5z"/><path fill="#666" d="M14,12H2c-0.6,0-1,0.4-1,1s0.4,1,1,1h12c0.6,0,1-0.4,1-1S14.6,12,14,12z"/><path fill="#666" d="M11,10h3c0.6,0,1-0.4,1-1c0-0.6-0.4-1-1-1h-3c-0.6,0-1,0.4-1,1C10,9.6,10.4,10,11,10z"/></g></svg>