<svg xmlns="http://www.w3.org/2000/svg" xmlns:xlink="http://www.w3.org/1999/xlink" id="Layer_1" x="0" y="0" enable-background="new 0 0 16 16" version="1.1" viewBox="0 0 16 16" xml:space="preserve"><desc>Created with Sketch.</desc><g><path fill="#7D8299" d="M13.4,5.6h-0.6c-0.6,0-1,0.4-1,1s0.4,1,1,1l0.7,0.1L13.4,12L6.6,12l0.1-4.4h0.8c0.6,0,1-0.4,1-1s-0.4-1-1-1 H6.7c-1.1,0-2.1,0.9-2.1,2.1V12c0,1.1,0.9,2.1,2.1,2.1h6.7c1.1,0,2.1-0.9,2.1-2.1V7.6C15.5,6.5,14.5,5.6,13.4,5.6z"/><path fill="#7D8299" d="M3.2,8.4L2.5,8.4L2.6,4L9.4,4L9.3,8.4H8.5c-0.6,0-1,0.4-1,1c0,0.6,0.4,1,1,1h0.8c1.1,0,2.1-0.9,2.1-2.1V4 c0-1.1-0.9-2.1-2.1-2.1H2.6C1.5,2,0.5,2.9,0.5,4v4.3c0,1.1,0.9,2.1,2.1,2.1h0.6c0.6,0,1-0.4,1-1C4.2,8.9,3.7,8.4,3.2,8.4z"/></g></svg>