<svg xmlns="http://www.w3.org/2000/svg" xmlns:xlink="http://www.w3.org/1999/xlink" id="Layer_1" x="0" y="0" enable-background="new 0 0 16 16" version="1.1" viewBox="0 0 16 16" xml:space="preserve"><path fill="#666" fill-rule="evenodd" d="M12.5,12.9l0-0.1L9.1,2.7l0-0.1L9,2.5C8.9,2.4,8.8,2.3,8.7,2.2	C8.5,2.1,8.3,2,8,2S7.5,2.1,7.3,2.2C7.2,2.3,7.1,2.4,7,2.5l0,0.1l0,0.1L3.6,12.8l0,0.1l0,0.1c-0.1,0.3,0,0.5,0.1,0.7	C3.8,13.9,4.1,14,4.4,14c0.3,0,0.6-0.1,0.8-0.2c0.1-0.1,0.2-0.2,0.3-0.3l0.1-0.1l0.1-0.2l0.7-2c0-0.1,0.1-0.1,0.2-0.1H8h1.5	c0.1,0,0.2,0.1,0.2,0.1l0.7,2.1l0.1,0.2l0.1,0.1c0.1,0.1,0.1,0.2,0.2,0.3c0.2,0.2,0.4,0.2,0.8,0.2c0.3,0,0.6-0.1,0.8-0.3	c0.2-0.2,0.2-0.4,0.2-0.6L12.5,12.9z M9,9H8H7C6.9,9,6.8,8.9,6.8,8.8l1-3.3c0.1-0.2,0.3-0.2,0.4,0l1,3.3C9.2,8.9,9.1,9,9,9z" clip-rule="evenodd"/></svg>