<svg xmlns="http://www.w3.org/2000/svg" xmlns:xlink="http://www.w3.org/1999/xlink" id="Layer_1" x="0" y="0" enable-background="new 0 0 16 16" version="1.1" viewBox="0 0 16 16" xml:space="preserve"><desc>Created with Sketch.</desc><g><path fill="#7D8299" d="M8.2,6.5c0.5-0.1,0.9-0.5,0.9-1c0-0.6-0.4-1-1-1l-0.8,0c0.1-0.5,0.2-0.7,0.3-0.9c0.3-0.4,0.6-0.5,1.3-0.2 c0.5,0.2,1.1-0.1,1.3-0.6c0.2-0.5-0.1-1.1-0.6-1.3C8,1,6.6,1.3,5.8,2.6C5.6,3,5.4,3.6,5.2,4.5l-0.8,0l-0.1,0C3.7,4.6,3.3,5,3.3,5.5 c0,0.6,0.4,1,1,1l0.5,0l-0.7,4.2c-0.1,0.8-0.2,1.2-0.3,1.3l0,0c-0.3,0.4-0.6,0.5-1.1,0.3c-0.5-0.2-1.1,0.1-1.2,0.7 c-0.2,0.5,0.1,1.1,0.7,1.2c1.4,0.4,2.6,0,3.4-1.1c0.2-0.4,0.4-0.9,0.6-2.1l0.1-0.6l0.5-3.2c0.1-0.3,0.1-0.6,0.2-0.9l1.2,0L8.2,6.5z"/><path fill="#7D8299" d="M13.7,6.8c-0.4-0.3-1.1-0.3-1.4,0.2l-1,1.3l-0.6-1.1L10.7,7c-0.3-0.4-0.8-0.6-1.3-0.3 C8.9,6.9,8.7,7.5,8.9,8l1,1.9l-1.9,2.3c-0.3,0.4-0.3,1.1,0.2,1.4s1.1,0.3,1.4-0.2l1.3-1.6l0.8,1.5l0.1,0.1c0.3,0.4,0.8,0.6,1.3,0.3 c0.5-0.3,0.7-0.9,0.4-1.3l-1.2-2.3l1.6-2C14.2,7.7,14.2,7.1,13.7,6.8z"/></g></svg>