<svg xmlns="http://www.w3.org/2000/svg" xmlns:xlink="http://www.w3.org/1999/xlink" id="Layer_1" x="0" y="0" enable-background="new 0 0 16 16" version="1.1" viewBox="0 0 16 16" xml:space="preserve"><desc>Created with Sketch.</desc><path fill="#7D8299" d="M13.9,5.7l-3.5-0.5L8.8,2C8.7,1.8,8.6,1.7,8.4,1.6c-0.2-0.1-0.5-0.1-0.7,0C7.4,1.6,7.2,1.8,7.1,2L5.6,5.2	L2.1,5.7c-0.2,0-0.4,0.1-0.5,0.3C1.4,6.1,1.3,6.4,1.3,6.6c0,0.3,0.1,0.5,0.3,0.7l2.5,2.5l-0.6,3.5c0,0.2,0,0.4,0.1,0.6	c0.1,0.2,0.3,0.4,0.6,0.5c0.2,0.1,0.5,0.1,0.7-0.1L8,12.6l3.1,1.6c0.1,0.1,0.3,0.1,0.4,0.1c0.1,0,0.1,0,0.2,0c0.3,0,0.5-0.2,0.6-0.4	c0.1-0.2,0.2-0.5,0.2-0.7l-0.6-3.5l2.5-2.5c0,0,0,0,0,0c0.1-0.1,0.2-0.3,0.3-0.5C14.7,6.2,14.4,5.7,13.9,5.7z"/></svg>