<svg xmlns="http://www.w3.org/2000/svg" xmlns:xlink="http://www.w3.org/1999/xlink" id="Layer_1" x="0" y="0" enable-background="new 0 0 16 16" version="1.1" viewBox="0 0 16 16" xml:space="preserve"><path fill="#666" fill-rule="evenodd" d="M13,8c0,0.6-0.4,1-1,1H9v1h3c0.6,0,1,0.4,1,1l0,0c0,0.6-0.4,1-1,1	H9v1.5c0,0.6-0.4,1-1,1l0,0c-0.6,0-1-0.4-1-1V12H4c-0.6,0-1-0.4-1-1l0,0c0-0.6,0.4-1,1-1h3V9H4C3.4,9,3,8.6,3,8l0,0c0-0.6,0.4-1,1-1	h1.8L3.9,3.3C3.5,2.5,4.1,1.5,4.9,1.5l0,0c0.5,0,0.9,0.3,1.1,0.7l2,4.2l2-4.2c0.2-0.4,0.6-0.7,1.1-0.7l0,0c0.9,0,1.4,0.9,1,1.7	l-2,3.8H12C12.6,7,13,7.4,13,8L13,8z" clip-rule="evenodd"/></svg>