<svg xmlns="http://www.w3.org/2000/svg" xmlns:xlink="http://www.w3.org/1999/xlink" id="Layer_1" x="0" y="0" enable-background="new 0 0 16 16" version="1.1" viewBox="0 0 16 16" xml:space="preserve"><path fill="#666" d="M13,9h-1.6l0.3-3H13c0.6,0,1-0.4,1-1s-0.4-1-1-1h-1.1L12,3.1c0.1-0.5-0.3-1-0.9-1.1c-0.6-0.1-1,0.3-1.1,0.9	L9.9,4h-3L7,3.1C7,2.5,6.6,2.1,6.1,2C5.5,2,5.1,2.4,5,2.9L4.9,4H3C2.4,4,2,4.4,2,5s0.4,1,1,1h1.7L4.4,9H3c-0.6,0-1,0.4-1,1	s0.4,1,1,1h1.2L4,12.9c-0.1,0.5,0.3,1,0.9,1.1c0,0,0.1,0,0.1,0c0.5,0,0.9-0.4,1-0.9L6.2,11h3L9,12.9c-0.1,0.5,0.3,1,0.9,1.1	c0,0,0.1,0,0.1,0c0.5,0,0.9-0.4,1-0.9l0.2-2.1H13c0.6,0,1-0.4,1-1S13.6,9,13,9z M6.4,9l0.3-3h3L9.4,9H6.4z"/></svg>