<?xml version="1.0" encoding="utf-8"?>
<!-- Generator: Adobe Illustrator 24.1.0, SVG Export Plug-In . SVG Version: 6.00 Build 0)  -->
<svg version="1.1" id="Layer_1" xmlns="http://www.w3.org/2000/svg" xmlns:xlink="http://www.w3.org/1999/xlink" x="0px" y="0px"
	 viewBox="0 0 16 16" enable-background="new 0 0 16 16" xml:space="preserve">
<g>
	<path fill="#666666" d="M9,7H3C2.4,7,2,7.4,2,8s0.4,1,1,1h6c0.6,0,1-0.4,1-1S9.6,7,9,7z"/>
	<path fill="#666666" d="M9,3H3C2.4,3,2,3.4,2,4s0.4,1,1,1h6c0.6,0,1-0.4,1-1S9.6,3,9,3z"/>
	<path fill="#666666" d="M9,11H3c-0.6,0-1,0.4-1,1s0.4,1,1,1h6c0.6,0,1-0.4,1-1S9.6,11,9,11z"/>
	<path fill="#666666" d="M11.9,4.7c0.3,0.4,0.9,0.4,1.2,0l0.8-1c0.2-0.3,0-0.7-0.4-0.7h-2.1c-0.4,0-0.6,0.4-0.4,0.7L11.9,4.7z"/>
	<path fill="#666666" d="M13.5,7h-2.1c-0.4,0-0.6,0.4-0.4,0.7l0.8,1c0.3,0.4,0.9,0.4,1.2,0l0.8-1C14.1,7.4,13.9,7,13.5,7z"/>
	<path fill="#666666" d="M13.5,11h-2.1c-0.4,0-0.6,0.4-0.4,0.7l0.8,1c0.3,0.4,0.9,0.4,1.2,0l0.8-1C14.1,11.4,13.9,11,13.5,11z"/>
</g>
</svg>
