<svg xmlns="http://www.w3.org/2000/svg" xmlns:xlink="http://www.w3.org/1999/xlink" id="Layer_1" x="0" y="0" enable-background="new 0 0 16 16" version="1.1" viewBox="0 0 16 16" xml:space="preserve"><desc>Created with Sketch.</desc><g><path fill="#7D819A" d="M14,9.3c0-0.5-0.2-1-0.5-1.4c-0.4-0.5-0.8-0.9-1.4-1.1c0.4-0.4,0.6-1,0.6-1.6c0-1.3-1-2.3-2.2-2.3 c-0.2,0-0.4,0-0.6,0.1C10.6,3.6,11,4.4,11,5.5c0,0.6-0.1,1.1-0.3,1.6l0,0.1l0.2,0.2c0.3,0.2,0.5,0.5,0.7,0.7l0.2,0.3 c0.6,0.7,0.9,1.6,1,2.6c0.6-0.1,1.1-0.6,1.1-1.3V9.6L14,9.3z"/><path fill="#7D819A" d="M8.7,7.8c0.5-0.6,0.9-1.4,0.9-2.2c0-1.8-1.5-3.2-3.2-3.2S3,3.7,3,5.5c0,0.9,0.3,1.6,0.9,2.2 c-0.8,0.3-1.4,0.9-2,1.6c-0.5,0.7-0.8,1.5-0.8,2.3v0.2c0,1,0.8,1.8,1.8,1.8h6.7c1,0,1.8-0.8,1.8-1.8v-0.2c0-0.8-0.3-1.6-0.8-2.3 C10.1,8.6,9.4,8.1,8.7,7.8z"/></g></svg>