<svg xmlns="http://www.w3.org/2000/svg" xmlns:xlink="http://www.w3.org/1999/xlink" id="Layer_1" x="0" y="0" enable-background="new 0 0 16 16" version="1.1" viewBox="0 0 16 16" xml:space="preserve"><g><path fill="#666" d="M12,3h-1v0V2c0-0.6-0.4-1-1-1S9,1.4,9,2v1v0H7c0,0,0,0,0,0V2c0-0.6-0.4-1-1-1S5,1.4,5,2v1c0,0,0,0,0,0H4 C2.9,3,2,3.9,2,5v7c0,1.1,0.9,2,2,2h8c1.1,0,2-0.9,2-2V5C14,3.9,13.1,3,12,3z M13,12c0,0.6-0.4,1-1,1H4c-0.6,0-1-0.4-1-1V7 c0-0.6,0.4-1,1-1h8c0.6,0,1,0.4,1,1V12z"/><path fill="#666" d="M5.5,9h2c0.6,0,1-0.4,1-1s-0.4-1-1-1h-2c-0.6,0-1,0.4-1,1S4.9,9,5.5,9z"/><path fill="#666" d="M10.5,10h-5c-0.6,0-1,0.4-1,1s0.4,1,1,1h5c0.6,0,1-0.4,1-1S11.1,10,10.5,10z"/></g></svg>