<?xml version="1.0" encoding="utf-8"?>
<!-- Generator: Adobe Illustrator 24.0.0, SVG Export Plug-In . SVG Version: 6.00 Build 0)  -->
<svg version="1.1" id="Layer_1" xmlns="http://www.w3.org/2000/svg" xmlns:xlink="http://www.w3.org/1999/xlink" x="0px" y="0px"
	 viewBox="0 0 16 16" enable-background="new 0 0 16 16" xml:space="preserve">
<g>
	<path fill="#979797" d="M11.4,8.9c-0.5-0.3-1-0.5-1.6-0.7c1-0.6,1.7-1.7,1.7-2.9c0-1.9-1.6-3.5-3.5-3.5c-1.9,0-3.5,1.6-3.5,3.5
		c0,1.3,0.7,2.3,1.7,2.9C4.7,8.6,3.6,9.5,3,10.1c-0.4,0.4-0.5,0.8-0.5,1.3c0,1.4,1.1,2.4,2.4,2.4h3.9c-0.1-0.4-0.2-0.7-0.2-1.1
		C8.7,10.9,9.8,9.4,11.4,8.9z"/>
	<path fill="#979797" d="M13.2,11.2h-0.5v-0.5c0-0.4-0.3-0.8-0.8-0.8s-0.8,0.3-0.8,0.8v0.5h-0.5c-0.4,0-0.8,0.3-0.8,0.8
		s0.3,0.8,0.8,0.8h0.5v0.5c0,0.4,0.3,0.8,0.8,0.8s0.8-0.3,0.8-0.8v-0.5h0.5c0.4,0,0.8-0.3,0.8-0.8S13.7,11.2,13.2,11.2z"/>
</g>
</svg>
