<svg xmlns="http://www.w3.org/2000/svg" xmlns:xlink="http://www.w3.org/1999/xlink" width="200" height="200" class="icon" p-id="4772" t="1587535404326" version="1.1" viewBox="0 0 1024 1024"><defs><style type="text/css"/></defs><path d="M544 0A224 224 0 0 1 768 224a64 64 0 0 1-127.552 7.488L640 224a96 96 0 0 0-191.552-9.216L448 224V320h128a64 64 0 0 1 7.488 127.552L576 448H448v352a224 224 0 0 1-448 0 64 64 0 0 1 127.552-7.488L128 800a96 96 0 0 0 191.552 9.216L320 800V448H192a64 64 0 0 1-7.488-127.552L192 320h128V224A224 224 0 0 1 544 0z m135.232 525.44l6.016 5.312 114.752 114.688 114.752-114.688 6.016-5.312a64 64 0 0 1 84.48 95.808L890.56 736l114.688 114.752a64 64 0 0 1-84.48 95.808l-6.016-5.312-114.752-114.688-114.752 114.688-6.016 5.312a64 64 0 0 1-84.48-95.808l114.688-114.752-114.688-114.752a64 64 0 0 1 84.48-95.808z" p-id="4773"/></svg>