<svg xmlns="http://www.w3.org/2000/svg" xmlns:xlink="http://www.w3.org/1999/xlink" id="Layer_1" x="0" y="0" enable-background="new 0 0 16 16" version="1.1" viewBox="0 0 16 16" xml:space="preserve"><g><path fill="#FFF" fill-rule="evenodd" d="M9,13H7c-0.6,0-1,0.4-1,1s0.4,1,1,1h2c0.6,0,1-0.4,1-1 S9.6,13,9,13z" clip-rule="evenodd"/><path fill="#FFF" fill-rule="evenodd" d="M8,1C5.3,1,3,3.2,3,5.9C3,8.3,4.7,10,5.9,12 c0.2,0.3,0.5,0.5,0.9,0.5h2.4c0.4,0,0.7-0.2,0.9-0.5c1.2-2,3-3.7,3-6.1C13,3.2,10.7,1,8,1z M8.6,10.5H7.3C6.4,9,5,7.7,5,5.9 C5,4.3,6.3,3,8,3s3,1.3,3,2.9C11,7.7,9.5,9,8.6,10.5z" clip-rule="evenodd"/></g><path fill="#FFF" d="M9,9.8c-0.2,0.2-0.3,0.4-0.4,0.6H7.3C7.2,10.3,7.1,10.2,7,10V7	c0-0.6,0.4-1,1-1c0.6,0,1,0.4,1,1V9.8z" enable-background="new" opacity=".6"/></svg>