<svg xmlns="http://www.w3.org/2000/svg" xmlns:xlink="http://www.w3.org/1999/xlink" id="Layer_1" x="0" y="0" enable-background="new 0 0 16 16" version="1.1" viewBox="0 0 16 16" xml:space="preserve"><path fill="#666" d="M15.3,6.4l-4.7-4.7c-0.2-0.2-0.5-0.3-0.8-0.3C9.5,1.4,9.2,1.6,9,1.9L7,4.9l-4.2,1C2.5,6,2.2,6.3,2.1,6.6	C2,7,2.1,7.3,2.3,7.6l2.8,2.8l-1.4,1.4c-0.4,0.4-0.4,1,0,1.4c0.4,0.4,1,0.4,1.4,0l1.4-1.4l2.8,2.8c0.2,0.2,0.4,0.3,0.7,0.3	c0.1,0,0.2,0,0.3,0c0.3-0.1,0.6-0.4,0.7-0.7l1-4.2l3.1-2c0.3-0.2,0.4-0.4,0.4-0.7C15.6,6.9,15.5,6.6,15.3,6.4z M10.6,8.5	c-0.2,0.1-0.4,0.4-0.4,0.6L9.6,12L5,7.4l2.8-0.7c0.3-0.1,0.5-0.2,0.6-0.4L10,4l3,3L10.6,8.5z"/></svg>