<svg xmlns="http://www.w3.org/2000/svg" xmlns:xlink="http://www.w3.org/1999/xlink" id="Layer_1" x="0" y="0" enable-background="new 0 0 16 16" version="1.1" viewBox="0 0 16 16" xml:space="preserve"><g><path fill="#666" d="M15.5,6.1c-0.1-0.3-0.3-0.5-0.6-0.6l-3.9-1L8.8,1C8.4,0.5,7.6,0.5,7.2,1L5,4.4l-3.9,1 C0.8,5.5,0.6,5.8,0.5,6.1c-0.1,0.3,0,0.6,0.2,0.8l2.6,3.1L3,14.1c0,0.3,0.1,0.6,0.4,0.8c0.2,0.2,0.6,0.2,0.9,0.1L8,13.5l3.8,1.5 c0.1,0,0.2,0.1,0.3,0.1c0.2,0,0.4-0.1,0.5-0.2c0.2-0.2,0.4-0.5,0.4-0.8l-0.2-4.1l2.6-3.1C15.5,6.7,15.6,6.4,15.5,6.1z M11.2,9.2 C11,9.4,11,9.6,11,9.8l0.2,3l-2.8-1.1c-0.1,0-0.2-0.1-0.3-0.1c-0.1,0-0.2,0-0.3,0.1l-2.8,1.1l0.2-3c0-0.2-0.1-0.4-0.2-0.6L2.9,6.9 l2.9-0.8C6.1,6,6.2,5.9,6.4,5.7L8,3.2l1.6,2.5C9.8,5.9,9.9,6,10.2,6.1l2.9,0.8L11.2,9.2z"/><path fill="#666" d="M8.6,8.5c-0.4,0.2-0.8,0.2-1.1,0c-0.5-0.2-1.1,0-1.3,0.5c-0.2,0.5,0,1.1,0.5,1.3C7,10.5,7.5,10.6,8,10.6 s1-0.1,1.4-0.3c0.5-0.2,0.7-0.8,0.5-1.3C9.7,8.4,9.1,8.2,8.6,8.5z"/></g></svg>