<svg xmlns="http://www.w3.org/2000/svg" xmlns:xlink="http://www.w3.org/1999/xlink" id="Layer_1" x="0" y="0" enable-background="new 0 0 16 16" version="1.1" viewBox="0 0 16 16" xml:space="preserve"><path fill="#FFF" d="M13,15H3c-1.7,0-3-1.3-3-3V4c0-1.7,1.3-3,3-3h10c1.7,0,3,1.3,3,3v8C16,13.7,14.7,15,13,15z M3,3	C2.4,3,2,3.4,2,4v8c0,0.6,0.4,1,1,1h10c0.6,0,1-0.4,1-1V4c0-0.6-0.4-1-1-1H3z"/><path fill="#FFF" d="M8,8.8c-1.1,0-2.3-0.4-3.2-1.2L4.4,7.3c-0.4-0.4-0.5-1-0.1-1.4	c0.4-0.4,1-0.5,1.4-0.1l0.4,0.4C7.2,7,8.8,7,9.9,6.1l0.4-0.4c0.4-0.4,1.1-0.3,1.4,0.1c0.4,0.4,0.3,1.1-0.1,1.4l-0.4,0.4	C10.3,8.4,9.1,8.8,8,8.8z" enable-background="new" opacity=".6"/></svg>