<?xml version="1.0" encoding="utf-8"?>
<!-- Generator: Adobe Illustrator 24.1.0, SVG Export Plug-In . SVG Version: 6.00 Build 0)  -->
<svg version="1.1" id="图层_1" xmlns="http://www.w3.org/2000/svg" xmlns:xlink="http://www.w3.org/1999/xlink" x="0px" y="0px"
	 viewBox="0 0 16 16" enable-background="new 0 0 16 16" xml:space="preserve">
<g>
	<path fill="#7D8299" d="M11,3.8V3c0-0.6-0.4-1-1-1H4C2.9,2,2,2.9,2,4v6c0,0.6,0.4,1,1,1h0.8C3.9,11,4,10.9,4,10.8V5
		c0-0.6,0.4-1,1-1h5.8C10.9,4,11,3.9,11,3.8z"/>
	<path fill="#7D8299" d="M12.8,5.3H6.4c-0.6,0-1.1,0.5-1.1,1.1v6.4c0,0.6,0.5,1.1,1.1,1.1h6.4c0.6,0,1.1-0.5,1.1-1.1V6.4
		C13.9,5.8,13.4,5.3,12.8,5.3z"/>
</g>
</svg>
