<svg xmlns="http://www.w3.org/2000/svg" xmlns:xlink="http://www.w3.org/1999/xlink" id="Layer_1" x="0" y="0" enable-background="new 0 0 16 16" version="1.1" viewBox="0 0 16 16" xml:space="preserve"><path fill="#7B67EE" fill-rule="evenodd" d="M14,15c0.6,0,1-0.4,1-1V3.5c0-0.6-0.4-1-1-1h-2.5V2	c0-0.6-0.4-1-1-1s-1,0.4-1,1v0.5h-3V2c0-0.6-0.4-1-1-1s-1,0.4-1,1v0.5H2c-0.6,0-1,0.4-1,1V14c0,0.6,0.4,1,1,1H14z M13,13H3V5h10V13z" clip-rule="evenodd"/><g opacity=".6"><path fill="#7B67EE" d="M11.5,6.5h-1C10.2,6.5,10,6.7,10,7v1c0,0.3,0.2,0.5,0.5,0.5h1C11.8,8.5,12,8.3,12,8V7 C12,6.7,11.8,6.5,11.5,6.5z"/><path fill="#7B67EE" d="M8.5,6.5h-1C7.2,6.5,7,6.7,7,7v1c0,0.3,0.2,0.5,0.5,0.5h1C8.8,8.5,9,8.3,9,8V7C9,6.7,8.8,6.5,8.5,6.5z"/><path fill="#7B67EE" d="M5.5,9.5h-1C4.2,9.5,4,9.7,4,10v1c0,0.3,0.2,0.5,0.5,0.5h1C5.8,11.5,6,11.3,6,11v-1C6,9.7,5.8,9.5,5.5,9.5z"/><path fill="#7B67EE" d="M5.5,6.5h-1C4.2,6.5,4,6.7,4,7v1c0,0.3,0.2,0.5,0.5,0.5h1C5.8,8.5,6,8.3,6,8V7C6,6.7,5.8,6.5,5.5,6.5z"/><path fill="#7B67EE" d="M8.5,9.5h-1C7.2,9.5,7,9.7,7,10v1c0,0.3,0.2,0.5,0.5,0.5h1C8.8,11.5,9,11.3,9,11v-1C9,9.7,8.8,9.5,8.5,9.5z"/><path fill="#7B67EE" d="M11.5,9.5h-1C10.2,9.5,10,9.7,10,10v1c0,0.3,0.2,0.5,0.5,0.5h1c0.3,0,0.5-0.2,0.5-0.5v-1 C12,9.7,11.8,9.5,11.5,9.5z"/></g></svg>