<?xml version="1.0" encoding="utf-8"?>
<!-- Generator: Adobe Illustrator 24.0.0, SVG Export Plug-In . SVG Version: 6.00 Build 0)  -->
<svg version="1.1" id="图层_1" xmlns="http://www.w3.org/2000/svg" xmlns:xlink="http://www.w3.org/1999/xlink" x="0px" y="0px"
	 viewBox="0 0 16 16" enable-background="new 0 0 16 16" xml:space="preserve">
<path fill-rule="evenodd" clip-rule="evenodd" fill="#7B67EE" d="M1,10c0,0.6,0.4,1,1,1h3v3c0,0.6,0.4,1,1,1h4h0.1
	c0.5-0.1,0.9-0.5,0.9-1V1H2C1.5,1,1.1,1.4,1,1.9V2V10z M3,9h2V3H3V9z M9,3v10H7V3H9z"/>
<path opacity="0.6" fill="#7B67EE" d="M11,3h2v3h-2v2h3c0.6,0,1-0.4,1-1V2c0-0.6-0.4-1-1-1h-3V3z"/>
</svg>
