<svg xmlns="http://www.w3.org/2000/svg" xmlns:xlink="http://www.w3.org/1999/xlink" id="Layer_1" x="0" y="0" enable-background="new 0 0 16 16" version="1.1" viewBox="0 0 16 16" xml:space="preserve"><path fill="#7B67EE" fill-rule="evenodd" d="M1,2.5C1,1.7,1.7,1,2.5,1H5v2H3v2h2v2H3v2h2v2H3v2h2v2H2.5	C1.7,15,1,14.3,1,13.5V11V9V7V5V2.5z M7,15h6.5c0.8,0,1.5-0.7,1.5-1.5V11V9V7V5V2.5C15,1.7,14.3,1,13.5,1H7v2h6v2H7v2h6v2H7v2h6v2H7	V15z" clip-rule="evenodd"/><path fill="#7B67EE" fill-rule="evenodd" d="M7,1v14H5V1H7z" clip-rule="evenodd" opacity=".6"/></svg>