<svg xmlns="http://www.w3.org/2000/svg" xmlns:xlink="http://www.w3.org/1999/xlink" id="Layer_1" x="0" y="0" enable-background="new 0 0 16 16" version="1.1" viewBox="0 0 16 16" xml:space="preserve"><path fill="#7B67EE" fill-rule="evenodd" d="M9.5,8.5	c-0.5,0-0.9,0.4-1,0.9c0,0,0,0.1,0,0.1V14c0,0.5,0.4,0.9,0.9,1c0,0,0.1,0,0.1,0H14c0.6,0,1-0.4,1-1V9.5c0-0.6-0.4-1-1-1H9.5z M13,10.5h-2.5V13H13V10.5z" clip-rule="evenodd" enable-background="new" opacity=".6"/><g><path fill="#7B67EE" fill-rule="evenodd" d="M6.5,8.5H2c-0.5,0-0.9,0.4-1,0.9c0,0,0,0.1,0,0.1V14 c0,0.5,0.4,0.9,0.9,1c0,0,0.1,0,0.1,0h4.5c0.6,0,1-0.4,1-1V9.5C7.5,8.9,7.1,8.5,6.5,8.5z M5.5,13H3v-2.5h2.5V13z" clip-rule="evenodd"/><path fill="#7B67EE" fill-rule="evenodd" d="M6.5,1H2C1.5,1,1.1,1.4,1,1.9C1,1.9,1,2,1,2v4.5 c0,0.5,0.4,0.9,0.9,1c0,0,0.1,0,0.1,0h4.5c0.6,0,1-0.4,1-1V2C7.5,1.4,7.1,1,6.5,1z M5.5,5.5H3V3h2.5V5.5z" clip-rule="evenodd"/><path fill="#7B67EE" fill-rule="evenodd" d="M14,1H9.5C9,1,8.6,1.4,8.5,1.9c0,0,0,0.1,0,0.1v4.5 c0,0.5,0.4,0.9,0.9,1c0,0,0.1,0,0.1,0H14c0.6,0,1-0.4,1-1V2C15,1.4,14.6,1,14,1z M13,5.5h-2.5V3H13V5.5z" clip-rule="evenodd"/></g></svg>