<svg xmlns="http://www.w3.org/2000/svg" xmlns:xlink="http://www.w3.org/1999/xlink" id="Layer_1" x="0" y="0" enable-background="new 0 0 16 16" version="1.1" viewBox="0 0 16 16" xml:space="preserve"><path fill="#7B67EE" fill-rule="evenodd" d="M15,14c0,0.6-0.4,1-1,1H2c-0.5,0-0.9-0.3-1-0.8c0-0.1,0-0.1,0-0.2	V3h2v2h2V3h2v2h2V3h2v2h2V3h2V14z M11,13h2v-2h-2V13z M7,13h2v-2H7V13z M3,13h2v-2H3V13z M3,7h2v2H3V7z M11,9h2V7h-2V9z M7,9h2V7H7	V9z" clip-rule="evenodd"/><path fill="#7B67EE" d="M15,2c0-0.6-0.4-1-1-1H2C1.4,1,1,1.4,1,2v1h14V2z" opacity=".6"/></svg>