<svg xmlns="http://www.w3.org/2000/svg" xmlns:xlink="http://www.w3.org/1999/xlink" id="Layer_1" x="0" y="0" enable-background="new 0 0 16 16" version="1.1" viewBox="0 0 16 16" xml:space="preserve"><g><circle cx="5" cy="7.5" r="1" fill="#666"/><circle cx="8" cy="7.5" r="1" fill="#666"/><circle cx="11" cy="7.5" r="1" fill="#666"/><path fill="#666" d="M8,1C4.1,1,1,3.9,1,7.5c0,1.9,0.9,3.6,2.4,4.9V14c0,0.3,0.2,0.6,0.4,0.8C4,14.9,4.2,15,4.4,15 c0.1,0,0.2,0,0.4-0.1l2.5-1c0.3,0,0.5,0,0.8,0c3.9,0,7-2.9,7-6.5S11.9,1,8,1z M8,12c-0.3,0-0.5,0-0.8-0.1c-0.2,0-0.3,0-0.5,0.1 l-1.3,0.5v-0.6c0-0.3-0.2-0.6-0.4-0.8C3.7,10.2,3,8.9,3,7.5C3,5,5.2,3,8,3s5,2,5,4.5S10.8,12,8,12z"/></g></svg>