<?xml version="1.0" encoding="utf-8"?>
<!-- Generator: Adobe Illustrator 24.0.0, SVG Export Plug-In . SVG Version: 6.00 Build 0)  -->
<svg version="1.1" id="图层_1" xmlns="http://www.w3.org/2000/svg" xmlns:xlink="http://www.w3.org/1999/xlink" x="0px" y="0px"
	 viewBox="0 0 22 26" enable-background="new 0 0 22 26" xml:space="preserve">
<title>datasheet_img_attachment_other_placeholder</title>
<desc>Created with Sketch.</desc>
<g id="附件字段备份">
	<g id="附件字段-占位图标" transform="translate(-958.000000, -133.000000)">
		<g id="编组-9" transform="translate(357.000000, 91.000000)">
			<g id="附件_xFF08_小_xFF09_备份-6" transform="translate(577.000000, 39.000000)">
				<g id="datasheet_img_attachment_other_placeholder" transform="translate(24.000000, 3.000000)">
					<g id="蒙版">
						<path fill-rule="evenodd" clip-rule="evenodd" fill="#7B67EE" d="M1.3,0H16l0,0l6,6v18.7c0,0.7-0.6,1.3-1.3,1.3H1.3
							C0.6,26,0,25.4,0,24.7V1.3C0,0.6,0.6,0,1.3,0z"/>
					</g>
					<g id="蒙版_1_">
						<path fill-rule="evenodd" clip-rule="evenodd" fill="#9B89FE" d="M16,0l6,6h-4.7C16.6,6,16,5.4,16,4.7V0L16,0z"/>
					</g>
					<path fill="#FFFFFF" d="M16.7,13.9c-0.2-0.2-0.6-0.2-0.8,0l-3.7,3.7c-1.2,1.2-3.4,1.2-4.7,0c-0.6-0.6-1-1.4-1-2.3
						c0-0.9,0.3-1.7,1-2.3l1.8-1.8c0,0,0,0,0,0l0.9-0.9c0.8-0.8,2.1-0.8,2.8,0c0.4,0.4,0.6,0.9,0.6,1.4c0,0.5-0.2,1-0.6,1.4
						l-0.3,0.3c0,0,0,0,0,0l-1,1l-0.5,0.5l0,0l-0.9,0.9c-0.3,0.3-0.7,0.3-1,0c-0.1-0.1-0.2-0.3-0.2-0.5c0-0.2,0.1-0.4,0.2-0.5
						l2.4-2.4c0.2-0.2,0.2-0.6,0-0.8c-0.2-0.2-0.6-0.2-0.8,0l-2.4,2.4c-0.4,0.4-0.6,0.8-0.6,1.3s0.2,1,0.6,1.3
						c0.4,0.4,0.9,0.6,1.3,0.6c0.5,0,1-0.2,1.3-0.6l0.9-0.9l0,0l1.8-1.8c0.6-0.6,0.9-1.4,0.9-2.3c0-0.9-0.3-1.7-0.9-2.3
						c-1.2-1.2-3.3-1.2-4.5,0l-1.8,1.8l-0.9,0.9c-0.8,0.8-1.3,2-1.3,3.2c0,1.2,0.5,2.3,1.3,3.2c0.8,0.8,2,1.3,3.2,1.3
						c1.2,0,2.3-0.5,3.2-1.3l3.7-3.7C16.9,14.5,16.9,14.1,16.7,13.9z"/>
				</g>
			</g>
		</g>
	</g>
</g>
</svg>
