<?xml version="1.0" encoding="utf-8"?>
<!-- Generator: Adobe Illustrator 24.0.0, SVG Export Plug-In . SVG Version: 6.00 Build 0)  -->
<svg version="1.1" id="图层_1" xmlns="http://www.w3.org/2000/svg" xmlns:xlink="http://www.w3.org/1999/xlink" x="0px" y="0px"
	 viewBox="0 0 22 26" enable-background="new 0 0 22 26" xml:space="preserve">
<title>datasheet_img_attachment_ img_placeholder</title>
<desc>Created with Sketch.</desc>
<g id="附件字段备份">
	<g id="附件字段-占位图标" transform="translate(-1192.000000, -133.000000)">
		<g id="编组-9" transform="translate(357.000000, 91.000000)">
			<g id="附件_xFF08_小_xFF09_备份-6" transform="translate(577.000000, 39.000000)">
				<g id="datasheet_img_attachment_-img_placeholder" transform="translate(258.000000, 3.000000)">
					<path id="蒙版" fill-rule="evenodd" clip-rule="evenodd" fill="#6FCCE0" d="M1.3,0H16l0,0l6,6v18.7c0,0.7-0.6,1.3-1.3,1.3
						H1.3C0.6,26,0,25.4,0,24.7V1.3C0,0.6,0.6,0,1.3,0z"/>
					<path id="蒙版_1_" fill-rule="evenodd" clip-rule="evenodd" fill="#9FE3F3" d="M16,0l6,6h-4.7C16.6,6,16,5.4,16,4.7V0L16,0z"
						/>
					<g id="编组-44" transform="translate(4.503521, 9.001846)">
						<path fill="#FFFFFF" d="M10.9,0H2.1C0.9,0,0,0.9,0,2.1v6.1c0,1.1,0.9,2.1,2.1,2.1h8.9c1.1,0,2.1-0.9,2.1-2.1V2.1
							C13,0.9,12.1,0,10.9,0z M2.1,1.2h8.9c0.5,0,0.9,0.4,0.9,0.9v1.4h-0.4c-2.3,0-4.3,1.2-5.3,3.1C5.3,5.7,4.3,5.3,3.3,5.3
							c-0.8,0-1.5,0.3-2.1,0.8V2.1C1.2,1.6,1.6,1.2,2.1,1.2z M1.2,8.2V7.9c0.6-0.9,1.4-1.4,2.2-1.4c0.8,0,1.5,0.4,2.2,1.2
							C5.4,8.1,5.3,8.6,5.3,9H2.1C1.6,9,1.2,8.6,1.2,8.2z M10.9,9H6.5c0.3-2.5,2.4-4.4,4.9-4.4h0.4v3.5C11.8,8.6,11.4,9,10.9,9z"/>
						<circle id="椭圆形" fill-rule="evenodd" clip-rule="evenodd" fill="#FFFFFF" cx="3.2" cy="3.1" r="1"/>
					</g>
				</g>
			</g>
		</g>
	</g>
</g>
</svg>
