<?xml version="1.0" encoding="utf-8"?>
<!-- Generator: Adobe Illustrator 24.1.0, SVG Export Plug-In . SVG Version: 6.00 Build 0)  -->
<svg version="1.1" id="Layer_1" xmlns="http://www.w3.org/2000/svg" xmlns:xlink="http://www.w3.org/1999/xlink" x="0px" y="0px"
	 viewBox="0 0 24 24" enable-background="new 0 0 24 24" xml:space="preserve">
<g>
	<path fill="#2C2C2C" d="M15,11H3c-0.6,0-1,0.4-1,1s0.4,1,1,1h12c0.6,0,1-0.4,1-1S15.6,11,15,11z"/>
	<path fill="#2C2C2C" d="M21,5H3C2.4,5,2,5.4,2,6s0.4,1,1,1h18c0.6,0,1-0.4,1-1S21.6,5,21,5z"/>
	<path fill="#2C2C2C" d="M9,17H3c-0.6,0-1,0.4-1,1s0.4,1,1,1h6c0.6,0,1-0.4,1-1S9.6,17,9,17z"/>
</g>
</svg>
