<?xml version="1.0" encoding="utf-8"?>
<!-- Generator: Adobe Illustrator 24.1.0, SVG Export Plug-In . SVG Version: 6.00 Build 0)  -->
<svg version="1.1" id="Layer_1" xmlns="http://www.w3.org/2000/svg" xmlns:xlink="http://www.w3.org/1999/xlink" x="0px" y="0px"
	 viewBox="0 0 24 24" enable-background="new 0 0 24 24" xml:space="preserve">
<g>
	<path fill="#2C2C2C" d="M18.1,3.1H5.9c-1.3,0-2.3,1-2.3,2.3v13.2c0,1.3,1,2.3,2.3,2.3h12.2c1.3,0,2.3-1,2.3-2.3V5.4
		C20.4,4.1,19.4,3.1,18.1,3.1z M18.6,18.6c0,0.3-0.2,0.5-0.5,0.5H5.9c-0.3,0-0.5-0.2-0.5-0.5V5.4c0-0.3,0.2-0.5,0.5-0.5h12.2
		c0.3,0,0.5,0.2,0.5,0.5V18.6z"/>
	<path fill="#2C2C2C" d="M16,11H8c-0.6,0-1,0.4-1,1s0.4,1,1,1h8c0.6,0,1-0.4,1-1S16.6,11,16,11z"/>
	<path fill="#2C2C2C" d="M16,15H8c-0.6,0-1,0.4-1,1s0.4,1,1,1h8c0.6,0,1-0.4,1-1S16.6,15,16,15z"/>
	<path fill="#2C2C2C" d="M8,9h3c0.6,0,1-0.4,1-1s-0.4-1-1-1H8C7.4,7,7,7.4,7,8S7.4,9,8,9z"/>
</g>
</svg>
