<svg xmlns="http://www.w3.org/2000/svg" xmlns:xlink="http://www.w3.org/1999/xlink" id="Layer_1" x="0" y="0" enable-background="new 0 0 24 24" version="1.1" viewBox="0 0 24 24" xml:space="preserve"><g><path fill="#2C2C2C" d="M13.8,22c-0.3,0-0.5-0.1-0.8-0.2c-0.5-0.3-0.7-0.9-1.4-2.8c-0.3-0.9-0.7-2-1.1-2.7c-0.2-0.5-0.2-1.1,0-1.6 l0.5-1.1L10,14.2c-0.5,0.2-1.1,0.2-1.6,0c-0.7-0.3-1.8-0.7-2.7-1.1c-1.9-0.7-2.5-0.9-2.8-1.4c-0.2-0.4-0.3-0.9-0.1-1.3 c0.3-0.7,1-1.1,1.4-1.2l14.7-5.6c0.7-0.3,1.4-0.1,1.9,0.3c0.5,0.5,0.6,1.2,0.3,1.9l-5.6,14.7c-0.2,0.4-0.5,1.1-1.2,1.4 C14.2,22,14,22,13.8,22z M12.4,15.5c0.4,0.8,0.8,1.9,1.1,2.8c0.1,0.3,0.2,0.7,0.4,1L19,5.7L5.4,10.9c0.3,0.1,0.7,0.2,1,0.4 c1,0.3,2,0.7,2.8,1.1l3.2-1.6c0.4-0.3,1-0.2,1.4,0.2c0.4,0.4,0.4,0.9,0.2,1.4L12.4,15.5z M9.2,12.4C9.2,12.4,9.2,12.4,9.2,12.4 L9.2,12.4z"/></g></svg>